%TF.GenerationSoftware,KiCad,Pcbnew,7.0.5-4d25ed1034~172~ubuntu22.04.1*%
%TF.CreationDate,2023-06-17T18:52:52+02:00*%
%TF.ProjectId,donttouchit,646f6e74-746f-4756-9368-69742e6b6963,rev?*%
%TF.SameCoordinates,Original*%
%TF.FileFunction,Profile,NP*%
%FSLAX46Y46*%
G04 Gerber Fmt 4.6, Leading zero omitted, Abs format (unit mm)*
G04 Created by KiCad (PCBNEW 7.0.5-4d25ed1034~172~ubuntu22.04.1) date 2023-06-17 18:52:52*
%MOMM*%
%LPD*%
G01*
G04 APERTURE LIST*
%TA.AperFunction,Profile*%
%ADD10C,0.100000*%
%TD*%
G04 APERTURE END LIST*
D10*
X152500000Y-80000000D02*
X152500000Y-74750000D01*
X134500000Y-85000000D02*
G75*
G03*
X132500000Y-85000000I-1000000J0D01*
G01*
X137000000Y-108250000D02*
X152500000Y-108250000D01*
X154500000Y-85000000D02*
G75*
G03*
X152500000Y-85000000I-1000000J0D01*
G01*
X154500000Y-74750000D02*
X170500000Y-74750000D01*
X125500000Y-90250000D02*
X132500000Y-90250000D01*
X152500000Y-92250000D02*
X147250000Y-92250000D01*
X134500000Y-85000000D02*
X134500000Y-90250000D01*
X132500000Y-74750000D02*
X125500000Y-74750000D01*
X147250000Y-90250000D02*
G75*
G03*
X147250000Y-92250000I0J-1000000D01*
G01*
X137000000Y-108250000D02*
X137000000Y-92250000D01*
X154500000Y-74750000D02*
X154500000Y-80000000D01*
X154500000Y-90250000D02*
X170500000Y-90250000D01*
X152500000Y-90250000D02*
X147250000Y-90250000D01*
X134500000Y-90250000D02*
X142250000Y-90250000D01*
X142250000Y-74750000D02*
G75*
G03*
X142250000Y-72750000I0J1000000D01*
G01*
X152500000Y-72750000D02*
X152500000Y-56750000D01*
X134500000Y-74750000D02*
X142250000Y-74750000D01*
X152500000Y-56750000D02*
X137000000Y-56750000D01*
X125500000Y-74750000D02*
X125500000Y-90250000D01*
X152500000Y-92250000D02*
X152500000Y-108250000D01*
X147250000Y-72750000D02*
G75*
G03*
X147250000Y-74750000I0J-1000000D01*
G01*
X170500000Y-74750000D02*
X170500000Y-90250000D01*
X132500000Y-80000000D02*
G75*
G03*
X134500000Y-80000000I1000000J0D01*
G01*
X134500000Y-74750000D02*
X134500000Y-80000000D01*
X132500000Y-74750000D02*
X132500000Y-80000000D01*
X132500000Y-85000000D02*
X132500000Y-90250000D01*
X152500000Y-74750000D02*
X147250000Y-74750000D01*
X142250000Y-92250000D02*
G75*
G03*
X142250000Y-90250000I0J1000000D01*
G01*
X152500000Y-80000000D02*
G75*
G03*
X154500000Y-80000000I1000000J0D01*
G01*
X142250000Y-92250000D02*
X137000000Y-92250000D01*
X154500000Y-85000000D02*
X154500000Y-90250000D01*
X142250000Y-72750000D02*
X137000000Y-72750000D01*
X152500000Y-90250000D02*
X152500000Y-85000000D01*
X147250000Y-72750000D02*
X152500000Y-72750000D01*
X137000000Y-72750000D02*
X137000000Y-56750000D01*
M02*
