M48
; DRILL file {KiCad 6.0.10-86aedd382b~118~ubuntu22.04.1} date Do 06 Apr 2023 19:24:00
; FORMAT={-:-/ absolute / metric / decimal}
; #@! TF.CreationDate,2023-04-06T19:24:00+02:00
; #@! TF.GenerationSoftware,Kicad,Pcbnew,6.0.10-86aedd382b~118~ubuntu22.04.1
; #@! TF.FileFunction,Plated,1,2,PTH
FMAT,2
METRIC
; #@! TA.AperFunction,Plated,PTH,ViaDrill
T1C0.300
; #@! TA.AperFunction,Plated,PTH,ComponentDrill
T2C0.300
; #@! TA.AperFunction,Plated,PTH,ComponentDrill
T3C0.700
%
G90
G05
T1
X137.5Y-80.25
X139.4Y-80.25
X141.0Y-80.5
X142.25Y-79.0
X142.25Y-82.5
X142.5Y-83.25
X143.5Y-87.25
T2
X142.8Y-79.8
X142.8Y-80.85
X142.8Y-81.9
X143.5Y-60.5
X143.5Y-104.5
X143.85Y-79.8
X143.85Y-80.85
X143.85Y-81.9
X144.9Y-79.8
X144.9Y-80.85
X144.9Y-81.9
X165.5Y-82.5
T3
X135.5Y-74.5
X135.5Y-90.5
X140.5Y-77.0
X141.0Y-69.5
X141.0Y-74.5
X141.0Y-90.5
X141.0Y-95.5
X143.0Y-77.0
X146.0Y-69.5
X146.0Y-74.5
X146.0Y-90.5
X146.0Y-95.5
X148.0Y-84.25
X151.5Y-74.5
X151.5Y-80.0
X151.5Y-85.0
X151.5Y-90.5
X156.5Y-80.0
X156.5Y-85.0
T0
M30
