M48
; DRILL file {KiCad 7.0.5-4d25ed1034~172~ubuntu22.04.1} date Sa 17 Jun 2023 18:52:47
; FORMAT={-:-/ absolute / metric / decimal}
; #@! TF.CreationDate,2023-06-17T18:52:47+02:00
; #@! TF.GenerationSoftware,Kicad,Pcbnew,7.0.5-4d25ed1034~172~ubuntu22.04.1
; #@! TF.FileFunction,Plated,1,2,PTH
FMAT,2
METRIC
; #@! TA.AperFunction,Plated,PTH,ViaDrill
T1C0.300
; #@! TA.AperFunction,Plated,PTH,ComponentDrill
T2C0.300
; #@! TA.AperFunction,Plated,PTH,ComponentDrill
T3C0.500
%
G90
G05
T1
X135.2Y-75.5
X135.2Y-89.5
X136.0Y-84.3
X136.7Y-80.3
X136.8Y-86.4
X138.6Y-80.3
X139.38Y-71.85
X140.4Y-87.5
X140.6Y-80.5
X141.4Y-77.6
X141.4Y-93.08
X142.25Y-80.83
X143.0Y-83.5
X143.1Y-82.7
X144.7Y-85.4
X144.713Y-87.787
X148.0Y-72.0
X150.24Y-93.17
X151.7Y-75.5
X151.7Y-89.5
X155.3Y-86.0
X155.4Y-77.13
T2
X144.012Y-80.337
X144.012Y-81.388
X144.012Y-82.438
X144.8Y-65.52
X144.8Y-99.53
X145.062Y-80.337
X145.062Y-81.388
X145.062Y-82.438
X146.112Y-80.337
X146.112Y-81.388
X146.112Y-82.438
X161.73Y-82.5
T3
X144.038Y-72.35
X144.038Y-75.45
X144.038Y-89.55
X144.038Y-92.7
X145.562Y-72.35
X145.562Y-75.45
X145.562Y-89.55
X145.562Y-92.7
X151.8Y-81.738
X151.8Y-83.262
X154.9Y-81.738
X154.9Y-83.262
T0
M30
