%TF.GenerationSoftware,KiCad,Pcbnew,7.0.5-4d25ed1034~172~ubuntu22.04.1*%
%TF.CreationDate,2023-06-17T18:52:52+02:00*%
%TF.ProjectId,donttouchit,646f6e74-746f-4756-9368-69742e6b6963,rev?*%
%TF.SameCoordinates,Original*%
%TF.FileFunction,Soldermask,Top*%
%TF.FilePolarity,Negative*%
%FSLAX46Y46*%
G04 Gerber Fmt 4.6, Leading zero omitted, Abs format (unit mm)*
G04 Created by KiCad (PCBNEW 7.0.5-4d25ed1034~172~ubuntu22.04.1) date 2023-06-17 18:52:52*
%MOMM*%
%LPD*%
G01*
G04 APERTURE LIST*
G04 Aperture macros list*
%AMRoundRect*
0 Rectangle with rounded corners*
0 $1 Rounding radius*
0 $2 $3 $4 $5 $6 $7 $8 $9 X,Y pos of 4 corners*
0 Add a 4 corners polygon primitive as box body*
4,1,4,$2,$3,$4,$5,$6,$7,$8,$9,$2,$3,0*
0 Add four circle primitives for the rounded corners*
1,1,$1+$1,$2,$3*
1,1,$1+$1,$4,$5*
1,1,$1+$1,$6,$7*
1,1,$1+$1,$8,$9*
0 Add four rect primitives between the rounded corners*
20,1,$1+$1,$2,$3,$4,$5,0*
20,1,$1+$1,$4,$5,$6,$7,0*
20,1,$1+$1,$6,$7,$8,$9,0*
20,1,$1+$1,$8,$9,$2,$3,0*%
G04 Aperture macros list end*
%ADD10RoundRect,0.062500X-0.375000X-0.062500X0.375000X-0.062500X0.375000X0.062500X-0.375000X0.062500X0*%
%ADD11RoundRect,0.062500X-0.062500X-0.375000X0.062500X-0.375000X0.062500X0.375000X-0.062500X0.375000X0*%
%ADD12R,2.600000X2.600000*%
%ADD13RoundRect,0.250000X0.500000X-0.250000X0.500000X0.250000X-0.500000X0.250000X-0.500000X-0.250000X0*%
%ADD14RoundRect,0.237500X-0.300000X-0.237500X0.300000X-0.237500X0.300000X0.237500X-0.300000X0.237500X0*%
%ADD15C,3.500000*%
%ADD16RoundRect,0.250000X0.250000X0.500000X-0.250000X0.500000X-0.250000X-0.500000X0.250000X-0.500000X0*%
%ADD17R,1.050000X0.950000*%
%ADD18RoundRect,0.237500X0.300000X0.237500X-0.300000X0.237500X-0.300000X-0.237500X0.300000X-0.237500X0*%
%ADD19RoundRect,0.250000X-0.250000X-0.500000X0.250000X-0.500000X0.250000X0.500000X-0.250000X0.500000X0*%
%ADD20RoundRect,0.237500X-0.237500X0.300000X-0.237500X-0.300000X0.237500X-0.300000X0.237500X0.300000X0*%
%ADD21RoundRect,0.237500X0.250000X0.237500X-0.250000X0.237500X-0.250000X-0.237500X0.250000X-0.237500X0*%
%ADD22R,0.700000X0.340000*%
%ADD23RoundRect,0.237500X0.237500X-0.300000X0.237500X0.300000X-0.237500X0.300000X-0.237500X-0.300000X0*%
G04 APERTURE END LIST*
D10*
%TO.C,U1*%
X143125000Y-80637500D03*
X143125000Y-81137500D03*
X143125000Y-81637500D03*
X143125000Y-82137500D03*
D11*
X144312500Y-83325000D03*
X144812500Y-83325000D03*
X145312500Y-83325000D03*
X145812500Y-83325000D03*
D10*
X147000000Y-82137500D03*
X147000000Y-81637500D03*
X147000000Y-81137500D03*
X147000000Y-80637500D03*
D11*
X145812500Y-79450000D03*
X145312500Y-79450000D03*
X144812500Y-79450000D03*
X144312500Y-79450000D03*
D12*
X145062500Y-81387500D03*
%TD*%
D13*
%TO.C,J8*%
X154900000Y-83262000D03*
X154900000Y-81738000D03*
%TD*%
D14*
%TO.C,C3*%
X140137500Y-71850000D03*
X141862500Y-71850000D03*
%TD*%
D15*
%TO.C,H3*%
X129000000Y-82500000D03*
%TD*%
D16*
%TO.C,J3*%
X145562000Y-75450000D03*
X144038000Y-75450000D03*
%TD*%
D15*
%TO.C,H2*%
X129000000Y-87750000D03*
%TD*%
D17*
%TO.C,XT1*%
X139537500Y-83512500D03*
X141387500Y-83512500D03*
X141387500Y-82062500D03*
X139537500Y-82062500D03*
%TD*%
D18*
%TO.C,C1*%
X149462500Y-93200000D03*
X147737500Y-93200000D03*
%TD*%
D19*
%TO.C,J1*%
X144038000Y-89550000D03*
X145562000Y-89550000D03*
%TD*%
D18*
%TO.C,C10*%
X142262500Y-76000000D03*
X140537500Y-76000000D03*
%TD*%
D13*
%TO.C,J2*%
X151800000Y-83262000D03*
X151800000Y-81738000D03*
%TD*%
D20*
%TO.C,C6*%
X151200000Y-85137500D03*
X151200000Y-86862500D03*
%TD*%
%TO.C,C2*%
X155400000Y-77877500D03*
X155400000Y-79602500D03*
%TD*%
D16*
%TO.C,J9*%
X145562000Y-72350000D03*
X144038000Y-72350000D03*
%TD*%
D18*
%TO.C,C4*%
X142262500Y-89200000D03*
X140537500Y-89200000D03*
%TD*%
D14*
%TO.C,C5*%
X147537500Y-89000000D03*
X149262500Y-89000000D03*
%TD*%
D21*
%TO.C,R2*%
X137712500Y-82100000D03*
X135887500Y-82100000D03*
%TD*%
D22*
%TO.C,U2*%
X137650000Y-86000000D03*
X137650000Y-86500000D03*
X137650000Y-87000000D03*
X139150000Y-87000000D03*
X139150000Y-86500000D03*
X139150000Y-86000000D03*
%TD*%
D14*
%TO.C,C8*%
X147437500Y-76000000D03*
X149162500Y-76000000D03*
%TD*%
D20*
%TO.C,C11*%
X145462500Y-84925000D03*
X145462500Y-86650000D03*
%TD*%
D14*
%TO.C,C9*%
X139600000Y-80287500D03*
X141325000Y-80287500D03*
%TD*%
D15*
%TO.C,H1*%
X129000000Y-77250000D03*
%TD*%
D20*
%TO.C,C13*%
X142300000Y-85837500D03*
X142300000Y-87562500D03*
%TD*%
D21*
%TO.C,R1*%
X137712500Y-80300000D03*
X135887500Y-80300000D03*
%TD*%
D23*
%TO.C,C7*%
X151200000Y-79962500D03*
X151200000Y-78237500D03*
%TD*%
D20*
%TO.C,C12*%
X143962500Y-84925000D03*
X143962500Y-86650000D03*
%TD*%
D19*
%TO.C,J7*%
X144038000Y-92700000D03*
X145562000Y-92700000D03*
%TD*%
M02*
