%TF.GenerationSoftware,KiCad,Pcbnew,7.0.5-4d25ed1034~172~ubuntu22.04.1*%
%TF.CreationDate,2023-06-17T19:19:04+02:00*%
%TF.ProjectId,donttouchit,646f6e74-746f-4756-9368-69742e6b6963,rev?*%
%TF.SameCoordinates,Original*%
%TF.FileFunction,Legend,Top*%
%TF.FilePolarity,Positive*%
%FSLAX46Y46*%
G04 Gerber Fmt 4.6, Leading zero omitted, Abs format (unit mm)*
G04 Created by KiCad (PCBNEW 7.0.5-4d25ed1034~172~ubuntu22.04.1) date 2023-06-17 19:19:04*
%MOMM*%
%LPD*%
G01*
G04 APERTURE LIST*
%ADD10C,0.150000*%
%ADD11C,0.120000*%
G04 APERTURE END LIST*
D10*
X140089160Y-61194295D02*
X140089160Y-60394295D01*
X140089160Y-60394295D02*
X140279636Y-60394295D01*
X140279636Y-60394295D02*
X140393922Y-60432390D01*
X140393922Y-60432390D02*
X140470112Y-60508580D01*
X140470112Y-60508580D02*
X140508207Y-60584771D01*
X140508207Y-60584771D02*
X140546303Y-60737152D01*
X140546303Y-60737152D02*
X140546303Y-60851438D01*
X140546303Y-60851438D02*
X140508207Y-61003819D01*
X140508207Y-61003819D02*
X140470112Y-61080009D01*
X140470112Y-61080009D02*
X140393922Y-61156200D01*
X140393922Y-61156200D02*
X140279636Y-61194295D01*
X140279636Y-61194295D02*
X140089160Y-61194295D01*
X141003445Y-61194295D02*
X140927255Y-61156200D01*
X140927255Y-61156200D02*
X140889160Y-61118104D01*
X140889160Y-61118104D02*
X140851064Y-61041914D01*
X140851064Y-61041914D02*
X140851064Y-60813342D01*
X140851064Y-60813342D02*
X140889160Y-60737152D01*
X140889160Y-60737152D02*
X140927255Y-60699057D01*
X140927255Y-60699057D02*
X141003445Y-60660961D01*
X141003445Y-60660961D02*
X141117731Y-60660961D01*
X141117731Y-60660961D02*
X141193922Y-60699057D01*
X141193922Y-60699057D02*
X141232017Y-60737152D01*
X141232017Y-60737152D02*
X141270112Y-60813342D01*
X141270112Y-60813342D02*
X141270112Y-61041914D01*
X141270112Y-61041914D02*
X141232017Y-61118104D01*
X141232017Y-61118104D02*
X141193922Y-61156200D01*
X141193922Y-61156200D02*
X141117731Y-61194295D01*
X141117731Y-61194295D02*
X141003445Y-61194295D01*
X141612970Y-60660961D02*
X141612970Y-61194295D01*
X141612970Y-60737152D02*
X141651065Y-60699057D01*
X141651065Y-60699057D02*
X141727255Y-60660961D01*
X141727255Y-60660961D02*
X141841541Y-60660961D01*
X141841541Y-60660961D02*
X141917732Y-60699057D01*
X141917732Y-60699057D02*
X141955827Y-60775247D01*
X141955827Y-60775247D02*
X141955827Y-61194295D01*
X142222494Y-60660961D02*
X142527256Y-60660961D01*
X142336780Y-60394295D02*
X142336780Y-61080009D01*
X142336780Y-61080009D02*
X142374875Y-61156200D01*
X142374875Y-61156200D02*
X142451065Y-61194295D01*
X142451065Y-61194295D02*
X142527256Y-61194295D01*
X142679637Y-60394295D02*
X143136780Y-60394295D01*
X142908208Y-61194295D02*
X142908208Y-60394295D01*
X143517732Y-61194295D02*
X143441542Y-61156200D01*
X143441542Y-61156200D02*
X143403447Y-61118104D01*
X143403447Y-61118104D02*
X143365351Y-61041914D01*
X143365351Y-61041914D02*
X143365351Y-60813342D01*
X143365351Y-60813342D02*
X143403447Y-60737152D01*
X143403447Y-60737152D02*
X143441542Y-60699057D01*
X143441542Y-60699057D02*
X143517732Y-60660961D01*
X143517732Y-60660961D02*
X143632018Y-60660961D01*
X143632018Y-60660961D02*
X143708209Y-60699057D01*
X143708209Y-60699057D02*
X143746304Y-60737152D01*
X143746304Y-60737152D02*
X143784399Y-60813342D01*
X143784399Y-60813342D02*
X143784399Y-61041914D01*
X143784399Y-61041914D02*
X143746304Y-61118104D01*
X143746304Y-61118104D02*
X143708209Y-61156200D01*
X143708209Y-61156200D02*
X143632018Y-61194295D01*
X143632018Y-61194295D02*
X143517732Y-61194295D01*
X144470114Y-60660961D02*
X144470114Y-61194295D01*
X144127257Y-60660961D02*
X144127257Y-61080009D01*
X144127257Y-61080009D02*
X144165352Y-61156200D01*
X144165352Y-61156200D02*
X144241542Y-61194295D01*
X144241542Y-61194295D02*
X144355828Y-61194295D01*
X144355828Y-61194295D02*
X144432019Y-61156200D01*
X144432019Y-61156200D02*
X144470114Y-61118104D01*
X145193924Y-61156200D02*
X145117733Y-61194295D01*
X145117733Y-61194295D02*
X144965352Y-61194295D01*
X144965352Y-61194295D02*
X144889162Y-61156200D01*
X144889162Y-61156200D02*
X144851067Y-61118104D01*
X144851067Y-61118104D02*
X144812971Y-61041914D01*
X144812971Y-61041914D02*
X144812971Y-60813342D01*
X144812971Y-60813342D02*
X144851067Y-60737152D01*
X144851067Y-60737152D02*
X144889162Y-60699057D01*
X144889162Y-60699057D02*
X144965352Y-60660961D01*
X144965352Y-60660961D02*
X145117733Y-60660961D01*
X145117733Y-60660961D02*
X145193924Y-60699057D01*
X145536781Y-61194295D02*
X145536781Y-60394295D01*
X145879638Y-61194295D02*
X145879638Y-60775247D01*
X145879638Y-60775247D02*
X145841543Y-60699057D01*
X145841543Y-60699057D02*
X145765352Y-60660961D01*
X145765352Y-60660961D02*
X145651066Y-60660961D01*
X145651066Y-60660961D02*
X145574876Y-60699057D01*
X145574876Y-60699057D02*
X145536781Y-60737152D01*
X146260591Y-61194295D02*
X146260591Y-60394295D01*
X146527257Y-60660961D02*
X146832019Y-60660961D01*
X146641543Y-60394295D02*
X146641543Y-61080009D01*
X146641543Y-61080009D02*
X146679638Y-61156200D01*
X146679638Y-61156200D02*
X146755828Y-61194295D01*
X146755828Y-61194295D02*
X146832019Y-61194295D01*
X148894295Y-85925125D02*
X149694295Y-85658458D01*
X149694295Y-85658458D02*
X148894295Y-85391792D01*
X149694295Y-84706078D02*
X149694295Y-85163221D01*
X149694295Y-84934649D02*
X148894295Y-84934649D01*
X148894295Y-84934649D02*
X149008580Y-85010840D01*
X149008580Y-85010840D02*
X149084771Y-85087030D01*
X149084771Y-85087030D02*
X149122866Y-85163221D01*
X149618104Y-84363220D02*
X149656200Y-84325125D01*
X149656200Y-84325125D02*
X149694295Y-84363220D01*
X149694295Y-84363220D02*
X149656200Y-84401316D01*
X149656200Y-84401316D02*
X149618104Y-84363220D01*
X149618104Y-84363220D02*
X149694295Y-84363220D01*
X149694295Y-83563221D02*
X149694295Y-84020364D01*
X149694295Y-83791792D02*
X148894295Y-83791792D01*
X148894295Y-83791792D02*
X149008580Y-83867983D01*
X149008580Y-83867983D02*
X149084771Y-83944173D01*
X149084771Y-83944173D02*
X149122866Y-84020364D01*
X147010839Y-103805704D02*
X147010839Y-104605704D01*
X147010839Y-104605704D02*
X146820363Y-104605704D01*
X146820363Y-104605704D02*
X146706077Y-104567609D01*
X146706077Y-104567609D02*
X146629887Y-104491419D01*
X146629887Y-104491419D02*
X146591792Y-104415228D01*
X146591792Y-104415228D02*
X146553696Y-104262847D01*
X146553696Y-104262847D02*
X146553696Y-104148561D01*
X146553696Y-104148561D02*
X146591792Y-103996180D01*
X146591792Y-103996180D02*
X146629887Y-103919990D01*
X146629887Y-103919990D02*
X146706077Y-103843800D01*
X146706077Y-103843800D02*
X146820363Y-103805704D01*
X146820363Y-103805704D02*
X147010839Y-103805704D01*
X146096554Y-103805704D02*
X146172744Y-103843800D01*
X146172744Y-103843800D02*
X146210839Y-103881895D01*
X146210839Y-103881895D02*
X146248935Y-103958085D01*
X146248935Y-103958085D02*
X146248935Y-104186657D01*
X146248935Y-104186657D02*
X146210839Y-104262847D01*
X146210839Y-104262847D02*
X146172744Y-104300942D01*
X146172744Y-104300942D02*
X146096554Y-104339038D01*
X146096554Y-104339038D02*
X145982268Y-104339038D01*
X145982268Y-104339038D02*
X145906077Y-104300942D01*
X145906077Y-104300942D02*
X145867982Y-104262847D01*
X145867982Y-104262847D02*
X145829887Y-104186657D01*
X145829887Y-104186657D02*
X145829887Y-103958085D01*
X145829887Y-103958085D02*
X145867982Y-103881895D01*
X145867982Y-103881895D02*
X145906077Y-103843800D01*
X145906077Y-103843800D02*
X145982268Y-103805704D01*
X145982268Y-103805704D02*
X146096554Y-103805704D01*
X145487029Y-104339038D02*
X145487029Y-103805704D01*
X145487029Y-104262847D02*
X145448934Y-104300942D01*
X145448934Y-104300942D02*
X145372744Y-104339038D01*
X145372744Y-104339038D02*
X145258458Y-104339038D01*
X145258458Y-104339038D02*
X145182267Y-104300942D01*
X145182267Y-104300942D02*
X145144172Y-104224752D01*
X145144172Y-104224752D02*
X145144172Y-103805704D01*
X144877505Y-104339038D02*
X144572743Y-104339038D01*
X144763219Y-104605704D02*
X144763219Y-103919990D01*
X144763219Y-103919990D02*
X144725124Y-103843800D01*
X144725124Y-103843800D02*
X144648934Y-103805704D01*
X144648934Y-103805704D02*
X144572743Y-103805704D01*
X144420362Y-104605704D02*
X143963219Y-104605704D01*
X144191791Y-103805704D02*
X144191791Y-104605704D01*
X143582267Y-103805704D02*
X143658457Y-103843800D01*
X143658457Y-103843800D02*
X143696552Y-103881895D01*
X143696552Y-103881895D02*
X143734648Y-103958085D01*
X143734648Y-103958085D02*
X143734648Y-104186657D01*
X143734648Y-104186657D02*
X143696552Y-104262847D01*
X143696552Y-104262847D02*
X143658457Y-104300942D01*
X143658457Y-104300942D02*
X143582267Y-104339038D01*
X143582267Y-104339038D02*
X143467981Y-104339038D01*
X143467981Y-104339038D02*
X143391790Y-104300942D01*
X143391790Y-104300942D02*
X143353695Y-104262847D01*
X143353695Y-104262847D02*
X143315600Y-104186657D01*
X143315600Y-104186657D02*
X143315600Y-103958085D01*
X143315600Y-103958085D02*
X143353695Y-103881895D01*
X143353695Y-103881895D02*
X143391790Y-103843800D01*
X143391790Y-103843800D02*
X143467981Y-103805704D01*
X143467981Y-103805704D02*
X143582267Y-103805704D01*
X142629885Y-104339038D02*
X142629885Y-103805704D01*
X142972742Y-104339038D02*
X142972742Y-103919990D01*
X142972742Y-103919990D02*
X142934647Y-103843800D01*
X142934647Y-103843800D02*
X142858457Y-103805704D01*
X142858457Y-103805704D02*
X142744171Y-103805704D01*
X142744171Y-103805704D02*
X142667980Y-103843800D01*
X142667980Y-103843800D02*
X142629885Y-103881895D01*
X141906075Y-103843800D02*
X141982266Y-103805704D01*
X141982266Y-103805704D02*
X142134647Y-103805704D01*
X142134647Y-103805704D02*
X142210837Y-103843800D01*
X142210837Y-103843800D02*
X142248932Y-103881895D01*
X142248932Y-103881895D02*
X142287028Y-103958085D01*
X142287028Y-103958085D02*
X142287028Y-104186657D01*
X142287028Y-104186657D02*
X142248932Y-104262847D01*
X142248932Y-104262847D02*
X142210837Y-104300942D01*
X142210837Y-104300942D02*
X142134647Y-104339038D01*
X142134647Y-104339038D02*
X141982266Y-104339038D01*
X141982266Y-104339038D02*
X141906075Y-104300942D01*
X141563218Y-103805704D02*
X141563218Y-104605704D01*
X141220361Y-103805704D02*
X141220361Y-104224752D01*
X141220361Y-104224752D02*
X141258456Y-104300942D01*
X141258456Y-104300942D02*
X141334647Y-104339038D01*
X141334647Y-104339038D02*
X141448933Y-104339038D01*
X141448933Y-104339038D02*
X141525123Y-104300942D01*
X141525123Y-104300942D02*
X141563218Y-104262847D01*
X140839408Y-103805704D02*
X140839408Y-104605704D01*
X140572742Y-104339038D02*
X140267980Y-104339038D01*
X140458456Y-104605704D02*
X140458456Y-103919990D01*
X140458456Y-103919990D02*
X140420361Y-103843800D01*
X140420361Y-103843800D02*
X140344171Y-103805704D01*
X140344171Y-103805704D02*
X140267980Y-103805704D01*
X164805704Y-78989160D02*
X165605704Y-78989160D01*
X165605704Y-78989160D02*
X165605704Y-79179636D01*
X165605704Y-79179636D02*
X165567609Y-79293922D01*
X165567609Y-79293922D02*
X165491419Y-79370112D01*
X165491419Y-79370112D02*
X165415228Y-79408207D01*
X165415228Y-79408207D02*
X165262847Y-79446303D01*
X165262847Y-79446303D02*
X165148561Y-79446303D01*
X165148561Y-79446303D02*
X164996180Y-79408207D01*
X164996180Y-79408207D02*
X164919990Y-79370112D01*
X164919990Y-79370112D02*
X164843800Y-79293922D01*
X164843800Y-79293922D02*
X164805704Y-79179636D01*
X164805704Y-79179636D02*
X164805704Y-78989160D01*
X164805704Y-79903445D02*
X164843800Y-79827255D01*
X164843800Y-79827255D02*
X164881895Y-79789160D01*
X164881895Y-79789160D02*
X164958085Y-79751064D01*
X164958085Y-79751064D02*
X165186657Y-79751064D01*
X165186657Y-79751064D02*
X165262847Y-79789160D01*
X165262847Y-79789160D02*
X165300942Y-79827255D01*
X165300942Y-79827255D02*
X165339038Y-79903445D01*
X165339038Y-79903445D02*
X165339038Y-80017731D01*
X165339038Y-80017731D02*
X165300942Y-80093922D01*
X165300942Y-80093922D02*
X165262847Y-80132017D01*
X165262847Y-80132017D02*
X165186657Y-80170112D01*
X165186657Y-80170112D02*
X164958085Y-80170112D01*
X164958085Y-80170112D02*
X164881895Y-80132017D01*
X164881895Y-80132017D02*
X164843800Y-80093922D01*
X164843800Y-80093922D02*
X164805704Y-80017731D01*
X164805704Y-80017731D02*
X164805704Y-79903445D01*
X165339038Y-80512970D02*
X164805704Y-80512970D01*
X165262847Y-80512970D02*
X165300942Y-80551065D01*
X165300942Y-80551065D02*
X165339038Y-80627255D01*
X165339038Y-80627255D02*
X165339038Y-80741541D01*
X165339038Y-80741541D02*
X165300942Y-80817732D01*
X165300942Y-80817732D02*
X165224752Y-80855827D01*
X165224752Y-80855827D02*
X164805704Y-80855827D01*
X165339038Y-81122494D02*
X165339038Y-81427256D01*
X165605704Y-81236780D02*
X164919990Y-81236780D01*
X164919990Y-81236780D02*
X164843800Y-81274875D01*
X164843800Y-81274875D02*
X164805704Y-81351065D01*
X164805704Y-81351065D02*
X164805704Y-81427256D01*
X165605704Y-81579637D02*
X165605704Y-82036780D01*
X164805704Y-81808208D02*
X165605704Y-81808208D01*
X164805704Y-82417732D02*
X164843800Y-82341542D01*
X164843800Y-82341542D02*
X164881895Y-82303447D01*
X164881895Y-82303447D02*
X164958085Y-82265351D01*
X164958085Y-82265351D02*
X165186657Y-82265351D01*
X165186657Y-82265351D02*
X165262847Y-82303447D01*
X165262847Y-82303447D02*
X165300942Y-82341542D01*
X165300942Y-82341542D02*
X165339038Y-82417732D01*
X165339038Y-82417732D02*
X165339038Y-82532018D01*
X165339038Y-82532018D02*
X165300942Y-82608209D01*
X165300942Y-82608209D02*
X165262847Y-82646304D01*
X165262847Y-82646304D02*
X165186657Y-82684399D01*
X165186657Y-82684399D02*
X164958085Y-82684399D01*
X164958085Y-82684399D02*
X164881895Y-82646304D01*
X164881895Y-82646304D02*
X164843800Y-82608209D01*
X164843800Y-82608209D02*
X164805704Y-82532018D01*
X164805704Y-82532018D02*
X164805704Y-82417732D01*
X165339038Y-83370114D02*
X164805704Y-83370114D01*
X165339038Y-83027257D02*
X164919990Y-83027257D01*
X164919990Y-83027257D02*
X164843800Y-83065352D01*
X164843800Y-83065352D02*
X164805704Y-83141542D01*
X164805704Y-83141542D02*
X164805704Y-83255828D01*
X164805704Y-83255828D02*
X164843800Y-83332019D01*
X164843800Y-83332019D02*
X164881895Y-83370114D01*
X164843800Y-84093924D02*
X164805704Y-84017733D01*
X164805704Y-84017733D02*
X164805704Y-83865352D01*
X164805704Y-83865352D02*
X164843800Y-83789162D01*
X164843800Y-83789162D02*
X164881895Y-83751067D01*
X164881895Y-83751067D02*
X164958085Y-83712971D01*
X164958085Y-83712971D02*
X165186657Y-83712971D01*
X165186657Y-83712971D02*
X165262847Y-83751067D01*
X165262847Y-83751067D02*
X165300942Y-83789162D01*
X165300942Y-83789162D02*
X165339038Y-83865352D01*
X165339038Y-83865352D02*
X165339038Y-84017733D01*
X165339038Y-84017733D02*
X165300942Y-84093924D01*
X164805704Y-84436781D02*
X165605704Y-84436781D01*
X164805704Y-84779638D02*
X165224752Y-84779638D01*
X165224752Y-84779638D02*
X165300942Y-84741543D01*
X165300942Y-84741543D02*
X165339038Y-84665352D01*
X165339038Y-84665352D02*
X165339038Y-84551066D01*
X165339038Y-84551066D02*
X165300942Y-84474876D01*
X165300942Y-84474876D02*
X165262847Y-84436781D01*
X164805704Y-85160591D02*
X165605704Y-85160591D01*
X165339038Y-85427257D02*
X165339038Y-85732019D01*
X165605704Y-85541543D02*
X164919990Y-85541543D01*
X164919990Y-85541543D02*
X164843800Y-85579638D01*
X164843800Y-85579638D02*
X164805704Y-85655828D01*
X164805704Y-85655828D02*
X164805704Y-85732019D01*
X148594295Y-85910839D02*
X147794295Y-85910839D01*
X147794295Y-85910839D02*
X147794295Y-85720363D01*
X147794295Y-85720363D02*
X147832390Y-85606077D01*
X147832390Y-85606077D02*
X147908580Y-85529887D01*
X147908580Y-85529887D02*
X147984771Y-85491792D01*
X147984771Y-85491792D02*
X148137152Y-85453696D01*
X148137152Y-85453696D02*
X148251438Y-85453696D01*
X148251438Y-85453696D02*
X148403819Y-85491792D01*
X148403819Y-85491792D02*
X148480009Y-85529887D01*
X148480009Y-85529887D02*
X148556200Y-85606077D01*
X148556200Y-85606077D02*
X148594295Y-85720363D01*
X148594295Y-85720363D02*
X148594295Y-85910839D01*
X148594295Y-84996554D02*
X148556200Y-85072744D01*
X148556200Y-85072744D02*
X148518104Y-85110839D01*
X148518104Y-85110839D02*
X148441914Y-85148935D01*
X148441914Y-85148935D02*
X148213342Y-85148935D01*
X148213342Y-85148935D02*
X148137152Y-85110839D01*
X148137152Y-85110839D02*
X148099057Y-85072744D01*
X148099057Y-85072744D02*
X148060961Y-84996554D01*
X148060961Y-84996554D02*
X148060961Y-84882268D01*
X148060961Y-84882268D02*
X148099057Y-84806077D01*
X148099057Y-84806077D02*
X148137152Y-84767982D01*
X148137152Y-84767982D02*
X148213342Y-84729887D01*
X148213342Y-84729887D02*
X148441914Y-84729887D01*
X148441914Y-84729887D02*
X148518104Y-84767982D01*
X148518104Y-84767982D02*
X148556200Y-84806077D01*
X148556200Y-84806077D02*
X148594295Y-84882268D01*
X148594295Y-84882268D02*
X148594295Y-84996554D01*
X148060961Y-84387029D02*
X148594295Y-84387029D01*
X148137152Y-84387029D02*
X148099057Y-84348934D01*
X148099057Y-84348934D02*
X148060961Y-84272744D01*
X148060961Y-84272744D02*
X148060961Y-84158458D01*
X148060961Y-84158458D02*
X148099057Y-84082267D01*
X148099057Y-84082267D02*
X148175247Y-84044172D01*
X148175247Y-84044172D02*
X148594295Y-84044172D01*
X148060961Y-83777505D02*
X148060961Y-83472743D01*
X147794295Y-83663219D02*
X148480009Y-83663219D01*
X148480009Y-83663219D02*
X148556200Y-83625124D01*
X148556200Y-83625124D02*
X148594295Y-83548934D01*
X148594295Y-83548934D02*
X148594295Y-83472743D01*
X147794295Y-83320362D02*
X147794295Y-82863219D01*
X148594295Y-83091791D02*
X147794295Y-83091791D01*
X148594295Y-82482267D02*
X148556200Y-82558457D01*
X148556200Y-82558457D02*
X148518104Y-82596552D01*
X148518104Y-82596552D02*
X148441914Y-82634648D01*
X148441914Y-82634648D02*
X148213342Y-82634648D01*
X148213342Y-82634648D02*
X148137152Y-82596552D01*
X148137152Y-82596552D02*
X148099057Y-82558457D01*
X148099057Y-82558457D02*
X148060961Y-82482267D01*
X148060961Y-82482267D02*
X148060961Y-82367981D01*
X148060961Y-82367981D02*
X148099057Y-82291790D01*
X148099057Y-82291790D02*
X148137152Y-82253695D01*
X148137152Y-82253695D02*
X148213342Y-82215600D01*
X148213342Y-82215600D02*
X148441914Y-82215600D01*
X148441914Y-82215600D02*
X148518104Y-82253695D01*
X148518104Y-82253695D02*
X148556200Y-82291790D01*
X148556200Y-82291790D02*
X148594295Y-82367981D01*
X148594295Y-82367981D02*
X148594295Y-82482267D01*
X148060961Y-81529885D02*
X148594295Y-81529885D01*
X148060961Y-81872742D02*
X148480009Y-81872742D01*
X148480009Y-81872742D02*
X148556200Y-81834647D01*
X148556200Y-81834647D02*
X148594295Y-81758457D01*
X148594295Y-81758457D02*
X148594295Y-81644171D01*
X148594295Y-81644171D02*
X148556200Y-81567980D01*
X148556200Y-81567980D02*
X148518104Y-81529885D01*
X148556200Y-80806075D02*
X148594295Y-80882266D01*
X148594295Y-80882266D02*
X148594295Y-81034647D01*
X148594295Y-81034647D02*
X148556200Y-81110837D01*
X148556200Y-81110837D02*
X148518104Y-81148932D01*
X148518104Y-81148932D02*
X148441914Y-81187028D01*
X148441914Y-81187028D02*
X148213342Y-81187028D01*
X148213342Y-81187028D02*
X148137152Y-81148932D01*
X148137152Y-81148932D02*
X148099057Y-81110837D01*
X148099057Y-81110837D02*
X148060961Y-81034647D01*
X148060961Y-81034647D02*
X148060961Y-80882266D01*
X148060961Y-80882266D02*
X148099057Y-80806075D01*
X148594295Y-80463218D02*
X147794295Y-80463218D01*
X148594295Y-80120361D02*
X148175247Y-80120361D01*
X148175247Y-80120361D02*
X148099057Y-80158456D01*
X148099057Y-80158456D02*
X148060961Y-80234647D01*
X148060961Y-80234647D02*
X148060961Y-80348933D01*
X148060961Y-80348933D02*
X148099057Y-80425123D01*
X148099057Y-80425123D02*
X148137152Y-80463218D01*
X148594295Y-79739408D02*
X147794295Y-79739408D01*
X148060961Y-79472742D02*
X148060961Y-79167980D01*
X147794295Y-79358456D02*
X148480009Y-79358456D01*
X148480009Y-79358456D02*
X148556200Y-79320361D01*
X148556200Y-79320361D02*
X148594295Y-79244171D01*
X148594295Y-79244171D02*
X148594295Y-79167980D01*
%TO.C,U1*%
X144362295Y-78609523D02*
X145009914Y-78609523D01*
X145009914Y-78609523D02*
X145086104Y-78571428D01*
X145086104Y-78571428D02*
X145124200Y-78533333D01*
X145124200Y-78533333D02*
X145162295Y-78457142D01*
X145162295Y-78457142D02*
X145162295Y-78304761D01*
X145162295Y-78304761D02*
X145124200Y-78228571D01*
X145124200Y-78228571D02*
X145086104Y-78190476D01*
X145086104Y-78190476D02*
X145009914Y-78152380D01*
X145009914Y-78152380D02*
X144362295Y-78152380D01*
X145162295Y-77352381D02*
X145162295Y-77809524D01*
X145162295Y-77580952D02*
X144362295Y-77580952D01*
X144362295Y-77580952D02*
X144476580Y-77657143D01*
X144476580Y-77657143D02*
X144552771Y-77733333D01*
X144552771Y-77733333D02*
X144590866Y-77809524D01*
%TO.C,C3*%
X143220400Y-68206104D02*
X143182304Y-68244200D01*
X143182304Y-68244200D02*
X143068019Y-68282295D01*
X143068019Y-68282295D02*
X142991828Y-68282295D01*
X142991828Y-68282295D02*
X142877542Y-68244200D01*
X142877542Y-68244200D02*
X142801352Y-68168009D01*
X142801352Y-68168009D02*
X142763257Y-68091819D01*
X142763257Y-68091819D02*
X142725161Y-67939438D01*
X142725161Y-67939438D02*
X142725161Y-67825152D01*
X142725161Y-67825152D02*
X142763257Y-67672771D01*
X142763257Y-67672771D02*
X142801352Y-67596580D01*
X142801352Y-67596580D02*
X142877542Y-67520390D01*
X142877542Y-67520390D02*
X142991828Y-67482295D01*
X142991828Y-67482295D02*
X143068019Y-67482295D01*
X143068019Y-67482295D02*
X143182304Y-67520390D01*
X143182304Y-67520390D02*
X143220400Y-67558485D01*
X143487066Y-67482295D02*
X143982304Y-67482295D01*
X143982304Y-67482295D02*
X143715638Y-67787057D01*
X143715638Y-67787057D02*
X143829923Y-67787057D01*
X143829923Y-67787057D02*
X143906114Y-67825152D01*
X143906114Y-67825152D02*
X143944209Y-67863247D01*
X143944209Y-67863247D02*
X143982304Y-67939438D01*
X143982304Y-67939438D02*
X143982304Y-68129914D01*
X143982304Y-68129914D02*
X143944209Y-68206104D01*
X143944209Y-68206104D02*
X143906114Y-68244200D01*
X143906114Y-68244200D02*
X143829923Y-68282295D01*
X143829923Y-68282295D02*
X143601352Y-68282295D01*
X143601352Y-68282295D02*
X143525161Y-68244200D01*
X143525161Y-68244200D02*
X143487066Y-68206104D01*
%TO.C,J3*%
X143766666Y-73037704D02*
X143766666Y-72466276D01*
X143766666Y-72466276D02*
X143804761Y-72351990D01*
X143804761Y-72351990D02*
X143880952Y-72275800D01*
X143880952Y-72275800D02*
X143995237Y-72237704D01*
X143995237Y-72237704D02*
X144071428Y-72237704D01*
X143461904Y-73037704D02*
X142966666Y-73037704D01*
X142966666Y-73037704D02*
X143233332Y-72732942D01*
X143233332Y-72732942D02*
X143119047Y-72732942D01*
X143119047Y-72732942D02*
X143042856Y-72694847D01*
X143042856Y-72694847D02*
X143004761Y-72656752D01*
X143004761Y-72656752D02*
X142966666Y-72580561D01*
X142966666Y-72580561D02*
X142966666Y-72390085D01*
X142966666Y-72390085D02*
X143004761Y-72313895D01*
X143004761Y-72313895D02*
X143042856Y-72275800D01*
X143042856Y-72275800D02*
X143119047Y-72237704D01*
X143119047Y-72237704D02*
X143347618Y-72237704D01*
X143347618Y-72237704D02*
X143423809Y-72275800D01*
X143423809Y-72275800D02*
X143461904Y-72313895D01*
%TO.C,XT1*%
X136847618Y-84362295D02*
X137380952Y-85162295D01*
X137380952Y-84362295D02*
X136847618Y-85162295D01*
X137571428Y-84362295D02*
X138028571Y-84362295D01*
X137799999Y-85162295D02*
X137799999Y-84362295D01*
X138714285Y-85162295D02*
X138257142Y-85162295D01*
X138485714Y-85162295D02*
X138485714Y-84362295D01*
X138485714Y-84362295D02*
X138409523Y-84476580D01*
X138409523Y-84476580D02*
X138333333Y-84552771D01*
X138333333Y-84552771D02*
X138257142Y-84590866D01*
%TO.C,C1*%
X143366667Y-97366104D02*
X143328571Y-97404200D01*
X143328571Y-97404200D02*
X143214286Y-97442295D01*
X143214286Y-97442295D02*
X143138095Y-97442295D01*
X143138095Y-97442295D02*
X143023809Y-97404200D01*
X143023809Y-97404200D02*
X142947619Y-97328009D01*
X142947619Y-97328009D02*
X142909524Y-97251819D01*
X142909524Y-97251819D02*
X142871428Y-97099438D01*
X142871428Y-97099438D02*
X142871428Y-96985152D01*
X142871428Y-96985152D02*
X142909524Y-96832771D01*
X142909524Y-96832771D02*
X142947619Y-96756580D01*
X142947619Y-96756580D02*
X143023809Y-96680390D01*
X143023809Y-96680390D02*
X143138095Y-96642295D01*
X143138095Y-96642295D02*
X143214286Y-96642295D01*
X143214286Y-96642295D02*
X143328571Y-96680390D01*
X143328571Y-96680390D02*
X143366667Y-96718485D01*
X144128571Y-97442295D02*
X143671428Y-97442295D01*
X143900000Y-97442295D02*
X143900000Y-96642295D01*
X143900000Y-96642295D02*
X143823809Y-96756580D01*
X143823809Y-96756580D02*
X143747619Y-96832771D01*
X143747619Y-96832771D02*
X143671428Y-96870866D01*
%TO.C,J1*%
X143233333Y-91862295D02*
X143233333Y-92433723D01*
X143233333Y-92433723D02*
X143195238Y-92548009D01*
X143195238Y-92548009D02*
X143119047Y-92624200D01*
X143119047Y-92624200D02*
X143004762Y-92662295D01*
X143004762Y-92662295D02*
X142928571Y-92662295D01*
X144033333Y-92662295D02*
X143576190Y-92662295D01*
X143804762Y-92662295D02*
X143804762Y-91862295D01*
X143804762Y-91862295D02*
X143728571Y-91976580D01*
X143728571Y-91976580D02*
X143652381Y-92052771D01*
X143652381Y-92052771D02*
X143576190Y-92090866D01*
%TO.C,C10*%
X135685714Y-77386104D02*
X135647618Y-77424200D01*
X135647618Y-77424200D02*
X135533333Y-77462295D01*
X135533333Y-77462295D02*
X135457142Y-77462295D01*
X135457142Y-77462295D02*
X135342856Y-77424200D01*
X135342856Y-77424200D02*
X135266666Y-77348009D01*
X135266666Y-77348009D02*
X135228571Y-77271819D01*
X135228571Y-77271819D02*
X135190475Y-77119438D01*
X135190475Y-77119438D02*
X135190475Y-77005152D01*
X135190475Y-77005152D02*
X135228571Y-76852771D01*
X135228571Y-76852771D02*
X135266666Y-76776580D01*
X135266666Y-76776580D02*
X135342856Y-76700390D01*
X135342856Y-76700390D02*
X135457142Y-76662295D01*
X135457142Y-76662295D02*
X135533333Y-76662295D01*
X135533333Y-76662295D02*
X135647618Y-76700390D01*
X135647618Y-76700390D02*
X135685714Y-76738485D01*
X136447618Y-77462295D02*
X135990475Y-77462295D01*
X136219047Y-77462295D02*
X136219047Y-76662295D01*
X136219047Y-76662295D02*
X136142856Y-76776580D01*
X136142856Y-76776580D02*
X136066666Y-76852771D01*
X136066666Y-76852771D02*
X135990475Y-76890866D01*
X136942857Y-76662295D02*
X137019047Y-76662295D01*
X137019047Y-76662295D02*
X137095238Y-76700390D01*
X137095238Y-76700390D02*
X137133333Y-76738485D01*
X137133333Y-76738485D02*
X137171428Y-76814676D01*
X137171428Y-76814676D02*
X137209523Y-76967057D01*
X137209523Y-76967057D02*
X137209523Y-77157533D01*
X137209523Y-77157533D02*
X137171428Y-77309914D01*
X137171428Y-77309914D02*
X137133333Y-77386104D01*
X137133333Y-77386104D02*
X137095238Y-77424200D01*
X137095238Y-77424200D02*
X137019047Y-77462295D01*
X137019047Y-77462295D02*
X136942857Y-77462295D01*
X136942857Y-77462295D02*
X136866666Y-77424200D01*
X136866666Y-77424200D02*
X136828571Y-77386104D01*
X136828571Y-77386104D02*
X136790476Y-77309914D01*
X136790476Y-77309914D02*
X136752380Y-77157533D01*
X136752380Y-77157533D02*
X136752380Y-76967057D01*
X136752380Y-76967057D02*
X136790476Y-76814676D01*
X136790476Y-76814676D02*
X136828571Y-76738485D01*
X136828571Y-76738485D02*
X136866666Y-76700390D01*
X136866666Y-76700390D02*
X136942857Y-76662295D01*
%TO.C,J2*%
X152862295Y-82766666D02*
X153433723Y-82766666D01*
X153433723Y-82766666D02*
X153548009Y-82804761D01*
X153548009Y-82804761D02*
X153624200Y-82880952D01*
X153624200Y-82880952D02*
X153662295Y-82995237D01*
X153662295Y-82995237D02*
X153662295Y-83071428D01*
X152938485Y-82423809D02*
X152900390Y-82385713D01*
X152900390Y-82385713D02*
X152862295Y-82309523D01*
X152862295Y-82309523D02*
X152862295Y-82119047D01*
X152862295Y-82119047D02*
X152900390Y-82042856D01*
X152900390Y-82042856D02*
X152938485Y-82004761D01*
X152938485Y-82004761D02*
X153014676Y-81966666D01*
X153014676Y-81966666D02*
X153090866Y-81966666D01*
X153090866Y-81966666D02*
X153205152Y-82004761D01*
X153205152Y-82004761D02*
X153662295Y-82461904D01*
X153662295Y-82461904D02*
X153662295Y-81966666D01*
%TO.C,C6*%
X151066667Y-88586104D02*
X151028571Y-88624200D01*
X151028571Y-88624200D02*
X150914286Y-88662295D01*
X150914286Y-88662295D02*
X150838095Y-88662295D01*
X150838095Y-88662295D02*
X150723809Y-88624200D01*
X150723809Y-88624200D02*
X150647619Y-88548009D01*
X150647619Y-88548009D02*
X150609524Y-88471819D01*
X150609524Y-88471819D02*
X150571428Y-88319438D01*
X150571428Y-88319438D02*
X150571428Y-88205152D01*
X150571428Y-88205152D02*
X150609524Y-88052771D01*
X150609524Y-88052771D02*
X150647619Y-87976580D01*
X150647619Y-87976580D02*
X150723809Y-87900390D01*
X150723809Y-87900390D02*
X150838095Y-87862295D01*
X150838095Y-87862295D02*
X150914286Y-87862295D01*
X150914286Y-87862295D02*
X151028571Y-87900390D01*
X151028571Y-87900390D02*
X151066667Y-87938485D01*
X151752381Y-87862295D02*
X151600000Y-87862295D01*
X151600000Y-87862295D02*
X151523809Y-87900390D01*
X151523809Y-87900390D02*
X151485714Y-87938485D01*
X151485714Y-87938485D02*
X151409524Y-88052771D01*
X151409524Y-88052771D02*
X151371428Y-88205152D01*
X151371428Y-88205152D02*
X151371428Y-88509914D01*
X151371428Y-88509914D02*
X151409524Y-88586104D01*
X151409524Y-88586104D02*
X151447619Y-88624200D01*
X151447619Y-88624200D02*
X151523809Y-88662295D01*
X151523809Y-88662295D02*
X151676190Y-88662295D01*
X151676190Y-88662295D02*
X151752381Y-88624200D01*
X151752381Y-88624200D02*
X151790476Y-88586104D01*
X151790476Y-88586104D02*
X151828571Y-88509914D01*
X151828571Y-88509914D02*
X151828571Y-88319438D01*
X151828571Y-88319438D02*
X151790476Y-88243247D01*
X151790476Y-88243247D02*
X151752381Y-88205152D01*
X151752381Y-88205152D02*
X151676190Y-88167057D01*
X151676190Y-88167057D02*
X151523809Y-88167057D01*
X151523809Y-88167057D02*
X151447619Y-88205152D01*
X151447619Y-88205152D02*
X151409524Y-88243247D01*
X151409524Y-88243247D02*
X151371428Y-88319438D01*
%TO.C,C2*%
X158436104Y-82883332D02*
X158474200Y-82921428D01*
X158474200Y-82921428D02*
X158512295Y-83035713D01*
X158512295Y-83035713D02*
X158512295Y-83111904D01*
X158512295Y-83111904D02*
X158474200Y-83226190D01*
X158474200Y-83226190D02*
X158398009Y-83302380D01*
X158398009Y-83302380D02*
X158321819Y-83340475D01*
X158321819Y-83340475D02*
X158169438Y-83378571D01*
X158169438Y-83378571D02*
X158055152Y-83378571D01*
X158055152Y-83378571D02*
X157902771Y-83340475D01*
X157902771Y-83340475D02*
X157826580Y-83302380D01*
X157826580Y-83302380D02*
X157750390Y-83226190D01*
X157750390Y-83226190D02*
X157712295Y-83111904D01*
X157712295Y-83111904D02*
X157712295Y-83035713D01*
X157712295Y-83035713D02*
X157750390Y-82921428D01*
X157750390Y-82921428D02*
X157788485Y-82883332D01*
X157788485Y-82578571D02*
X157750390Y-82540475D01*
X157750390Y-82540475D02*
X157712295Y-82464285D01*
X157712295Y-82464285D02*
X157712295Y-82273809D01*
X157712295Y-82273809D02*
X157750390Y-82197618D01*
X157750390Y-82197618D02*
X157788485Y-82159523D01*
X157788485Y-82159523D02*
X157864676Y-82121428D01*
X157864676Y-82121428D02*
X157940866Y-82121428D01*
X157940866Y-82121428D02*
X158055152Y-82159523D01*
X158055152Y-82159523D02*
X158512295Y-82616666D01*
X158512295Y-82616666D02*
X158512295Y-82121428D01*
%TO.C,C4*%
X138086104Y-90433332D02*
X138124200Y-90471428D01*
X138124200Y-90471428D02*
X138162295Y-90585713D01*
X138162295Y-90585713D02*
X138162295Y-90661904D01*
X138162295Y-90661904D02*
X138124200Y-90776190D01*
X138124200Y-90776190D02*
X138048009Y-90852380D01*
X138048009Y-90852380D02*
X137971819Y-90890475D01*
X137971819Y-90890475D02*
X137819438Y-90928571D01*
X137819438Y-90928571D02*
X137705152Y-90928571D01*
X137705152Y-90928571D02*
X137552771Y-90890475D01*
X137552771Y-90890475D02*
X137476580Y-90852380D01*
X137476580Y-90852380D02*
X137400390Y-90776190D01*
X137400390Y-90776190D02*
X137362295Y-90661904D01*
X137362295Y-90661904D02*
X137362295Y-90585713D01*
X137362295Y-90585713D02*
X137400390Y-90471428D01*
X137400390Y-90471428D02*
X137438485Y-90433332D01*
X137628961Y-89747618D02*
X138162295Y-89747618D01*
X137324200Y-89938094D02*
X137895628Y-90128571D01*
X137895628Y-90128571D02*
X137895628Y-89633332D01*
%TO.C,C5*%
X149586104Y-90433332D02*
X149624200Y-90471428D01*
X149624200Y-90471428D02*
X149662295Y-90585713D01*
X149662295Y-90585713D02*
X149662295Y-90661904D01*
X149662295Y-90661904D02*
X149624200Y-90776190D01*
X149624200Y-90776190D02*
X149548009Y-90852380D01*
X149548009Y-90852380D02*
X149471819Y-90890475D01*
X149471819Y-90890475D02*
X149319438Y-90928571D01*
X149319438Y-90928571D02*
X149205152Y-90928571D01*
X149205152Y-90928571D02*
X149052771Y-90890475D01*
X149052771Y-90890475D02*
X148976580Y-90852380D01*
X148976580Y-90852380D02*
X148900390Y-90776190D01*
X148900390Y-90776190D02*
X148862295Y-90661904D01*
X148862295Y-90661904D02*
X148862295Y-90585713D01*
X148862295Y-90585713D02*
X148900390Y-90471428D01*
X148900390Y-90471428D02*
X148938485Y-90433332D01*
X148862295Y-89709523D02*
X148862295Y-90090475D01*
X148862295Y-90090475D02*
X149243247Y-90128571D01*
X149243247Y-90128571D02*
X149205152Y-90090475D01*
X149205152Y-90090475D02*
X149167057Y-90014285D01*
X149167057Y-90014285D02*
X149167057Y-89823809D01*
X149167057Y-89823809D02*
X149205152Y-89747618D01*
X149205152Y-89747618D02*
X149243247Y-89709523D01*
X149243247Y-89709523D02*
X149319438Y-89671428D01*
X149319438Y-89671428D02*
X149509914Y-89671428D01*
X149509914Y-89671428D02*
X149586104Y-89709523D01*
X149586104Y-89709523D02*
X149624200Y-89747618D01*
X149624200Y-89747618D02*
X149662295Y-89823809D01*
X149662295Y-89823809D02*
X149662295Y-90014285D01*
X149662295Y-90014285D02*
X149624200Y-90090475D01*
X149624200Y-90090475D02*
X149586104Y-90128571D01*
%TO.C,R2*%
X136766667Y-83862295D02*
X136500000Y-83481342D01*
X136309524Y-83862295D02*
X136309524Y-83062295D01*
X136309524Y-83062295D02*
X136614286Y-83062295D01*
X136614286Y-83062295D02*
X136690476Y-83100390D01*
X136690476Y-83100390D02*
X136728571Y-83138485D01*
X136728571Y-83138485D02*
X136766667Y-83214676D01*
X136766667Y-83214676D02*
X136766667Y-83328961D01*
X136766667Y-83328961D02*
X136728571Y-83405152D01*
X136728571Y-83405152D02*
X136690476Y-83443247D01*
X136690476Y-83443247D02*
X136614286Y-83481342D01*
X136614286Y-83481342D02*
X136309524Y-83481342D01*
X137071428Y-83138485D02*
X137109524Y-83100390D01*
X137109524Y-83100390D02*
X137185714Y-83062295D01*
X137185714Y-83062295D02*
X137376190Y-83062295D01*
X137376190Y-83062295D02*
X137452381Y-83100390D01*
X137452381Y-83100390D02*
X137490476Y-83138485D01*
X137490476Y-83138485D02*
X137528571Y-83214676D01*
X137528571Y-83214676D02*
X137528571Y-83290866D01*
X137528571Y-83290866D02*
X137490476Y-83405152D01*
X137490476Y-83405152D02*
X137033333Y-83862295D01*
X137033333Y-83862295D02*
X137528571Y-83862295D01*
%TO.C,U2*%
X137262295Y-89009523D02*
X137909914Y-89009523D01*
X137909914Y-89009523D02*
X137986104Y-88971428D01*
X137986104Y-88971428D02*
X138024200Y-88933333D01*
X138024200Y-88933333D02*
X138062295Y-88857142D01*
X138062295Y-88857142D02*
X138062295Y-88704761D01*
X138062295Y-88704761D02*
X138024200Y-88628571D01*
X138024200Y-88628571D02*
X137986104Y-88590476D01*
X137986104Y-88590476D02*
X137909914Y-88552380D01*
X137909914Y-88552380D02*
X137262295Y-88552380D01*
X137338485Y-88209524D02*
X137300390Y-88171428D01*
X137300390Y-88171428D02*
X137262295Y-88095238D01*
X137262295Y-88095238D02*
X137262295Y-87904762D01*
X137262295Y-87904762D02*
X137300390Y-87828571D01*
X137300390Y-87828571D02*
X137338485Y-87790476D01*
X137338485Y-87790476D02*
X137414676Y-87752381D01*
X137414676Y-87752381D02*
X137490866Y-87752381D01*
X137490866Y-87752381D02*
X137605152Y-87790476D01*
X137605152Y-87790476D02*
X138062295Y-88247619D01*
X138062295Y-88247619D02*
X138062295Y-87752381D01*
%TO.C,C8*%
X146066667Y-77286104D02*
X146028571Y-77324200D01*
X146028571Y-77324200D02*
X145914286Y-77362295D01*
X145914286Y-77362295D02*
X145838095Y-77362295D01*
X145838095Y-77362295D02*
X145723809Y-77324200D01*
X145723809Y-77324200D02*
X145647619Y-77248009D01*
X145647619Y-77248009D02*
X145609524Y-77171819D01*
X145609524Y-77171819D02*
X145571428Y-77019438D01*
X145571428Y-77019438D02*
X145571428Y-76905152D01*
X145571428Y-76905152D02*
X145609524Y-76752771D01*
X145609524Y-76752771D02*
X145647619Y-76676580D01*
X145647619Y-76676580D02*
X145723809Y-76600390D01*
X145723809Y-76600390D02*
X145838095Y-76562295D01*
X145838095Y-76562295D02*
X145914286Y-76562295D01*
X145914286Y-76562295D02*
X146028571Y-76600390D01*
X146028571Y-76600390D02*
X146066667Y-76638485D01*
X146523809Y-76905152D02*
X146447619Y-76867057D01*
X146447619Y-76867057D02*
X146409524Y-76828961D01*
X146409524Y-76828961D02*
X146371428Y-76752771D01*
X146371428Y-76752771D02*
X146371428Y-76714676D01*
X146371428Y-76714676D02*
X146409524Y-76638485D01*
X146409524Y-76638485D02*
X146447619Y-76600390D01*
X146447619Y-76600390D02*
X146523809Y-76562295D01*
X146523809Y-76562295D02*
X146676190Y-76562295D01*
X146676190Y-76562295D02*
X146752381Y-76600390D01*
X146752381Y-76600390D02*
X146790476Y-76638485D01*
X146790476Y-76638485D02*
X146828571Y-76714676D01*
X146828571Y-76714676D02*
X146828571Y-76752771D01*
X146828571Y-76752771D02*
X146790476Y-76828961D01*
X146790476Y-76828961D02*
X146752381Y-76867057D01*
X146752381Y-76867057D02*
X146676190Y-76905152D01*
X146676190Y-76905152D02*
X146523809Y-76905152D01*
X146523809Y-76905152D02*
X146447619Y-76943247D01*
X146447619Y-76943247D02*
X146409524Y-76981342D01*
X146409524Y-76981342D02*
X146371428Y-77057533D01*
X146371428Y-77057533D02*
X146371428Y-77209914D01*
X146371428Y-77209914D02*
X146409524Y-77286104D01*
X146409524Y-77286104D02*
X146447619Y-77324200D01*
X146447619Y-77324200D02*
X146523809Y-77362295D01*
X146523809Y-77362295D02*
X146676190Y-77362295D01*
X146676190Y-77362295D02*
X146752381Y-77324200D01*
X146752381Y-77324200D02*
X146790476Y-77286104D01*
X146790476Y-77286104D02*
X146828571Y-77209914D01*
X146828571Y-77209914D02*
X146828571Y-77057533D01*
X146828571Y-77057533D02*
X146790476Y-76981342D01*
X146790476Y-76981342D02*
X146752381Y-76943247D01*
X146752381Y-76943247D02*
X146676190Y-76905152D01*
%TO.C,C11*%
X147248604Y-86551785D02*
X147286700Y-86589881D01*
X147286700Y-86589881D02*
X147324795Y-86704166D01*
X147324795Y-86704166D02*
X147324795Y-86780357D01*
X147324795Y-86780357D02*
X147286700Y-86894643D01*
X147286700Y-86894643D02*
X147210509Y-86970833D01*
X147210509Y-86970833D02*
X147134319Y-87008928D01*
X147134319Y-87008928D02*
X146981938Y-87047024D01*
X146981938Y-87047024D02*
X146867652Y-87047024D01*
X146867652Y-87047024D02*
X146715271Y-87008928D01*
X146715271Y-87008928D02*
X146639080Y-86970833D01*
X146639080Y-86970833D02*
X146562890Y-86894643D01*
X146562890Y-86894643D02*
X146524795Y-86780357D01*
X146524795Y-86780357D02*
X146524795Y-86704166D01*
X146524795Y-86704166D02*
X146562890Y-86589881D01*
X146562890Y-86589881D02*
X146600985Y-86551785D01*
X147324795Y-85789881D02*
X147324795Y-86247024D01*
X147324795Y-86018452D02*
X146524795Y-86018452D01*
X146524795Y-86018452D02*
X146639080Y-86094643D01*
X146639080Y-86094643D02*
X146715271Y-86170833D01*
X146715271Y-86170833D02*
X146753366Y-86247024D01*
X147324795Y-85027976D02*
X147324795Y-85485119D01*
X147324795Y-85256547D02*
X146524795Y-85256547D01*
X146524795Y-85256547D02*
X146639080Y-85332738D01*
X146639080Y-85332738D02*
X146715271Y-85408928D01*
X146715271Y-85408928D02*
X146753366Y-85485119D01*
%TO.C,C9*%
X139079167Y-79323604D02*
X139041071Y-79361700D01*
X139041071Y-79361700D02*
X138926786Y-79399795D01*
X138926786Y-79399795D02*
X138850595Y-79399795D01*
X138850595Y-79399795D02*
X138736309Y-79361700D01*
X138736309Y-79361700D02*
X138660119Y-79285509D01*
X138660119Y-79285509D02*
X138622024Y-79209319D01*
X138622024Y-79209319D02*
X138583928Y-79056938D01*
X138583928Y-79056938D02*
X138583928Y-78942652D01*
X138583928Y-78942652D02*
X138622024Y-78790271D01*
X138622024Y-78790271D02*
X138660119Y-78714080D01*
X138660119Y-78714080D02*
X138736309Y-78637890D01*
X138736309Y-78637890D02*
X138850595Y-78599795D01*
X138850595Y-78599795D02*
X138926786Y-78599795D01*
X138926786Y-78599795D02*
X139041071Y-78637890D01*
X139041071Y-78637890D02*
X139079167Y-78675985D01*
X139460119Y-79399795D02*
X139612500Y-79399795D01*
X139612500Y-79399795D02*
X139688690Y-79361700D01*
X139688690Y-79361700D02*
X139726786Y-79323604D01*
X139726786Y-79323604D02*
X139802976Y-79209319D01*
X139802976Y-79209319D02*
X139841071Y-79056938D01*
X139841071Y-79056938D02*
X139841071Y-78752176D01*
X139841071Y-78752176D02*
X139802976Y-78675985D01*
X139802976Y-78675985D02*
X139764881Y-78637890D01*
X139764881Y-78637890D02*
X139688690Y-78599795D01*
X139688690Y-78599795D02*
X139536309Y-78599795D01*
X139536309Y-78599795D02*
X139460119Y-78637890D01*
X139460119Y-78637890D02*
X139422024Y-78675985D01*
X139422024Y-78675985D02*
X139383928Y-78752176D01*
X139383928Y-78752176D02*
X139383928Y-78942652D01*
X139383928Y-78942652D02*
X139422024Y-79018842D01*
X139422024Y-79018842D02*
X139460119Y-79056938D01*
X139460119Y-79056938D02*
X139536309Y-79095033D01*
X139536309Y-79095033D02*
X139688690Y-79095033D01*
X139688690Y-79095033D02*
X139764881Y-79056938D01*
X139764881Y-79056938D02*
X139802976Y-79018842D01*
X139802976Y-79018842D02*
X139841071Y-78942652D01*
%TO.C,C13*%
X141385714Y-84986104D02*
X141347618Y-85024200D01*
X141347618Y-85024200D02*
X141233333Y-85062295D01*
X141233333Y-85062295D02*
X141157142Y-85062295D01*
X141157142Y-85062295D02*
X141042856Y-85024200D01*
X141042856Y-85024200D02*
X140966666Y-84948009D01*
X140966666Y-84948009D02*
X140928571Y-84871819D01*
X140928571Y-84871819D02*
X140890475Y-84719438D01*
X140890475Y-84719438D02*
X140890475Y-84605152D01*
X140890475Y-84605152D02*
X140928571Y-84452771D01*
X140928571Y-84452771D02*
X140966666Y-84376580D01*
X140966666Y-84376580D02*
X141042856Y-84300390D01*
X141042856Y-84300390D02*
X141157142Y-84262295D01*
X141157142Y-84262295D02*
X141233333Y-84262295D01*
X141233333Y-84262295D02*
X141347618Y-84300390D01*
X141347618Y-84300390D02*
X141385714Y-84338485D01*
X142147618Y-85062295D02*
X141690475Y-85062295D01*
X141919047Y-85062295D02*
X141919047Y-84262295D01*
X141919047Y-84262295D02*
X141842856Y-84376580D01*
X141842856Y-84376580D02*
X141766666Y-84452771D01*
X141766666Y-84452771D02*
X141690475Y-84490866D01*
X142414285Y-84262295D02*
X142909523Y-84262295D01*
X142909523Y-84262295D02*
X142642857Y-84567057D01*
X142642857Y-84567057D02*
X142757142Y-84567057D01*
X142757142Y-84567057D02*
X142833333Y-84605152D01*
X142833333Y-84605152D02*
X142871428Y-84643247D01*
X142871428Y-84643247D02*
X142909523Y-84719438D01*
X142909523Y-84719438D02*
X142909523Y-84909914D01*
X142909523Y-84909914D02*
X142871428Y-84986104D01*
X142871428Y-84986104D02*
X142833333Y-85024200D01*
X142833333Y-85024200D02*
X142757142Y-85062295D01*
X142757142Y-85062295D02*
X142528571Y-85062295D01*
X142528571Y-85062295D02*
X142452380Y-85024200D01*
X142452380Y-85024200D02*
X142414285Y-84986104D01*
%TO.C,R1*%
X136666667Y-79262295D02*
X136400000Y-78881342D01*
X136209524Y-79262295D02*
X136209524Y-78462295D01*
X136209524Y-78462295D02*
X136514286Y-78462295D01*
X136514286Y-78462295D02*
X136590476Y-78500390D01*
X136590476Y-78500390D02*
X136628571Y-78538485D01*
X136628571Y-78538485D02*
X136666667Y-78614676D01*
X136666667Y-78614676D02*
X136666667Y-78728961D01*
X136666667Y-78728961D02*
X136628571Y-78805152D01*
X136628571Y-78805152D02*
X136590476Y-78843247D01*
X136590476Y-78843247D02*
X136514286Y-78881342D01*
X136514286Y-78881342D02*
X136209524Y-78881342D01*
X137428571Y-79262295D02*
X136971428Y-79262295D01*
X137200000Y-79262295D02*
X137200000Y-78462295D01*
X137200000Y-78462295D02*
X137123809Y-78576580D01*
X137123809Y-78576580D02*
X137047619Y-78652771D01*
X137047619Y-78652771D02*
X136971428Y-78690866D01*
%TO.C,C7*%
X147766667Y-78286104D02*
X147728571Y-78324200D01*
X147728571Y-78324200D02*
X147614286Y-78362295D01*
X147614286Y-78362295D02*
X147538095Y-78362295D01*
X147538095Y-78362295D02*
X147423809Y-78324200D01*
X147423809Y-78324200D02*
X147347619Y-78248009D01*
X147347619Y-78248009D02*
X147309524Y-78171819D01*
X147309524Y-78171819D02*
X147271428Y-78019438D01*
X147271428Y-78019438D02*
X147271428Y-77905152D01*
X147271428Y-77905152D02*
X147309524Y-77752771D01*
X147309524Y-77752771D02*
X147347619Y-77676580D01*
X147347619Y-77676580D02*
X147423809Y-77600390D01*
X147423809Y-77600390D02*
X147538095Y-77562295D01*
X147538095Y-77562295D02*
X147614286Y-77562295D01*
X147614286Y-77562295D02*
X147728571Y-77600390D01*
X147728571Y-77600390D02*
X147766667Y-77638485D01*
X148033333Y-77562295D02*
X148566667Y-77562295D01*
X148566667Y-77562295D02*
X148223809Y-78362295D01*
%TO.C,C12*%
X144086104Y-89314285D02*
X144124200Y-89352381D01*
X144124200Y-89352381D02*
X144162295Y-89466666D01*
X144162295Y-89466666D02*
X144162295Y-89542857D01*
X144162295Y-89542857D02*
X144124200Y-89657143D01*
X144124200Y-89657143D02*
X144048009Y-89733333D01*
X144048009Y-89733333D02*
X143971819Y-89771428D01*
X143971819Y-89771428D02*
X143819438Y-89809524D01*
X143819438Y-89809524D02*
X143705152Y-89809524D01*
X143705152Y-89809524D02*
X143552771Y-89771428D01*
X143552771Y-89771428D02*
X143476580Y-89733333D01*
X143476580Y-89733333D02*
X143400390Y-89657143D01*
X143400390Y-89657143D02*
X143362295Y-89542857D01*
X143362295Y-89542857D02*
X143362295Y-89466666D01*
X143362295Y-89466666D02*
X143400390Y-89352381D01*
X143400390Y-89352381D02*
X143438485Y-89314285D01*
X144162295Y-88552381D02*
X144162295Y-89009524D01*
X144162295Y-88780952D02*
X143362295Y-88780952D01*
X143362295Y-88780952D02*
X143476580Y-88857143D01*
X143476580Y-88857143D02*
X143552771Y-88933333D01*
X143552771Y-88933333D02*
X143590866Y-89009524D01*
X143438485Y-88247619D02*
X143400390Y-88209523D01*
X143400390Y-88209523D02*
X143362295Y-88133333D01*
X143362295Y-88133333D02*
X143362295Y-87942857D01*
X143362295Y-87942857D02*
X143400390Y-87866666D01*
X143400390Y-87866666D02*
X143438485Y-87828571D01*
X143438485Y-87828571D02*
X143514676Y-87790476D01*
X143514676Y-87790476D02*
X143590866Y-87790476D01*
X143590866Y-87790476D02*
X143705152Y-87828571D01*
X143705152Y-87828571D02*
X144162295Y-88285714D01*
X144162295Y-88285714D02*
X144162295Y-87790476D01*
D11*
%TO.C,U1*%
X142952500Y-83497500D02*
X142952500Y-82522500D01*
X143927500Y-79277500D02*
X142952500Y-79277500D01*
X143927500Y-83497500D02*
X142952500Y-83497500D01*
X146197500Y-79277500D02*
X147172500Y-79277500D01*
X146197500Y-83497500D02*
X147172500Y-83497500D01*
X147172500Y-79277500D02*
X147172500Y-80252500D01*
X147172500Y-83497500D02*
X147172500Y-82522500D01*
%TO.C,C3*%
X143353733Y-68840000D02*
X143646267Y-68840000D01*
X143353733Y-69860000D02*
X143646267Y-69860000D01*
%TO.C,TP3*%
X155050000Y-84050000D02*
X156950000Y-84050000D01*
X155050000Y-85950000D02*
X155050000Y-84050000D01*
X156950000Y-84050000D02*
X156950000Y-85950000D01*
X156950000Y-85950000D02*
X155050000Y-85950000D01*
%TO.C,TP5*%
X145050000Y-69050000D02*
X146950000Y-69050000D01*
X145050000Y-70950000D02*
X145050000Y-69050000D01*
X146950000Y-69050000D02*
X146950000Y-70950000D01*
X146950000Y-70950000D02*
X145050000Y-70950000D01*
%TO.C,XT1*%
X138752500Y-84247500D02*
X138752500Y-81637500D01*
X139292500Y-84247500D02*
X138752500Y-84247500D01*
X142172500Y-81647500D02*
X142172500Y-83927500D01*
%TO.C,C1*%
X143646267Y-96160000D02*
X143353733Y-96160000D01*
X143646267Y-95140000D02*
X143353733Y-95140000D01*
%TO.C,C10*%
X139010000Y-75603733D02*
X139010000Y-75896267D01*
X137990000Y-75603733D02*
X137990000Y-75896267D01*
%TO.C,TP9*%
X140050000Y-89050000D02*
X141950000Y-89050000D01*
X140050000Y-90950000D02*
X140050000Y-89050000D01*
X141950000Y-89050000D02*
X141950000Y-90950000D01*
X141950000Y-90950000D02*
X140050000Y-90950000D01*
%TO.C,TP17*%
X135050000Y-89050000D02*
X136950000Y-89050000D01*
X135050000Y-90950000D02*
X135050000Y-89050000D01*
X136950000Y-89050000D02*
X136950000Y-90950000D01*
X136950000Y-90950000D02*
X135050000Y-90950000D01*
%TO.C,TP4*%
X155050000Y-79050000D02*
X156950000Y-79050000D01*
X155050000Y-80950000D02*
X155050000Y-79050000D01*
X156950000Y-79050000D02*
X156950000Y-80950000D01*
X156950000Y-80950000D02*
X155050000Y-80950000D01*
%TO.C,C6*%
X150646267Y-87510000D02*
X150353733Y-87510000D01*
X150646267Y-86490000D02*
X150353733Y-86490000D01*
%TO.C,TP8*%
X140050000Y-69050000D02*
X141950000Y-69050000D01*
X140050000Y-70950000D02*
X140050000Y-69050000D01*
X141950000Y-69050000D02*
X141950000Y-70950000D01*
X141950000Y-70950000D02*
X140050000Y-70950000D01*
%TO.C,C2*%
X157160000Y-82353733D02*
X157160000Y-82646267D01*
X156140000Y-82353733D02*
X156140000Y-82646267D01*
%TO.C,C4*%
X138490000Y-89646267D02*
X138490000Y-89353733D01*
X139510000Y-89646267D02*
X139510000Y-89353733D01*
%TO.C,TP1*%
X140050000Y-94050000D02*
X141950000Y-94050000D01*
X140050000Y-95950000D02*
X140050000Y-94050000D01*
X141950000Y-94050000D02*
X141950000Y-95950000D01*
X141950000Y-95950000D02*
X140050000Y-95950000D01*
%TO.C,C5*%
X147490000Y-89646267D02*
X147490000Y-89353733D01*
X148510000Y-89646267D02*
X148510000Y-89353733D01*
%TO.C,TP10*%
X145050000Y-89050000D02*
X146950000Y-89050000D01*
X145050000Y-90950000D02*
X145050000Y-89050000D01*
X146950000Y-89050000D02*
X146950000Y-90950000D01*
X146950000Y-90950000D02*
X145050000Y-90950000D01*
%TO.C,TP14*%
X139550000Y-76550000D02*
X141450000Y-76550000D01*
X139550000Y-78450000D02*
X139550000Y-76550000D01*
X141450000Y-76550000D02*
X141450000Y-78450000D01*
X141450000Y-78450000D02*
X139550000Y-78450000D01*
%TO.C,R2*%
X137054724Y-82622500D02*
X136545276Y-82622500D01*
X137054724Y-81577500D02*
X136545276Y-81577500D01*
%TO.C,TP13*%
X142050000Y-76550000D02*
X143950000Y-76550000D01*
X142050000Y-78450000D02*
X142050000Y-76550000D01*
X143950000Y-76550000D02*
X143950000Y-78450000D01*
X143950000Y-78450000D02*
X142050000Y-78450000D01*
%TO.C,U2*%
X137500000Y-85600000D02*
X139050000Y-85600000D01*
X139050000Y-87400000D02*
X137750000Y-87400000D01*
%TO.C,C8*%
X148510000Y-75353733D02*
X148510000Y-75646267D01*
X147490000Y-75353733D02*
X147490000Y-75646267D01*
%TO.C,TP19*%
X150050000Y-89050000D02*
X151950000Y-89050000D01*
X150050000Y-90950000D02*
X150050000Y-89050000D01*
X151950000Y-89050000D02*
X151950000Y-90950000D01*
X151950000Y-90950000D02*
X150050000Y-90950000D01*
%TO.C,C11*%
X145972500Y-85641233D02*
X145972500Y-85933767D01*
X144952500Y-85641233D02*
X144952500Y-85933767D01*
%TO.C,TP11*%
X150050000Y-84050000D02*
X151950000Y-84050000D01*
X150050000Y-85950000D02*
X150050000Y-84050000D01*
X151950000Y-84050000D02*
X151950000Y-85950000D01*
X151950000Y-85950000D02*
X150050000Y-85950000D01*
%TO.C,TP7*%
X145050000Y-74050000D02*
X146950000Y-74050000D01*
X145050000Y-75950000D02*
X145050000Y-74050000D01*
X146950000Y-74050000D02*
X146950000Y-75950000D01*
X146950000Y-75950000D02*
X145050000Y-75950000D01*
%TO.C,C9*%
X140316233Y-79777500D02*
X140608767Y-79777500D01*
X140316233Y-80797500D02*
X140608767Y-80797500D01*
%TO.C,TP12*%
X150050000Y-79050000D02*
X151950000Y-79050000D01*
X150050000Y-80950000D02*
X150050000Y-79050000D01*
X151950000Y-79050000D02*
X151950000Y-80950000D01*
X151950000Y-80950000D02*
X150050000Y-80950000D01*
%TO.C,TP2*%
X145050000Y-94050000D02*
X146950000Y-94050000D01*
X145050000Y-95950000D02*
X145050000Y-94050000D01*
X146950000Y-94050000D02*
X146950000Y-95950000D01*
X146950000Y-95950000D02*
X145050000Y-95950000D01*
%TO.C,C13*%
X142810000Y-86553733D02*
X142810000Y-86846267D01*
X141790000Y-86553733D02*
X141790000Y-86846267D01*
%TO.C,R1*%
X137054724Y-80822500D02*
X136545276Y-80822500D01*
X137054724Y-79777500D02*
X136545276Y-79777500D01*
%TO.C,TP16*%
X135050000Y-74050000D02*
X136950000Y-74050000D01*
X135050000Y-75950000D02*
X135050000Y-74050000D01*
X136950000Y-74050000D02*
X136950000Y-75950000D01*
X136950000Y-75950000D02*
X135050000Y-75950000D01*
%TO.C,C7*%
X150646267Y-78510000D02*
X150353733Y-78510000D01*
X150646267Y-77490000D02*
X150353733Y-77490000D01*
%TO.C,TP18*%
X150050000Y-74050000D02*
X151950000Y-74050000D01*
X150050000Y-75950000D02*
X150050000Y-74050000D01*
X151950000Y-74050000D02*
X151950000Y-75950000D01*
X151950000Y-75950000D02*
X150050000Y-75950000D01*
%TO.C,C12*%
X144472500Y-85641233D02*
X144472500Y-85933767D01*
X143452500Y-85641233D02*
X143452500Y-85933767D01*
%TO.C,TP6*%
X140050000Y-74050000D02*
X141950000Y-74050000D01*
X140050000Y-75950000D02*
X140050000Y-74050000D01*
X141950000Y-74050000D02*
X141950000Y-75950000D01*
X141950000Y-75950000D02*
X140050000Y-75950000D01*
%TD*%
M02*
