%TF.GenerationSoftware,KiCad,Pcbnew,6.0.10-86aedd382b~118~ubuntu22.04.1*%
%TF.CreationDate,2023-04-06T19:24:05+02:00*%
%TF.ProjectId,donttouchit,646f6e74-746f-4756-9368-69742e6b6963,rev?*%
%TF.SameCoordinates,Original*%
%TF.FileFunction,Profile,NP*%
%FSLAX46Y46*%
G04 Gerber Fmt 4.6, Leading zero omitted, Abs format (unit mm)*
G04 Created by KiCad (PCBNEW 6.0.10-86aedd382b~118~ubuntu22.04.1) date 2023-04-06 19:24:05*
%MOMM*%
%LPD*%
G01*
G04 APERTURE LIST*
%TA.AperFunction,Profile*%
%ADD10C,0.100000*%
%TD*%
G04 APERTURE END LIST*
D10*
X134000000Y-73000000D02*
X141000000Y-73000000D01*
X141000000Y-92000000D02*
X134000000Y-92000000D01*
X153000000Y-92000000D02*
X146000000Y-92000000D01*
X146000000Y-73000000D02*
X153000000Y-73000000D01*
X152000000Y-94000000D02*
X146000000Y-94000000D01*
X152000000Y-113000000D02*
X152000000Y-94000000D01*
X135000000Y-113000000D02*
X152000000Y-113000000D01*
X135000000Y-94000000D02*
X135000000Y-113000000D01*
X141000000Y-94000000D02*
X135000000Y-94000000D01*
X141000000Y-94000000D02*
G75*
G03*
X141000000Y-92000000I0J1000000D01*
G01*
X146000000Y-92000000D02*
G75*
G03*
X146000000Y-94000000I0J-1000000D01*
G01*
X146000000Y-71000000D02*
G75*
G03*
X146000000Y-73000000I0J-1000000D01*
G01*
X141000000Y-73000000D02*
G75*
G03*
X141000000Y-71000000I0J1000000D01*
G01*
X146000000Y-71000000D02*
X152000000Y-71000000D01*
X135000000Y-71000000D02*
X141000000Y-71000000D01*
X135000000Y-52000000D02*
X135000000Y-71000000D01*
X152000000Y-52000000D02*
X135000000Y-52000000D01*
X152000000Y-71000000D02*
X152000000Y-52000000D01*
X153000000Y-92000000D02*
X153000000Y-85000000D01*
X134000000Y-73000000D02*
X134000000Y-92000000D01*
X153000000Y-80000000D02*
X153000000Y-73000000D01*
X155000000Y-85000000D02*
X155000000Y-91000000D01*
X155000000Y-80000000D02*
X155000000Y-74000000D01*
X155000000Y-85000000D02*
G75*
G03*
X153000000Y-85000000I-1000000J0D01*
G01*
X153000000Y-80000000D02*
G75*
G03*
X155000000Y-80000000I1000000J0D01*
G01*
X155000000Y-74000000D02*
X174000000Y-74000000D01*
X174000000Y-91000000D02*
X155000000Y-91000000D01*
X174000000Y-74000000D02*
X174000000Y-91000000D01*
M02*
