%TF.GenerationSoftware,KiCad,Pcbnew,7.0.5-4d25ed1034~172~ubuntu22.04.1*%
%TF.CreationDate,2023-06-17T19:19:04+02:00*%
%TF.ProjectId,donttouchit,646f6e74-746f-4756-9368-69742e6b6963,rev?*%
%TF.SameCoordinates,Original*%
%TF.FileFunction,Legend,Bot*%
%TF.FilePolarity,Positive*%
%FSLAX46Y46*%
G04 Gerber Fmt 4.6, Leading zero omitted, Abs format (unit mm)*
G04 Created by KiCad (PCBNEW 7.0.5-4d25ed1034~172~ubuntu22.04.1) date 2023-06-17 19:19:04*
%MOMM*%
%LPD*%
G01*
G04 APERTURE LIST*
%ADD10C,0.150000*%
%ADD11C,0.120000*%
G04 APERTURE END LIST*
D10*
X145950000Y-82900000D02*
X150050000Y-82900000D01*
X146142500Y-84450000D02*
X150050000Y-84450000D01*
X150050000Y-82900000D02*
X150050000Y-77657500D01*
X150050000Y-89300000D02*
X150050000Y-84500000D01*
X147200000Y-89300000D02*
X150050000Y-89300000D01*
X146142500Y-88550000D02*
X147200000Y-89300000D01*
X145950000Y-77657500D02*
X145950000Y-82900000D01*
X140289160Y-103805704D02*
X140289160Y-104605704D01*
X140289160Y-104605704D02*
X140479636Y-104605704D01*
X140479636Y-104605704D02*
X140593922Y-104567609D01*
X140593922Y-104567609D02*
X140670112Y-104491419D01*
X140670112Y-104491419D02*
X140708207Y-104415228D01*
X140708207Y-104415228D02*
X140746303Y-104262847D01*
X140746303Y-104262847D02*
X140746303Y-104148561D01*
X140746303Y-104148561D02*
X140708207Y-103996180D01*
X140708207Y-103996180D02*
X140670112Y-103919990D01*
X140670112Y-103919990D02*
X140593922Y-103843800D01*
X140593922Y-103843800D02*
X140479636Y-103805704D01*
X140479636Y-103805704D02*
X140289160Y-103805704D01*
X141203445Y-103805704D02*
X141127255Y-103843800D01*
X141127255Y-103843800D02*
X141089160Y-103881895D01*
X141089160Y-103881895D02*
X141051064Y-103958085D01*
X141051064Y-103958085D02*
X141051064Y-104186657D01*
X141051064Y-104186657D02*
X141089160Y-104262847D01*
X141089160Y-104262847D02*
X141127255Y-104300942D01*
X141127255Y-104300942D02*
X141203445Y-104339038D01*
X141203445Y-104339038D02*
X141317731Y-104339038D01*
X141317731Y-104339038D02*
X141393922Y-104300942D01*
X141393922Y-104300942D02*
X141432017Y-104262847D01*
X141432017Y-104262847D02*
X141470112Y-104186657D01*
X141470112Y-104186657D02*
X141470112Y-103958085D01*
X141470112Y-103958085D02*
X141432017Y-103881895D01*
X141432017Y-103881895D02*
X141393922Y-103843800D01*
X141393922Y-103843800D02*
X141317731Y-103805704D01*
X141317731Y-103805704D02*
X141203445Y-103805704D01*
X141812970Y-104339038D02*
X141812970Y-103805704D01*
X141812970Y-104262847D02*
X141851065Y-104300942D01*
X141851065Y-104300942D02*
X141927255Y-104339038D01*
X141927255Y-104339038D02*
X142041541Y-104339038D01*
X142041541Y-104339038D02*
X142117732Y-104300942D01*
X142117732Y-104300942D02*
X142155827Y-104224752D01*
X142155827Y-104224752D02*
X142155827Y-103805704D01*
X142422494Y-104339038D02*
X142727256Y-104339038D01*
X142536780Y-104605704D02*
X142536780Y-103919990D01*
X142536780Y-103919990D02*
X142574875Y-103843800D01*
X142574875Y-103843800D02*
X142651065Y-103805704D01*
X142651065Y-103805704D02*
X142727256Y-103805704D01*
X142879637Y-104605704D02*
X143336780Y-104605704D01*
X143108208Y-103805704D02*
X143108208Y-104605704D01*
X143717732Y-103805704D02*
X143641542Y-103843800D01*
X143641542Y-103843800D02*
X143603447Y-103881895D01*
X143603447Y-103881895D02*
X143565351Y-103958085D01*
X143565351Y-103958085D02*
X143565351Y-104186657D01*
X143565351Y-104186657D02*
X143603447Y-104262847D01*
X143603447Y-104262847D02*
X143641542Y-104300942D01*
X143641542Y-104300942D02*
X143717732Y-104339038D01*
X143717732Y-104339038D02*
X143832018Y-104339038D01*
X143832018Y-104339038D02*
X143908209Y-104300942D01*
X143908209Y-104300942D02*
X143946304Y-104262847D01*
X143946304Y-104262847D02*
X143984399Y-104186657D01*
X143984399Y-104186657D02*
X143984399Y-103958085D01*
X143984399Y-103958085D02*
X143946304Y-103881895D01*
X143946304Y-103881895D02*
X143908209Y-103843800D01*
X143908209Y-103843800D02*
X143832018Y-103805704D01*
X143832018Y-103805704D02*
X143717732Y-103805704D01*
X144670114Y-104339038D02*
X144670114Y-103805704D01*
X144327257Y-104339038D02*
X144327257Y-103919990D01*
X144327257Y-103919990D02*
X144365352Y-103843800D01*
X144365352Y-103843800D02*
X144441542Y-103805704D01*
X144441542Y-103805704D02*
X144555828Y-103805704D01*
X144555828Y-103805704D02*
X144632019Y-103843800D01*
X144632019Y-103843800D02*
X144670114Y-103881895D01*
X145393924Y-103843800D02*
X145317733Y-103805704D01*
X145317733Y-103805704D02*
X145165352Y-103805704D01*
X145165352Y-103805704D02*
X145089162Y-103843800D01*
X145089162Y-103843800D02*
X145051067Y-103881895D01*
X145051067Y-103881895D02*
X145012971Y-103958085D01*
X145012971Y-103958085D02*
X145012971Y-104186657D01*
X145012971Y-104186657D02*
X145051067Y-104262847D01*
X145051067Y-104262847D02*
X145089162Y-104300942D01*
X145089162Y-104300942D02*
X145165352Y-104339038D01*
X145165352Y-104339038D02*
X145317733Y-104339038D01*
X145317733Y-104339038D02*
X145393924Y-104300942D01*
X145736781Y-103805704D02*
X145736781Y-104605704D01*
X146079638Y-103805704D02*
X146079638Y-104224752D01*
X146079638Y-104224752D02*
X146041543Y-104300942D01*
X146041543Y-104300942D02*
X145965352Y-104339038D01*
X145965352Y-104339038D02*
X145851066Y-104339038D01*
X145851066Y-104339038D02*
X145774876Y-104300942D01*
X145774876Y-104300942D02*
X145736781Y-104262847D01*
X146460591Y-103805704D02*
X146460591Y-104605704D01*
X146727257Y-104339038D02*
X147032019Y-104339038D01*
X146841543Y-104605704D02*
X146841543Y-103919990D01*
X146841543Y-103919990D02*
X146879638Y-103843800D01*
X146879638Y-103843800D02*
X146955828Y-103805704D01*
X146955828Y-103805704D02*
X147032019Y-103805704D01*
X164805704Y-85510839D02*
X165605704Y-85510839D01*
X165605704Y-85510839D02*
X165605704Y-85320363D01*
X165605704Y-85320363D02*
X165567609Y-85206077D01*
X165567609Y-85206077D02*
X165491419Y-85129887D01*
X165491419Y-85129887D02*
X165415228Y-85091792D01*
X165415228Y-85091792D02*
X165262847Y-85053696D01*
X165262847Y-85053696D02*
X165148561Y-85053696D01*
X165148561Y-85053696D02*
X164996180Y-85091792D01*
X164996180Y-85091792D02*
X164919990Y-85129887D01*
X164919990Y-85129887D02*
X164843800Y-85206077D01*
X164843800Y-85206077D02*
X164805704Y-85320363D01*
X164805704Y-85320363D02*
X164805704Y-85510839D01*
X164805704Y-84596554D02*
X164843800Y-84672744D01*
X164843800Y-84672744D02*
X164881895Y-84710839D01*
X164881895Y-84710839D02*
X164958085Y-84748935D01*
X164958085Y-84748935D02*
X165186657Y-84748935D01*
X165186657Y-84748935D02*
X165262847Y-84710839D01*
X165262847Y-84710839D02*
X165300942Y-84672744D01*
X165300942Y-84672744D02*
X165339038Y-84596554D01*
X165339038Y-84596554D02*
X165339038Y-84482268D01*
X165339038Y-84482268D02*
X165300942Y-84406077D01*
X165300942Y-84406077D02*
X165262847Y-84367982D01*
X165262847Y-84367982D02*
X165186657Y-84329887D01*
X165186657Y-84329887D02*
X164958085Y-84329887D01*
X164958085Y-84329887D02*
X164881895Y-84367982D01*
X164881895Y-84367982D02*
X164843800Y-84406077D01*
X164843800Y-84406077D02*
X164805704Y-84482268D01*
X164805704Y-84482268D02*
X164805704Y-84596554D01*
X165339038Y-83987029D02*
X164805704Y-83987029D01*
X165262847Y-83987029D02*
X165300942Y-83948934D01*
X165300942Y-83948934D02*
X165339038Y-83872744D01*
X165339038Y-83872744D02*
X165339038Y-83758458D01*
X165339038Y-83758458D02*
X165300942Y-83682267D01*
X165300942Y-83682267D02*
X165224752Y-83644172D01*
X165224752Y-83644172D02*
X164805704Y-83644172D01*
X165339038Y-83377505D02*
X165339038Y-83072743D01*
X165605704Y-83263219D02*
X164919990Y-83263219D01*
X164919990Y-83263219D02*
X164843800Y-83225124D01*
X164843800Y-83225124D02*
X164805704Y-83148934D01*
X164805704Y-83148934D02*
X164805704Y-83072743D01*
X165605704Y-82920362D02*
X165605704Y-82463219D01*
X164805704Y-82691791D02*
X165605704Y-82691791D01*
X164805704Y-82082267D02*
X164843800Y-82158457D01*
X164843800Y-82158457D02*
X164881895Y-82196552D01*
X164881895Y-82196552D02*
X164958085Y-82234648D01*
X164958085Y-82234648D02*
X165186657Y-82234648D01*
X165186657Y-82234648D02*
X165262847Y-82196552D01*
X165262847Y-82196552D02*
X165300942Y-82158457D01*
X165300942Y-82158457D02*
X165339038Y-82082267D01*
X165339038Y-82082267D02*
X165339038Y-81967981D01*
X165339038Y-81967981D02*
X165300942Y-81891790D01*
X165300942Y-81891790D02*
X165262847Y-81853695D01*
X165262847Y-81853695D02*
X165186657Y-81815600D01*
X165186657Y-81815600D02*
X164958085Y-81815600D01*
X164958085Y-81815600D02*
X164881895Y-81853695D01*
X164881895Y-81853695D02*
X164843800Y-81891790D01*
X164843800Y-81891790D02*
X164805704Y-81967981D01*
X164805704Y-81967981D02*
X164805704Y-82082267D01*
X165339038Y-81129885D02*
X164805704Y-81129885D01*
X165339038Y-81472742D02*
X164919990Y-81472742D01*
X164919990Y-81472742D02*
X164843800Y-81434647D01*
X164843800Y-81434647D02*
X164805704Y-81358457D01*
X164805704Y-81358457D02*
X164805704Y-81244171D01*
X164805704Y-81244171D02*
X164843800Y-81167980D01*
X164843800Y-81167980D02*
X164881895Y-81129885D01*
X164843800Y-80406075D02*
X164805704Y-80482266D01*
X164805704Y-80482266D02*
X164805704Y-80634647D01*
X164805704Y-80634647D02*
X164843800Y-80710837D01*
X164843800Y-80710837D02*
X164881895Y-80748932D01*
X164881895Y-80748932D02*
X164958085Y-80787028D01*
X164958085Y-80787028D02*
X165186657Y-80787028D01*
X165186657Y-80787028D02*
X165262847Y-80748932D01*
X165262847Y-80748932D02*
X165300942Y-80710837D01*
X165300942Y-80710837D02*
X165339038Y-80634647D01*
X165339038Y-80634647D02*
X165339038Y-80482266D01*
X165339038Y-80482266D02*
X165300942Y-80406075D01*
X164805704Y-80063218D02*
X165605704Y-80063218D01*
X164805704Y-79720361D02*
X165224752Y-79720361D01*
X165224752Y-79720361D02*
X165300942Y-79758456D01*
X165300942Y-79758456D02*
X165339038Y-79834647D01*
X165339038Y-79834647D02*
X165339038Y-79948933D01*
X165339038Y-79948933D02*
X165300942Y-80025123D01*
X165300942Y-80025123D02*
X165262847Y-80063218D01*
X164805704Y-79339408D02*
X165605704Y-79339408D01*
X165339038Y-79072742D02*
X165339038Y-78767980D01*
X165605704Y-78958456D02*
X164919990Y-78958456D01*
X164919990Y-78958456D02*
X164843800Y-78920361D01*
X164843800Y-78920361D02*
X164805704Y-78844171D01*
X164805704Y-78844171D02*
X164805704Y-78767980D01*
X145387030Y-78894295D02*
X144891792Y-78894295D01*
X144891792Y-78894295D02*
X145158458Y-79199057D01*
X145158458Y-79199057D02*
X145044173Y-79199057D01*
X145044173Y-79199057D02*
X144967982Y-79237152D01*
X144967982Y-79237152D02*
X144929887Y-79275247D01*
X144929887Y-79275247D02*
X144891792Y-79351438D01*
X144891792Y-79351438D02*
X144891792Y-79541914D01*
X144891792Y-79541914D02*
X144929887Y-79618104D01*
X144929887Y-79618104D02*
X144967982Y-79656200D01*
X144967982Y-79656200D02*
X145044173Y-79694295D01*
X145044173Y-79694295D02*
X145272744Y-79694295D01*
X145272744Y-79694295D02*
X145348935Y-79656200D01*
X145348935Y-79656200D02*
X145387030Y-79618104D01*
X144663220Y-78894295D02*
X144396553Y-79694295D01*
X144396553Y-79694295D02*
X144129887Y-78894295D01*
X143939411Y-78894295D02*
X143444173Y-78894295D01*
X143444173Y-78894295D02*
X143710839Y-79199057D01*
X143710839Y-79199057D02*
X143596554Y-79199057D01*
X143596554Y-79199057D02*
X143520363Y-79237152D01*
X143520363Y-79237152D02*
X143482268Y-79275247D01*
X143482268Y-79275247D02*
X143444173Y-79351438D01*
X143444173Y-79351438D02*
X143444173Y-79541914D01*
X143444173Y-79541914D02*
X143482268Y-79618104D01*
X143482268Y-79618104D02*
X143520363Y-79656200D01*
X143520363Y-79656200D02*
X143596554Y-79694295D01*
X143596554Y-79694295D02*
X143825125Y-79694295D01*
X143825125Y-79694295D02*
X143901316Y-79656200D01*
X143901316Y-79656200D02*
X143939411Y-79618104D01*
X144067609Y-85791792D02*
X144105704Y-85867982D01*
X144105704Y-85867982D02*
X144105704Y-85982268D01*
X144105704Y-85982268D02*
X144067609Y-86096554D01*
X144067609Y-86096554D02*
X143991419Y-86172744D01*
X143991419Y-86172744D02*
X143915228Y-86210839D01*
X143915228Y-86210839D02*
X143762847Y-86248935D01*
X143762847Y-86248935D02*
X143648561Y-86248935D01*
X143648561Y-86248935D02*
X143496180Y-86210839D01*
X143496180Y-86210839D02*
X143419990Y-86172744D01*
X143419990Y-86172744D02*
X143343800Y-86096554D01*
X143343800Y-86096554D02*
X143305704Y-85982268D01*
X143305704Y-85982268D02*
X143305704Y-85906077D01*
X143305704Y-85906077D02*
X143343800Y-85791792D01*
X143343800Y-85791792D02*
X143381895Y-85753696D01*
X143381895Y-85753696D02*
X143648561Y-85753696D01*
X143648561Y-85753696D02*
X143648561Y-85906077D01*
X143839038Y-85410839D02*
X143305704Y-85410839D01*
X143762847Y-85410839D02*
X143800942Y-85372744D01*
X143800942Y-85372744D02*
X143839038Y-85296554D01*
X143839038Y-85296554D02*
X143839038Y-85182268D01*
X143839038Y-85182268D02*
X143800942Y-85106077D01*
X143800942Y-85106077D02*
X143724752Y-85067982D01*
X143724752Y-85067982D02*
X143305704Y-85067982D01*
X143305704Y-84344172D02*
X144105704Y-84344172D01*
X143343800Y-84344172D02*
X143305704Y-84420363D01*
X143305704Y-84420363D02*
X143305704Y-84572744D01*
X143305704Y-84572744D02*
X143343800Y-84648934D01*
X143343800Y-84648934D02*
X143381895Y-84687029D01*
X143381895Y-84687029D02*
X143458085Y-84725125D01*
X143458085Y-84725125D02*
X143686657Y-84725125D01*
X143686657Y-84725125D02*
X143762847Y-84687029D01*
X143762847Y-84687029D02*
X143800942Y-84648934D01*
X143800942Y-84648934D02*
X143839038Y-84572744D01*
X143839038Y-84572744D02*
X143839038Y-84420363D01*
X143839038Y-84420363D02*
X143800942Y-84344172D01*
X149458458Y-85294295D02*
X149382268Y-85294295D01*
X149382268Y-85294295D02*
X149306077Y-85332390D01*
X149306077Y-85332390D02*
X149267982Y-85370485D01*
X149267982Y-85370485D02*
X149229887Y-85446676D01*
X149229887Y-85446676D02*
X149191792Y-85599057D01*
X149191792Y-85599057D02*
X149191792Y-85789533D01*
X149191792Y-85789533D02*
X149229887Y-85941914D01*
X149229887Y-85941914D02*
X149267982Y-86018104D01*
X149267982Y-86018104D02*
X149306077Y-86056200D01*
X149306077Y-86056200D02*
X149382268Y-86094295D01*
X149382268Y-86094295D02*
X149458458Y-86094295D01*
X149458458Y-86094295D02*
X149534649Y-86056200D01*
X149534649Y-86056200D02*
X149572744Y-86018104D01*
X149572744Y-86018104D02*
X149610839Y-85941914D01*
X149610839Y-85941914D02*
X149648935Y-85789533D01*
X149648935Y-85789533D02*
X149648935Y-85599057D01*
X149648935Y-85599057D02*
X149610839Y-85446676D01*
X149610839Y-85446676D02*
X149572744Y-85370485D01*
X149572744Y-85370485D02*
X149534649Y-85332390D01*
X149534649Y-85332390D02*
X149458458Y-85294295D01*
X148925125Y-86094295D02*
X148506077Y-85560961D01*
X148925125Y-85560961D02*
X148506077Y-86094295D01*
X147858458Y-85560961D02*
X147858458Y-86094295D01*
X148048934Y-85256200D02*
X148239411Y-85827628D01*
X148239411Y-85827628D02*
X147744172Y-85827628D01*
X147401315Y-86094295D02*
X147248934Y-86094295D01*
X147248934Y-86094295D02*
X147172744Y-86056200D01*
X147172744Y-86056200D02*
X147134648Y-86018104D01*
X147134648Y-86018104D02*
X147058458Y-85903819D01*
X147058458Y-85903819D02*
X147020363Y-85751438D01*
X147020363Y-85751438D02*
X147020363Y-85446676D01*
X147020363Y-85446676D02*
X147058458Y-85370485D01*
X147058458Y-85370485D02*
X147096553Y-85332390D01*
X147096553Y-85332390D02*
X147172744Y-85294295D01*
X147172744Y-85294295D02*
X147325125Y-85294295D01*
X147325125Y-85294295D02*
X147401315Y-85332390D01*
X147401315Y-85332390D02*
X147439410Y-85370485D01*
X147439410Y-85370485D02*
X147477506Y-85446676D01*
X147477506Y-85446676D02*
X147477506Y-85637152D01*
X147477506Y-85637152D02*
X147439410Y-85713342D01*
X147439410Y-85713342D02*
X147401315Y-85751438D01*
X147401315Y-85751438D02*
X147325125Y-85789533D01*
X147325125Y-85789533D02*
X147172744Y-85789533D01*
X147172744Y-85789533D02*
X147096553Y-85751438D01*
X147096553Y-85751438D02*
X147058458Y-85713342D01*
X147058458Y-85713342D02*
X147020363Y-85637152D01*
X145348935Y-83656200D02*
X145234649Y-83694295D01*
X145234649Y-83694295D02*
X145044173Y-83694295D01*
X145044173Y-83694295D02*
X144967982Y-83656200D01*
X144967982Y-83656200D02*
X144929887Y-83618104D01*
X144929887Y-83618104D02*
X144891792Y-83541914D01*
X144891792Y-83541914D02*
X144891792Y-83465723D01*
X144891792Y-83465723D02*
X144929887Y-83389533D01*
X144929887Y-83389533D02*
X144967982Y-83351438D01*
X144967982Y-83351438D02*
X145044173Y-83313342D01*
X145044173Y-83313342D02*
X145196554Y-83275247D01*
X145196554Y-83275247D02*
X145272744Y-83237152D01*
X145272744Y-83237152D02*
X145310839Y-83199057D01*
X145310839Y-83199057D02*
X145348935Y-83122866D01*
X145348935Y-83122866D02*
X145348935Y-83046676D01*
X145348935Y-83046676D02*
X145310839Y-82970485D01*
X145310839Y-82970485D02*
X145272744Y-82932390D01*
X145272744Y-82932390D02*
X145196554Y-82894295D01*
X145196554Y-82894295D02*
X145006077Y-82894295D01*
X145006077Y-82894295D02*
X144891792Y-82932390D01*
X144091791Y-83618104D02*
X144129887Y-83656200D01*
X144129887Y-83656200D02*
X144244172Y-83694295D01*
X144244172Y-83694295D02*
X144320363Y-83694295D01*
X144320363Y-83694295D02*
X144434649Y-83656200D01*
X144434649Y-83656200D02*
X144510839Y-83580009D01*
X144510839Y-83580009D02*
X144548934Y-83503819D01*
X144548934Y-83503819D02*
X144587030Y-83351438D01*
X144587030Y-83351438D02*
X144587030Y-83237152D01*
X144587030Y-83237152D02*
X144548934Y-83084771D01*
X144548934Y-83084771D02*
X144510839Y-83008580D01*
X144510839Y-83008580D02*
X144434649Y-82932390D01*
X144434649Y-82932390D02*
X144320363Y-82894295D01*
X144320363Y-82894295D02*
X144244172Y-82894295D01*
X144244172Y-82894295D02*
X144129887Y-82932390D01*
X144129887Y-82932390D02*
X144091791Y-82970485D01*
X143367982Y-83694295D02*
X143748934Y-83694295D01*
X143748934Y-83694295D02*
X143748934Y-82894295D01*
X145348935Y-81556200D02*
X145234649Y-81594295D01*
X145234649Y-81594295D02*
X145044173Y-81594295D01*
X145044173Y-81594295D02*
X144967982Y-81556200D01*
X144967982Y-81556200D02*
X144929887Y-81518104D01*
X144929887Y-81518104D02*
X144891792Y-81441914D01*
X144891792Y-81441914D02*
X144891792Y-81365723D01*
X144891792Y-81365723D02*
X144929887Y-81289533D01*
X144929887Y-81289533D02*
X144967982Y-81251438D01*
X144967982Y-81251438D02*
X145044173Y-81213342D01*
X145044173Y-81213342D02*
X145196554Y-81175247D01*
X145196554Y-81175247D02*
X145272744Y-81137152D01*
X145272744Y-81137152D02*
X145310839Y-81099057D01*
X145310839Y-81099057D02*
X145348935Y-81022866D01*
X145348935Y-81022866D02*
X145348935Y-80946676D01*
X145348935Y-80946676D02*
X145310839Y-80870485D01*
X145310839Y-80870485D02*
X145272744Y-80832390D01*
X145272744Y-80832390D02*
X145196554Y-80794295D01*
X145196554Y-80794295D02*
X145006077Y-80794295D01*
X145006077Y-80794295D02*
X144891792Y-80832390D01*
X144548934Y-81594295D02*
X144548934Y-80794295D01*
X144548934Y-80794295D02*
X144358458Y-80794295D01*
X144358458Y-80794295D02*
X144244172Y-80832390D01*
X144244172Y-80832390D02*
X144167982Y-80908580D01*
X144167982Y-80908580D02*
X144129887Y-80984771D01*
X144129887Y-80984771D02*
X144091791Y-81137152D01*
X144091791Y-81137152D02*
X144091791Y-81251438D01*
X144091791Y-81251438D02*
X144129887Y-81403819D01*
X144129887Y-81403819D02*
X144167982Y-81480009D01*
X144167982Y-81480009D02*
X144244172Y-81556200D01*
X144244172Y-81556200D02*
X144358458Y-81594295D01*
X144358458Y-81594295D02*
X144548934Y-81594295D01*
X143787030Y-81365723D02*
X143406077Y-81365723D01*
X143863220Y-81594295D02*
X143596553Y-80794295D01*
X143596553Y-80794295D02*
X143329887Y-81594295D01*
X146810839Y-61194295D02*
X146810839Y-60394295D01*
X146810839Y-60394295D02*
X146620363Y-60394295D01*
X146620363Y-60394295D02*
X146506077Y-60432390D01*
X146506077Y-60432390D02*
X146429887Y-60508580D01*
X146429887Y-60508580D02*
X146391792Y-60584771D01*
X146391792Y-60584771D02*
X146353696Y-60737152D01*
X146353696Y-60737152D02*
X146353696Y-60851438D01*
X146353696Y-60851438D02*
X146391792Y-61003819D01*
X146391792Y-61003819D02*
X146429887Y-61080009D01*
X146429887Y-61080009D02*
X146506077Y-61156200D01*
X146506077Y-61156200D02*
X146620363Y-61194295D01*
X146620363Y-61194295D02*
X146810839Y-61194295D01*
X145896554Y-61194295D02*
X145972744Y-61156200D01*
X145972744Y-61156200D02*
X146010839Y-61118104D01*
X146010839Y-61118104D02*
X146048935Y-61041914D01*
X146048935Y-61041914D02*
X146048935Y-60813342D01*
X146048935Y-60813342D02*
X146010839Y-60737152D01*
X146010839Y-60737152D02*
X145972744Y-60699057D01*
X145972744Y-60699057D02*
X145896554Y-60660961D01*
X145896554Y-60660961D02*
X145782268Y-60660961D01*
X145782268Y-60660961D02*
X145706077Y-60699057D01*
X145706077Y-60699057D02*
X145667982Y-60737152D01*
X145667982Y-60737152D02*
X145629887Y-60813342D01*
X145629887Y-60813342D02*
X145629887Y-61041914D01*
X145629887Y-61041914D02*
X145667982Y-61118104D01*
X145667982Y-61118104D02*
X145706077Y-61156200D01*
X145706077Y-61156200D02*
X145782268Y-61194295D01*
X145782268Y-61194295D02*
X145896554Y-61194295D01*
X145287029Y-60660961D02*
X145287029Y-61194295D01*
X145287029Y-60737152D02*
X145248934Y-60699057D01*
X145248934Y-60699057D02*
X145172744Y-60660961D01*
X145172744Y-60660961D02*
X145058458Y-60660961D01*
X145058458Y-60660961D02*
X144982267Y-60699057D01*
X144982267Y-60699057D02*
X144944172Y-60775247D01*
X144944172Y-60775247D02*
X144944172Y-61194295D01*
X144677505Y-60660961D02*
X144372743Y-60660961D01*
X144563219Y-60394295D02*
X144563219Y-61080009D01*
X144563219Y-61080009D02*
X144525124Y-61156200D01*
X144525124Y-61156200D02*
X144448934Y-61194295D01*
X144448934Y-61194295D02*
X144372743Y-61194295D01*
X144220362Y-60394295D02*
X143763219Y-60394295D01*
X143991791Y-61194295D02*
X143991791Y-60394295D01*
X143382267Y-61194295D02*
X143458457Y-61156200D01*
X143458457Y-61156200D02*
X143496552Y-61118104D01*
X143496552Y-61118104D02*
X143534648Y-61041914D01*
X143534648Y-61041914D02*
X143534648Y-60813342D01*
X143534648Y-60813342D02*
X143496552Y-60737152D01*
X143496552Y-60737152D02*
X143458457Y-60699057D01*
X143458457Y-60699057D02*
X143382267Y-60660961D01*
X143382267Y-60660961D02*
X143267981Y-60660961D01*
X143267981Y-60660961D02*
X143191790Y-60699057D01*
X143191790Y-60699057D02*
X143153695Y-60737152D01*
X143153695Y-60737152D02*
X143115600Y-60813342D01*
X143115600Y-60813342D02*
X143115600Y-61041914D01*
X143115600Y-61041914D02*
X143153695Y-61118104D01*
X143153695Y-61118104D02*
X143191790Y-61156200D01*
X143191790Y-61156200D02*
X143267981Y-61194295D01*
X143267981Y-61194295D02*
X143382267Y-61194295D01*
X142429885Y-60660961D02*
X142429885Y-61194295D01*
X142772742Y-60660961D02*
X142772742Y-61080009D01*
X142772742Y-61080009D02*
X142734647Y-61156200D01*
X142734647Y-61156200D02*
X142658457Y-61194295D01*
X142658457Y-61194295D02*
X142544171Y-61194295D01*
X142544171Y-61194295D02*
X142467980Y-61156200D01*
X142467980Y-61156200D02*
X142429885Y-61118104D01*
X141706075Y-61156200D02*
X141782266Y-61194295D01*
X141782266Y-61194295D02*
X141934647Y-61194295D01*
X141934647Y-61194295D02*
X142010837Y-61156200D01*
X142010837Y-61156200D02*
X142048932Y-61118104D01*
X142048932Y-61118104D02*
X142087028Y-61041914D01*
X142087028Y-61041914D02*
X142087028Y-60813342D01*
X142087028Y-60813342D02*
X142048932Y-60737152D01*
X142048932Y-60737152D02*
X142010837Y-60699057D01*
X142010837Y-60699057D02*
X141934647Y-60660961D01*
X141934647Y-60660961D02*
X141782266Y-60660961D01*
X141782266Y-60660961D02*
X141706075Y-60699057D01*
X141363218Y-61194295D02*
X141363218Y-60394295D01*
X141020361Y-61194295D02*
X141020361Y-60775247D01*
X141020361Y-60775247D02*
X141058456Y-60699057D01*
X141058456Y-60699057D02*
X141134647Y-60660961D01*
X141134647Y-60660961D02*
X141248933Y-60660961D01*
X141248933Y-60660961D02*
X141325123Y-60699057D01*
X141325123Y-60699057D02*
X141363218Y-60737152D01*
X140639408Y-61194295D02*
X140639408Y-60394295D01*
X140372742Y-60660961D02*
X140067980Y-60660961D01*
X140258456Y-60394295D02*
X140258456Y-61080009D01*
X140258456Y-61080009D02*
X140220361Y-61156200D01*
X140220361Y-61156200D02*
X140144171Y-61194295D01*
X140144171Y-61194295D02*
X140067980Y-61194295D01*
X149725125Y-87894295D02*
X149267982Y-87894295D01*
X149496554Y-88694295D02*
X149496554Y-87894295D01*
X148696553Y-88656200D02*
X148772744Y-88694295D01*
X148772744Y-88694295D02*
X148925125Y-88694295D01*
X148925125Y-88694295D02*
X149001315Y-88656200D01*
X149001315Y-88656200D02*
X149039411Y-88580009D01*
X149039411Y-88580009D02*
X149039411Y-88275247D01*
X149039411Y-88275247D02*
X149001315Y-88199057D01*
X149001315Y-88199057D02*
X148925125Y-88160961D01*
X148925125Y-88160961D02*
X148772744Y-88160961D01*
X148772744Y-88160961D02*
X148696553Y-88199057D01*
X148696553Y-88199057D02*
X148658458Y-88275247D01*
X148658458Y-88275247D02*
X148658458Y-88351438D01*
X148658458Y-88351438D02*
X149039411Y-88427628D01*
X148315601Y-88694295D02*
X148315601Y-88160961D01*
X148315601Y-88237152D02*
X148277506Y-88199057D01*
X148277506Y-88199057D02*
X148201316Y-88160961D01*
X148201316Y-88160961D02*
X148087030Y-88160961D01*
X148087030Y-88160961D02*
X148010839Y-88199057D01*
X148010839Y-88199057D02*
X147972744Y-88275247D01*
X147972744Y-88275247D02*
X147972744Y-88694295D01*
X147972744Y-88275247D02*
X147934649Y-88199057D01*
X147934649Y-88199057D02*
X147858458Y-88160961D01*
X147858458Y-88160961D02*
X147744173Y-88160961D01*
X147744173Y-88160961D02*
X147667982Y-88199057D01*
X147667982Y-88199057D02*
X147629887Y-88275247D01*
X147629887Y-88275247D02*
X147629887Y-88694295D01*
X147248934Y-88160961D02*
X147248934Y-88960961D01*
X147248934Y-88199057D02*
X147172744Y-88160961D01*
X147172744Y-88160961D02*
X147020363Y-88160961D01*
X147020363Y-88160961D02*
X146944172Y-88199057D01*
X146944172Y-88199057D02*
X146906077Y-88237152D01*
X146906077Y-88237152D02*
X146867982Y-88313342D01*
X146867982Y-88313342D02*
X146867982Y-88541914D01*
X146867982Y-88541914D02*
X146906077Y-88618104D01*
X146906077Y-88618104D02*
X146944172Y-88656200D01*
X146944172Y-88656200D02*
X147020363Y-88694295D01*
X147020363Y-88694295D02*
X147172744Y-88694295D01*
X147172744Y-88694295D02*
X147248934Y-88656200D01*
X147705704Y-81258458D02*
X147705704Y-81182268D01*
X147705704Y-81182268D02*
X147667609Y-81106077D01*
X147667609Y-81106077D02*
X147629514Y-81067982D01*
X147629514Y-81067982D02*
X147553323Y-81029887D01*
X147553323Y-81029887D02*
X147400942Y-80991792D01*
X147400942Y-80991792D02*
X147210466Y-80991792D01*
X147210466Y-80991792D02*
X147058085Y-81029887D01*
X147058085Y-81029887D02*
X146981895Y-81067982D01*
X146981895Y-81067982D02*
X146943800Y-81106077D01*
X146943800Y-81106077D02*
X146905704Y-81182268D01*
X146905704Y-81182268D02*
X146905704Y-81258458D01*
X146905704Y-81258458D02*
X146943800Y-81334649D01*
X146943800Y-81334649D02*
X146981895Y-81372744D01*
X146981895Y-81372744D02*
X147058085Y-81410839D01*
X147058085Y-81410839D02*
X147210466Y-81448935D01*
X147210466Y-81448935D02*
X147400942Y-81448935D01*
X147400942Y-81448935D02*
X147553323Y-81410839D01*
X147553323Y-81410839D02*
X147629514Y-81372744D01*
X147629514Y-81372744D02*
X147667609Y-81334649D01*
X147667609Y-81334649D02*
X147705704Y-81258458D01*
X146905704Y-80725125D02*
X147439038Y-80306077D01*
X147439038Y-80725125D02*
X146905704Y-80306077D01*
X147629514Y-80039411D02*
X147667609Y-80001315D01*
X147667609Y-80001315D02*
X147705704Y-79925125D01*
X147705704Y-79925125D02*
X147705704Y-79734649D01*
X147705704Y-79734649D02*
X147667609Y-79658458D01*
X147667609Y-79658458D02*
X147629514Y-79620363D01*
X147629514Y-79620363D02*
X147553323Y-79582268D01*
X147553323Y-79582268D02*
X147477133Y-79582268D01*
X147477133Y-79582268D02*
X147362847Y-79620363D01*
X147362847Y-79620363D02*
X146905704Y-80077506D01*
X146905704Y-80077506D02*
X146905704Y-79582268D01*
X147324752Y-78972744D02*
X147286657Y-78858458D01*
X147286657Y-78858458D02*
X147248561Y-78820363D01*
X147248561Y-78820363D02*
X147172371Y-78782267D01*
X147172371Y-78782267D02*
X147058085Y-78782267D01*
X147058085Y-78782267D02*
X146981895Y-78820363D01*
X146981895Y-78820363D02*
X146943800Y-78858458D01*
X146943800Y-78858458D02*
X146905704Y-78934648D01*
X146905704Y-78934648D02*
X146905704Y-79239410D01*
X146905704Y-79239410D02*
X147705704Y-79239410D01*
X147705704Y-79239410D02*
X147705704Y-78972744D01*
X147705704Y-78972744D02*
X147667609Y-78896553D01*
X147667609Y-78896553D02*
X147629514Y-78858458D01*
X147629514Y-78858458D02*
X147553323Y-78820363D01*
X147553323Y-78820363D02*
X147477133Y-78820363D01*
X147477133Y-78820363D02*
X147400942Y-78858458D01*
X147400942Y-78858458D02*
X147362847Y-78896553D01*
X147362847Y-78896553D02*
X147324752Y-78972744D01*
X147324752Y-78972744D02*
X147324752Y-79239410D01*
X148529887Y-82594295D02*
X148910839Y-82594295D01*
X148910839Y-82594295D02*
X148910839Y-81794295D01*
X148263220Y-82594295D02*
X148263220Y-81794295D01*
X148263220Y-81794295D02*
X148072744Y-81794295D01*
X148072744Y-81794295D02*
X147958458Y-81832390D01*
X147958458Y-81832390D02*
X147882268Y-81908580D01*
X147882268Y-81908580D02*
X147844173Y-81984771D01*
X147844173Y-81984771D02*
X147806077Y-82137152D01*
X147806077Y-82137152D02*
X147806077Y-82251438D01*
X147806077Y-82251438D02*
X147844173Y-82403819D01*
X147844173Y-82403819D02*
X147882268Y-82480009D01*
X147882268Y-82480009D02*
X147958458Y-82556200D01*
X147958458Y-82556200D02*
X148072744Y-82594295D01*
X148072744Y-82594295D02*
X148263220Y-82594295D01*
X147006077Y-82518104D02*
X147044173Y-82556200D01*
X147044173Y-82556200D02*
X147158458Y-82594295D01*
X147158458Y-82594295D02*
X147234649Y-82594295D01*
X147234649Y-82594295D02*
X147348935Y-82556200D01*
X147348935Y-82556200D02*
X147425125Y-82480009D01*
X147425125Y-82480009D02*
X147463220Y-82403819D01*
X147463220Y-82403819D02*
X147501316Y-82251438D01*
X147501316Y-82251438D02*
X147501316Y-82137152D01*
X147501316Y-82137152D02*
X147463220Y-81984771D01*
X147463220Y-81984771D02*
X147425125Y-81908580D01*
X147425125Y-81908580D02*
X147348935Y-81832390D01*
X147348935Y-81832390D02*
X147234649Y-81794295D01*
X147234649Y-81794295D02*
X147158458Y-81794295D01*
X147158458Y-81794295D02*
X147044173Y-81832390D01*
X147044173Y-81832390D02*
X147006077Y-81870485D01*
X149458458Y-86794295D02*
X149382268Y-86794295D01*
X149382268Y-86794295D02*
X149306077Y-86832390D01*
X149306077Y-86832390D02*
X149267982Y-86870485D01*
X149267982Y-86870485D02*
X149229887Y-86946676D01*
X149229887Y-86946676D02*
X149191792Y-87099057D01*
X149191792Y-87099057D02*
X149191792Y-87289533D01*
X149191792Y-87289533D02*
X149229887Y-87441914D01*
X149229887Y-87441914D02*
X149267982Y-87518104D01*
X149267982Y-87518104D02*
X149306077Y-87556200D01*
X149306077Y-87556200D02*
X149382268Y-87594295D01*
X149382268Y-87594295D02*
X149458458Y-87594295D01*
X149458458Y-87594295D02*
X149534649Y-87556200D01*
X149534649Y-87556200D02*
X149572744Y-87518104D01*
X149572744Y-87518104D02*
X149610839Y-87441914D01*
X149610839Y-87441914D02*
X149648935Y-87289533D01*
X149648935Y-87289533D02*
X149648935Y-87099057D01*
X149648935Y-87099057D02*
X149610839Y-86946676D01*
X149610839Y-86946676D02*
X149572744Y-86870485D01*
X149572744Y-86870485D02*
X149534649Y-86832390D01*
X149534649Y-86832390D02*
X149458458Y-86794295D01*
X148925125Y-87594295D02*
X148506077Y-87060961D01*
X148925125Y-87060961D02*
X148506077Y-87594295D01*
X147858458Y-87060961D02*
X147858458Y-87594295D01*
X148048934Y-86756200D02*
X148239411Y-87327628D01*
X148239411Y-87327628D02*
X147744172Y-87327628D01*
X147325125Y-87137152D02*
X147401315Y-87099057D01*
X147401315Y-87099057D02*
X147439410Y-87060961D01*
X147439410Y-87060961D02*
X147477506Y-86984771D01*
X147477506Y-86984771D02*
X147477506Y-86946676D01*
X147477506Y-86946676D02*
X147439410Y-86870485D01*
X147439410Y-86870485D02*
X147401315Y-86832390D01*
X147401315Y-86832390D02*
X147325125Y-86794295D01*
X147325125Y-86794295D02*
X147172744Y-86794295D01*
X147172744Y-86794295D02*
X147096553Y-86832390D01*
X147096553Y-86832390D02*
X147058458Y-86870485D01*
X147058458Y-86870485D02*
X147020363Y-86946676D01*
X147020363Y-86946676D02*
X147020363Y-86984771D01*
X147020363Y-86984771D02*
X147058458Y-87060961D01*
X147058458Y-87060961D02*
X147096553Y-87099057D01*
X147096553Y-87099057D02*
X147172744Y-87137152D01*
X147172744Y-87137152D02*
X147325125Y-87137152D01*
X147325125Y-87137152D02*
X147401315Y-87175247D01*
X147401315Y-87175247D02*
X147439410Y-87213342D01*
X147439410Y-87213342D02*
X147477506Y-87289533D01*
X147477506Y-87289533D02*
X147477506Y-87441914D01*
X147477506Y-87441914D02*
X147439410Y-87518104D01*
X147439410Y-87518104D02*
X147401315Y-87556200D01*
X147401315Y-87556200D02*
X147325125Y-87594295D01*
X147325125Y-87594295D02*
X147172744Y-87594295D01*
X147172744Y-87594295D02*
X147096553Y-87556200D01*
X147096553Y-87556200D02*
X147058458Y-87518104D01*
X147058458Y-87518104D02*
X147020363Y-87441914D01*
X147020363Y-87441914D02*
X147020363Y-87289533D01*
X147020363Y-87289533D02*
X147058458Y-87213342D01*
X147058458Y-87213342D02*
X147096553Y-87175247D01*
X147096553Y-87175247D02*
X147172744Y-87137152D01*
X149105704Y-81258458D02*
X149105704Y-81182268D01*
X149105704Y-81182268D02*
X149067609Y-81106077D01*
X149067609Y-81106077D02*
X149029514Y-81067982D01*
X149029514Y-81067982D02*
X148953323Y-81029887D01*
X148953323Y-81029887D02*
X148800942Y-80991792D01*
X148800942Y-80991792D02*
X148610466Y-80991792D01*
X148610466Y-80991792D02*
X148458085Y-81029887D01*
X148458085Y-81029887D02*
X148381895Y-81067982D01*
X148381895Y-81067982D02*
X148343800Y-81106077D01*
X148343800Y-81106077D02*
X148305704Y-81182268D01*
X148305704Y-81182268D02*
X148305704Y-81258458D01*
X148305704Y-81258458D02*
X148343800Y-81334649D01*
X148343800Y-81334649D02*
X148381895Y-81372744D01*
X148381895Y-81372744D02*
X148458085Y-81410839D01*
X148458085Y-81410839D02*
X148610466Y-81448935D01*
X148610466Y-81448935D02*
X148800942Y-81448935D01*
X148800942Y-81448935D02*
X148953323Y-81410839D01*
X148953323Y-81410839D02*
X149029514Y-81372744D01*
X149029514Y-81372744D02*
X149067609Y-81334649D01*
X149067609Y-81334649D02*
X149105704Y-81258458D01*
X148305704Y-80725125D02*
X148839038Y-80306077D01*
X148839038Y-80725125D02*
X148305704Y-80306077D01*
X149029514Y-80039411D02*
X149067609Y-80001315D01*
X149067609Y-80001315D02*
X149105704Y-79925125D01*
X149105704Y-79925125D02*
X149105704Y-79734649D01*
X149105704Y-79734649D02*
X149067609Y-79658458D01*
X149067609Y-79658458D02*
X149029514Y-79620363D01*
X149029514Y-79620363D02*
X148953323Y-79582268D01*
X148953323Y-79582268D02*
X148877133Y-79582268D01*
X148877133Y-79582268D02*
X148762847Y-79620363D01*
X148762847Y-79620363D02*
X148305704Y-80077506D01*
X148305704Y-80077506D02*
X148305704Y-79582268D01*
X148534276Y-79277506D02*
X148534276Y-78896553D01*
X148305704Y-79353696D02*
X149105704Y-79087029D01*
X149105704Y-79087029D02*
X148305704Y-78820363D01*
D11*
%TO.C,JP1*%
X145542500Y-88550000D02*
X146142500Y-88550000D01*
X144342500Y-88000000D02*
X144342500Y-87400000D01*
X146842500Y-87900000D02*
X146842500Y-85100000D01*
X144642500Y-87700000D02*
X144342500Y-88000000D01*
X144642500Y-87700000D02*
X144342500Y-87400000D01*
X144842500Y-85100000D02*
X144842500Y-87900000D01*
X146142500Y-84450000D02*
X145542500Y-84450000D01*
X144842500Y-87850000D02*
G75*
G03*
X145542500Y-88550000I699999J-1D01*
G01*
X146142500Y-88550000D02*
G75*
G03*
X146842500Y-87850000I1J699999D01*
G01*
X145542500Y-84450000D02*
G75*
G03*
X144842500Y-85150000I0J-700000D01*
G01*
X146842500Y-85150000D02*
G75*
G03*
X146142500Y-84450000I-700000J0D01*
G01*
%TO.C,JP2*%
X150050000Y-77657500D02*
X150050000Y-77057500D01*
X149500000Y-78857500D02*
X148900000Y-78857500D01*
X149400000Y-76357500D02*
X146600000Y-76357500D01*
X149200000Y-78557500D02*
X149500000Y-78857500D01*
X149200000Y-78557500D02*
X148900000Y-78857500D01*
X146600000Y-78357500D02*
X149400000Y-78357500D01*
X145950000Y-77057500D02*
X145950000Y-77657500D01*
X149350000Y-78357500D02*
G75*
G03*
X150050000Y-77657500I1J699999D01*
G01*
X150050000Y-77057500D02*
G75*
G03*
X149350000Y-76357500I-699999J1D01*
G01*
X145950000Y-77657500D02*
G75*
G03*
X146650000Y-78357500I700000J0D01*
G01*
X146650000Y-76357500D02*
G75*
G03*
X145950000Y-77057500I0J-700000D01*
G01*
%TD*%
M02*
