%TF.GenerationSoftware,KiCad,Pcbnew,7.0.5-4d25ed1034~172~ubuntu22.04.1*%
%TF.CreationDate,2023-06-17T19:19:04+02:00*%
%TF.ProjectId,donttouchit,646f6e74-746f-4756-9368-69742e6b6963,rev?*%
%TF.SameCoordinates,Original*%
%TF.FileFunction,Copper,L2,Bot*%
%TF.FilePolarity,Positive*%
%FSLAX46Y46*%
G04 Gerber Fmt 4.6, Leading zero omitted, Abs format (unit mm)*
G04 Created by KiCad (PCBNEW 7.0.5-4d25ed1034~172~ubuntu22.04.1) date 2023-06-17 19:19:04*
%MOMM*%
%LPD*%
G01*
G04 APERTURE LIST*
G04 Aperture macros list*
%AMRoundRect*
0 Rectangle with rounded corners*
0 $1 Rounding radius*
0 $2 $3 $4 $5 $6 $7 $8 $9 X,Y pos of 4 corners*
0 Add a 4 corners polygon primitive as box body*
4,1,4,$2,$3,$4,$5,$6,$7,$8,$9,$2,$3,0*
0 Add four circle primitives for the rounded corners*
1,1,$1+$1,$2,$3*
1,1,$1+$1,$4,$5*
1,1,$1+$1,$6,$7*
1,1,$1+$1,$8,$9*
0 Add four rect primitives between the rounded corners*
20,1,$1+$1,$2,$3,$4,$5,0*
20,1,$1+$1,$4,$5,$6,$7,0*
20,1,$1+$1,$6,$7,$8,$9,0*
20,1,$1+$1,$8,$9,$2,$3,0*%
%AMFreePoly0*
4,1,19,0.550000,-0.750000,0.000000,-0.750000,0.000000,-0.744911,-0.071157,-0.744911,-0.207708,-0.704816,-0.327430,-0.627875,-0.420627,-0.520320,-0.479746,-0.390866,-0.500000,-0.250000,-0.500000,0.250000,-0.479746,0.390866,-0.420627,0.520320,-0.327430,0.627875,-0.207708,0.704816,-0.071157,0.744911,0.000000,0.744911,0.000000,0.750000,0.550000,0.750000,0.550000,-0.750000,0.550000,-0.750000,
$1*%
%AMFreePoly1*
4,1,19,0.000000,0.744911,0.071157,0.744911,0.207708,0.704816,0.327430,0.627875,0.420627,0.520320,0.479746,0.390866,0.500000,0.250000,0.500000,-0.250000,0.479746,-0.390866,0.420627,-0.520320,0.327430,-0.627875,0.207708,-0.704816,0.071157,-0.744911,0.000000,-0.744911,0.000000,-0.750000,-0.550000,-0.750000,-0.550000,0.750000,0.000000,0.750000,0.000000,0.744911,0.000000,0.744911,
$1*%
G04 Aperture macros list end*
%TA.AperFunction,EtchedComponent*%
%ADD10C,0.127000*%
%TD*%
%TA.AperFunction,ComponentPad*%
%ADD11C,0.500000*%
%TD*%
%TA.AperFunction,SMDPad,CuDef*%
%ADD12R,2.600000X2.600000*%
%TD*%
%TA.AperFunction,ComponentPad*%
%ADD13R,1.500000X1.500000*%
%TD*%
%TA.AperFunction,SMDPad,CuDef*%
%ADD14RoundRect,0.031750X0.968250X0.031750X-0.968250X0.031750X-0.968250X-0.031750X0.968250X-0.031750X0*%
%TD*%
%TA.AperFunction,ComponentPad*%
%ADD15C,1.000000*%
%TD*%
%TA.AperFunction,SMDPad,CuDef*%
%ADD16RoundRect,0.250000X0.250000X0.500000X-0.250000X0.500000X-0.250000X-0.500000X0.250000X-0.500000X0*%
%TD*%
%TA.AperFunction,SMDPad,CuDef*%
%ADD17RoundRect,0.031750X-0.968250X-0.031750X0.968250X-0.031750X0.968250X0.031750X-0.968250X0.031750X0*%
%TD*%
%TA.AperFunction,SMDPad,CuDef*%
%ADD18FreePoly0,90.000000*%
%TD*%
%TA.AperFunction,SMDPad,CuDef*%
%ADD19R,1.500000X1.000000*%
%TD*%
%TA.AperFunction,SMDPad,CuDef*%
%ADD20FreePoly1,90.000000*%
%TD*%
%TA.AperFunction,SMDPad,CuDef*%
%ADD21FreePoly0,180.000000*%
%TD*%
%TA.AperFunction,SMDPad,CuDef*%
%ADD22R,1.000000X1.500000*%
%TD*%
%TA.AperFunction,SMDPad,CuDef*%
%ADD23FreePoly1,180.000000*%
%TD*%
%TA.AperFunction,SMDPad,CuDef*%
%ADD24RoundRect,0.031750X0.031750X-0.968250X0.031750X0.968250X-0.031750X0.968250X-0.031750X-0.968250X0*%
%TD*%
%TA.AperFunction,SMDPad,CuDef*%
%ADD25RoundRect,0.250000X-2.500000X0.250000X-2.500000X-0.250000X2.500000X-0.250000X2.500000X0.250000X0*%
%TD*%
%TA.AperFunction,SMDPad,CuDef*%
%ADD26RoundRect,0.250000X-1.250000X0.550000X-1.250000X-0.550000X1.250000X-0.550000X1.250000X0.550000X0*%
%TD*%
%TA.AperFunction,SMDPad,CuDef*%
%ADD27RoundRect,0.250000X0.500000X-0.250000X0.500000X0.250000X-0.500000X0.250000X-0.500000X-0.250000X0*%
%TD*%
%TA.AperFunction,SMDPad,CuDef*%
%ADD28RoundRect,0.250000X-0.250000X-0.500000X0.250000X-0.500000X0.250000X0.500000X-0.250000X0.500000X0*%
%TD*%
%TA.AperFunction,ViaPad*%
%ADD29C,0.600000*%
%TD*%
%TA.AperFunction,Conductor*%
%ADD30C,0.500000*%
%TD*%
%TA.AperFunction,Conductor*%
%ADD31C,0.250000*%
%TD*%
%TA.AperFunction,Conductor*%
%ADD32C,0.300000*%
%TD*%
%TA.AperFunction,Conductor*%
%ADD33C,0.127000*%
%TD*%
G04 APERTURE END LIST*
D10*
%TO.C,L3*%
X151374000Y-68874000D02*
X151374000Y-53126000D01*
X151374000Y-68874000D02*
X150358000Y-68874000D01*
X151374000Y-53126000D02*
X135626000Y-53126000D01*
X151120000Y-68620000D02*
X151120000Y-53380000D01*
X151120000Y-53380000D02*
X135880000Y-53380000D01*
X150866000Y-68366000D02*
X150866000Y-53634000D01*
X150866000Y-53634000D02*
X136134000Y-53634000D01*
X150612000Y-68112000D02*
X150612000Y-53888000D01*
X150612000Y-53888000D02*
X136388000Y-53888000D01*
X150358000Y-67858000D02*
X150358000Y-54142000D01*
X150358000Y-54142000D02*
X136642000Y-54142000D01*
X150104000Y-67604000D02*
X150104000Y-54396000D01*
X150104000Y-54396000D02*
X136896000Y-54396000D01*
X149850000Y-67350000D02*
X149850000Y-54650000D01*
X149850000Y-54650000D02*
X137150000Y-54650000D01*
X149596000Y-67096000D02*
X149596000Y-54904000D01*
X149596000Y-54904000D02*
X137404000Y-54904000D01*
X149342000Y-66842000D02*
X149342000Y-55158000D01*
X149342000Y-55158000D02*
X137658000Y-55158000D01*
X149088000Y-66588000D02*
X149088000Y-55412000D01*
X149088000Y-55412000D02*
X137912000Y-55412000D01*
X148834000Y-66334000D02*
X148834000Y-55666000D01*
X148834000Y-55666000D02*
X138166000Y-55666000D01*
X148580000Y-66080000D02*
X148580000Y-55920000D01*
X148580000Y-55920000D02*
X138420000Y-55920000D01*
X148326000Y-65826000D02*
X148326000Y-56174000D01*
X148326000Y-56174000D02*
X138674000Y-56174000D01*
X148072000Y-65572000D02*
X148072000Y-56428000D01*
X148072000Y-56428000D02*
X138928000Y-56428000D01*
X147818000Y-65318000D02*
X147818000Y-56682000D01*
X147818000Y-56682000D02*
X139182000Y-56682000D01*
X147564000Y-65064000D02*
X147564000Y-56936000D01*
X147564000Y-56936000D02*
X139436000Y-56936000D01*
X147310000Y-64810000D02*
X147310000Y-57190000D01*
X147310000Y-57190000D02*
X139690000Y-57190000D01*
X147056000Y-64556000D02*
X147056000Y-57444000D01*
X147056000Y-57444000D02*
X139944000Y-57444000D01*
X146802000Y-64302000D02*
X146802000Y-57698000D01*
X146802000Y-57698000D02*
X140198000Y-57698000D01*
X146548000Y-64048000D02*
X146548000Y-57952000D01*
X146548000Y-57952000D02*
X140452000Y-57952000D01*
X146294000Y-63794000D02*
X146294000Y-58206000D01*
X146294000Y-58206000D02*
X140706000Y-58206000D01*
X146040000Y-63540000D02*
X146040000Y-58460000D01*
X146040000Y-58460000D02*
X140960000Y-58460000D01*
X145786000Y-63286000D02*
X145786000Y-58714000D01*
X145786000Y-58714000D02*
X141214000Y-58714000D01*
X145532000Y-63032000D02*
X145532000Y-58968000D01*
X145532000Y-58968000D02*
X141468000Y-58968000D01*
X143500000Y-62778000D02*
X143500000Y-62270000D01*
X141468000Y-62778000D02*
X143500000Y-62778000D01*
X141468000Y-58968000D02*
X141468000Y-62778000D01*
X141214000Y-63032000D02*
X145532000Y-63032000D01*
X141214000Y-58714000D02*
X141214000Y-63032000D01*
X140960000Y-63286000D02*
X145786000Y-63286000D01*
X140960000Y-58460000D02*
X140960000Y-63286000D01*
X140706000Y-63540000D02*
X146040000Y-63540000D01*
X140706000Y-58206000D02*
X140706000Y-63540000D01*
X140452000Y-63794000D02*
X146294000Y-63794000D01*
X140452000Y-57952000D02*
X140452000Y-63794000D01*
X140198000Y-64048000D02*
X146548000Y-64048000D01*
X140198000Y-57698000D02*
X140198000Y-64048000D01*
X139944000Y-64302000D02*
X146802000Y-64302000D01*
X139944000Y-57444000D02*
X139944000Y-64302000D01*
X139690000Y-64556000D02*
X147056000Y-64556000D01*
X139690000Y-57190000D02*
X139690000Y-64556000D01*
X139436000Y-64810000D02*
X147310000Y-64810000D01*
X139436000Y-56936000D02*
X139436000Y-64810000D01*
X139182000Y-65064000D02*
X147564000Y-65064000D01*
X139182000Y-56682000D02*
X139182000Y-65064000D01*
X138928000Y-65318000D02*
X147818000Y-65318000D01*
X138928000Y-56428000D02*
X138928000Y-65318000D01*
X138674000Y-65572000D02*
X148072000Y-65572000D01*
X138674000Y-56174000D02*
X138674000Y-65572000D01*
X138420000Y-65826000D02*
X148326000Y-65826000D01*
X138420000Y-55920000D02*
X138420000Y-65826000D01*
X138166000Y-66080000D02*
X148580000Y-66080000D01*
X138166000Y-55666000D02*
X138166000Y-66080000D01*
X137912000Y-66334000D02*
X148834000Y-66334000D01*
X137912000Y-55412000D02*
X137912000Y-66334000D01*
X137658000Y-66588000D02*
X149088000Y-66588000D01*
X137658000Y-55158000D02*
X137658000Y-66588000D01*
X137404000Y-66842000D02*
X149342000Y-66842000D01*
X137404000Y-54904000D02*
X137404000Y-66842000D01*
X137150000Y-67096000D02*
X149596000Y-67096000D01*
X137150000Y-54650000D02*
X137150000Y-67096000D01*
X136896000Y-67350000D02*
X149850000Y-67350000D01*
X136896000Y-54396000D02*
X136896000Y-67350000D01*
X136642000Y-67604000D02*
X150104000Y-67604000D01*
X136642000Y-54142000D02*
X136642000Y-67604000D01*
X136388000Y-67858000D02*
X150358000Y-67858000D01*
X136388000Y-53888000D02*
X136388000Y-67858000D01*
X136134000Y-68112000D02*
X150612000Y-68112000D01*
X136134000Y-53634000D02*
X136134000Y-68112000D01*
X135880000Y-68366000D02*
X150866000Y-68366000D01*
X135880000Y-53380000D02*
X135880000Y-68366000D01*
X135626000Y-68620000D02*
X151120000Y-68620000D01*
X135626000Y-53126000D02*
X135626000Y-68620000D01*
%TO.C,L1*%
X135626000Y-96126000D02*
X135626000Y-111874000D01*
X135626000Y-96126000D02*
X136642000Y-96126000D01*
X135626000Y-111874000D02*
X151374000Y-111874000D01*
X135880000Y-96380000D02*
X135880000Y-111620000D01*
X135880000Y-111620000D02*
X151120000Y-111620000D01*
X136134000Y-96634000D02*
X136134000Y-111366000D01*
X136134000Y-111366000D02*
X150866000Y-111366000D01*
X136388000Y-96888000D02*
X136388000Y-111112000D01*
X136388000Y-111112000D02*
X150612000Y-111112000D01*
X136642000Y-97142000D02*
X136642000Y-110858000D01*
X136642000Y-110858000D02*
X150358000Y-110858000D01*
X136896000Y-97396000D02*
X136896000Y-110604000D01*
X136896000Y-110604000D02*
X150104000Y-110604000D01*
X137150000Y-97650000D02*
X137150000Y-110350000D01*
X137150000Y-110350000D02*
X149850000Y-110350000D01*
X137404000Y-97904000D02*
X137404000Y-110096000D01*
X137404000Y-110096000D02*
X149596000Y-110096000D01*
X137658000Y-98158000D02*
X137658000Y-109842000D01*
X137658000Y-109842000D02*
X149342000Y-109842000D01*
X137912000Y-98412000D02*
X137912000Y-109588000D01*
X137912000Y-109588000D02*
X149088000Y-109588000D01*
X138166000Y-98666000D02*
X138166000Y-109334000D01*
X138166000Y-109334000D02*
X148834000Y-109334000D01*
X138420000Y-98920000D02*
X138420000Y-109080000D01*
X138420000Y-109080000D02*
X148580000Y-109080000D01*
X138674000Y-99174000D02*
X138674000Y-108826000D01*
X138674000Y-108826000D02*
X148326000Y-108826000D01*
X138928000Y-99428000D02*
X138928000Y-108572000D01*
X138928000Y-108572000D02*
X148072000Y-108572000D01*
X139182000Y-99682000D02*
X139182000Y-108318000D01*
X139182000Y-108318000D02*
X147818000Y-108318000D01*
X139436000Y-99936000D02*
X139436000Y-108064000D01*
X139436000Y-108064000D02*
X147564000Y-108064000D01*
X139690000Y-100190000D02*
X139690000Y-107810000D01*
X139690000Y-107810000D02*
X147310000Y-107810000D01*
X139944000Y-100444000D02*
X139944000Y-107556000D01*
X139944000Y-107556000D02*
X147056000Y-107556000D01*
X140198000Y-100698000D02*
X140198000Y-107302000D01*
X140198000Y-107302000D02*
X146802000Y-107302000D01*
X140452000Y-100952000D02*
X140452000Y-107048000D01*
X140452000Y-107048000D02*
X146548000Y-107048000D01*
X140706000Y-101206000D02*
X140706000Y-106794000D01*
X140706000Y-106794000D02*
X146294000Y-106794000D01*
X140960000Y-101460000D02*
X140960000Y-106540000D01*
X140960000Y-106540000D02*
X146040000Y-106540000D01*
X141214000Y-101714000D02*
X141214000Y-106286000D01*
X141214000Y-106286000D02*
X145786000Y-106286000D01*
X141468000Y-101968000D02*
X141468000Y-106032000D01*
X141468000Y-106032000D02*
X145532000Y-106032000D01*
X143500000Y-102222000D02*
X143500000Y-102730000D01*
X145532000Y-102222000D02*
X143500000Y-102222000D01*
X145532000Y-106032000D02*
X145532000Y-102222000D01*
X145786000Y-101968000D02*
X141468000Y-101968000D01*
X145786000Y-106286000D02*
X145786000Y-101968000D01*
X146040000Y-101714000D02*
X141214000Y-101714000D01*
X146040000Y-106540000D02*
X146040000Y-101714000D01*
X146294000Y-101460000D02*
X140960000Y-101460000D01*
X146294000Y-106794000D02*
X146294000Y-101460000D01*
X146548000Y-101206000D02*
X140706000Y-101206000D01*
X146548000Y-107048000D02*
X146548000Y-101206000D01*
X146802000Y-100952000D02*
X140452000Y-100952000D01*
X146802000Y-107302000D02*
X146802000Y-100952000D01*
X147056000Y-100698000D02*
X140198000Y-100698000D01*
X147056000Y-107556000D02*
X147056000Y-100698000D01*
X147310000Y-100444000D02*
X139944000Y-100444000D01*
X147310000Y-107810000D02*
X147310000Y-100444000D01*
X147564000Y-100190000D02*
X139690000Y-100190000D01*
X147564000Y-108064000D02*
X147564000Y-100190000D01*
X147818000Y-99936000D02*
X139436000Y-99936000D01*
X147818000Y-108318000D02*
X147818000Y-99936000D01*
X148072000Y-99682000D02*
X139182000Y-99682000D01*
X148072000Y-108572000D02*
X148072000Y-99682000D01*
X148326000Y-99428000D02*
X138928000Y-99428000D01*
X148326000Y-108826000D02*
X148326000Y-99428000D01*
X148580000Y-99174000D02*
X138674000Y-99174000D01*
X148580000Y-109080000D02*
X148580000Y-99174000D01*
X148834000Y-98920000D02*
X138420000Y-98920000D01*
X148834000Y-109334000D02*
X148834000Y-98920000D01*
X149088000Y-98666000D02*
X138166000Y-98666000D01*
X149088000Y-109588000D02*
X149088000Y-98666000D01*
X149342000Y-98412000D02*
X137912000Y-98412000D01*
X149342000Y-109842000D02*
X149342000Y-98412000D01*
X149596000Y-98158000D02*
X137658000Y-98158000D01*
X149596000Y-110096000D02*
X149596000Y-98158000D01*
X149850000Y-97904000D02*
X137404000Y-97904000D01*
X149850000Y-110350000D02*
X149850000Y-97904000D01*
X150104000Y-97650000D02*
X137150000Y-97650000D01*
X150104000Y-110604000D02*
X150104000Y-97650000D01*
X150358000Y-97396000D02*
X136896000Y-97396000D01*
X150358000Y-110858000D02*
X150358000Y-97396000D01*
X150612000Y-97142000D02*
X136642000Y-97142000D01*
X150612000Y-111112000D02*
X150612000Y-97142000D01*
X150866000Y-96888000D02*
X136388000Y-96888000D01*
X150866000Y-111366000D02*
X150866000Y-96888000D01*
X151120000Y-96634000D02*
X136134000Y-96634000D01*
X151120000Y-111620000D02*
X151120000Y-96634000D01*
X151374000Y-96380000D02*
X135880000Y-96380000D01*
X151374000Y-111874000D02*
X151374000Y-96380000D01*
%TA.AperFunction,EtchedComponent*%
%TO.C,JP1*%
G36*
X146142500Y-87400000D02*
G01*
X145542500Y-87400000D01*
X145542500Y-86900000D01*
X146142500Y-86900000D01*
X146142500Y-87400000D01*
G37*
%TD.AperFunction*%
%TA.AperFunction,EtchedComponent*%
%TO.C,JP2*%
G36*
X148900000Y-77657500D02*
G01*
X148400000Y-77657500D01*
X148400000Y-77057500D01*
X148900000Y-77057500D01*
X148900000Y-77657500D01*
G37*
%TD.AperFunction*%
%TO.C,L2*%
X157126000Y-90374000D02*
X172874000Y-90374000D01*
X157126000Y-90374000D02*
X157126000Y-89358000D01*
X172874000Y-90374000D02*
X172874000Y-74626000D01*
X157380000Y-90120000D02*
X172620000Y-90120000D01*
X172620000Y-90120000D02*
X172620000Y-74880000D01*
X157634000Y-89866000D02*
X172366000Y-89866000D01*
X172366000Y-89866000D02*
X172366000Y-75134000D01*
X157888000Y-89612000D02*
X172112000Y-89612000D01*
X172112000Y-89612000D02*
X172112000Y-75388000D01*
X158142000Y-89358000D02*
X171858000Y-89358000D01*
X171858000Y-89358000D02*
X171858000Y-75642000D01*
X158396000Y-89104000D02*
X171604000Y-89104000D01*
X171604000Y-89104000D02*
X171604000Y-75896000D01*
X158650000Y-88850000D02*
X171350000Y-88850000D01*
X171350000Y-88850000D02*
X171350000Y-76150000D01*
X158904000Y-88596000D02*
X171096000Y-88596000D01*
X171096000Y-88596000D02*
X171096000Y-76404000D01*
X159158000Y-88342000D02*
X170842000Y-88342000D01*
X170842000Y-88342000D02*
X170842000Y-76658000D01*
X159412000Y-88088000D02*
X170588000Y-88088000D01*
X170588000Y-88088000D02*
X170588000Y-76912000D01*
X159666000Y-87834000D02*
X170334000Y-87834000D01*
X170334000Y-87834000D02*
X170334000Y-77166000D01*
X159920000Y-87580000D02*
X170080000Y-87580000D01*
X170080000Y-87580000D02*
X170080000Y-77420000D01*
X160174000Y-87326000D02*
X169826000Y-87326000D01*
X169826000Y-87326000D02*
X169826000Y-77674000D01*
X160428000Y-87072000D02*
X169572000Y-87072000D01*
X169572000Y-87072000D02*
X169572000Y-77928000D01*
X160682000Y-86818000D02*
X169318000Y-86818000D01*
X169318000Y-86818000D02*
X169318000Y-78182000D01*
X160936000Y-86564000D02*
X169064000Y-86564000D01*
X169064000Y-86564000D02*
X169064000Y-78436000D01*
X161190000Y-86310000D02*
X168810000Y-86310000D01*
X168810000Y-86310000D02*
X168810000Y-78690000D01*
X161444000Y-86056000D02*
X168556000Y-86056000D01*
X168556000Y-86056000D02*
X168556000Y-78944000D01*
X161698000Y-85802000D02*
X168302000Y-85802000D01*
X168302000Y-85802000D02*
X168302000Y-79198000D01*
X161952000Y-85548000D02*
X168048000Y-85548000D01*
X168048000Y-85548000D02*
X168048000Y-79452000D01*
X162206000Y-85294000D02*
X167794000Y-85294000D01*
X167794000Y-85294000D02*
X167794000Y-79706000D01*
X162460000Y-85040000D02*
X167540000Y-85040000D01*
X167540000Y-85040000D02*
X167540000Y-79960000D01*
X162714000Y-84786000D02*
X167286000Y-84786000D01*
X167286000Y-84786000D02*
X167286000Y-80214000D01*
X162968000Y-84532000D02*
X167032000Y-84532000D01*
X167032000Y-84532000D02*
X167032000Y-80468000D01*
X163222000Y-82500000D02*
X163730000Y-82500000D01*
X163222000Y-80468000D02*
X163222000Y-82500000D01*
X167032000Y-80468000D02*
X163222000Y-80468000D01*
X162968000Y-80214000D02*
X162968000Y-84532000D01*
X167286000Y-80214000D02*
X162968000Y-80214000D01*
X162714000Y-79960000D02*
X162714000Y-84786000D01*
X167540000Y-79960000D02*
X162714000Y-79960000D01*
X162460000Y-79706000D02*
X162460000Y-85040000D01*
X167794000Y-79706000D02*
X162460000Y-79706000D01*
X162206000Y-79452000D02*
X162206000Y-85294000D01*
X168048000Y-79452000D02*
X162206000Y-79452000D01*
X161952000Y-79198000D02*
X161952000Y-85548000D01*
X168302000Y-79198000D02*
X161952000Y-79198000D01*
X161698000Y-78944000D02*
X161698000Y-85802000D01*
X168556000Y-78944000D02*
X161698000Y-78944000D01*
X161444000Y-78690000D02*
X161444000Y-86056000D01*
X168810000Y-78690000D02*
X161444000Y-78690000D01*
X161190000Y-78436000D02*
X161190000Y-86310000D01*
X169064000Y-78436000D02*
X161190000Y-78436000D01*
X160936000Y-78182000D02*
X160936000Y-86564000D01*
X169318000Y-78182000D02*
X160936000Y-78182000D01*
X160682000Y-77928000D02*
X160682000Y-86818000D01*
X169572000Y-77928000D02*
X160682000Y-77928000D01*
X160428000Y-77674000D02*
X160428000Y-87072000D01*
X169826000Y-77674000D02*
X160428000Y-77674000D01*
X160174000Y-77420000D02*
X160174000Y-87326000D01*
X170080000Y-77420000D02*
X160174000Y-77420000D01*
X159920000Y-77166000D02*
X159920000Y-87580000D01*
X170334000Y-77166000D02*
X159920000Y-77166000D01*
X159666000Y-76912000D02*
X159666000Y-87834000D01*
X170588000Y-76912000D02*
X159666000Y-76912000D01*
X159412000Y-76658000D02*
X159412000Y-88088000D01*
X170842000Y-76658000D02*
X159412000Y-76658000D01*
X159158000Y-76404000D02*
X159158000Y-88342000D01*
X171096000Y-76404000D02*
X159158000Y-76404000D01*
X158904000Y-76150000D02*
X158904000Y-88596000D01*
X171350000Y-76150000D02*
X158904000Y-76150000D01*
X158650000Y-75896000D02*
X158650000Y-88850000D01*
X171604000Y-75896000D02*
X158650000Y-75896000D01*
X158396000Y-75642000D02*
X158396000Y-89104000D01*
X171858000Y-75642000D02*
X158396000Y-75642000D01*
X158142000Y-75388000D02*
X158142000Y-89358000D01*
X172112000Y-75388000D02*
X158142000Y-75388000D01*
X157888000Y-75134000D02*
X157888000Y-89612000D01*
X172366000Y-75134000D02*
X157888000Y-75134000D01*
X157634000Y-74880000D02*
X157634000Y-89866000D01*
X172620000Y-74880000D02*
X157634000Y-74880000D01*
X157380000Y-74626000D02*
X157380000Y-90120000D01*
X172874000Y-74626000D02*
X157380000Y-74626000D01*
%TD*%
D11*
%TO.P,U1,17,GND*%
%TO.N,GND*%
X144012500Y-80337500D03*
X144012500Y-81387500D03*
X144012500Y-82437500D03*
X145062500Y-80337500D03*
X145062500Y-81387500D03*
D12*
X145062500Y-81387500D03*
D11*
X145062500Y-82437500D03*
X146112500Y-80337500D03*
X146112500Y-81387500D03*
X146112500Y-82437500D03*
%TD*%
D13*
%TO.P,TP3,1,1*%
%TO.N,IN1A*%
X156000000Y-85000000D03*
%TD*%
%TO.P,TP5,1,1*%
%TO.N,IN2A*%
X146000000Y-70000000D03*
%TD*%
%TO.P,TP9,1,1*%
%TO.N,IN0A*%
X141000000Y-90000000D03*
%TD*%
%TO.P,TP17,1,1*%
%TO.N,GND*%
X136000000Y-90000000D03*
%TD*%
%TO.P,TP4,1,1*%
%TO.N,IN1B*%
X156000000Y-80000000D03*
%TD*%
%TO.P,TP8,1,1*%
%TO.N,IN2B*%
X141000000Y-70000000D03*
%TD*%
%TO.P,TP1,1,1*%
%TO.N,IN0A*%
X141000000Y-95000000D03*
%TD*%
%TO.P,TP10,1,1*%
%TO.N,IN0B*%
X146000000Y-90000000D03*
%TD*%
%TO.P,TP14,1,1*%
%TO.N,IN3B*%
X140500000Y-77500000D03*
%TD*%
%TO.P,TP13,1,1*%
%TO.N,IN3A*%
X143000000Y-77500000D03*
%TD*%
%TO.P,TP19,1,1*%
%TO.N,GND*%
X151000000Y-90000000D03*
%TD*%
%TO.P,TP11,1,1*%
%TO.N,IN1A*%
X151000000Y-85000000D03*
%TD*%
%TO.P,TP7,1,1*%
%TO.N,IN2A*%
X146000000Y-75000000D03*
%TD*%
%TO.P,TP12,1,1*%
%TO.N,IN1B*%
X151000000Y-80000000D03*
%TD*%
%TO.P,TP2,1,1*%
%TO.N,IN0B*%
X146000000Y-95000000D03*
%TD*%
%TO.P,TP16,1,1*%
%TO.N,GND*%
X136000000Y-75000000D03*
%TD*%
%TO.P,TP18,1,1*%
%TO.N,GND*%
X151000000Y-75000000D03*
%TD*%
%TO.P,TP6,1,1*%
%TO.N,IN2B*%
X141000000Y-75000000D03*
%TD*%
D14*
%TO.P,L3,1,1*%
%TO.N,IN2A*%
X150104000Y-68874000D03*
D15*
%TO.P,L3,C*%
%TO.N,N/C*%
X143500000Y-62270000D03*
%TD*%
D16*
%TO.P,J6,1,Pin_1*%
%TO.N,IN2A*%
X144262000Y-74200000D03*
%TO.P,J6,2,Pin_2*%
%TO.N,IN2B*%
X142738000Y-74200000D03*
%TD*%
D17*
%TO.P,L1,1,1*%
%TO.N,IN0A*%
X136896000Y-96126000D03*
D15*
%TO.P,L1,C*%
%TO.N,N/C*%
X143500000Y-102730000D03*
%TD*%
D18*
%TO.P,JP1,1,A*%
%TO.N,GND*%
X145842500Y-87800000D03*
D19*
%TO.P,JP1,2,C*%
%TO.N,Net-(JP1-C)*%
X145842500Y-86500000D03*
D20*
%TO.P,JP1,3,B*%
%TO.N,VCC*%
X145842500Y-85200000D03*
%TD*%
D21*
%TO.P,JP2,1,A*%
%TO.N,GND*%
X149300000Y-77357500D03*
D22*
%TO.P,JP2,2,C*%
%TO.N,Net-(JP2-C)*%
X148000000Y-77357500D03*
D23*
%TO.P,JP2,3,B*%
%TO.N,VCC*%
X146700000Y-77357500D03*
%TD*%
D24*
%TO.P,L2,1,1*%
%TO.N,IN1A*%
X157126000Y-89104000D03*
D15*
%TO.P,L2,C*%
%TO.N,N/C*%
X163730000Y-82500000D03*
%TD*%
D25*
%TO.P,J10,1,Pin_1*%
%TO.N,VCC*%
X139750000Y-79500000D03*
%TO.P,J10,2,Pin_2*%
%TO.N,Net-(J10-Pin_2)*%
X139750000Y-81500000D03*
%TO.P,J10,3,Pin_3*%
%TO.N,Net-(J10-Pin_3)*%
X139750000Y-83500000D03*
%TO.P,J10,4,Pin_4*%
%TO.N,GND*%
X139750000Y-85500000D03*
D26*
%TO.P,J10,MP*%
%TO.N,N/C*%
X137500000Y-77100000D03*
X137500000Y-87900000D03*
%TD*%
D27*
%TO.P,J5,1,Pin_1*%
%TO.N,IN1A*%
X151800000Y-83262000D03*
%TO.P,J5,2,Pin_2*%
%TO.N,IN1B*%
X151800000Y-81738000D03*
%TD*%
D28*
%TO.P,J4,1,Pin_1*%
%TO.N,IN0A*%
X142738000Y-90800000D03*
%TO.P,J4,2,Pin_2*%
%TO.N,IN0B*%
X144262000Y-90800000D03*
%TD*%
D29*
%TO.N,VCC*%
X138600000Y-80300000D03*
X144700000Y-85400000D03*
%TO.N,GND*%
X136800000Y-86400000D03*
X140600000Y-80500000D03*
X144712500Y-87787500D03*
X143000000Y-83500000D03*
%TO.N,Net-(J10-Pin_2)*%
X142250000Y-80830000D03*
X136700000Y-80300000D03*
%TO.N,Net-(J10-Pin_3)*%
X136000000Y-84300000D03*
%TO.N,Net-(JP1-C)*%
X140400000Y-87500000D03*
%TO.N,Net-(JP2-C)*%
X143100000Y-82700000D03*
%TD*%
D30*
%TO.N,VCC*%
X138600000Y-80300000D02*
X138600000Y-79500000D01*
D31*
X145842500Y-85200000D02*
X144900000Y-85200000D01*
X145600000Y-77400000D02*
X143750000Y-79250000D01*
X143750000Y-79250000D02*
X139750000Y-79250000D01*
X146700000Y-77357500D02*
X146657500Y-77400000D01*
D30*
X138750000Y-79250000D02*
X138600000Y-79400000D01*
D31*
X144900000Y-85200000D02*
X144700000Y-85400000D01*
X146657500Y-77400000D02*
X145600000Y-77400000D01*
D30*
X139750000Y-79500000D02*
X138600000Y-79500000D01*
D32*
%TO.N,IN0B*%
X144262000Y-90800000D02*
X145200000Y-90800000D01*
X145200000Y-90800000D02*
X146000000Y-90000000D01*
D33*
%TO.N,IN0A*%
X139874000Y-96126000D02*
X141000000Y-95000000D01*
D32*
X142738000Y-90800000D02*
X141800000Y-90800000D01*
X141800000Y-90800000D02*
X141000000Y-90000000D01*
D33*
X136896000Y-96126000D02*
X139874000Y-96126000D01*
D32*
%TO.N,IN1B*%
X151800000Y-80800000D02*
X151000000Y-80000000D01*
X151800000Y-81738000D02*
X151800000Y-80800000D01*
%TO.N,IN1A*%
X151800000Y-84200000D02*
X151000000Y-85000000D01*
X151800000Y-83262000D02*
X151800000Y-84200000D01*
D33*
X157126000Y-89104000D02*
X157126000Y-86126000D01*
X157126000Y-86126000D02*
X156000000Y-85000000D01*
D32*
%TO.N,IN2B*%
X141800000Y-74200000D02*
X141000000Y-75000000D01*
X142738000Y-74200000D02*
X141800000Y-74200000D01*
%TO.N,IN2A*%
X144262000Y-74200000D02*
X145200000Y-74200000D01*
X145200000Y-74200000D02*
X146000000Y-75000000D01*
D33*
X147126000Y-68874000D02*
X146000000Y-70000000D01*
X150104000Y-68874000D02*
X147126000Y-68874000D01*
D31*
%TO.N,Net-(J10-Pin_2)*%
X141580000Y-81500000D02*
X139750000Y-81500000D01*
X136900000Y-81500000D02*
X139750000Y-81500000D01*
X136700000Y-81300000D02*
X136900000Y-81500000D01*
X136700000Y-80300000D02*
X136700000Y-81300000D01*
X142250000Y-80830000D02*
X141580000Y-81500000D01*
%TO.N,Net-(J10-Pin_3)*%
X136500000Y-83500000D02*
X139750000Y-83500000D01*
X136000000Y-84300000D02*
X136000000Y-84000000D01*
X136000000Y-84000000D02*
X136500000Y-83500000D01*
%TO.N,Net-(JP1-C)*%
X141400000Y-86500000D02*
X141250000Y-86650000D01*
X145842500Y-86500000D02*
X141400000Y-86500000D01*
X141250000Y-86650000D02*
X140400000Y-87500000D01*
%TO.N,Net-(JP2-C)*%
X148000000Y-82400000D02*
X147100000Y-83300000D01*
X148000000Y-77357500D02*
X148000000Y-82400000D01*
X147100000Y-83300000D02*
X143800000Y-83300000D01*
X143800000Y-83300000D02*
X143200000Y-82700000D01*
X143200000Y-82700000D02*
X143100000Y-82700000D01*
%TD*%
%TA.AperFunction,Conductor*%
%TO.N,GND*%
G36*
X144928014Y-81309854D02*
G01*
X144907209Y-81387500D01*
X144928014Y-81465145D01*
X144950369Y-81487500D01*
X144124632Y-81487500D01*
X144146986Y-81465146D01*
X144167791Y-81387500D01*
X144146986Y-81309855D01*
X144124631Y-81287500D01*
X144950368Y-81287500D01*
X144928014Y-81309854D01*
G37*
%TD.AperFunction*%
%TA.AperFunction,Conductor*%
G36*
X145978014Y-81309854D02*
G01*
X145957209Y-81387500D01*
X145978014Y-81465145D01*
X146000369Y-81487500D01*
X145174632Y-81487500D01*
X145196986Y-81465146D01*
X145217791Y-81387500D01*
X145196986Y-81309855D01*
X145174631Y-81287500D01*
X146000368Y-81287500D01*
X145978014Y-81309854D01*
G37*
%TD.AperFunction*%
%TA.AperFunction,Conductor*%
G36*
X145162500Y-81275368D02*
G01*
X145140145Y-81253014D01*
X145082246Y-81237500D01*
X145042754Y-81237500D01*
X144984855Y-81253014D01*
X144962500Y-81275368D01*
X144962500Y-80449631D01*
X144984855Y-80471986D01*
X145042754Y-80487500D01*
X145082246Y-80487500D01*
X145140145Y-80471986D01*
X145162500Y-80449631D01*
X145162500Y-81275368D01*
G37*
%TD.AperFunction*%
%TA.AperFunction,Conductor*%
G36*
X142024795Y-80219407D02*
G01*
X142060759Y-80268907D01*
X142060759Y-80330093D01*
X142024795Y-80379593D01*
X142020127Y-80382784D01*
X141918873Y-80447855D01*
X141824622Y-80556628D01*
X141764834Y-80687544D01*
X141760946Y-80714588D01*
X141733951Y-80769496D01*
X141679837Y-80798050D01*
X141662954Y-80799500D01*
X139046217Y-80799500D01*
X138988026Y-80780593D01*
X138952062Y-80731093D01*
X138952062Y-80669907D01*
X138971398Y-80635669D01*
X138985877Y-80618957D01*
X139025377Y-80573373D01*
X139085165Y-80442457D01*
X139097291Y-80358116D01*
X139105647Y-80300002D01*
X139105647Y-80299500D01*
X139105776Y-80299101D01*
X139106655Y-80292991D01*
X139107712Y-80293143D01*
X139124554Y-80241309D01*
X139174054Y-80205345D01*
X139204647Y-80200500D01*
X141966604Y-80200500D01*
X142024795Y-80219407D01*
G37*
%TD.AperFunction*%
%TA.AperFunction,Conductor*%
G36*
X141570348Y-73768907D02*
G01*
X141606312Y-73818407D01*
X141606312Y-73879593D01*
X141584990Y-73916054D01*
X141547727Y-73956530D01*
X141546312Y-73958004D01*
X141483816Y-74020502D01*
X141429300Y-74048281D01*
X141413811Y-74049500D01*
X140230252Y-74049500D01*
X140230251Y-74049500D01*
X140230241Y-74049501D01*
X140171772Y-74061132D01*
X140171766Y-74061134D01*
X140105451Y-74105445D01*
X140105445Y-74105451D01*
X140061134Y-74171766D01*
X140061132Y-74171772D01*
X140049501Y-74230241D01*
X140049500Y-74230253D01*
X140049500Y-75769746D01*
X140049501Y-75769758D01*
X140061094Y-75828036D01*
X140061133Y-75828231D01*
X140105448Y-75894552D01*
X140171769Y-75938867D01*
X140216231Y-75947711D01*
X140230241Y-75950498D01*
X140230246Y-75950498D01*
X140230252Y-75950500D01*
X140230253Y-75950500D01*
X141769747Y-75950500D01*
X141769748Y-75950500D01*
X141828231Y-75938867D01*
X141894552Y-75894552D01*
X141938867Y-75828231D01*
X141950500Y-75769748D01*
X141950500Y-75031218D01*
X141969407Y-74973027D01*
X142018907Y-74937063D01*
X142080093Y-74937063D01*
X142129155Y-74972430D01*
X142165845Y-75022144D01*
X142165850Y-75022150D01*
X142165853Y-75022152D01*
X142165855Y-75022154D01*
X142275116Y-75102792D01*
X142275117Y-75102792D01*
X142275118Y-75102793D01*
X142403301Y-75147646D01*
X142433725Y-75150499D01*
X142433727Y-75150500D01*
X142433734Y-75150500D01*
X143042273Y-75150500D01*
X143042273Y-75150499D01*
X143072699Y-75147646D01*
X143200882Y-75102793D01*
X143310150Y-75022150D01*
X143390793Y-74912882D01*
X143406556Y-74867835D01*
X143443621Y-74819154D01*
X143502221Y-74801557D01*
X143559973Y-74821765D01*
X143593444Y-74867835D01*
X143609206Y-74912881D01*
X143609207Y-74912883D01*
X143689845Y-75022144D01*
X143689846Y-75022145D01*
X143689850Y-75022150D01*
X143689853Y-75022152D01*
X143689855Y-75022154D01*
X143799116Y-75102792D01*
X143799117Y-75102792D01*
X143799118Y-75102793D01*
X143927301Y-75147646D01*
X143957725Y-75150499D01*
X143957727Y-75150500D01*
X143957734Y-75150500D01*
X144566273Y-75150500D01*
X144566273Y-75150499D01*
X144596699Y-75147646D01*
X144724882Y-75102793D01*
X144834150Y-75022150D01*
X144870844Y-74972430D01*
X144920612Y-74936837D01*
X144981796Y-74937295D01*
X145031025Y-74973628D01*
X145049500Y-75031218D01*
X145049500Y-75769746D01*
X145049501Y-75769758D01*
X145061094Y-75828036D01*
X145061133Y-75828231D01*
X145105448Y-75894552D01*
X145171769Y-75938867D01*
X145216231Y-75947711D01*
X145230241Y-75950498D01*
X145230246Y-75950498D01*
X145230252Y-75950500D01*
X145230253Y-75950500D01*
X146769747Y-75950500D01*
X146769748Y-75950500D01*
X146828231Y-75938867D01*
X146894552Y-75894552D01*
X146938867Y-75828231D01*
X146950500Y-75769748D01*
X146950500Y-75769700D01*
X150050000Y-75769700D01*
X150061603Y-75828036D01*
X150105806Y-75894189D01*
X150105810Y-75894193D01*
X150171963Y-75938396D01*
X150230299Y-75949999D01*
X150230303Y-75950000D01*
X150899999Y-75950000D01*
X150900000Y-75949999D01*
X150900000Y-75335720D01*
X150941595Y-75350000D01*
X151029005Y-75350000D01*
X151100000Y-75338153D01*
X151100000Y-75949999D01*
X151100001Y-75950000D01*
X151769697Y-75950000D01*
X151769700Y-75949999D01*
X151828036Y-75938396D01*
X151894189Y-75894193D01*
X151894193Y-75894189D01*
X151938396Y-75828036D01*
X151949999Y-75769700D01*
X151950000Y-75769697D01*
X151950000Y-75100001D01*
X151949999Y-75100000D01*
X151338327Y-75100000D01*
X151343982Y-75087108D01*
X151353628Y-74970698D01*
X151335725Y-74900000D01*
X151949999Y-74900000D01*
X151950000Y-74899998D01*
X151950000Y-74230302D01*
X151949999Y-74230299D01*
X151938396Y-74171963D01*
X151894193Y-74105810D01*
X151894189Y-74105806D01*
X151828036Y-74061603D01*
X151769700Y-74050000D01*
X151100001Y-74050000D01*
X151100000Y-74050001D01*
X151100000Y-74664279D01*
X151058405Y-74650000D01*
X150970995Y-74650000D01*
X150900000Y-74661846D01*
X150900000Y-74050001D01*
X150899999Y-74050000D01*
X150230299Y-74050000D01*
X150171963Y-74061603D01*
X150105810Y-74105806D01*
X150105806Y-74105810D01*
X150061603Y-74171963D01*
X150050000Y-74230299D01*
X150050000Y-74899999D01*
X150050001Y-74900000D01*
X150661673Y-74900000D01*
X150656018Y-74912892D01*
X150646372Y-75029302D01*
X150664275Y-75100000D01*
X150050001Y-75100000D01*
X150050000Y-75100001D01*
X150050000Y-75769700D01*
X146950500Y-75769700D01*
X146950500Y-74230252D01*
X146938867Y-74171769D01*
X146894552Y-74105448D01*
X146894548Y-74105445D01*
X146828233Y-74061134D01*
X146828231Y-74061133D01*
X146828228Y-74061132D01*
X146828227Y-74061132D01*
X146769758Y-74049501D01*
X146769748Y-74049500D01*
X146769747Y-74049500D01*
X145586190Y-74049500D01*
X145527999Y-74030593D01*
X145516186Y-74020504D01*
X145480801Y-73985119D01*
X145467925Y-73969262D01*
X145461437Y-73959331D01*
X145434885Y-73938665D01*
X145430283Y-73934601D01*
X145427306Y-73931624D01*
X145426032Y-73930714D01*
X145424430Y-73929571D01*
X145388058Y-73880371D01*
X145387551Y-73819188D01*
X145423104Y-73769392D01*
X145481136Y-73750003D01*
X145481956Y-73750000D01*
X152151000Y-73750000D01*
X152209191Y-73768907D01*
X152245155Y-73818407D01*
X152250000Y-73849000D01*
X152250000Y-80512156D01*
X152231093Y-80570347D01*
X152181593Y-80606311D01*
X152120407Y-80606311D01*
X152083949Y-80584993D01*
X152071326Y-80573373D01*
X152043488Y-80547746D01*
X152042018Y-80546335D01*
X151979496Y-80483814D01*
X151951719Y-80429297D01*
X151950500Y-80413810D01*
X151950500Y-79230253D01*
X151950498Y-79230241D01*
X151943632Y-79195725D01*
X151938867Y-79171769D01*
X151894552Y-79105448D01*
X151894548Y-79105445D01*
X151828233Y-79061134D01*
X151828231Y-79061133D01*
X151828228Y-79061132D01*
X151828227Y-79061132D01*
X151769758Y-79049501D01*
X151769748Y-79049500D01*
X150230252Y-79049500D01*
X150230251Y-79049500D01*
X150230241Y-79049501D01*
X150171772Y-79061132D01*
X150171766Y-79061134D01*
X150105451Y-79105445D01*
X150105445Y-79105451D01*
X150061134Y-79171766D01*
X150061132Y-79171772D01*
X150049501Y-79230241D01*
X150049500Y-79230253D01*
X150049500Y-80769746D01*
X150049501Y-80769758D01*
X150061132Y-80828227D01*
X150061134Y-80828233D01*
X150105445Y-80894548D01*
X150105448Y-80894552D01*
X150171769Y-80938867D01*
X150216231Y-80947711D01*
X150230241Y-80950498D01*
X150230246Y-80950498D01*
X150230252Y-80950500D01*
X150968782Y-80950500D01*
X151026973Y-80969407D01*
X151062937Y-81018907D01*
X151062937Y-81080093D01*
X151027570Y-81129155D01*
X150977854Y-81165846D01*
X150977845Y-81165855D01*
X150897207Y-81275116D01*
X150852355Y-81403296D01*
X150852353Y-81403305D01*
X150849500Y-81433725D01*
X150849500Y-82042274D01*
X150852353Y-82072694D01*
X150852355Y-82072703D01*
X150897207Y-82200883D01*
X150977845Y-82310144D01*
X150977847Y-82310146D01*
X150977850Y-82310150D01*
X150977853Y-82310152D01*
X150977855Y-82310154D01*
X151087116Y-82390792D01*
X151087117Y-82390792D01*
X151087118Y-82390793D01*
X151105552Y-82397243D01*
X151132165Y-82406556D01*
X151180845Y-82443621D01*
X151198442Y-82502222D01*
X151178234Y-82559974D01*
X151132165Y-82593444D01*
X151087116Y-82609207D01*
X150977855Y-82689845D01*
X150977845Y-82689855D01*
X150897207Y-82799116D01*
X150852355Y-82927296D01*
X150852353Y-82927305D01*
X150849500Y-82957725D01*
X150849500Y-83566274D01*
X150852353Y-83596694D01*
X150852355Y-83596703D01*
X150897207Y-83724883D01*
X150977845Y-83834144D01*
X150977847Y-83834146D01*
X150977850Y-83834150D01*
X150977853Y-83834152D01*
X150977854Y-83834153D01*
X151027570Y-83870845D01*
X151063163Y-83920612D01*
X151062705Y-83981796D01*
X151026372Y-84031025D01*
X150968782Y-84049500D01*
X150230252Y-84049500D01*
X150230251Y-84049500D01*
X150230241Y-84049501D01*
X150171772Y-84061132D01*
X150171766Y-84061134D01*
X150105451Y-84105445D01*
X150105445Y-84105451D01*
X150061134Y-84171766D01*
X150061132Y-84171772D01*
X150049501Y-84230241D01*
X150049500Y-84230253D01*
X150049500Y-85769746D01*
X150049501Y-85769758D01*
X150061132Y-85828227D01*
X150061134Y-85828233D01*
X150105445Y-85894548D01*
X150105448Y-85894552D01*
X150171769Y-85938867D01*
X150216231Y-85947711D01*
X150230241Y-85950498D01*
X150230246Y-85950498D01*
X150230252Y-85950500D01*
X150230253Y-85950500D01*
X151769747Y-85950500D01*
X151769748Y-85950500D01*
X151828231Y-85938867D01*
X151894552Y-85894552D01*
X151938867Y-85828231D01*
X151950500Y-85769748D01*
X151950500Y-84586187D01*
X151969407Y-84527996D01*
X151979485Y-84516194D01*
X152014883Y-84480796D01*
X152030729Y-84467930D01*
X152040669Y-84461437D01*
X152061341Y-84434875D01*
X152065399Y-84430281D01*
X152068375Y-84427306D01*
X152070423Y-84424436D01*
X152119621Y-84388059D01*
X152180805Y-84387548D01*
X152230604Y-84423097D01*
X152249997Y-84481128D01*
X152250000Y-84481955D01*
X152250000Y-91151000D01*
X152231093Y-91209191D01*
X152181593Y-91245155D01*
X152151000Y-91250000D01*
X145487844Y-91250000D01*
X145429653Y-91231093D01*
X145393689Y-91181593D01*
X145393689Y-91120407D01*
X145415005Y-91083951D01*
X145418256Y-91080418D01*
X145418258Y-91080418D01*
X145452288Y-91043450D01*
X145453652Y-91042028D01*
X145516186Y-90979495D01*
X145570704Y-90951719D01*
X145586189Y-90950500D01*
X146769747Y-90950500D01*
X146769748Y-90950500D01*
X146828231Y-90938867D01*
X146894552Y-90894552D01*
X146938867Y-90828231D01*
X146950500Y-90769748D01*
X146950500Y-90769700D01*
X150050000Y-90769700D01*
X150061603Y-90828036D01*
X150105806Y-90894189D01*
X150105810Y-90894193D01*
X150171963Y-90938396D01*
X150230299Y-90949999D01*
X150230303Y-90950000D01*
X150899999Y-90950000D01*
X150900000Y-90949998D01*
X150900000Y-90335720D01*
X150941595Y-90350000D01*
X151029005Y-90350000D01*
X151100000Y-90338153D01*
X151100000Y-90949998D01*
X151100001Y-90950000D01*
X151769697Y-90950000D01*
X151769700Y-90949999D01*
X151828036Y-90938396D01*
X151894189Y-90894193D01*
X151894193Y-90894189D01*
X151938396Y-90828036D01*
X151949999Y-90769700D01*
X151950000Y-90769697D01*
X151950000Y-90100001D01*
X151949999Y-90100000D01*
X151338327Y-90100000D01*
X151343982Y-90087108D01*
X151353628Y-89970698D01*
X151335725Y-89900000D01*
X151949999Y-89900000D01*
X151950000Y-89899999D01*
X151950000Y-89230302D01*
X151949999Y-89230299D01*
X151938396Y-89171963D01*
X151894193Y-89105810D01*
X151894189Y-89105806D01*
X151828036Y-89061603D01*
X151769700Y-89050000D01*
X151100000Y-89050000D01*
X151100000Y-89664279D01*
X151058405Y-89650000D01*
X150970995Y-89650000D01*
X150900000Y-89661846D01*
X150900000Y-89050000D01*
X150230299Y-89050000D01*
X150171963Y-89061603D01*
X150105810Y-89105806D01*
X150105806Y-89105810D01*
X150061603Y-89171963D01*
X150050000Y-89230299D01*
X150050000Y-89899999D01*
X150050001Y-89900000D01*
X150661673Y-89900000D01*
X150656018Y-89912892D01*
X150646372Y-90029302D01*
X150664275Y-90100000D01*
X150050000Y-90100000D01*
X150050000Y-90769700D01*
X146950500Y-90769700D01*
X146950500Y-89230252D01*
X146938867Y-89171769D01*
X146894552Y-89105448D01*
X146894548Y-89105445D01*
X146828233Y-89061134D01*
X146828231Y-89061133D01*
X146828228Y-89061132D01*
X146828227Y-89061132D01*
X146769758Y-89049501D01*
X146769748Y-89049500D01*
X145230252Y-89049500D01*
X145230251Y-89049500D01*
X145230241Y-89049501D01*
X145171772Y-89061132D01*
X145171766Y-89061134D01*
X145105451Y-89105445D01*
X145105445Y-89105451D01*
X145061134Y-89171766D01*
X145061132Y-89171772D01*
X145049501Y-89230241D01*
X145049500Y-89230253D01*
X145049500Y-89968781D01*
X145030593Y-90026972D01*
X144981093Y-90062936D01*
X144919907Y-90062936D01*
X144870845Y-90027570D01*
X144860914Y-90014115D01*
X144834150Y-89977850D01*
X144834146Y-89977847D01*
X144834144Y-89977845D01*
X144724883Y-89897207D01*
X144596703Y-89852355D01*
X144596694Y-89852353D01*
X144566274Y-89849500D01*
X144566266Y-89849500D01*
X143957734Y-89849500D01*
X143957725Y-89849500D01*
X143927305Y-89852353D01*
X143927296Y-89852355D01*
X143799116Y-89897207D01*
X143689855Y-89977845D01*
X143689845Y-89977855D01*
X143609207Y-90087116D01*
X143593444Y-90132165D01*
X143556379Y-90180845D01*
X143497778Y-90198442D01*
X143440026Y-90178234D01*
X143406556Y-90132165D01*
X143395301Y-90100001D01*
X143390793Y-90087118D01*
X143346403Y-90026972D01*
X143310154Y-89977855D01*
X143310151Y-89977852D01*
X143310150Y-89977850D01*
X143310146Y-89977847D01*
X143310144Y-89977845D01*
X143200883Y-89897207D01*
X143072703Y-89852355D01*
X143072694Y-89852353D01*
X143042274Y-89849500D01*
X143042266Y-89849500D01*
X142433734Y-89849500D01*
X142433725Y-89849500D01*
X142403305Y-89852353D01*
X142403296Y-89852355D01*
X142275116Y-89897207D01*
X142165855Y-89977845D01*
X142165848Y-89977852D01*
X142129155Y-90027570D01*
X142079387Y-90063162D01*
X142018203Y-90062704D01*
X141968974Y-90026371D01*
X141950500Y-89968781D01*
X141950500Y-89230253D01*
X141950498Y-89230241D01*
X141947711Y-89216231D01*
X141938867Y-89171769D01*
X141894552Y-89105448D01*
X141894548Y-89105445D01*
X141828233Y-89061134D01*
X141828231Y-89061133D01*
X141828228Y-89061132D01*
X141828227Y-89061132D01*
X141769758Y-89049501D01*
X141769748Y-89049500D01*
X140230252Y-89049500D01*
X140230251Y-89049500D01*
X140230241Y-89049501D01*
X140171772Y-89061132D01*
X140171766Y-89061134D01*
X140105451Y-89105445D01*
X140105445Y-89105451D01*
X140061134Y-89171766D01*
X140061132Y-89171772D01*
X140049501Y-89230241D01*
X140049500Y-89230253D01*
X140049500Y-90769746D01*
X140049501Y-90769758D01*
X140061094Y-90828036D01*
X140061133Y-90828231D01*
X140105448Y-90894552D01*
X140171769Y-90938867D01*
X140216231Y-90947711D01*
X140230241Y-90950498D01*
X140230246Y-90950498D01*
X140230252Y-90950500D01*
X141413811Y-90950500D01*
X141472002Y-90969407D01*
X141483815Y-90979496D01*
X141519197Y-91014878D01*
X141532072Y-91030734D01*
X141538563Y-91040669D01*
X141542177Y-91043482D01*
X141565110Y-91061331D01*
X141569709Y-91065391D01*
X141572688Y-91068370D01*
X141572691Y-91068372D01*
X141572694Y-91068375D01*
X141575577Y-91070433D01*
X141611944Y-91119636D01*
X141612446Y-91180819D01*
X141576890Y-91230612D01*
X141518856Y-91249997D01*
X141518044Y-91250000D01*
X134849000Y-91250000D01*
X134790809Y-91231093D01*
X134754845Y-91181593D01*
X134750000Y-91151000D01*
X134750000Y-90769700D01*
X135050000Y-90769700D01*
X135061603Y-90828036D01*
X135105806Y-90894189D01*
X135105810Y-90894193D01*
X135171963Y-90938396D01*
X135230299Y-90949999D01*
X135230303Y-90950000D01*
X135899999Y-90950000D01*
X135900000Y-90949999D01*
X135900000Y-90335720D01*
X135941595Y-90350000D01*
X136029005Y-90350000D01*
X136100000Y-90338153D01*
X136100000Y-90949999D01*
X136100001Y-90950000D01*
X136769697Y-90950000D01*
X136769700Y-90949999D01*
X136828036Y-90938396D01*
X136894189Y-90894193D01*
X136894193Y-90894189D01*
X136938396Y-90828036D01*
X136949999Y-90769700D01*
X136950000Y-90769697D01*
X136950000Y-90100001D01*
X136949999Y-90100000D01*
X136338327Y-90100000D01*
X136343982Y-90087108D01*
X136353628Y-89970698D01*
X136335725Y-89900000D01*
X136949999Y-89900000D01*
X136950000Y-89899998D01*
X136950000Y-89230302D01*
X136949999Y-89230299D01*
X136938396Y-89171963D01*
X136894193Y-89105810D01*
X136894189Y-89105806D01*
X136858284Y-89081815D01*
X136820405Y-89033765D01*
X136818003Y-88972627D01*
X136851996Y-88921754D01*
X136909399Y-88900576D01*
X136913286Y-88900500D01*
X138804273Y-88900500D01*
X138804273Y-88900499D01*
X138834699Y-88897646D01*
X138962882Y-88852793D01*
X139072150Y-88772150D01*
X139152793Y-88662882D01*
X139197646Y-88534699D01*
X139200499Y-88504273D01*
X139200500Y-88504273D01*
X139200500Y-87295726D01*
X139200499Y-87295725D01*
X139197646Y-87265305D01*
X139197646Y-87265301D01*
X139152793Y-87137118D01*
X139138576Y-87117855D01*
X139072154Y-87027855D01*
X139072152Y-87027853D01*
X139072150Y-87027850D01*
X139072146Y-87027847D01*
X139072144Y-87027845D01*
X138962883Y-86947207D01*
X138834703Y-86902355D01*
X138834694Y-86902353D01*
X138804274Y-86899500D01*
X138804266Y-86899500D01*
X136195734Y-86899500D01*
X136195725Y-86899500D01*
X136165305Y-86902353D01*
X136165296Y-86902355D01*
X136037116Y-86947207D01*
X135927855Y-87027845D01*
X135927845Y-87027855D01*
X135847207Y-87137116D01*
X135802355Y-87265296D01*
X135802353Y-87265305D01*
X135799500Y-87295725D01*
X135799500Y-88504274D01*
X135802353Y-88534694D01*
X135802355Y-88534703D01*
X135847207Y-88662883D01*
X135927845Y-88772144D01*
X135927847Y-88772146D01*
X135927850Y-88772150D01*
X135927853Y-88772152D01*
X135927855Y-88772154D01*
X136037114Y-88852791D01*
X136037116Y-88852791D01*
X136037118Y-88852793D01*
X136081074Y-88868174D01*
X136129753Y-88905237D01*
X136147350Y-88963837D01*
X136127142Y-89021589D01*
X136118379Y-89031620D01*
X136100000Y-89049999D01*
X136100000Y-89664279D01*
X136058405Y-89650000D01*
X135970995Y-89650000D01*
X135900000Y-89661846D01*
X135900000Y-89050000D01*
X135230299Y-89050000D01*
X135171963Y-89061603D01*
X135105810Y-89105806D01*
X135105806Y-89105810D01*
X135061603Y-89171963D01*
X135050000Y-89230299D01*
X135050000Y-89899999D01*
X135050001Y-89900000D01*
X135661673Y-89900000D01*
X135656018Y-89912892D01*
X135646372Y-90029302D01*
X135664275Y-90100000D01*
X135050001Y-90100000D01*
X135050000Y-90100001D01*
X135050000Y-90769700D01*
X134750000Y-90769700D01*
X134750000Y-85600000D01*
X136800001Y-85600000D01*
X136800001Y-85804203D01*
X136802850Y-85834600D01*
X136802850Y-85834602D01*
X136847654Y-85962647D01*
X136928207Y-86071790D01*
X136928209Y-86071792D01*
X137037352Y-86152345D01*
X137165398Y-86197149D01*
X137195789Y-86199999D01*
X139649998Y-86199999D01*
X139650000Y-86199997D01*
X139850000Y-86199997D01*
X139850001Y-86199999D01*
X141000667Y-86199999D01*
X141058858Y-86218906D01*
X141094822Y-86268406D01*
X141094822Y-86329592D01*
X141070672Y-86369000D01*
X141039972Y-86399701D01*
X141039972Y-86399702D01*
X140469170Y-86970504D01*
X140414653Y-86998281D01*
X140399166Y-86999500D01*
X140328035Y-86999500D01*
X140189949Y-87040046D01*
X140189942Y-87040049D01*
X140068873Y-87117855D01*
X139974622Y-87226628D01*
X139914834Y-87357543D01*
X139894353Y-87499997D01*
X139894353Y-87500002D01*
X139914834Y-87642456D01*
X139974622Y-87773371D01*
X139974623Y-87773373D01*
X140068872Y-87882143D01*
X140068873Y-87882144D01*
X140189942Y-87959950D01*
X140189947Y-87959953D01*
X140296403Y-87991211D01*
X140328035Y-88000499D01*
X140328036Y-88000499D01*
X140328039Y-88000500D01*
X140328041Y-88000500D01*
X140471959Y-88000500D01*
X140471961Y-88000500D01*
X140610053Y-87959953D01*
X140731128Y-87882143D01*
X140825377Y-87773373D01*
X140885165Y-87642457D01*
X140905647Y-87500000D01*
X140905647Y-87499997D01*
X140905647Y-87495686D01*
X140924554Y-87437495D01*
X140934643Y-87425682D01*
X141171460Y-87188865D01*
X141500298Y-86860028D01*
X141500298Y-86860027D01*
X141505829Y-86854495D01*
X141560346Y-86826719D01*
X141575833Y-86825500D01*
X144793000Y-86825500D01*
X144851191Y-86844407D01*
X144887155Y-86893907D01*
X144892000Y-86924500D01*
X144892000Y-87019746D01*
X144892001Y-87019758D01*
X144903632Y-87078227D01*
X144903634Y-87078233D01*
X144947945Y-87144548D01*
X144947948Y-87144552D01*
X145014269Y-87188867D01*
X145058731Y-87197711D01*
X145072741Y-87200498D01*
X145072746Y-87200498D01*
X145072752Y-87200500D01*
X145072753Y-87200500D01*
X146612247Y-87200500D01*
X146612248Y-87200500D01*
X146670731Y-87188867D01*
X146737052Y-87144552D01*
X146781367Y-87078231D01*
X146793000Y-87019748D01*
X146793000Y-85980252D01*
X146781367Y-85921769D01*
X146781365Y-85921766D01*
X146781365Y-85921764D01*
X146777687Y-85912884D01*
X146772886Y-85851887D01*
X146777687Y-85837112D01*
X146781362Y-85828238D01*
X146781367Y-85828231D01*
X146796928Y-85750000D01*
X146796928Y-85128111D01*
X146788647Y-85070517D01*
X146748140Y-84932562D01*
X146723969Y-84879634D01*
X146720670Y-84874500D01*
X146646244Y-84758689D01*
X146646238Y-84758681D01*
X146608139Y-84714713D01*
X146608138Y-84714712D01*
X146608132Y-84714705D01*
X146608122Y-84714696D01*
X146499476Y-84620554D01*
X146499463Y-84620545D01*
X146450532Y-84589099D01*
X146450519Y-84589092D01*
X146416095Y-84573371D01*
X146319738Y-84529366D01*
X146319733Y-84529364D01*
X146319732Y-84529364D01*
X146263909Y-84512973D01*
X146263905Y-84512972D01*
X146121597Y-84492511D01*
X146121593Y-84492511D01*
X146063407Y-84492511D01*
X146063405Y-84492511D01*
X146054238Y-84493829D01*
X146049126Y-84494564D01*
X146035037Y-84495572D01*
X145649963Y-84495572D01*
X145635873Y-84494564D01*
X145630761Y-84493829D01*
X145621595Y-84492511D01*
X145621593Y-84492511D01*
X145563407Y-84492511D01*
X145563403Y-84492511D01*
X145421094Y-84512972D01*
X145421090Y-84512973D01*
X145365267Y-84529364D01*
X145365263Y-84529365D01*
X145365262Y-84529366D01*
X145330632Y-84545181D01*
X145234480Y-84589092D01*
X145234467Y-84589099D01*
X145185536Y-84620545D01*
X145185523Y-84620554D01*
X145076877Y-84714696D01*
X145076860Y-84714713D01*
X145038767Y-84758675D01*
X145038762Y-84758681D01*
X144993996Y-84828339D01*
X144946629Y-84867070D01*
X144902085Y-84873438D01*
X144871196Y-84870735D01*
X144871187Y-84870736D01*
X144831564Y-84881353D01*
X144827349Y-84882287D01*
X144786960Y-84889410D01*
X144778818Y-84892374D01*
X144777994Y-84890110D01*
X144742956Y-84899500D01*
X144628035Y-84899500D01*
X144489949Y-84940046D01*
X144489942Y-84940049D01*
X144368873Y-85017855D01*
X144274622Y-85126628D01*
X144214834Y-85257543D01*
X144194353Y-85399997D01*
X144194353Y-85400000D01*
X144214834Y-85542456D01*
X144274622Y-85673371D01*
X144274623Y-85673373D01*
X144368872Y-85782143D01*
X144368873Y-85782144D01*
X144489942Y-85859950D01*
X144489947Y-85859953D01*
X144596403Y-85891211D01*
X144628035Y-85900499D01*
X144628036Y-85900499D01*
X144628039Y-85900500D01*
X144628041Y-85900500D01*
X144771962Y-85900500D01*
X144778910Y-85899501D01*
X144839199Y-85909934D01*
X144881842Y-85953811D01*
X144892000Y-85997493D01*
X144892000Y-86075500D01*
X144873093Y-86133691D01*
X144823593Y-86169655D01*
X144793000Y-86174500D01*
X142692099Y-86174500D01*
X142633908Y-86155593D01*
X142597944Y-86106093D01*
X142597944Y-86044907D01*
X142612444Y-86016712D01*
X142652344Y-85962649D01*
X142697149Y-85834601D01*
X142699999Y-85804211D01*
X142700000Y-85804210D01*
X142700000Y-85600000D01*
X139850001Y-85600000D01*
X139850000Y-85600001D01*
X139850000Y-86199997D01*
X139650000Y-86199997D01*
X139650000Y-85600001D01*
X139649999Y-85600000D01*
X136800001Y-85600000D01*
X134750000Y-85600000D01*
X134750000Y-85399999D01*
X136800000Y-85399999D01*
X136800001Y-85400000D01*
X139649999Y-85400000D01*
X139650000Y-85399999D01*
X139850000Y-85399999D01*
X139850001Y-85400000D01*
X142699998Y-85400000D01*
X142699999Y-85399998D01*
X142699999Y-85195796D01*
X142697149Y-85165399D01*
X142697149Y-85165397D01*
X142652345Y-85037352D01*
X142571792Y-84928209D01*
X142571790Y-84928207D01*
X142462647Y-84847654D01*
X142334601Y-84802850D01*
X142304211Y-84800000D01*
X139850001Y-84800000D01*
X139850000Y-84800001D01*
X139850000Y-85399999D01*
X139650000Y-85399999D01*
X139650000Y-84800001D01*
X139649999Y-84800000D01*
X137195796Y-84800000D01*
X137165399Y-84802850D01*
X137165397Y-84802850D01*
X137037352Y-84847654D01*
X136928209Y-84928207D01*
X136928207Y-84928209D01*
X136847654Y-85037352D01*
X136802850Y-85165398D01*
X136800000Y-85195788D01*
X136800000Y-85399999D01*
X134750000Y-85399999D01*
X134750000Y-84300002D01*
X135494353Y-84300002D01*
X135514834Y-84442456D01*
X135567184Y-84557085D01*
X135574623Y-84573373D01*
X135631436Y-84638939D01*
X135668873Y-84682144D01*
X135787980Y-84758689D01*
X135789947Y-84759953D01*
X135896403Y-84791211D01*
X135928035Y-84800499D01*
X135928036Y-84800499D01*
X135928039Y-84800500D01*
X135928041Y-84800500D01*
X136071959Y-84800500D01*
X136071961Y-84800500D01*
X136210053Y-84759953D01*
X136331128Y-84682143D01*
X136425377Y-84573373D01*
X136485165Y-84442457D01*
X136495708Y-84369126D01*
X136505647Y-84300002D01*
X136505647Y-84299997D01*
X136485166Y-84157547D01*
X136485165Y-84157543D01*
X136461375Y-84105451D01*
X136456539Y-84094862D01*
X136449565Y-84034079D01*
X136476588Y-83983736D01*
X136605829Y-83854496D01*
X136660347Y-83826719D01*
X136675833Y-83825500D01*
X136728891Y-83825500D01*
X136787082Y-83844407D01*
X136822335Y-83891802D01*
X136847207Y-83962883D01*
X136927845Y-84072144D01*
X136927847Y-84072146D01*
X136927850Y-84072150D01*
X136927853Y-84072152D01*
X136927855Y-84072154D01*
X137037116Y-84152792D01*
X137037117Y-84152792D01*
X137037118Y-84152793D01*
X137165301Y-84197646D01*
X137195725Y-84200499D01*
X137195727Y-84200500D01*
X137195734Y-84200500D01*
X142304273Y-84200500D01*
X142304273Y-84200499D01*
X142334699Y-84197646D01*
X142462882Y-84152793D01*
X142572150Y-84072150D01*
X142652793Y-83962882D01*
X142697646Y-83834699D01*
X142700499Y-83804273D01*
X142700500Y-83804273D01*
X142700500Y-83219507D01*
X142719407Y-83161316D01*
X142768907Y-83125352D01*
X142830093Y-83125352D01*
X142853023Y-83136223D01*
X142889947Y-83159953D01*
X142990276Y-83189412D01*
X143028035Y-83200499D01*
X143028036Y-83200499D01*
X143028039Y-83200500D01*
X143028041Y-83200500D01*
X143171960Y-83200500D01*
X143171961Y-83200500D01*
X143171961Y-83200499D01*
X143178972Y-83199492D01*
X143179315Y-83201881D01*
X143229484Y-83203311D01*
X143266226Y-83226552D01*
X143558257Y-83518584D01*
X143561175Y-83521769D01*
X143587544Y-83553193D01*
X143587545Y-83553194D01*
X143623073Y-83573706D01*
X143626712Y-83576025D01*
X143660311Y-83599551D01*
X143660313Y-83599552D01*
X143660316Y-83599554D01*
X143661767Y-83599942D01*
X143685659Y-83609840D01*
X143686954Y-83610588D01*
X143695854Y-83612157D01*
X143727365Y-83617713D01*
X143731544Y-83618638D01*
X143771193Y-83629263D01*
X143812065Y-83625687D01*
X143816365Y-83625500D01*
X147083626Y-83625500D01*
X147087926Y-83625687D01*
X147128807Y-83629264D01*
X147168452Y-83618640D01*
X147172650Y-83617710D01*
X147213045Y-83610588D01*
X147214345Y-83609838D01*
X147238236Y-83599942D01*
X147238464Y-83599880D01*
X147239684Y-83599554D01*
X147273303Y-83576012D01*
X147276911Y-83573714D01*
X147312455Y-83553194D01*
X147338827Y-83521763D01*
X147341726Y-83518598D01*
X148218588Y-82641737D01*
X148221766Y-82638824D01*
X148253194Y-82612455D01*
X148273712Y-82576914D01*
X148276017Y-82573296D01*
X148299554Y-82539684D01*
X148299941Y-82538236D01*
X148309838Y-82514345D01*
X148310586Y-82513048D01*
X148310585Y-82513048D01*
X148310588Y-82513045D01*
X148317713Y-82472628D01*
X148318641Y-82468443D01*
X148329263Y-82428807D01*
X148325687Y-82387934D01*
X148325500Y-82383634D01*
X148325500Y-78407000D01*
X148344407Y-78348809D01*
X148393907Y-78312845D01*
X148424500Y-78308000D01*
X148519747Y-78308000D01*
X148519748Y-78308000D01*
X148578231Y-78296367D01*
X148644552Y-78252052D01*
X148688867Y-78185731D01*
X148700500Y-78127248D01*
X148700500Y-76587752D01*
X148688867Y-76529269D01*
X148644552Y-76462948D01*
X148627958Y-76451860D01*
X148578233Y-76418634D01*
X148578231Y-76418633D01*
X148578228Y-76418632D01*
X148578227Y-76418632D01*
X148519758Y-76407001D01*
X148519748Y-76407000D01*
X147480252Y-76407000D01*
X147480251Y-76407000D01*
X147480241Y-76407001D01*
X147421769Y-76418632D01*
X147412881Y-76422314D01*
X147351884Y-76427111D01*
X147337115Y-76422312D01*
X147328233Y-76418633D01*
X147250002Y-76403072D01*
X147250000Y-76403072D01*
X146628111Y-76403072D01*
X146616488Y-76404743D01*
X146570520Y-76411352D01*
X146570515Y-76411353D01*
X146432564Y-76451859D01*
X146379631Y-76476032D01*
X146379624Y-76476036D01*
X146258689Y-76553755D01*
X146258681Y-76553761D01*
X146214713Y-76591860D01*
X146214696Y-76591877D01*
X146120554Y-76700523D01*
X146120545Y-76700536D01*
X146089099Y-76749467D01*
X146089092Y-76749480D01*
X146029364Y-76880267D01*
X146012973Y-76936090D01*
X146012972Y-76936095D01*
X146005281Y-76989589D01*
X145978285Y-77044497D01*
X145924171Y-77073050D01*
X145907289Y-77074500D01*
X145616374Y-77074500D01*
X145612073Y-77074312D01*
X145571193Y-77070736D01*
X145571187Y-77070736D01*
X145531564Y-77081353D01*
X145527349Y-77082287D01*
X145486960Y-77089410D01*
X145486948Y-77089414D01*
X145485640Y-77090170D01*
X145461786Y-77100051D01*
X145460324Y-77100442D01*
X145460316Y-77100446D01*
X145426716Y-77123972D01*
X145423080Y-77126288D01*
X145414875Y-77131025D01*
X145387545Y-77146805D01*
X145361181Y-77178224D01*
X145358263Y-77181408D01*
X144098059Y-78441614D01*
X144043542Y-78469391D01*
X143983110Y-78459820D01*
X143939845Y-78416555D01*
X143930274Y-78356123D01*
X143936591Y-78333724D01*
X143938862Y-78328237D01*
X143938867Y-78328231D01*
X143950500Y-78269748D01*
X143950500Y-76730252D01*
X143938867Y-76671769D01*
X143894552Y-76605448D01*
X143874242Y-76591877D01*
X143828233Y-76561134D01*
X143828231Y-76561133D01*
X143828228Y-76561132D01*
X143828227Y-76561132D01*
X143769758Y-76549501D01*
X143769748Y-76549500D01*
X142230252Y-76549500D01*
X142230251Y-76549500D01*
X142230241Y-76549501D01*
X142171772Y-76561132D01*
X142171766Y-76561134D01*
X142105451Y-76605445D01*
X142105445Y-76605451D01*
X142061134Y-76671766D01*
X142061132Y-76671772D01*
X142049501Y-76730241D01*
X142049500Y-76730253D01*
X142049500Y-78269746D01*
X142049501Y-78269758D01*
X142061132Y-78328227D01*
X142061134Y-78328233D01*
X142105445Y-78394548D01*
X142105448Y-78394552D01*
X142171769Y-78438867D01*
X142216231Y-78447711D01*
X142230241Y-78450498D01*
X142230246Y-78450498D01*
X142230252Y-78450500D01*
X142230253Y-78450500D01*
X143769747Y-78450500D01*
X143769748Y-78450500D01*
X143828231Y-78438867D01*
X143828240Y-78438860D01*
X143833719Y-78436592D01*
X143894715Y-78431788D01*
X143946886Y-78463754D01*
X143970304Y-78520280D01*
X143956025Y-78579776D01*
X143941614Y-78598057D01*
X143644170Y-78895503D01*
X143589653Y-78923281D01*
X143574166Y-78924500D01*
X142600188Y-78924500D01*
X142541997Y-78905593D01*
X142541400Y-78905155D01*
X142462883Y-78847207D01*
X142334703Y-78802355D01*
X142334694Y-78802353D01*
X142304274Y-78799500D01*
X142304266Y-78799500D01*
X138778087Y-78799500D01*
X138772541Y-78799189D01*
X138732965Y-78794730D01*
X138732961Y-78794730D01*
X138716876Y-78797774D01*
X138698472Y-78799500D01*
X137195725Y-78799500D01*
X137165305Y-78802353D01*
X137165296Y-78802355D01*
X137037116Y-78847207D01*
X136927855Y-78927845D01*
X136927845Y-78927855D01*
X136847207Y-79037116D01*
X136802355Y-79165296D01*
X136802353Y-79165305D01*
X136799500Y-79195725D01*
X136799500Y-79700500D01*
X136780593Y-79758691D01*
X136731093Y-79794655D01*
X136700500Y-79799500D01*
X136628035Y-79799500D01*
X136489949Y-79840046D01*
X136489942Y-79840049D01*
X136368873Y-79917855D01*
X136274622Y-80026628D01*
X136214834Y-80157543D01*
X136194353Y-80299997D01*
X136194353Y-80300002D01*
X136214834Y-80442456D01*
X136255487Y-80531472D01*
X136274623Y-80573373D01*
X136333612Y-80641451D01*
X136350319Y-80660731D01*
X136374137Y-80717090D01*
X136374500Y-80725562D01*
X136374500Y-81283625D01*
X136374312Y-81287927D01*
X136372394Y-81309854D01*
X136370736Y-81328806D01*
X136381354Y-81368436D01*
X136382289Y-81372652D01*
X136389411Y-81413045D01*
X136390164Y-81414348D01*
X136400054Y-81438224D01*
X136400443Y-81439679D01*
X136400446Y-81439684D01*
X136418274Y-81465146D01*
X136423971Y-81473281D01*
X136426288Y-81476918D01*
X136446806Y-81512454D01*
X136446806Y-81512455D01*
X136478224Y-81538818D01*
X136481410Y-81541737D01*
X136658257Y-81718584D01*
X136661175Y-81721769D01*
X136687544Y-81753193D01*
X136687545Y-81753194D01*
X136723073Y-81773706D01*
X136726712Y-81776025D01*
X136767412Y-81804523D01*
X136766262Y-81806164D01*
X136802780Y-81840218D01*
X136809637Y-81855516D01*
X136847207Y-81962883D01*
X136927845Y-82072144D01*
X136927847Y-82072146D01*
X136927850Y-82072150D01*
X136927853Y-82072152D01*
X136927855Y-82072154D01*
X137037116Y-82152792D01*
X137037117Y-82152792D01*
X137037118Y-82152793D01*
X137165301Y-82197646D01*
X137195725Y-82200499D01*
X137195727Y-82200500D01*
X137195734Y-82200500D01*
X142304273Y-82200500D01*
X142304273Y-82200499D01*
X142334699Y-82197646D01*
X142462882Y-82152793D01*
X142572150Y-82072150D01*
X142652793Y-81962882D01*
X142697646Y-81834699D01*
X142700499Y-81804273D01*
X142700500Y-81804273D01*
X142700500Y-81195726D01*
X142700499Y-81195725D01*
X142697646Y-81165305D01*
X142697646Y-81165301D01*
X142688871Y-81140223D01*
X142687497Y-81079053D01*
X142692257Y-81066409D01*
X142735165Y-80972457D01*
X142735165Y-80972455D01*
X142735166Y-80972454D01*
X142755647Y-80830002D01*
X142755647Y-80829997D01*
X142735165Y-80687543D01*
X142713249Y-80639555D01*
X142675377Y-80556627D01*
X142581128Y-80447857D01*
X142581127Y-80447856D01*
X142581126Y-80447855D01*
X142460057Y-80370049D01*
X142460055Y-80370048D01*
X142460053Y-80370047D01*
X142420809Y-80358524D01*
X142419420Y-80358116D01*
X142368913Y-80323579D01*
X142348352Y-80265952D01*
X142365591Y-80207245D01*
X142414044Y-80169883D01*
X142414325Y-80169783D01*
X142462882Y-80152793D01*
X142572150Y-80072150D01*
X142652793Y-79962882D01*
X142697646Y-79834699D01*
X142700499Y-79804273D01*
X142700500Y-79804273D01*
X142700500Y-79674500D01*
X142719407Y-79616309D01*
X142768907Y-79580345D01*
X142799500Y-79575500D01*
X143733626Y-79575500D01*
X143737926Y-79575687D01*
X143778807Y-79579264D01*
X143818452Y-79568640D01*
X143822650Y-79567710D01*
X143863045Y-79560588D01*
X143864345Y-79559838D01*
X143888236Y-79549942D01*
X143888464Y-79549880D01*
X143889684Y-79549554D01*
X143923303Y-79526012D01*
X143926911Y-79523714D01*
X143962455Y-79503194D01*
X143988827Y-79471763D01*
X143991726Y-79468598D01*
X145705829Y-77754496D01*
X145760347Y-77726719D01*
X145775834Y-77725500D01*
X145923180Y-77725500D01*
X145981371Y-77744407D01*
X146017335Y-77793907D01*
X146018170Y-77796608D01*
X146029364Y-77834733D01*
X146029365Y-77834736D01*
X146029366Y-77834738D01*
X146066433Y-77915904D01*
X146089092Y-77965519D01*
X146089099Y-77965532D01*
X146120545Y-78014463D01*
X146120554Y-78014476D01*
X146214696Y-78123122D01*
X146214705Y-78123132D01*
X146214712Y-78123138D01*
X146214713Y-78123139D01*
X146258681Y-78161238D01*
X146258689Y-78161244D01*
X146379624Y-78238963D01*
X146379629Y-78238966D01*
X146379634Y-78238969D01*
X146432562Y-78263140D01*
X146570517Y-78303647D01*
X146628111Y-78311928D01*
X146628112Y-78311928D01*
X147249999Y-78311928D01*
X147250000Y-78311928D01*
X147328231Y-78296367D01*
X147328238Y-78296362D01*
X147337112Y-78292687D01*
X147398109Y-78287886D01*
X147412884Y-78292687D01*
X147421764Y-78296365D01*
X147421766Y-78296365D01*
X147421769Y-78296367D01*
X147480252Y-78308000D01*
X147575500Y-78308000D01*
X147633691Y-78326907D01*
X147669655Y-78376407D01*
X147674500Y-78407000D01*
X147674500Y-82224165D01*
X147655593Y-82282356D01*
X147645504Y-82294169D01*
X146994170Y-82945504D01*
X146939653Y-82973281D01*
X146924166Y-82974500D01*
X146596487Y-82974500D01*
X146538296Y-82955593D01*
X146502332Y-82906093D01*
X146502332Y-82844907D01*
X146514171Y-82820499D01*
X146550896Y-82765535D01*
X146562499Y-82707200D01*
X146562500Y-82707197D01*
X146562500Y-82476759D01*
X146563508Y-82462668D01*
X146567127Y-82437500D01*
X146567127Y-82437498D01*
X146563508Y-82412330D01*
X146562500Y-82398240D01*
X146562500Y-81487501D01*
X146562499Y-81487500D01*
X146224632Y-81487500D01*
X146246986Y-81465146D01*
X146267791Y-81387500D01*
X146246986Y-81309855D01*
X146224631Y-81287500D01*
X146562499Y-81287500D01*
X146562500Y-81287499D01*
X146562500Y-80376759D01*
X146563508Y-80362668D01*
X146567127Y-80337500D01*
X146567127Y-80337498D01*
X146563508Y-80312330D01*
X146562500Y-80298240D01*
X146562500Y-80067802D01*
X146562499Y-80067799D01*
X146550896Y-80009463D01*
X146506693Y-79943310D01*
X146506689Y-79943306D01*
X146440536Y-79899103D01*
X146382200Y-79887500D01*
X145162501Y-79887500D01*
X145162500Y-79887501D01*
X145162500Y-80225368D01*
X145140145Y-80203014D01*
X145082246Y-80187500D01*
X145042754Y-80187500D01*
X144984855Y-80203014D01*
X144962500Y-80225368D01*
X144962500Y-79887501D01*
X144962499Y-79887500D01*
X143742799Y-79887500D01*
X143684463Y-79899103D01*
X143618310Y-79943306D01*
X143618306Y-79943310D01*
X143574103Y-80009463D01*
X143562500Y-80067799D01*
X143562500Y-80298240D01*
X143561492Y-80312330D01*
X143557873Y-80337498D01*
X143557873Y-80337500D01*
X143561492Y-80362668D01*
X143562500Y-80376759D01*
X143562500Y-81287499D01*
X143562501Y-81287500D01*
X143900368Y-81287500D01*
X143878014Y-81309854D01*
X143857209Y-81387500D01*
X143878014Y-81465145D01*
X143900369Y-81487500D01*
X143562501Y-81487500D01*
X143562500Y-81487501D01*
X143562500Y-82220979D01*
X143543593Y-82279170D01*
X143494093Y-82315134D01*
X143432907Y-82315134D01*
X143409977Y-82304263D01*
X143310057Y-82240049D01*
X143310054Y-82240047D01*
X143310053Y-82240047D01*
X143310050Y-82240046D01*
X143171964Y-82199500D01*
X143171961Y-82199500D01*
X143028039Y-82199500D01*
X143028035Y-82199500D01*
X142889949Y-82240046D01*
X142889942Y-82240049D01*
X142768873Y-82317855D01*
X142674622Y-82426628D01*
X142614834Y-82557543D01*
X142594353Y-82699997D01*
X142594353Y-82700004D01*
X142600400Y-82742064D01*
X142589967Y-82802353D01*
X142546088Y-82844995D01*
X142485526Y-82853702D01*
X142469710Y-82849596D01*
X142334703Y-82802355D01*
X142334694Y-82802353D01*
X142304274Y-82799500D01*
X142304266Y-82799500D01*
X137195734Y-82799500D01*
X137195725Y-82799500D01*
X137165305Y-82802353D01*
X137165296Y-82802355D01*
X137037116Y-82847207D01*
X136927855Y-82927845D01*
X136927845Y-82927855D01*
X136847207Y-83037116D01*
X136822335Y-83108198D01*
X136785270Y-83156878D01*
X136728891Y-83174500D01*
X136516374Y-83174500D01*
X136512073Y-83174312D01*
X136471193Y-83170736D01*
X136471187Y-83170736D01*
X136431564Y-83181353D01*
X136427349Y-83182287D01*
X136386960Y-83189410D01*
X136386948Y-83189414D01*
X136385640Y-83190170D01*
X136361786Y-83200051D01*
X136360324Y-83200442D01*
X136360316Y-83200446D01*
X136326716Y-83223972D01*
X136323080Y-83226288D01*
X136314875Y-83231025D01*
X136287545Y-83246805D01*
X136261181Y-83278224D01*
X136258263Y-83281408D01*
X135781413Y-83758259D01*
X135778229Y-83761176D01*
X135746807Y-83787542D01*
X135746806Y-83787544D01*
X135726292Y-83823075D01*
X135723972Y-83826716D01*
X135700446Y-83860316D01*
X135700444Y-83860320D01*
X135700054Y-83861778D01*
X135690167Y-83885647D01*
X135685082Y-83894455D01*
X135684228Y-83893962D01*
X135672932Y-83913169D01*
X135574623Y-84026626D01*
X135514834Y-84157543D01*
X135494353Y-84299997D01*
X135494353Y-84300002D01*
X134750000Y-84300002D01*
X134750000Y-78269746D01*
X139549500Y-78269746D01*
X139549501Y-78269758D01*
X139561132Y-78328227D01*
X139561134Y-78328233D01*
X139605445Y-78394548D01*
X139605448Y-78394552D01*
X139671769Y-78438867D01*
X139716231Y-78447711D01*
X139730241Y-78450498D01*
X139730246Y-78450498D01*
X139730252Y-78450500D01*
X139730253Y-78450500D01*
X141269747Y-78450500D01*
X141269748Y-78450500D01*
X141328231Y-78438867D01*
X141394552Y-78394552D01*
X141438867Y-78328231D01*
X141450500Y-78269748D01*
X141450500Y-76730252D01*
X141438867Y-76671769D01*
X141394552Y-76605448D01*
X141374242Y-76591877D01*
X141328233Y-76561134D01*
X141328231Y-76561133D01*
X141328228Y-76561132D01*
X141328227Y-76561132D01*
X141269758Y-76549501D01*
X141269748Y-76549500D01*
X139730252Y-76549500D01*
X139730251Y-76549500D01*
X139730241Y-76549501D01*
X139671772Y-76561132D01*
X139671766Y-76561134D01*
X139605451Y-76605445D01*
X139605445Y-76605451D01*
X139561134Y-76671766D01*
X139561132Y-76671772D01*
X139549501Y-76730241D01*
X139549500Y-76730253D01*
X139549500Y-78269746D01*
X134750000Y-78269746D01*
X134750000Y-75769700D01*
X135050000Y-75769700D01*
X135061603Y-75828036D01*
X135105806Y-75894189D01*
X135105810Y-75894193D01*
X135171963Y-75938396D01*
X135230299Y-75949999D01*
X135230303Y-75950000D01*
X135899999Y-75950000D01*
X135900000Y-75949999D01*
X135900000Y-75335720D01*
X135941595Y-75350000D01*
X136029005Y-75350000D01*
X136100000Y-75338153D01*
X136100000Y-75949999D01*
X136118379Y-75968378D01*
X136146156Y-76022895D01*
X136136585Y-76083327D01*
X136093320Y-76126592D01*
X136081073Y-76131826D01*
X136037116Y-76147207D01*
X135927855Y-76227845D01*
X135927845Y-76227855D01*
X135847207Y-76337116D01*
X135802355Y-76465296D01*
X135802353Y-76465305D01*
X135799500Y-76495725D01*
X135799500Y-77704274D01*
X135802353Y-77734694D01*
X135802355Y-77734703D01*
X135847207Y-77862883D01*
X135927845Y-77972144D01*
X135927847Y-77972146D01*
X135927850Y-77972150D01*
X135927853Y-77972152D01*
X135927855Y-77972154D01*
X136037116Y-78052792D01*
X136037117Y-78052792D01*
X136037118Y-78052793D01*
X136165301Y-78097646D01*
X136195725Y-78100499D01*
X136195727Y-78100500D01*
X136195734Y-78100500D01*
X138804273Y-78100500D01*
X138804273Y-78100499D01*
X138834699Y-78097646D01*
X138962882Y-78052793D01*
X139072150Y-77972150D01*
X139152793Y-77862882D01*
X139197646Y-77734699D01*
X139200499Y-77704273D01*
X139200500Y-77704273D01*
X139200500Y-76495726D01*
X139200499Y-76495725D01*
X139197646Y-76465301D01*
X139152793Y-76337118D01*
X139072150Y-76227850D01*
X139072146Y-76227847D01*
X139072144Y-76227845D01*
X138962883Y-76147207D01*
X138834703Y-76102355D01*
X138834694Y-76102353D01*
X138804274Y-76099500D01*
X138804266Y-76099500D01*
X136913286Y-76099500D01*
X136855095Y-76080593D01*
X136819131Y-76031093D01*
X136819131Y-75969907D01*
X136855095Y-75920407D01*
X136858284Y-75918185D01*
X136894189Y-75894193D01*
X136894193Y-75894189D01*
X136938396Y-75828036D01*
X136949999Y-75769700D01*
X136950000Y-75769697D01*
X136950000Y-75100001D01*
X136949999Y-75100000D01*
X136338327Y-75100000D01*
X136343982Y-75087108D01*
X136353628Y-74970698D01*
X136335725Y-74900000D01*
X136949999Y-74900000D01*
X136950000Y-74899999D01*
X136950000Y-74230302D01*
X136949999Y-74230299D01*
X136938396Y-74171963D01*
X136894193Y-74105810D01*
X136894189Y-74105806D01*
X136828036Y-74061603D01*
X136769700Y-74050000D01*
X136100000Y-74050000D01*
X136100000Y-74664279D01*
X136058405Y-74650000D01*
X135970995Y-74650000D01*
X135900000Y-74661846D01*
X135900000Y-74050001D01*
X135899999Y-74050000D01*
X135230299Y-74050000D01*
X135171963Y-74061603D01*
X135105810Y-74105806D01*
X135105806Y-74105810D01*
X135061603Y-74171963D01*
X135050000Y-74230299D01*
X135050000Y-74899999D01*
X135050001Y-74900000D01*
X135661673Y-74900000D01*
X135656018Y-74912892D01*
X135646372Y-75029302D01*
X135664275Y-75100000D01*
X135050000Y-75100000D01*
X135050000Y-75769700D01*
X134750000Y-75769700D01*
X134750000Y-73849000D01*
X134768907Y-73790809D01*
X134818407Y-73754845D01*
X134849000Y-73750000D01*
X141512157Y-73750000D01*
X141570348Y-73768907D01*
G37*
%TD.AperFunction*%
%TD*%
M02*
