%TF.GenerationSoftware,KiCad,Pcbnew,6.0.10-86aedd382b~118~ubuntu22.04.1*%
%TF.CreationDate,2023-04-06T19:24:04+02:00*%
%TF.ProjectId,donttouchit,646f6e74-746f-4756-9368-69742e6b6963,rev?*%
%TF.SameCoordinates,Original*%
%TF.FileFunction,Copper,L1,Top*%
%TF.FilePolarity,Positive*%
%FSLAX46Y46*%
G04 Gerber Fmt 4.6, Leading zero omitted, Abs format (unit mm)*
G04 Created by KiCad (PCBNEW 6.0.10-86aedd382b~118~ubuntu22.04.1) date 2023-04-06 19:24:04*
%MOMM*%
%LPD*%
G01*
G04 APERTURE LIST*
G04 Aperture macros list*
%AMRoundRect*
0 Rectangle with rounded corners*
0 $1 Rounding radius*
0 $2 $3 $4 $5 $6 $7 $8 $9 X,Y pos of 4 corners*
0 Add a 4 corners polygon primitive as box body*
4,1,4,$2,$3,$4,$5,$6,$7,$8,$9,$2,$3,0*
0 Add four circle primitives for the rounded corners*
1,1,$1+$1,$2,$3*
1,1,$1+$1,$4,$5*
1,1,$1+$1,$6,$7*
1,1,$1+$1,$8,$9*
0 Add four rect primitives between the rounded corners*
20,1,$1+$1,$2,$3,$4,$5,0*
20,1,$1+$1,$4,$5,$6,$7,0*
20,1,$1+$1,$6,$7,$8,$9,0*
20,1,$1+$1,$8,$9,$2,$3,0*%
G04 Aperture macros list end*
%TA.AperFunction,EtchedComponent*%
%ADD10C,0.127000*%
%TD*%
%TA.AperFunction,SMDPad,CuDef*%
%ADD11RoundRect,0.250000X0.250000X0.500000X-0.250000X0.500000X-0.250000X-0.500000X0.250000X-0.500000X0*%
%TD*%
%TA.AperFunction,SMDPad,CuDef*%
%ADD12RoundRect,0.250000X0.500000X-0.250000X0.500000X0.250000X-0.500000X0.250000X-0.500000X-0.250000X0*%
%TD*%
%TA.AperFunction,SMDPad,CuDef*%
%ADD13RoundRect,0.250000X-0.250000X-0.500000X0.250000X-0.500000X0.250000X0.500000X-0.250000X0.500000X0*%
%TD*%
%TA.AperFunction,SMDPad,CuDef*%
%ADD14RoundRect,0.250000X0.250000X0.750000X-0.250000X0.750000X-0.250000X-0.750000X0.250000X-0.750000X0*%
%TD*%
%TA.AperFunction,SMDPad,CuDef*%
%ADD15RoundRect,0.250000X0.750000X-0.250000X0.750000X0.250000X-0.750000X0.250000X-0.750000X-0.250000X0*%
%TD*%
%TA.AperFunction,SMDPad,CuDef*%
%ADD16RoundRect,0.250000X-0.250000X-0.750000X0.250000X-0.750000X0.250000X0.750000X-0.250000X0.750000X0*%
%TD*%
%TA.AperFunction,ComponentPad*%
%ADD17R,1.500000X1.500000*%
%TD*%
%TA.AperFunction,SMDPad,CuDef*%
%ADD18RoundRect,0.237500X-0.300000X-0.237500X0.300000X-0.237500X0.300000X0.237500X-0.300000X0.237500X0*%
%TD*%
%TA.AperFunction,SMDPad,CuDef*%
%ADD19RoundRect,0.031750X0.968250X0.031750X-0.968250X0.031750X-0.968250X-0.031750X0.968250X-0.031750X0*%
%TD*%
%TA.AperFunction,ComponentPad*%
%ADD20C,1.000000*%
%TD*%
%TA.AperFunction,SMDPad,CuDef*%
%ADD21RoundRect,0.031750X0.031750X-0.968250X0.031750X0.968250X-0.031750X0.968250X-0.031750X-0.968250X0*%
%TD*%
%TA.AperFunction,SMDPad,CuDef*%
%ADD22RoundRect,0.031750X-0.968250X-0.031750X0.968250X-0.031750X0.968250X0.031750X-0.968250X0.031750X0*%
%TD*%
%TA.AperFunction,ComponentPad*%
%ADD23C,0.500000*%
%TD*%
%TA.AperFunction,SMDPad,CuDef*%
%ADD24R,2.600000X2.600000*%
%TD*%
%TA.AperFunction,SMDPad,CuDef*%
%ADD25RoundRect,0.062500X-0.062500X-0.375000X0.062500X-0.375000X0.062500X0.375000X-0.062500X0.375000X0*%
%TD*%
%TA.AperFunction,SMDPad,CuDef*%
%ADD26RoundRect,0.062500X-0.375000X-0.062500X0.375000X-0.062500X0.375000X0.062500X-0.375000X0.062500X0*%
%TD*%
%TA.AperFunction,SMDPad,CuDef*%
%ADD27R,1.050000X0.950000*%
%TD*%
%TA.AperFunction,SMDPad,CuDef*%
%ADD28RoundRect,0.237500X0.300000X0.237500X-0.300000X0.237500X-0.300000X-0.237500X0.300000X-0.237500X0*%
%TD*%
%TA.AperFunction,SMDPad,CuDef*%
%ADD29RoundRect,0.237500X-0.237500X0.300000X-0.237500X-0.300000X0.237500X-0.300000X0.237500X0.300000X0*%
%TD*%
%TA.AperFunction,SMDPad,CuDef*%
%ADD30RoundRect,0.237500X0.237500X-0.300000X0.237500X0.300000X-0.237500X0.300000X-0.237500X-0.300000X0*%
%TD*%
%TA.AperFunction,ViaPad*%
%ADD31C,0.600000*%
%TD*%
%TA.AperFunction,Conductor*%
%ADD32C,0.250000*%
%TD*%
%TA.AperFunction,Conductor*%
%ADD33C,0.127000*%
%TD*%
%TA.AperFunction,Conductor*%
%ADD34C,0.300000*%
%TD*%
%TA.AperFunction,Conductor*%
%ADD35C,0.500000*%
%TD*%
G04 APERTURE END LIST*
D10*
%TO.C,L3*%
X149850000Y-66596000D02*
X137404000Y-66596000D01*
X150612000Y-53388000D02*
X150612000Y-67358000D01*
X149850000Y-54150000D02*
X149850000Y-66596000D01*
X147056000Y-63802000D02*
X140198000Y-63802000D01*
X138166000Y-55166000D02*
X148834000Y-55166000D01*
X137912000Y-66088000D02*
X137912000Y-54912000D01*
X145532000Y-58468000D02*
X145532000Y-62278000D01*
X150358000Y-53642000D02*
X150358000Y-67104000D01*
X150104000Y-66850000D02*
X137150000Y-66850000D01*
X138674000Y-55674000D02*
X148326000Y-55674000D01*
X139690000Y-56690000D02*
X147310000Y-56690000D01*
X135880000Y-52880000D02*
X151120000Y-52880000D01*
X149342000Y-66088000D02*
X137912000Y-66088000D01*
X136896000Y-67104000D02*
X136896000Y-53896000D01*
X148072000Y-64818000D02*
X139182000Y-64818000D01*
X146548000Y-63294000D02*
X140706000Y-63294000D01*
X138928000Y-65072000D02*
X138928000Y-55928000D01*
X147818000Y-64564000D02*
X139436000Y-64564000D01*
X148326000Y-65072000D02*
X138928000Y-65072000D01*
X137658000Y-66342000D02*
X137658000Y-54658000D01*
X137150000Y-54150000D02*
X149850000Y-54150000D01*
X149342000Y-54658000D02*
X149342000Y-66088000D01*
X136642000Y-67358000D02*
X136642000Y-53642000D01*
X140452000Y-63548000D02*
X140452000Y-57452000D01*
X140198000Y-57198000D02*
X146802000Y-57198000D01*
X140452000Y-57452000D02*
X146548000Y-57452000D01*
X137404000Y-66596000D02*
X137404000Y-54404000D01*
X151374000Y-68120000D02*
X135880000Y-68120000D01*
X147564000Y-64310000D02*
X139690000Y-64310000D01*
X139436000Y-64564000D02*
X139436000Y-56436000D01*
X147056000Y-56944000D02*
X147056000Y-63802000D01*
X146040000Y-62786000D02*
X141214000Y-62786000D01*
X151120000Y-67866000D02*
X136134000Y-67866000D01*
X150866000Y-53134000D02*
X150866000Y-67612000D01*
X148072000Y-55928000D02*
X148072000Y-64818000D01*
X138674000Y-65326000D02*
X138674000Y-55674000D01*
X149088000Y-54912000D02*
X149088000Y-65834000D01*
X146294000Y-63040000D02*
X140960000Y-63040000D01*
X136134000Y-53134000D02*
X150866000Y-53134000D01*
X148834000Y-65580000D02*
X138420000Y-65580000D01*
X138928000Y-55928000D02*
X148072000Y-55928000D01*
X136388000Y-67612000D02*
X136388000Y-53388000D01*
X141722000Y-62278000D02*
X143500000Y-60500000D01*
X145786000Y-62532000D02*
X141468000Y-62532000D01*
X148580000Y-55420000D02*
X148580000Y-65326000D01*
X147818000Y-56182000D02*
X147818000Y-64564000D01*
X151374000Y-52626000D02*
X151374000Y-68120000D01*
X136388000Y-53388000D02*
X150612000Y-53388000D01*
X147310000Y-64056000D02*
X139944000Y-64056000D01*
X135626000Y-52626000D02*
X151374000Y-52626000D01*
X147564000Y-56436000D02*
X147564000Y-64310000D01*
X140960000Y-57960000D02*
X146040000Y-57960000D01*
X150866000Y-67612000D02*
X136388000Y-67612000D01*
X135626000Y-68374000D02*
X135626000Y-52626000D01*
X139182000Y-56182000D02*
X147818000Y-56182000D01*
X137912000Y-54912000D02*
X149088000Y-54912000D01*
X145532000Y-62278000D02*
X141722000Y-62278000D01*
X138166000Y-65834000D02*
X138166000Y-55166000D01*
X150104000Y-53896000D02*
X150104000Y-66850000D01*
X135626000Y-68374000D02*
X136388000Y-68374000D01*
X148834000Y-55166000D02*
X148834000Y-65580000D01*
X137150000Y-66850000D02*
X137150000Y-54150000D01*
X146802000Y-57198000D02*
X146802000Y-63548000D01*
X140198000Y-63802000D02*
X140198000Y-57198000D01*
X135880000Y-68120000D02*
X135880000Y-52880000D01*
X146040000Y-57960000D02*
X146040000Y-62786000D01*
X148326000Y-55674000D02*
X148326000Y-65072000D01*
X139944000Y-64056000D02*
X139944000Y-56944000D01*
X136642000Y-53642000D02*
X150358000Y-53642000D01*
X141468000Y-62532000D02*
X141468000Y-58468000D01*
X137404000Y-54404000D02*
X149596000Y-54404000D01*
X139690000Y-64310000D02*
X139690000Y-56690000D01*
X149088000Y-65834000D02*
X138166000Y-65834000D01*
X146548000Y-57452000D02*
X146548000Y-63294000D01*
X140960000Y-63040000D02*
X140960000Y-57960000D01*
X150358000Y-67104000D02*
X136896000Y-67104000D01*
X149596000Y-54404000D02*
X149596000Y-66342000D01*
X136896000Y-53896000D02*
X150104000Y-53896000D01*
X137658000Y-54658000D02*
X149342000Y-54658000D01*
X147310000Y-56690000D02*
X147310000Y-64056000D01*
X150612000Y-67358000D02*
X136642000Y-67358000D01*
X141468000Y-58468000D02*
X145532000Y-58468000D01*
X149596000Y-66342000D02*
X137658000Y-66342000D01*
X151120000Y-52880000D02*
X151120000Y-67866000D01*
X139182000Y-64818000D02*
X139182000Y-56182000D01*
X140706000Y-63294000D02*
X140706000Y-57706000D01*
X138420000Y-55420000D02*
X148580000Y-55420000D01*
X136134000Y-67866000D02*
X136134000Y-53134000D01*
X138420000Y-65580000D02*
X138420000Y-55420000D01*
X145786000Y-58214000D02*
X145786000Y-62532000D01*
X148580000Y-65326000D02*
X138674000Y-65326000D01*
X141214000Y-62786000D02*
X141214000Y-58214000D01*
X146802000Y-63548000D02*
X140452000Y-63548000D01*
X139436000Y-56436000D02*
X147564000Y-56436000D01*
X139944000Y-56944000D02*
X147056000Y-56944000D01*
X141214000Y-58214000D02*
X145786000Y-58214000D01*
X140706000Y-57706000D02*
X146294000Y-57706000D01*
X146294000Y-57706000D02*
X146294000Y-63040000D01*
%TO.C,L2*%
X168294000Y-85294000D02*
X162960000Y-85294000D01*
X168294000Y-79706000D02*
X168294000Y-85294000D01*
X167786000Y-80214000D02*
X167786000Y-84786000D01*
X169056000Y-78944000D02*
X169056000Y-86056000D01*
X169564000Y-78436000D02*
X169564000Y-86564000D01*
X162452000Y-85802000D02*
X162452000Y-79452000D01*
X163214000Y-80214000D02*
X167786000Y-80214000D01*
X160674000Y-87580000D02*
X160674000Y-77674000D01*
X167786000Y-84786000D02*
X163468000Y-84786000D01*
X160420000Y-77420000D02*
X170580000Y-77420000D01*
X158134000Y-75134000D02*
X172866000Y-75134000D01*
X170580000Y-77420000D02*
X170580000Y-87580000D01*
X162706000Y-79706000D02*
X168294000Y-79706000D01*
X161182000Y-78182000D02*
X169818000Y-78182000D01*
X173120000Y-90120000D02*
X158134000Y-90120000D01*
X159658000Y-88596000D02*
X159658000Y-76658000D01*
X167532000Y-80468000D02*
X167532000Y-84532000D01*
X158642000Y-89612000D02*
X158642000Y-75642000D01*
X169310000Y-86310000D02*
X161944000Y-86310000D01*
X171342000Y-76658000D02*
X171342000Y-88342000D01*
X172104000Y-75896000D02*
X172104000Y-89104000D01*
X171596000Y-88596000D02*
X159658000Y-88596000D01*
X158896000Y-89358000D02*
X158896000Y-75896000D01*
X162960000Y-79960000D02*
X168040000Y-79960000D01*
X168548000Y-85548000D02*
X162706000Y-85548000D01*
X160166000Y-88088000D02*
X160166000Y-77166000D01*
X161690000Y-78690000D02*
X169310000Y-78690000D01*
X171596000Y-76404000D02*
X171596000Y-88596000D01*
X163468000Y-80468000D02*
X167532000Y-80468000D01*
X172358000Y-75642000D02*
X172358000Y-89358000D01*
X161944000Y-78944000D02*
X169056000Y-78944000D01*
X170326000Y-87326000D02*
X160928000Y-87326000D01*
X168040000Y-85040000D02*
X163214000Y-85040000D01*
X157880000Y-74880000D02*
X173120000Y-74880000D01*
X162198000Y-79198000D02*
X168802000Y-79198000D01*
X168802000Y-85802000D02*
X162452000Y-85802000D01*
X159150000Y-76150000D02*
X171850000Y-76150000D01*
X170834000Y-87834000D02*
X160420000Y-87834000D01*
X157626000Y-74626000D02*
X157626000Y-75388000D01*
X172104000Y-89104000D02*
X159150000Y-89104000D01*
X160166000Y-77166000D02*
X170834000Y-77166000D01*
X163722000Y-84532000D02*
X163722000Y-80722000D01*
X171088000Y-76912000D02*
X171088000Y-88088000D01*
X169818000Y-78182000D02*
X169818000Y-86818000D01*
X157626000Y-74626000D02*
X173374000Y-74626000D01*
X158388000Y-89866000D02*
X158388000Y-75388000D01*
X168040000Y-79960000D02*
X168040000Y-85040000D01*
X169564000Y-86564000D02*
X161690000Y-86564000D01*
X173374000Y-74626000D02*
X173374000Y-90374000D01*
X161944000Y-86310000D02*
X161944000Y-78944000D01*
X172612000Y-75388000D02*
X172612000Y-89612000D01*
X173374000Y-90374000D02*
X157880000Y-90374000D01*
X169818000Y-86818000D02*
X161436000Y-86818000D01*
X170580000Y-87580000D02*
X160674000Y-87580000D01*
X163468000Y-84786000D02*
X163468000Y-80468000D01*
X163722000Y-80722000D02*
X165500000Y-82500000D01*
X158388000Y-75388000D02*
X172612000Y-75388000D01*
X170072000Y-77928000D02*
X170072000Y-87072000D01*
X160420000Y-87834000D02*
X160420000Y-77420000D01*
X172866000Y-75134000D02*
X172866000Y-89866000D01*
X162960000Y-85294000D02*
X162960000Y-79960000D01*
X171088000Y-88088000D02*
X160166000Y-88088000D01*
X160674000Y-77674000D02*
X170326000Y-77674000D01*
X170072000Y-87072000D02*
X161182000Y-87072000D01*
X172866000Y-89866000D02*
X158388000Y-89866000D01*
X158134000Y-90120000D02*
X158134000Y-75134000D01*
X163214000Y-85040000D02*
X163214000Y-80214000D01*
X169056000Y-86056000D02*
X162198000Y-86056000D01*
X161436000Y-78436000D02*
X169564000Y-78436000D01*
X161690000Y-86564000D02*
X161690000Y-78690000D01*
X157880000Y-90374000D02*
X157880000Y-74880000D01*
X159404000Y-76404000D02*
X171596000Y-76404000D01*
X168548000Y-79452000D02*
X168548000Y-85548000D01*
X168802000Y-79198000D02*
X168802000Y-85802000D01*
X162452000Y-79452000D02*
X168548000Y-79452000D01*
X158642000Y-75642000D02*
X172358000Y-75642000D01*
X171342000Y-88342000D02*
X159912000Y-88342000D01*
X171850000Y-76150000D02*
X171850000Y-88850000D01*
X159658000Y-76658000D02*
X171342000Y-76658000D01*
X160928000Y-87326000D02*
X160928000Y-77928000D01*
X161436000Y-86818000D02*
X161436000Y-78436000D01*
X160928000Y-77928000D02*
X170072000Y-77928000D01*
X162706000Y-85548000D02*
X162706000Y-79706000D01*
X161182000Y-87072000D02*
X161182000Y-78182000D01*
X158896000Y-75896000D02*
X172104000Y-75896000D01*
X159912000Y-88342000D02*
X159912000Y-76912000D01*
X173120000Y-74880000D02*
X173120000Y-90120000D01*
X169310000Y-78690000D02*
X169310000Y-86310000D01*
X170326000Y-77674000D02*
X170326000Y-87326000D01*
X159150000Y-89104000D02*
X159150000Y-76150000D01*
X172358000Y-89358000D02*
X158896000Y-89358000D01*
X167532000Y-84532000D02*
X163722000Y-84532000D01*
X159912000Y-76912000D02*
X171088000Y-76912000D01*
X170834000Y-77166000D02*
X170834000Y-87834000D01*
X162198000Y-86056000D02*
X162198000Y-79198000D01*
X171850000Y-88850000D02*
X159404000Y-88850000D01*
X172612000Y-89612000D02*
X158642000Y-89612000D01*
X159404000Y-88850000D02*
X159404000Y-76404000D01*
%TO.C,L1*%
X137150000Y-98404000D02*
X149596000Y-98404000D01*
X136388000Y-111612000D02*
X136388000Y-97642000D01*
X137150000Y-110850000D02*
X137150000Y-98404000D01*
X139944000Y-101198000D02*
X146802000Y-101198000D01*
X148834000Y-109834000D02*
X138166000Y-109834000D01*
X149088000Y-98912000D02*
X149088000Y-110088000D01*
X141468000Y-106532000D02*
X141468000Y-102722000D01*
X136642000Y-111358000D02*
X136642000Y-97896000D01*
X136896000Y-98150000D02*
X149850000Y-98150000D01*
X148326000Y-109326000D02*
X138674000Y-109326000D01*
X147310000Y-108310000D02*
X139690000Y-108310000D01*
X151120000Y-112120000D02*
X135880000Y-112120000D01*
X137658000Y-98912000D02*
X149088000Y-98912000D01*
X150104000Y-97896000D02*
X150104000Y-111104000D01*
X138928000Y-100182000D02*
X147818000Y-100182000D01*
X140452000Y-101706000D02*
X146294000Y-101706000D01*
X148072000Y-99928000D02*
X148072000Y-109072000D01*
X139182000Y-100436000D02*
X147564000Y-100436000D01*
X138674000Y-99928000D02*
X148072000Y-99928000D01*
X149342000Y-98658000D02*
X149342000Y-110342000D01*
X149850000Y-110850000D02*
X137150000Y-110850000D01*
X137658000Y-110342000D02*
X137658000Y-98912000D01*
X150358000Y-97642000D02*
X150358000Y-111358000D01*
X146548000Y-101452000D02*
X146548000Y-107548000D01*
X146802000Y-107802000D02*
X140198000Y-107802000D01*
X146548000Y-107548000D02*
X140452000Y-107548000D01*
X149596000Y-98404000D02*
X149596000Y-110596000D01*
X135626000Y-96880000D02*
X151120000Y-96880000D01*
X139436000Y-100690000D02*
X147310000Y-100690000D01*
X147564000Y-100436000D02*
X147564000Y-108564000D01*
X139944000Y-108056000D02*
X139944000Y-101198000D01*
X140960000Y-102214000D02*
X145786000Y-102214000D01*
X135880000Y-97134000D02*
X150866000Y-97134000D01*
X136134000Y-111866000D02*
X136134000Y-97388000D01*
X138928000Y-109072000D02*
X138928000Y-100182000D01*
X148326000Y-99674000D02*
X148326000Y-109326000D01*
X137912000Y-110088000D02*
X137912000Y-99166000D01*
X140706000Y-101960000D02*
X146040000Y-101960000D01*
X150866000Y-111866000D02*
X136134000Y-111866000D01*
X138166000Y-99420000D02*
X148580000Y-99420000D01*
X148072000Y-109072000D02*
X138928000Y-109072000D01*
X150612000Y-97388000D02*
X150612000Y-111612000D01*
X145278000Y-102722000D02*
X143500000Y-104500000D01*
X141214000Y-102468000D02*
X145532000Y-102468000D01*
X138420000Y-109580000D02*
X138420000Y-99674000D01*
X139182000Y-108818000D02*
X139182000Y-100436000D01*
X135626000Y-112374000D02*
X135626000Y-96880000D01*
X150612000Y-111612000D02*
X136388000Y-111612000D01*
X139690000Y-100944000D02*
X147056000Y-100944000D01*
X151374000Y-112374000D02*
X135626000Y-112374000D01*
X139436000Y-108564000D02*
X139436000Y-100690000D01*
X146040000Y-107040000D02*
X140960000Y-107040000D01*
X136134000Y-97388000D02*
X150612000Y-97388000D01*
X151374000Y-96626000D02*
X151374000Y-112374000D01*
X147818000Y-108818000D02*
X139182000Y-108818000D01*
X149088000Y-110088000D02*
X137912000Y-110088000D01*
X141468000Y-102722000D02*
X145278000Y-102722000D01*
X148834000Y-99166000D02*
X148834000Y-109834000D01*
X136896000Y-111104000D02*
X136896000Y-98150000D01*
X151374000Y-96626000D02*
X150612000Y-96626000D01*
X138166000Y-109834000D02*
X138166000Y-99420000D01*
X149850000Y-98150000D02*
X149850000Y-110850000D01*
X140198000Y-107802000D02*
X140198000Y-101452000D01*
X146802000Y-101198000D02*
X146802000Y-107802000D01*
X151120000Y-96880000D02*
X151120000Y-112120000D01*
X140960000Y-107040000D02*
X140960000Y-102214000D01*
X138674000Y-109326000D02*
X138674000Y-99928000D01*
X147056000Y-100944000D02*
X147056000Y-108056000D01*
X150358000Y-111358000D02*
X136642000Y-111358000D01*
X145532000Y-102468000D02*
X145532000Y-106532000D01*
X149596000Y-110596000D02*
X137404000Y-110596000D01*
X147310000Y-100690000D02*
X147310000Y-108310000D01*
X137912000Y-99166000D02*
X148834000Y-99166000D01*
X140452000Y-107548000D02*
X140452000Y-101706000D01*
X146040000Y-101960000D02*
X146040000Y-107040000D01*
X136642000Y-97896000D02*
X150104000Y-97896000D01*
X137404000Y-110596000D02*
X137404000Y-98658000D01*
X150104000Y-111104000D02*
X136896000Y-111104000D01*
X149342000Y-110342000D02*
X137658000Y-110342000D01*
X139690000Y-108310000D02*
X139690000Y-100944000D01*
X136388000Y-97642000D02*
X150358000Y-97642000D01*
X145532000Y-106532000D02*
X141468000Y-106532000D01*
X137404000Y-98658000D02*
X149342000Y-98658000D01*
X135880000Y-112120000D02*
X135880000Y-97134000D01*
X147818000Y-100182000D02*
X147818000Y-108818000D01*
X146294000Y-101706000D02*
X146294000Y-107294000D01*
X148580000Y-109580000D02*
X138420000Y-109580000D01*
X150866000Y-97134000D02*
X150866000Y-111866000D01*
X148580000Y-99420000D02*
X148580000Y-109580000D01*
X141214000Y-106786000D02*
X141214000Y-102468000D01*
X138420000Y-99674000D02*
X148326000Y-99674000D01*
X145786000Y-102214000D02*
X145786000Y-106786000D01*
X140198000Y-101452000D02*
X146548000Y-101452000D01*
X147564000Y-108564000D02*
X139436000Y-108564000D01*
X147056000Y-108056000D02*
X139944000Y-108056000D01*
X145786000Y-106786000D02*
X141214000Y-106786000D01*
X146294000Y-107294000D02*
X140706000Y-107294000D01*
X140706000Y-107294000D02*
X140706000Y-101960000D01*
%TD*%
D11*
%TO.P,J3,1,Pin_1*%
%TO.N,IN2A*%
X144262000Y-73700000D03*
%TO.P,J3,2,Pin_2*%
%TO.N,IN2B*%
X142738000Y-73700000D03*
%TD*%
D12*
%TO.P,J2,1,Pin_1*%
%TO.N,IN1A*%
X152300000Y-83262000D03*
%TO.P,J2,2,Pin_2*%
%TO.N,IN1B*%
X152300000Y-81738000D03*
%TD*%
D13*
%TO.P,J1,1,Pin_1*%
%TO.N,IN0A*%
X142738000Y-91300000D03*
%TO.P,J1,2,Pin_2*%
%TO.N,IN0B*%
X144262000Y-91300000D03*
%TD*%
D14*
%TO.P,J9,1,Pin_1*%
%TO.N,IN2A*%
X144262000Y-70350000D03*
%TO.P,J9,2,Pin_2*%
%TO.N,IN2B*%
X142738000Y-70350000D03*
%TD*%
D15*
%TO.P,J8,1,Pin_1*%
%TO.N,IN1A*%
X155650000Y-83262000D03*
%TO.P,J8,2,Pin_2*%
%TO.N,IN1B*%
X155650000Y-81738000D03*
%TD*%
D16*
%TO.P,J7,1,Pin_1*%
%TO.N,IN0A*%
X142738000Y-94650000D03*
%TO.P,J7,2,Pin_2*%
%TO.N,IN0B*%
X144262000Y-94650000D03*
%TD*%
D17*
%TO.P,TP14,1,1*%
%TO.N,IN3B*%
X140500000Y-77000000D03*
%TD*%
%TO.P,TP13,1,1*%
%TO.N,IN3A*%
X143000000Y-77000000D03*
%TD*%
%TO.P,TP19,1,1*%
%TO.N,GND*%
X151500000Y-90500000D03*
%TD*%
%TO.P,TP18,1,1*%
%TO.N,GND*%
X151500000Y-74500000D03*
%TD*%
%TO.P,TP17,1,1*%
%TO.N,GND*%
X135500000Y-90500000D03*
%TD*%
%TO.P,TP16,1,1*%
%TO.N,GND*%
X135500000Y-74500000D03*
%TD*%
%TO.P,TP15,1,1*%
%TO.N,Net-(U1-Pad5)*%
X148000000Y-84250000D03*
%TD*%
%TO.P,TP12,1,1*%
%TO.N,IN1B*%
X151500000Y-80000000D03*
%TD*%
%TO.P,TP11,1,1*%
%TO.N,IN1A*%
X151500000Y-85000000D03*
%TD*%
%TO.P,TP10,1,1*%
%TO.N,IN0B*%
X146000000Y-90500000D03*
%TD*%
%TO.P,TP9,1,1*%
%TO.N,IN0A*%
X141000000Y-90500000D03*
%TD*%
%TO.P,TP8,1,1*%
%TO.N,IN2B*%
X141000000Y-69500000D03*
%TD*%
%TO.P,TP7,1,1*%
%TO.N,IN2A*%
X146000000Y-74500000D03*
%TD*%
%TO.P,TP6,1,1*%
%TO.N,IN2B*%
X141000000Y-74500000D03*
%TD*%
%TO.P,TP5,1,1*%
%TO.N,IN2A*%
X146000000Y-69500000D03*
%TD*%
%TO.P,TP4,1,1*%
%TO.N,IN1B*%
X156500000Y-80000000D03*
%TD*%
%TO.P,TP3,1,1*%
%TO.N,IN1A*%
X156500000Y-85000000D03*
%TD*%
%TO.P,TP2,1,1*%
%TO.N,IN0B*%
X146000000Y-95500000D03*
%TD*%
%TO.P,TP1,1,1*%
%TO.N,IN0A*%
X141000000Y-95500000D03*
%TD*%
D18*
%TO.P,C5,1*%
%TO.N,IN0B*%
X148137500Y-90500000D03*
%TO.P,C5,2*%
%TO.N,GND*%
X149862500Y-90500000D03*
%TD*%
D19*
%TO.P,L3,2,2*%
%TO.N,IN2B*%
X136896000Y-68374000D03*
D20*
%TO.P,L3,C*%
%TO.N,N/C*%
X143500000Y-60500000D03*
%TD*%
%TO.P,L2,C*%
%TO.N,N/C*%
X165500000Y-82500000D03*
D21*
%TO.P,L2,2,2*%
%TO.N,IN1B*%
X157626000Y-75896000D03*
%TD*%
D22*
%TO.P,L1,2,2*%
%TO.N,IN0B*%
X150104000Y-96626000D03*
D20*
%TO.P,L1,C*%
%TO.N,N/C*%
X143500000Y-104500000D03*
%TD*%
D23*
%TO.P,U1,17,GND*%
%TO.N,GND*%
X143850000Y-81900000D03*
X143850000Y-80850000D03*
D24*
X143850000Y-80850000D03*
D23*
X143850000Y-79800000D03*
X142800000Y-80850000D03*
X144900000Y-81900000D03*
X142800000Y-79800000D03*
X144900000Y-80850000D03*
X144900000Y-79800000D03*
X142800000Y-81900000D03*
D25*
%TO.P,U1,16,IN3B*%
%TO.N,IN3B*%
X143100000Y-78912500D03*
%TO.P,U1,15,IN3A*%
%TO.N,IN3A*%
X143600000Y-78912500D03*
%TO.P,U1,14,IN2B*%
%TO.N,IN2B*%
X144100000Y-78912500D03*
%TO.P,U1,13,IN2A*%
%TO.N,IN2A*%
X144600000Y-78912500D03*
D26*
%TO.P,U1,12,IN1B*%
%TO.N,IN1B*%
X145787500Y-80100000D03*
%TO.P,U1,11,IN1A*%
%TO.N,IN1A*%
X145787500Y-80600000D03*
%TO.P,U1,10,IN0B*%
%TO.N,IN0B*%
X145787500Y-81100000D03*
%TO.P,U1,9,IN0A*%
%TO.N,IN0A*%
X145787500Y-81600000D03*
D25*
%TO.P,U1,8,GND*%
%TO.N,GND*%
X144600000Y-82787500D03*
%TO.P,U1,7,VDD*%
%TO.N,VCC*%
X144100000Y-82787500D03*
%TO.P,U1,6,SD*%
%TO.N,GND*%
X143600000Y-82787500D03*
%TO.P,U1,5,INTB*%
%TO.N,Net-(U1-Pad5)*%
X143100000Y-82787500D03*
D26*
%TO.P,U1,4,ADDR*%
%TO.N,GND*%
X141912500Y-81600000D03*
%TO.P,U1,3,CLKIN*%
%TO.N,Net-(U1-Pad3)*%
X141912500Y-81100000D03*
%TO.P,U1,2,SDA*%
%TO.N,Net-(J10-Pad2)*%
X141912500Y-80600000D03*
%TO.P,U1,1,SCL*%
%TO.N,Net-(J10-Pad3)*%
X141912500Y-80100000D03*
%TD*%
D18*
%TO.P,C3,2*%
%TO.N,IN2A*%
X144362500Y-68850000D03*
%TO.P,C3,1*%
%TO.N,IN2B*%
X142637500Y-68850000D03*
%TD*%
D27*
%TO.P,XT1,1,INH*%
%TO.N,VCC*%
X138325000Y-82975000D03*
%TO.P,XT1,2,GND*%
%TO.N,GND*%
X140175000Y-82975000D03*
%TO.P,XT1,3,CLK*%
%TO.N,Net-(U1-Pad3)*%
X140175000Y-81525000D03*
%TO.P,XT1,4,VCC*%
%TO.N,VCC*%
X138325000Y-81525000D03*
%TD*%
D28*
%TO.P,C1,1*%
%TO.N,IN0B*%
X144362500Y-96150000D03*
%TO.P,C1,2*%
%TO.N,IN0A*%
X142637500Y-96150000D03*
%TD*%
%TO.P,C10,2*%
%TO.N,GND*%
X137137500Y-74500000D03*
%TO.P,C10,1*%
%TO.N,IN2B*%
X138862500Y-74500000D03*
%TD*%
D29*
%TO.P,C6,1*%
%TO.N,IN1A*%
X151500000Y-87137500D03*
%TO.P,C6,2*%
%TO.N,GND*%
X151500000Y-88862500D03*
%TD*%
%TO.P,C2,1*%
%TO.N,IN1B*%
X157150000Y-81637500D03*
%TO.P,C2,2*%
%TO.N,IN1A*%
X157150000Y-83362500D03*
%TD*%
D28*
%TO.P,C4,1*%
%TO.N,IN0A*%
X138862500Y-90500000D03*
%TO.P,C4,2*%
%TO.N,GND*%
X137137500Y-90500000D03*
%TD*%
D18*
%TO.P,C8,1*%
%TO.N,IN2A*%
X148137500Y-74500000D03*
%TO.P,C8,2*%
%TO.N,GND*%
X149862500Y-74500000D03*
%TD*%
D29*
%TO.P,C11,2*%
%TO.N,GND*%
X144250000Y-86112500D03*
%TO.P,C11,1*%
%TO.N,VCC*%
X144250000Y-84387500D03*
%TD*%
D18*
%TO.P,C9,1*%
%TO.N,VCC*%
X138387500Y-79750000D03*
%TO.P,C9,2*%
%TO.N,GND*%
X140112500Y-79750000D03*
%TD*%
D30*
%TO.P,C7,1*%
%TO.N,IN1B*%
X151500000Y-77862500D03*
%TO.P,C7,2*%
%TO.N,GND*%
X151500000Y-76137500D03*
%TD*%
D29*
%TO.P,C12,1*%
%TO.N,VCC*%
X142750000Y-84387500D03*
%TO.P,C12,2*%
%TO.N,GND*%
X142750000Y-86112500D03*
%TD*%
D31*
%TO.N,Net-(J10-Pad2)*%
X141000000Y-80500000D03*
%TO.N,Net-(J10-Pad3)*%
X142250000Y-79000000D03*
%TO.N,VCC*%
X137500000Y-80250000D03*
%TO.N,Net-(U1-Pad5)*%
X142500000Y-83250000D03*
%TO.N,GND*%
X142250000Y-82500000D03*
X139400000Y-80250000D03*
X143500000Y-87250000D03*
%TD*%
D32*
%TO.N,IN0B*%
X144362500Y-96150000D02*
X144362500Y-94750500D01*
X144362500Y-94750500D02*
X144262000Y-94650000D01*
%TO.N,IN0A*%
X142637500Y-96150000D02*
X142637500Y-94750500D01*
X142637500Y-94750500D02*
X142738000Y-94650000D01*
%TO.N,IN1A*%
X157150000Y-83362500D02*
X155750500Y-83362500D01*
X155750500Y-83362500D02*
X155650000Y-83262000D01*
%TO.N,IN1B*%
X157150000Y-81637500D02*
X155750500Y-81637500D01*
X155750500Y-81637500D02*
X155650000Y-81738000D01*
%TO.N,IN2A*%
X144362500Y-68850000D02*
X144362500Y-70249500D01*
X144362500Y-70249500D02*
X144262000Y-70350000D01*
%TO.N,IN2B*%
X142637500Y-68850000D02*
X142637500Y-70249500D01*
X142637500Y-70249500D02*
X142738000Y-70350000D01*
D33*
X142738000Y-70250000D02*
X142738000Y-69600500D01*
X142738000Y-69600500D02*
X142637500Y-69500000D01*
%TO.N,IN2A*%
X144362500Y-70149500D02*
X144262000Y-70250000D01*
X144362500Y-69500000D02*
X144362500Y-70149500D01*
D32*
%TO.N,IN3B*%
X143100000Y-78600000D02*
X142750000Y-78250000D01*
X141500000Y-77750000D02*
X141250000Y-77750000D01*
X142750000Y-78250000D02*
X142000000Y-78250000D01*
X142000000Y-78250000D02*
X141500000Y-77750000D01*
%TO.N,IN1A*%
X150750000Y-81250000D02*
X150750000Y-83250000D01*
X145787500Y-80600000D02*
X150100000Y-80600000D01*
X150750000Y-81250000D02*
X150100000Y-80600000D01*
D33*
X152300000Y-83262000D02*
X152312000Y-83250000D01*
X152312000Y-83250000D02*
X156387500Y-83250000D01*
X156387500Y-83250000D02*
X156500000Y-83362500D01*
D32*
%TO.N,IN2B*%
X144100000Y-78912500D02*
X144100000Y-76100000D01*
X144100000Y-76100000D02*
X143250000Y-75250000D01*
X143250000Y-75250000D02*
X142750000Y-75250000D01*
D33*
X142738000Y-73700000D02*
X142738000Y-69600500D01*
D32*
%TO.N,IN2A*%
X144600000Y-78912500D02*
X144600000Y-74600000D01*
X144600000Y-74600000D02*
X144600000Y-74038000D01*
X146000000Y-74500000D02*
X144700000Y-74500000D01*
X144700000Y-74500000D02*
X144600000Y-74600000D01*
X144600000Y-74038000D02*
X144262000Y-73700000D01*
%TO.N,IN2B*%
X142750000Y-75250000D02*
X141750000Y-75250000D01*
X142750000Y-75250000D02*
X142750000Y-73712000D01*
X142750000Y-73712000D02*
X142738000Y-73700000D01*
X141750000Y-75250000D02*
X141000000Y-74500000D01*
%TO.N,IN0B*%
X146000000Y-90500000D02*
X145200000Y-91300000D01*
X145200000Y-91300000D02*
X144262000Y-91300000D01*
%TO.N,IN1A*%
X150750000Y-83250000D02*
X150750000Y-84250000D01*
X150750000Y-83250000D02*
X152288000Y-83250000D01*
X152288000Y-83250000D02*
X152300000Y-83262000D01*
X150750000Y-84250000D02*
X151500000Y-85000000D01*
%TO.N,IN1B*%
X151500000Y-80000000D02*
X152250000Y-80750000D01*
X152250000Y-80750000D02*
X152250000Y-81688000D01*
X152250000Y-81688000D02*
X152300000Y-81738000D01*
%TO.N,IN0A*%
X142750000Y-89750000D02*
X141750000Y-89750000D01*
X142750000Y-89750000D02*
X142750000Y-91288000D01*
X144750000Y-89750000D02*
X142750000Y-89750000D01*
X142750000Y-91288000D02*
X142738000Y-91300000D01*
X145787500Y-88722500D02*
X145777500Y-88722500D01*
X145777500Y-88722500D02*
X144750000Y-89750000D01*
X141750000Y-89750000D02*
X141000000Y-90500000D01*
D33*
%TO.N,IN0B*%
X144250000Y-95000000D02*
X144250000Y-91312000D01*
X144250000Y-91312000D02*
X144262000Y-91300000D01*
%TO.N,IN0A*%
X142637500Y-95362500D02*
X142750000Y-95250000D01*
X142637500Y-95500000D02*
X142637500Y-95362500D01*
X142750000Y-95250000D02*
X142750000Y-91312000D01*
X142750000Y-91312000D02*
X142738000Y-91300000D01*
D32*
%TO.N,IN3B*%
X143100000Y-78912500D02*
X143100000Y-78600000D01*
X141250000Y-77750000D02*
X140500000Y-77000000D01*
%TO.N,IN3A*%
X143600000Y-78912500D02*
X143600000Y-77600000D01*
X143600000Y-77600000D02*
X143000000Y-77000000D01*
%TO.N,Net-(U1-Pad5)*%
X143100000Y-82787500D02*
X142962500Y-82787500D01*
X142962500Y-82787500D02*
X142500000Y-83250000D01*
%TO.N,IN1B*%
X151500000Y-77862500D02*
X151500000Y-80000000D01*
%TO.N,GND*%
X151500000Y-76137500D02*
X151500000Y-74500000D01*
%TO.N,IN2A*%
X148137500Y-74500000D02*
X146000000Y-74500000D01*
%TO.N,IN2B*%
X138862500Y-74500000D02*
X141000000Y-74500000D01*
%TO.N,IN0A*%
X138862500Y-90500000D02*
X141000000Y-90500000D01*
D34*
%TO.N,IN0B*%
X146000000Y-90500000D02*
X148137500Y-90500000D01*
D32*
%TO.N,IN1A*%
X151500000Y-87137500D02*
X151500000Y-85000000D01*
%TO.N,Net-(J10-Pad3)*%
X141912500Y-80100000D02*
X141912500Y-79337500D01*
X141912500Y-79337500D02*
X142250000Y-79000000D01*
%TO.N,Net-(J10-Pad2)*%
X141912500Y-80600000D02*
X141100000Y-80600000D01*
X141100000Y-80600000D02*
X141000000Y-80500000D01*
D35*
%TO.N,GND*%
X140112500Y-79750000D02*
X140250000Y-79750000D01*
%TO.N,VCC*%
X137000000Y-80750000D02*
X137500000Y-80750000D01*
X137500000Y-80750000D02*
X138250000Y-80750000D01*
X137500000Y-80250000D02*
X137500000Y-80750000D01*
X138387500Y-79750000D02*
X138387500Y-80612500D01*
X138387500Y-80612500D02*
X138387500Y-81462500D01*
X138250000Y-80750000D02*
X138387500Y-80612500D01*
X138387500Y-81462500D02*
X138325000Y-81525000D01*
X136750000Y-81000000D02*
X137000000Y-80750000D01*
X136750000Y-83000000D02*
X136750000Y-81000000D01*
X136750000Y-83500000D02*
X136750000Y-83000000D01*
D33*
X138325000Y-82975000D02*
X136775000Y-82975000D01*
X136775000Y-82975000D02*
X136750000Y-83000000D01*
D35*
X142750000Y-84387500D02*
X137637500Y-84387500D01*
X137637500Y-84387500D02*
X136750000Y-83500000D01*
%TO.N,GND*%
X142750000Y-86112500D02*
X143637500Y-86112500D01*
X143500000Y-87250000D02*
X143500000Y-86250000D01*
X143637500Y-86112500D02*
X144250000Y-86112500D01*
X143500000Y-86250000D02*
X143637500Y-86112500D01*
%TO.N,VCC*%
X142750000Y-84387500D02*
X144250000Y-84387500D01*
D32*
X144100000Y-82787500D02*
X144100000Y-84237500D01*
X144100000Y-84237500D02*
X144250000Y-84387500D01*
%TO.N,IN0B*%
X145787500Y-81100000D02*
X146620000Y-81100000D01*
X146164500Y-82585500D02*
X146164500Y-90335500D01*
X146620000Y-81100000D02*
X146620000Y-81120000D01*
X146750000Y-81250000D02*
X146750000Y-82000000D01*
X146620000Y-81120000D02*
X146750000Y-81250000D01*
X146750000Y-82000000D02*
X146164500Y-82585500D01*
X146164500Y-90335500D02*
X146000000Y-90500000D01*
%TO.N,Net-(U1-Pad3)*%
X141912500Y-81100000D02*
X140600000Y-81100000D01*
X140600000Y-81100000D02*
X140175000Y-81525000D01*
D33*
%TO.N,IN0A*%
X142637500Y-95500000D02*
X142750000Y-95387500D01*
D32*
X145787500Y-81600000D02*
X145787500Y-88722500D01*
D33*
%TO.N,IN2A*%
X144362500Y-69500000D02*
X144250000Y-69612500D01*
X144250000Y-69612500D02*
X144250000Y-73750000D01*
D32*
%TO.N,IN1B*%
X145787500Y-80100000D02*
X151400000Y-80100000D01*
X151400000Y-80100000D02*
X151500000Y-80000000D01*
D34*
%TO.N,IN1A*%
X156500000Y-83362500D02*
X156500000Y-85000000D01*
%TO.N,IN1B*%
X156500000Y-81637500D02*
X156500000Y-80000000D01*
%TO.N,IN0A*%
X142637500Y-95500000D02*
X141000000Y-95500000D01*
%TO.N,IN0B*%
X144362500Y-95500000D02*
X146000000Y-95500000D01*
D33*
%TO.N,IN1B*%
X152500000Y-81750000D02*
X156387500Y-81750000D01*
X156387500Y-81750000D02*
X156500000Y-81637500D01*
%TO.N,IN0B*%
X150104000Y-96626000D02*
X147126000Y-96626000D01*
X147126000Y-96626000D02*
X146000000Y-95500000D01*
%TO.N,IN1B*%
X157626000Y-75896000D02*
X157626000Y-78874000D01*
X157626000Y-78874000D02*
X156500000Y-80000000D01*
D32*
%TO.N,GND*%
X144600000Y-82787500D02*
X144600000Y-81600000D01*
X144600000Y-81600000D02*
X143850000Y-80850000D01*
X143600000Y-82787500D02*
X143600000Y-81100000D01*
X143600000Y-81100000D02*
X143850000Y-80850000D01*
D34*
%TO.N,IN2A*%
X144362500Y-69500000D02*
X146000000Y-69500000D01*
%TO.N,IN2B*%
X142637500Y-69500000D02*
X141000000Y-69500000D01*
D33*
X136896000Y-68374000D02*
X139874000Y-68374000D01*
X139874000Y-68374000D02*
X141000000Y-69500000D01*
%TD*%
%TA.AperFunction,Conductor*%
%TO.N,GND*%
G36*
X141996691Y-73268907D02*
G01*
X142032655Y-73318407D01*
X142037500Y-73349000D01*
X142037500Y-73515747D01*
X142018593Y-73573938D01*
X141969093Y-73609902D01*
X141907907Y-73609902D01*
X141883498Y-73598062D01*
X141876662Y-73593494D01*
X141828231Y-73561133D01*
X141818668Y-73559231D01*
X141818666Y-73559230D01*
X141792984Y-73554122D01*
X141769748Y-73549500D01*
X140230252Y-73549500D01*
X140207016Y-73554122D01*
X140181334Y-73559230D01*
X140181332Y-73559231D01*
X140171769Y-73561133D01*
X140105448Y-73605448D01*
X140061133Y-73671769D01*
X140049500Y-73730252D01*
X140049500Y-74075500D01*
X140030593Y-74133691D01*
X139981093Y-74169655D01*
X139950500Y-74174500D01*
X139666006Y-74174500D01*
X139607815Y-74155593D01*
X139572598Y-74108303D01*
X139571822Y-74106093D01*
X139553961Y-74055232D01*
X139549564Y-74049278D01*
X139509648Y-73995236D01*
X139475711Y-73949289D01*
X139369768Y-73871039D01*
X139357618Y-73866772D01*
X139345077Y-73862368D01*
X139245500Y-73827399D01*
X139239496Y-73826831D01*
X139239494Y-73826831D01*
X139217144Y-73824718D01*
X139217134Y-73824718D01*
X139214833Y-73824500D01*
X138862652Y-73824500D01*
X138510168Y-73824501D01*
X138479500Y-73827399D01*
X138473816Y-73829395D01*
X138473812Y-73829396D01*
X138362214Y-73868587D01*
X138355232Y-73871039D01*
X138249289Y-73949289D01*
X138171039Y-74055232D01*
X138168587Y-74062214D01*
X138163921Y-74075500D01*
X138127399Y-74179500D01*
X138126832Y-74185503D01*
X138126831Y-74185506D01*
X138124719Y-74207852D01*
X138124500Y-74210167D01*
X138124501Y-74789832D01*
X138127399Y-74820500D01*
X138129395Y-74826184D01*
X138129396Y-74826188D01*
X138168587Y-74937786D01*
X138171039Y-74944768D01*
X138249289Y-75050711D01*
X138355232Y-75128961D01*
X138362214Y-75131413D01*
X138379923Y-75137632D01*
X138479500Y-75172601D01*
X138485504Y-75173169D01*
X138485506Y-75173169D01*
X138507856Y-75175282D01*
X138507866Y-75175282D01*
X138510167Y-75175500D01*
X138862348Y-75175500D01*
X139214832Y-75175499D01*
X139245500Y-75172601D01*
X139251184Y-75170605D01*
X139251188Y-75170604D01*
X139362786Y-75131413D01*
X139369768Y-75128961D01*
X139475711Y-75050711D01*
X139510626Y-75003440D01*
X139549565Y-74950720D01*
X139549565Y-74950719D01*
X139553961Y-74944768D01*
X139572598Y-74891696D01*
X139609719Y-74843058D01*
X139666006Y-74825500D01*
X139950500Y-74825500D01*
X140008691Y-74844407D01*
X140044655Y-74893907D01*
X140049500Y-74924500D01*
X140049500Y-75269748D01*
X140061133Y-75328231D01*
X140105448Y-75394552D01*
X140171769Y-75438867D01*
X140181332Y-75440769D01*
X140181334Y-75440770D01*
X140204005Y-75445279D01*
X140230252Y-75450500D01*
X141447165Y-75450500D01*
X141505356Y-75469407D01*
X141523001Y-75485861D01*
X141537545Y-75503194D01*
X141571219Y-75522636D01*
X141578475Y-75527259D01*
X141610316Y-75549554D01*
X141618678Y-75551795D01*
X141623960Y-75554258D01*
X141629454Y-75556257D01*
X141636955Y-75560588D01*
X141675228Y-75567337D01*
X141683656Y-75569206D01*
X141712827Y-75577022D01*
X141712830Y-75577022D01*
X141721193Y-75579263D01*
X141759896Y-75575877D01*
X141768525Y-75575500D01*
X143074166Y-75575500D01*
X143132357Y-75594407D01*
X143144170Y-75604496D01*
X143420170Y-75880496D01*
X143447947Y-75935013D01*
X143438376Y-75995445D01*
X143395111Y-76038710D01*
X143350166Y-76049500D01*
X142230252Y-76049500D01*
X142204005Y-76054721D01*
X142181334Y-76059230D01*
X142181332Y-76059231D01*
X142171769Y-76061133D01*
X142105448Y-76105448D01*
X142061133Y-76171769D01*
X142049500Y-76230252D01*
X142049500Y-77600166D01*
X142030593Y-77658357D01*
X141981093Y-77694321D01*
X141919907Y-77694321D01*
X141880496Y-77670170D01*
X141743269Y-77532943D01*
X141737434Y-77526575D01*
X141712455Y-77496806D01*
X141678792Y-77477371D01*
X141671511Y-77472732D01*
X141669056Y-77471013D01*
X141639684Y-77450446D01*
X141631316Y-77448204D01*
X141626029Y-77445738D01*
X141620544Y-77443742D01*
X141613045Y-77439412D01*
X141604519Y-77437909D01*
X141604517Y-77437908D01*
X141574784Y-77432666D01*
X141566349Y-77430796D01*
X141528807Y-77420736D01*
X141529422Y-77418443D01*
X141484543Y-77399388D01*
X141453035Y-77346938D01*
X141450500Y-77324678D01*
X141450500Y-76230252D01*
X141438867Y-76171769D01*
X141394552Y-76105448D01*
X141328231Y-76061133D01*
X141318668Y-76059231D01*
X141318666Y-76059230D01*
X141295995Y-76054721D01*
X141269748Y-76049500D01*
X139730252Y-76049500D01*
X139704005Y-76054721D01*
X139681334Y-76059230D01*
X139681332Y-76059231D01*
X139671769Y-76061133D01*
X139605448Y-76105448D01*
X139561133Y-76171769D01*
X139549500Y-76230252D01*
X139549500Y-77769748D01*
X139561133Y-77828231D01*
X139605448Y-77894552D01*
X139671769Y-77938867D01*
X139681332Y-77940769D01*
X139681334Y-77940770D01*
X139704005Y-77945279D01*
X139730252Y-77950500D01*
X140947165Y-77950500D01*
X141005356Y-77969407D01*
X141023001Y-77985861D01*
X141037545Y-78003194D01*
X141071219Y-78022636D01*
X141078475Y-78027259D01*
X141110316Y-78049554D01*
X141118678Y-78051795D01*
X141123960Y-78054258D01*
X141129454Y-78056257D01*
X141136955Y-78060588D01*
X141175228Y-78067337D01*
X141183656Y-78069206D01*
X141212827Y-78077022D01*
X141212830Y-78077022D01*
X141221193Y-78079263D01*
X141259896Y-78075877D01*
X141268525Y-78075500D01*
X141324166Y-78075500D01*
X141382357Y-78094407D01*
X141394170Y-78104496D01*
X141756731Y-78467057D01*
X141762565Y-78473424D01*
X141787545Y-78503194D01*
X141821205Y-78522627D01*
X141828489Y-78527268D01*
X141843499Y-78537778D01*
X141880321Y-78586642D01*
X141881389Y-78647818D01*
X141860921Y-78684407D01*
X141827377Y-78722388D01*
X141766447Y-78852163D01*
X141744391Y-78993823D01*
X141745306Y-79000822D01*
X141745260Y-79004608D01*
X141725643Y-79062564D01*
X141716271Y-79073403D01*
X141695443Y-79094231D01*
X141689076Y-79100065D01*
X141659306Y-79125045D01*
X141639873Y-79158705D01*
X141635232Y-79165989D01*
X141612946Y-79197816D01*
X141610704Y-79206184D01*
X141608238Y-79211471D01*
X141606242Y-79216956D01*
X141601912Y-79224455D01*
X141600409Y-79232981D01*
X141600408Y-79232983D01*
X141595166Y-79262716D01*
X141593296Y-79271150D01*
X141583236Y-79308693D01*
X141583991Y-79317322D01*
X141586623Y-79347405D01*
X141587000Y-79356034D01*
X141587000Y-79678256D01*
X141568093Y-79736447D01*
X141518593Y-79772411D01*
X141507314Y-79775354D01*
X141476167Y-79781549D01*
X141444445Y-79787858D01*
X141444444Y-79787858D01*
X141434883Y-79789760D01*
X141347888Y-79847888D01*
X141289760Y-79934883D01*
X141287858Y-79944445D01*
X141286705Y-79950242D01*
X141256808Y-80003625D01*
X141201243Y-80029241D01*
X141161242Y-80025776D01*
X141081503Y-80001929D01*
X141081497Y-80001928D01*
X141074739Y-79999907D01*
X140948395Y-79999135D01*
X140890321Y-79979873D01*
X140854660Y-79930154D01*
X140850000Y-79900137D01*
X140850000Y-79865680D01*
X140845878Y-79852995D01*
X140841757Y-79850000D01*
X140228180Y-79850000D01*
X140215495Y-79854122D01*
X140212500Y-79858243D01*
X140212500Y-80409320D01*
X140216622Y-80422005D01*
X140220743Y-80425000D01*
X140398495Y-80425000D01*
X140456686Y-80443907D01*
X140492650Y-80493407D01*
X140496658Y-80511160D01*
X140512980Y-80635979D01*
X140515820Y-80642434D01*
X140515822Y-80642440D01*
X140525682Y-80664847D01*
X140531813Y-80725725D01*
X140500990Y-80778579D01*
X140475499Y-80792328D01*
X140476532Y-80794544D01*
X140468685Y-80798204D01*
X140460316Y-80800446D01*
X140430944Y-80821013D01*
X140428489Y-80822732D01*
X140421208Y-80827371D01*
X140405851Y-80836237D01*
X140356352Y-80849500D01*
X139630252Y-80849500D01*
X139604009Y-80854720D01*
X139581334Y-80859230D01*
X139581332Y-80859231D01*
X139571769Y-80861133D01*
X139505448Y-80905448D01*
X139461133Y-80971769D01*
X139459231Y-80981332D01*
X139459230Y-80981334D01*
X139454721Y-81004005D01*
X139449500Y-81030252D01*
X139449500Y-82019748D01*
X139450448Y-82024512D01*
X139458971Y-82067361D01*
X139461133Y-82078231D01*
X139505448Y-82144552D01*
X139540518Y-82167986D01*
X139578397Y-82216034D01*
X139580799Y-82277173D01*
X139546806Y-82328046D01*
X139540518Y-82332615D01*
X139513919Y-82350388D01*
X139500389Y-82363918D01*
X139467021Y-82413858D01*
X139459702Y-82431526D01*
X139450948Y-82475538D01*
X139450000Y-82485160D01*
X139450000Y-82859320D01*
X139454122Y-82872005D01*
X139458243Y-82875000D01*
X140884320Y-82875000D01*
X140897005Y-82870878D01*
X140900000Y-82866757D01*
X140900000Y-82485160D01*
X140899052Y-82475538D01*
X140890298Y-82431526D01*
X140882979Y-82413858D01*
X140849611Y-82363918D01*
X140836081Y-82350388D01*
X140809482Y-82332615D01*
X140771603Y-82284565D01*
X140769201Y-82223427D01*
X140803194Y-82172553D01*
X140809470Y-82167993D01*
X140844552Y-82144552D01*
X140888867Y-82078231D01*
X140891030Y-82067361D01*
X140899552Y-82024512D01*
X140900500Y-82019748D01*
X140900500Y-81712458D01*
X141279794Y-81712458D01*
X141288327Y-81755358D01*
X141295649Y-81773033D01*
X141342829Y-81843642D01*
X141356358Y-81857171D01*
X141426967Y-81904351D01*
X141444642Y-81911673D01*
X141506880Y-81924052D01*
X141516502Y-81925000D01*
X141796820Y-81925000D01*
X141809505Y-81920878D01*
X141812500Y-81916757D01*
X141812500Y-81715680D01*
X141808378Y-81702995D01*
X141804257Y-81700000D01*
X141292996Y-81700000D01*
X141280311Y-81704122D01*
X141280283Y-81704159D01*
X141279794Y-81712458D01*
X140900500Y-81712458D01*
X140900500Y-81524500D01*
X140919407Y-81466309D01*
X140968907Y-81430345D01*
X140999500Y-81425500D01*
X141185404Y-81425500D01*
X141243595Y-81444407D01*
X141279559Y-81493907D01*
X141279956Y-81495717D01*
X141281975Y-81497901D01*
X141290019Y-81500000D01*
X142507035Y-81500000D01*
X142507035Y-81504743D01*
X142537948Y-81504746D01*
X142587446Y-81540713D01*
X142592964Y-81551543D01*
X142871417Y-81829996D01*
X142899194Y-81884513D01*
X142889623Y-81944945D01*
X142871417Y-81970004D01*
X142870004Y-81971417D01*
X142815487Y-81999194D01*
X142755055Y-81989623D01*
X142729996Y-81971417D01*
X142469665Y-81711086D01*
X142447907Y-81700000D01*
X142028180Y-81700000D01*
X142015495Y-81704122D01*
X142012500Y-81708243D01*
X142012500Y-81909320D01*
X142016622Y-81922005D01*
X142020743Y-81925000D01*
X142251000Y-81925000D01*
X142309191Y-81943907D01*
X142345155Y-81993407D01*
X142350000Y-82024000D01*
X142350000Y-82164840D01*
X142350948Y-82174462D01*
X142359702Y-82218474D01*
X142367021Y-82236142D01*
X142400389Y-82286082D01*
X142413918Y-82299611D01*
X142463858Y-82332979D01*
X142481526Y-82340298D01*
X142525538Y-82349052D01*
X142535160Y-82350000D01*
X142675500Y-82350000D01*
X142733691Y-82368907D01*
X142769655Y-82418407D01*
X142774500Y-82449000D01*
X142774500Y-82469585D01*
X142755593Y-82527776D01*
X142749741Y-82534051D01*
X142750045Y-82534306D01*
X142725069Y-82564071D01*
X142719235Y-82570439D01*
X142569226Y-82720448D01*
X142514709Y-82748225D01*
X142498617Y-82749442D01*
X142438427Y-82749074D01*
X142438426Y-82749074D01*
X142431376Y-82749031D01*
X142424599Y-82750968D01*
X142424598Y-82750968D01*
X142300309Y-82786490D01*
X142300307Y-82786491D01*
X142293529Y-82788428D01*
X142172280Y-82864930D01*
X142167613Y-82870214D01*
X142167611Y-82870216D01*
X142082044Y-82967103D01*
X142082042Y-82967105D01*
X142077377Y-82972388D01*
X142016447Y-83102163D01*
X141994391Y-83243823D01*
X141995306Y-83250820D01*
X141995306Y-83250821D01*
X142012065Y-83378982D01*
X142012980Y-83385979D01*
X142015821Y-83392435D01*
X142015821Y-83392436D01*
X142066378Y-83507334D01*
X142070720Y-83517203D01*
X142115510Y-83570487D01*
X142158431Y-83621549D01*
X142158434Y-83621551D01*
X142162970Y-83626948D01*
X142173737Y-83634115D01*
X142211698Y-83682099D01*
X142214206Y-83743233D01*
X142198511Y-83775342D01*
X142121039Y-83880232D01*
X142119336Y-83885082D01*
X142076177Y-83926905D01*
X142032624Y-83937000D01*
X137865112Y-83937000D01*
X137806921Y-83918093D01*
X137795108Y-83908004D01*
X137706210Y-83819106D01*
X137678433Y-83764589D01*
X137688004Y-83704157D01*
X137731269Y-83660892D01*
X137780252Y-83651649D01*
X137780252Y-83650500D01*
X138869748Y-83650500D01*
X138901179Y-83644248D01*
X138918666Y-83640770D01*
X138918668Y-83640769D01*
X138928231Y-83638867D01*
X138994552Y-83594552D01*
X139038867Y-83528231D01*
X139041580Y-83514596D01*
X139048195Y-83481334D01*
X139050500Y-83469748D01*
X139050500Y-83464840D01*
X139450000Y-83464840D01*
X139450948Y-83474462D01*
X139459702Y-83518474D01*
X139467021Y-83536142D01*
X139500389Y-83586082D01*
X139513918Y-83599611D01*
X139563858Y-83632979D01*
X139581526Y-83640298D01*
X139625538Y-83649052D01*
X139635160Y-83650000D01*
X140059320Y-83650000D01*
X140072005Y-83645878D01*
X140075000Y-83641757D01*
X140075000Y-83634320D01*
X140275000Y-83634320D01*
X140279122Y-83647005D01*
X140283243Y-83650000D01*
X140714840Y-83650000D01*
X140724462Y-83649052D01*
X140768474Y-83640298D01*
X140786142Y-83632979D01*
X140836082Y-83599611D01*
X140849611Y-83586082D01*
X140882979Y-83536142D01*
X140890298Y-83518474D01*
X140899052Y-83474462D01*
X140900000Y-83464840D01*
X140900000Y-83090680D01*
X140895878Y-83077995D01*
X140891757Y-83075000D01*
X140290680Y-83075000D01*
X140277995Y-83079122D01*
X140275000Y-83083243D01*
X140275000Y-83634320D01*
X140075000Y-83634320D01*
X140075000Y-83090680D01*
X140070878Y-83077995D01*
X140066757Y-83075000D01*
X139465680Y-83075000D01*
X139452995Y-83079122D01*
X139450000Y-83083243D01*
X139450000Y-83464840D01*
X139050500Y-83464840D01*
X139050500Y-82480252D01*
X139038867Y-82421769D01*
X138994552Y-82355448D01*
X138959930Y-82332314D01*
X138922053Y-82284264D01*
X138919651Y-82223126D01*
X138953645Y-82172253D01*
X138959924Y-82167690D01*
X138994552Y-82144552D01*
X139038867Y-82078231D01*
X139041030Y-82067361D01*
X139049552Y-82024512D01*
X139050500Y-82019748D01*
X139050500Y-81030252D01*
X139045279Y-81004005D01*
X139040770Y-80981334D01*
X139040769Y-80981332D01*
X139038867Y-80971769D01*
X138994552Y-80905448D01*
X138928231Y-80861133D01*
X138918667Y-80859231D01*
X138918663Y-80859229D01*
X138917682Y-80859034D01*
X138916234Y-80858223D01*
X138909658Y-80855499D01*
X138909980Y-80854720D01*
X138864299Y-80829135D01*
X138838686Y-80773569D01*
X138838000Y-80761937D01*
X138838000Y-80623959D01*
X138838076Y-80620072D01*
X138839849Y-80574943D01*
X138840338Y-80562506D01*
X138838541Y-80555727D01*
X138838000Y-80545907D01*
X138838000Y-80467376D01*
X138856907Y-80409185D01*
X138889678Y-80380749D01*
X138894768Y-80378961D01*
X138933979Y-80350000D01*
X138978400Y-80317190D01*
X139000711Y-80300711D01*
X139078961Y-80194768D01*
X139081496Y-80187551D01*
X139106998Y-80114930D01*
X139122601Y-80070500D01*
X139125500Y-80039833D01*
X139125500Y-80037455D01*
X139375000Y-80037455D01*
X139375218Y-80042091D01*
X139377327Y-80064397D01*
X139379895Y-80076099D01*
X139419034Y-80187551D01*
X139425881Y-80200484D01*
X139495246Y-80294397D01*
X139505603Y-80304754D01*
X139599516Y-80374119D01*
X139612449Y-80380966D01*
X139723901Y-80420105D01*
X139735603Y-80422673D01*
X139757909Y-80424782D01*
X139762545Y-80425000D01*
X139996820Y-80425000D01*
X140009505Y-80420878D01*
X140012500Y-80416757D01*
X140012500Y-79865680D01*
X140008378Y-79852995D01*
X140004257Y-79850000D01*
X139390680Y-79850000D01*
X139377995Y-79854122D01*
X139375000Y-79858243D01*
X139375000Y-80037455D01*
X139125500Y-80037455D01*
X139125499Y-79634320D01*
X139375000Y-79634320D01*
X139379122Y-79647005D01*
X139383243Y-79650000D01*
X139996820Y-79650000D01*
X140009505Y-79645878D01*
X140012500Y-79641757D01*
X140012500Y-79634320D01*
X140212500Y-79634320D01*
X140216622Y-79647005D01*
X140220743Y-79650000D01*
X140834320Y-79650000D01*
X140847005Y-79645878D01*
X140850000Y-79641757D01*
X140850000Y-79462545D01*
X140849782Y-79457909D01*
X140847673Y-79435603D01*
X140845105Y-79423901D01*
X140805966Y-79312449D01*
X140799119Y-79299516D01*
X140729754Y-79205603D01*
X140719397Y-79195246D01*
X140625484Y-79125881D01*
X140612551Y-79119034D01*
X140501099Y-79079895D01*
X140489397Y-79077327D01*
X140467091Y-79075218D01*
X140462455Y-79075000D01*
X140228180Y-79075000D01*
X140215495Y-79079122D01*
X140212500Y-79083243D01*
X140212500Y-79634320D01*
X140012500Y-79634320D01*
X140012500Y-79090680D01*
X140008378Y-79077995D01*
X140004257Y-79075000D01*
X139762545Y-79075000D01*
X139757909Y-79075218D01*
X139735603Y-79077327D01*
X139723901Y-79079895D01*
X139612449Y-79119034D01*
X139599516Y-79125881D01*
X139505603Y-79195246D01*
X139495246Y-79205603D01*
X139425881Y-79299516D01*
X139419034Y-79312449D01*
X139379895Y-79423901D01*
X139377327Y-79435603D01*
X139375218Y-79457909D01*
X139375000Y-79462545D01*
X139375000Y-79634320D01*
X139125499Y-79634320D01*
X139125499Y-79460168D01*
X139122601Y-79429500D01*
X139120603Y-79423809D01*
X139081413Y-79312214D01*
X139078961Y-79305232D01*
X139000711Y-79199289D01*
X138894768Y-79121039D01*
X138770500Y-79077399D01*
X138764496Y-79076831D01*
X138764494Y-79076831D01*
X138742144Y-79074718D01*
X138742134Y-79074718D01*
X138739833Y-79074500D01*
X138387652Y-79074500D01*
X138035168Y-79074501D01*
X138004500Y-79077399D01*
X137998816Y-79079395D01*
X137998812Y-79079396D01*
X137887214Y-79118587D01*
X137880232Y-79121039D01*
X137774289Y-79199289D01*
X137696039Y-79305232D01*
X137693587Y-79312214D01*
X137693171Y-79313400D01*
X137652399Y-79429500D01*
X137651832Y-79435503D01*
X137651831Y-79435506D01*
X137649719Y-79457852D01*
X137649500Y-79460167D01*
X137649500Y-79462492D01*
X137649501Y-79650756D01*
X137630594Y-79708947D01*
X137581094Y-79744911D01*
X137549896Y-79749755D01*
X137438427Y-79749074D01*
X137438426Y-79749074D01*
X137431376Y-79749031D01*
X137424599Y-79750968D01*
X137424598Y-79750968D01*
X137300309Y-79786490D01*
X137300307Y-79786491D01*
X137293529Y-79788428D01*
X137172280Y-79864930D01*
X137167613Y-79870214D01*
X137167611Y-79870216D01*
X137082044Y-79967103D01*
X137082042Y-79967105D01*
X137077377Y-79972388D01*
X137016447Y-80102163D01*
X137006473Y-80166225D01*
X136997379Y-80224630D01*
X136969745Y-80279219D01*
X136914276Y-80307299D01*
X136866038Y-80314551D01*
X136859525Y-80317679D01*
X136852427Y-80318975D01*
X136818656Y-80336517D01*
X136800002Y-80346207D01*
X136797236Y-80347590D01*
X136743921Y-80373191D01*
X136739481Y-80377295D01*
X136737218Y-80378820D01*
X136732211Y-80381421D01*
X136727172Y-80385725D01*
X136689540Y-80423357D01*
X136686737Y-80426051D01*
X136649876Y-80460124D01*
X136649874Y-80460127D01*
X136644444Y-80465146D01*
X136640922Y-80471210D01*
X136634362Y-80478535D01*
X136454516Y-80658381D01*
X136445804Y-80666122D01*
X136417890Y-80688128D01*
X136413683Y-80694215D01*
X136384292Y-80736741D01*
X136382483Y-80739272D01*
X136356379Y-80774614D01*
X136347366Y-80786816D01*
X136344973Y-80793632D01*
X136340869Y-80799569D01*
X136323181Y-80855499D01*
X136323049Y-80855915D01*
X136322082Y-80858814D01*
X136302481Y-80914631D01*
X136302244Y-80920673D01*
X136301723Y-80923347D01*
X136300020Y-80928730D01*
X136299500Y-80935337D01*
X136299500Y-80988541D01*
X136299424Y-80992428D01*
X136297536Y-81040481D01*
X136297162Y-81049994D01*
X136298959Y-81056772D01*
X136299500Y-81066597D01*
X136299500Y-83467373D01*
X136298814Y-83479009D01*
X136294636Y-83514310D01*
X136295965Y-83521586D01*
X136295965Y-83521589D01*
X136305248Y-83572414D01*
X136305758Y-83575476D01*
X136314551Y-83633962D01*
X136317679Y-83640475D01*
X136318975Y-83647573D01*
X136325894Y-83660892D01*
X136346198Y-83699980D01*
X136347588Y-83702762D01*
X136369987Y-83749408D01*
X136369989Y-83749411D01*
X136373191Y-83756079D01*
X136377297Y-83760521D01*
X136378820Y-83762781D01*
X136381421Y-83767788D01*
X136385725Y-83772828D01*
X136423357Y-83810460D01*
X136426051Y-83813263D01*
X136460124Y-83850124D01*
X136460127Y-83850126D01*
X136465146Y-83855556D01*
X136471210Y-83859078D01*
X136478535Y-83865638D01*
X137295881Y-84682984D01*
X137303622Y-84691696D01*
X137325628Y-84719610D01*
X137331715Y-84723817D01*
X137331716Y-84723818D01*
X137374233Y-84753203D01*
X137376763Y-84755011D01*
X137424317Y-84790135D01*
X137431134Y-84792529D01*
X137437069Y-84796631D01*
X137444122Y-84798862D01*
X137444125Y-84798863D01*
X137475890Y-84808909D01*
X137493404Y-84814448D01*
X137496341Y-84815428D01*
X137545148Y-84832568D01*
X137545150Y-84832568D01*
X137552131Y-84835020D01*
X137558173Y-84835258D01*
X137560853Y-84835780D01*
X137566230Y-84837480D01*
X137572837Y-84838000D01*
X137626016Y-84838000D01*
X137629903Y-84838076D01*
X137687494Y-84840339D01*
X137694276Y-84838541D01*
X137704101Y-84838000D01*
X142032624Y-84838000D01*
X142090815Y-84856907D01*
X142119251Y-84889678D01*
X142121039Y-84894768D01*
X142125435Y-84900719D01*
X142125435Y-84900720D01*
X142165352Y-84954764D01*
X142199289Y-85000711D01*
X142305232Y-85078961D01*
X142429500Y-85122601D01*
X142435504Y-85123169D01*
X142435506Y-85123169D01*
X142457856Y-85125282D01*
X142457866Y-85125282D01*
X142460167Y-85125500D01*
X142749875Y-85125500D01*
X143039832Y-85125499D01*
X143070500Y-85122601D01*
X143076184Y-85120605D01*
X143076188Y-85120604D01*
X143187786Y-85081413D01*
X143194768Y-85078961D01*
X143300711Y-85000711D01*
X143334648Y-84954764D01*
X143374565Y-84900720D01*
X143374565Y-84900719D01*
X143378961Y-84894768D01*
X143380664Y-84889918D01*
X143423823Y-84848095D01*
X143467376Y-84838000D01*
X143532624Y-84838000D01*
X143590815Y-84856907D01*
X143619251Y-84889678D01*
X143621039Y-84894768D01*
X143625435Y-84900719D01*
X143625435Y-84900720D01*
X143665352Y-84954764D01*
X143699289Y-85000711D01*
X143805232Y-85078961D01*
X143929500Y-85122601D01*
X143935504Y-85123169D01*
X143935506Y-85123169D01*
X143957856Y-85125282D01*
X143957866Y-85125282D01*
X143960167Y-85125500D01*
X144249875Y-85125500D01*
X144539832Y-85125499D01*
X144570500Y-85122601D01*
X144576184Y-85120605D01*
X144576188Y-85120604D01*
X144687786Y-85081413D01*
X144694768Y-85078961D01*
X144800711Y-85000711D01*
X144878961Y-84894768D01*
X144922601Y-84770500D01*
X144923169Y-84764494D01*
X144925282Y-84742144D01*
X144925282Y-84742134D01*
X144925500Y-84739833D01*
X144925499Y-84035168D01*
X144922601Y-84004500D01*
X144914641Y-83981831D01*
X144881413Y-83887214D01*
X144878961Y-83880232D01*
X144800711Y-83774289D01*
X144694768Y-83696039D01*
X144570500Y-83652399D01*
X144564496Y-83651831D01*
X144564494Y-83651831D01*
X144542144Y-83649718D01*
X144542134Y-83649718D01*
X144539833Y-83649500D01*
X144524500Y-83649500D01*
X144466309Y-83630593D01*
X144430345Y-83581093D01*
X144425500Y-83550500D01*
X144425500Y-83514596D01*
X144444407Y-83456405D01*
X144493907Y-83420441D01*
X144495717Y-83420044D01*
X144497901Y-83418025D01*
X144500000Y-83409981D01*
X144500000Y-83407004D01*
X144700000Y-83407004D01*
X144704122Y-83419689D01*
X144704159Y-83419717D01*
X144712458Y-83420206D01*
X144755358Y-83411673D01*
X144773033Y-83404351D01*
X144843642Y-83357171D01*
X144857171Y-83343642D01*
X144904351Y-83273033D01*
X144911673Y-83255358D01*
X144924052Y-83193120D01*
X144925000Y-83183498D01*
X144925000Y-82903180D01*
X144920878Y-82890495D01*
X144916757Y-82887500D01*
X144715680Y-82887500D01*
X144702995Y-82891622D01*
X144700000Y-82895743D01*
X144700000Y-83407004D01*
X144500000Y-83407004D01*
X144500000Y-82192965D01*
X144504743Y-82192965D01*
X144504746Y-82162052D01*
X144540713Y-82112554D01*
X144551543Y-82107036D01*
X144829996Y-81828583D01*
X144884513Y-81800806D01*
X144944945Y-81810377D01*
X144970004Y-81828583D01*
X144971417Y-81829996D01*
X144999194Y-81884513D01*
X144989623Y-81944945D01*
X144971417Y-81970004D01*
X144711086Y-82230335D01*
X144700000Y-82252093D01*
X144700000Y-82671820D01*
X144704122Y-82684505D01*
X144708243Y-82687500D01*
X144909320Y-82687500D01*
X144922005Y-82683378D01*
X144925000Y-82679257D01*
X144925000Y-82449000D01*
X144943907Y-82390809D01*
X144993407Y-82354845D01*
X145024000Y-82350000D01*
X145164840Y-82350000D01*
X145174462Y-82349052D01*
X145218474Y-82340298D01*
X145236142Y-82332979D01*
X145286082Y-82299611D01*
X145292996Y-82292697D01*
X145347513Y-82264920D01*
X145407945Y-82274491D01*
X145451210Y-82317756D01*
X145462000Y-82362701D01*
X145462000Y-88536665D01*
X145443093Y-88594856D01*
X145433004Y-88606669D01*
X144644170Y-89395504D01*
X144589653Y-89423281D01*
X144574166Y-89424500D01*
X141768526Y-89424500D01*
X141759898Y-89424123D01*
X141756576Y-89423832D01*
X141721193Y-89420737D01*
X141712830Y-89422978D01*
X141712827Y-89422978D01*
X141683656Y-89430794D01*
X141675229Y-89432663D01*
X141636955Y-89439412D01*
X141629454Y-89443743D01*
X141623960Y-89445742D01*
X141618678Y-89448205D01*
X141610316Y-89450446D01*
X141603223Y-89455413D01*
X141603222Y-89455413D01*
X141578478Y-89472739D01*
X141571219Y-89477364D01*
X141537545Y-89496806D01*
X141523002Y-89514138D01*
X141471114Y-89546560D01*
X141447165Y-89549500D01*
X140230252Y-89549500D01*
X140207016Y-89554122D01*
X140181334Y-89559230D01*
X140181332Y-89559231D01*
X140171769Y-89561133D01*
X140105448Y-89605448D01*
X140061133Y-89671769D01*
X140049500Y-89730252D01*
X140049500Y-90075500D01*
X140030593Y-90133691D01*
X139981093Y-90169655D01*
X139950500Y-90174500D01*
X139666006Y-90174500D01*
X139607815Y-90155593D01*
X139572598Y-90108303D01*
X139567718Y-90094407D01*
X139553961Y-90055232D01*
X139549564Y-90049278D01*
X139491090Y-89970111D01*
X139475711Y-89949289D01*
X139369768Y-89871039D01*
X139357618Y-89866772D01*
X139345077Y-89862368D01*
X139245500Y-89827399D01*
X139239496Y-89826831D01*
X139239494Y-89826831D01*
X139217144Y-89824718D01*
X139217134Y-89824718D01*
X139214833Y-89824500D01*
X138862652Y-89824500D01*
X138510168Y-89824501D01*
X138479500Y-89827399D01*
X138473816Y-89829395D01*
X138473812Y-89829396D01*
X138362214Y-89868587D01*
X138355232Y-89871039D01*
X138249289Y-89949289D01*
X138171039Y-90055232D01*
X138168587Y-90062214D01*
X138166789Y-90067334D01*
X138127399Y-90179500D01*
X138126832Y-90185503D01*
X138126831Y-90185506D01*
X138124719Y-90207852D01*
X138124500Y-90210167D01*
X138124501Y-90789832D01*
X138127399Y-90820500D01*
X138129395Y-90826184D01*
X138129396Y-90826188D01*
X138168587Y-90937786D01*
X138171039Y-90944768D01*
X138249289Y-91050711D01*
X138355232Y-91128961D01*
X138362214Y-91131413D01*
X138379923Y-91137632D01*
X138479500Y-91172601D01*
X138485504Y-91173169D01*
X138485506Y-91173169D01*
X138507856Y-91175282D01*
X138507866Y-91175282D01*
X138510167Y-91175500D01*
X138862348Y-91175500D01*
X139214832Y-91175499D01*
X139245500Y-91172601D01*
X139251184Y-91170605D01*
X139251188Y-91170604D01*
X139362786Y-91131413D01*
X139369768Y-91128961D01*
X139475711Y-91050711D01*
X139532001Y-90974500D01*
X139549565Y-90950720D01*
X139549565Y-90950719D01*
X139553961Y-90944768D01*
X139572598Y-90891696D01*
X139609719Y-90843058D01*
X139666006Y-90825500D01*
X139950500Y-90825500D01*
X140008691Y-90844407D01*
X140044655Y-90893907D01*
X140049500Y-90924500D01*
X140049500Y-91269748D01*
X140061133Y-91328231D01*
X140105448Y-91394552D01*
X140171769Y-91438867D01*
X140181332Y-91440769D01*
X140181334Y-91440770D01*
X140204005Y-91445279D01*
X140230252Y-91450500D01*
X141769748Y-91450500D01*
X141795995Y-91445279D01*
X141818666Y-91440770D01*
X141818668Y-91440769D01*
X141828231Y-91438867D01*
X141883498Y-91401938D01*
X141942386Y-91385329D01*
X141999790Y-91406506D01*
X142033783Y-91457379D01*
X142037500Y-91484253D01*
X142037500Y-91651000D01*
X142018593Y-91709191D01*
X141969093Y-91745155D01*
X141938500Y-91750000D01*
X134349000Y-91750000D01*
X134290809Y-91731093D01*
X134254845Y-91681593D01*
X134250000Y-91651000D01*
X134250000Y-91264840D01*
X134550000Y-91264840D01*
X134550948Y-91274462D01*
X134559702Y-91318474D01*
X134567021Y-91336142D01*
X134600389Y-91386082D01*
X134613918Y-91399611D01*
X134663858Y-91432979D01*
X134681526Y-91440298D01*
X134725538Y-91449052D01*
X134735160Y-91450000D01*
X135384320Y-91450000D01*
X135397005Y-91445878D01*
X135400000Y-91441757D01*
X135400000Y-91434320D01*
X135600000Y-91434320D01*
X135604122Y-91447005D01*
X135608243Y-91450000D01*
X136264840Y-91450000D01*
X136274462Y-91449052D01*
X136318474Y-91440298D01*
X136336142Y-91432979D01*
X136386082Y-91399611D01*
X136399611Y-91386082D01*
X136432979Y-91336142D01*
X136440298Y-91318474D01*
X136449052Y-91274462D01*
X136450000Y-91264840D01*
X136450000Y-91191419D01*
X136468907Y-91133228D01*
X136518407Y-91097264D01*
X136579593Y-91097264D01*
X136607817Y-91111785D01*
X136624517Y-91124119D01*
X136637449Y-91130966D01*
X136748901Y-91170105D01*
X136760603Y-91172673D01*
X136782909Y-91174782D01*
X136787545Y-91175000D01*
X137021820Y-91175000D01*
X137034505Y-91170878D01*
X137037500Y-91166757D01*
X137037500Y-91159320D01*
X137237500Y-91159320D01*
X137241622Y-91172005D01*
X137245743Y-91175000D01*
X137487455Y-91175000D01*
X137492091Y-91174782D01*
X137514397Y-91172673D01*
X137526099Y-91170105D01*
X137637551Y-91130966D01*
X137650484Y-91124119D01*
X137744397Y-91054754D01*
X137754754Y-91044397D01*
X137824119Y-90950484D01*
X137830966Y-90937551D01*
X137870105Y-90826099D01*
X137872673Y-90814397D01*
X137874782Y-90792091D01*
X137875000Y-90787455D01*
X137875000Y-90615680D01*
X137870878Y-90602995D01*
X137866757Y-90600000D01*
X137253180Y-90600000D01*
X137240495Y-90604122D01*
X137237500Y-90608243D01*
X137237500Y-91159320D01*
X137037500Y-91159320D01*
X137037500Y-90615680D01*
X137033378Y-90602995D01*
X137029257Y-90600000D01*
X135615680Y-90600000D01*
X135602995Y-90604122D01*
X135600000Y-90608243D01*
X135600000Y-91434320D01*
X135400000Y-91434320D01*
X135400000Y-90615680D01*
X135395878Y-90602995D01*
X135391757Y-90600000D01*
X134565680Y-90600000D01*
X134552995Y-90604122D01*
X134550000Y-90608243D01*
X134550000Y-91264840D01*
X134250000Y-91264840D01*
X134250000Y-90384320D01*
X134550000Y-90384320D01*
X134554122Y-90397005D01*
X134558243Y-90400000D01*
X135384320Y-90400000D01*
X135397005Y-90395878D01*
X135400000Y-90391757D01*
X135400000Y-90384320D01*
X135600000Y-90384320D01*
X135604122Y-90397005D01*
X135608243Y-90400000D01*
X137021820Y-90400000D01*
X137034505Y-90395878D01*
X137037500Y-90391757D01*
X137037500Y-90384320D01*
X137237500Y-90384320D01*
X137241622Y-90397005D01*
X137245743Y-90400000D01*
X137859320Y-90400000D01*
X137872005Y-90395878D01*
X137875000Y-90391757D01*
X137875000Y-90212545D01*
X137874782Y-90207909D01*
X137872673Y-90185603D01*
X137870105Y-90173901D01*
X137830966Y-90062449D01*
X137824119Y-90049516D01*
X137754754Y-89955603D01*
X137744397Y-89945246D01*
X137650484Y-89875881D01*
X137637551Y-89869034D01*
X137526099Y-89829895D01*
X137514397Y-89827327D01*
X137492091Y-89825218D01*
X137487455Y-89825000D01*
X137253180Y-89825000D01*
X137240495Y-89829122D01*
X137237500Y-89833243D01*
X137237500Y-90384320D01*
X137037500Y-90384320D01*
X137037500Y-89840680D01*
X137033378Y-89827995D01*
X137029257Y-89825000D01*
X136787545Y-89825000D01*
X136782909Y-89825218D01*
X136760603Y-89827327D01*
X136748901Y-89829895D01*
X136637449Y-89869034D01*
X136624517Y-89875881D01*
X136607817Y-89888215D01*
X136549776Y-89907578D01*
X136491439Y-89889127D01*
X136455088Y-89839911D01*
X136450000Y-89808581D01*
X136450000Y-89735160D01*
X136449052Y-89725538D01*
X136440298Y-89681526D01*
X136432979Y-89663858D01*
X136399611Y-89613918D01*
X136386082Y-89600389D01*
X136336142Y-89567021D01*
X136318474Y-89559702D01*
X136274462Y-89550948D01*
X136264840Y-89550000D01*
X135615680Y-89550000D01*
X135602995Y-89554122D01*
X135600000Y-89558243D01*
X135600000Y-90384320D01*
X135400000Y-90384320D01*
X135400000Y-89565680D01*
X135395878Y-89552995D01*
X135391757Y-89550000D01*
X134735160Y-89550000D01*
X134725538Y-89550948D01*
X134681526Y-89559702D01*
X134663858Y-89567021D01*
X134613918Y-89600389D01*
X134600389Y-89613918D01*
X134567021Y-89663858D01*
X134559702Y-89681526D01*
X134550948Y-89725538D01*
X134550000Y-89735160D01*
X134550000Y-90384320D01*
X134250000Y-90384320D01*
X134250000Y-86462455D01*
X142075000Y-86462455D01*
X142075218Y-86467091D01*
X142077327Y-86489397D01*
X142079895Y-86501099D01*
X142119034Y-86612551D01*
X142125881Y-86625484D01*
X142195246Y-86719397D01*
X142205603Y-86729754D01*
X142299516Y-86799119D01*
X142312449Y-86805966D01*
X142423901Y-86845105D01*
X142435603Y-86847673D01*
X142457909Y-86849782D01*
X142462545Y-86850000D01*
X142634320Y-86850000D01*
X142647005Y-86845878D01*
X142650000Y-86841757D01*
X142650000Y-86834320D01*
X142850000Y-86834320D01*
X142854122Y-86847005D01*
X142858243Y-86850000D01*
X143037455Y-86850000D01*
X143042091Y-86849782D01*
X143064397Y-86847673D01*
X143076099Y-86845105D01*
X143187551Y-86805966D01*
X143200484Y-86799119D01*
X143294397Y-86729754D01*
X143304754Y-86719397D01*
X143374119Y-86625484D01*
X143380966Y-86612551D01*
X143406592Y-86539580D01*
X143443712Y-86490941D01*
X143502332Y-86473409D01*
X143560061Y-86493682D01*
X143593408Y-86539580D01*
X143619034Y-86612551D01*
X143625881Y-86625484D01*
X143695246Y-86719397D01*
X143705603Y-86729754D01*
X143799516Y-86799119D01*
X143812449Y-86805966D01*
X143923901Y-86845105D01*
X143935603Y-86847673D01*
X143957909Y-86849782D01*
X143962545Y-86850000D01*
X144134320Y-86850000D01*
X144147005Y-86845878D01*
X144150000Y-86841757D01*
X144150000Y-86834320D01*
X144350000Y-86834320D01*
X144354122Y-86847005D01*
X144358243Y-86850000D01*
X144537455Y-86850000D01*
X144542091Y-86849782D01*
X144564397Y-86847673D01*
X144576099Y-86845105D01*
X144687551Y-86805966D01*
X144700484Y-86799119D01*
X144794397Y-86729754D01*
X144804754Y-86719397D01*
X144874119Y-86625484D01*
X144880966Y-86612551D01*
X144920105Y-86501099D01*
X144922673Y-86489397D01*
X144924782Y-86467091D01*
X144925000Y-86462455D01*
X144925000Y-86228180D01*
X144920878Y-86215495D01*
X144916757Y-86212500D01*
X144365680Y-86212500D01*
X144352995Y-86216622D01*
X144350000Y-86220743D01*
X144350000Y-86834320D01*
X144150000Y-86834320D01*
X144150000Y-85996820D01*
X144350000Y-85996820D01*
X144354122Y-86009505D01*
X144358243Y-86012500D01*
X144909320Y-86012500D01*
X144922005Y-86008378D01*
X144925000Y-86004257D01*
X144925000Y-85762545D01*
X144924782Y-85757909D01*
X144922673Y-85735603D01*
X144920105Y-85723901D01*
X144880966Y-85612449D01*
X144874119Y-85599516D01*
X144804754Y-85505603D01*
X144794397Y-85495246D01*
X144700484Y-85425881D01*
X144687551Y-85419034D01*
X144576099Y-85379895D01*
X144564397Y-85377327D01*
X144542091Y-85375218D01*
X144537455Y-85375000D01*
X144365680Y-85375000D01*
X144352995Y-85379122D01*
X144350000Y-85383243D01*
X144350000Y-85996820D01*
X144150000Y-85996820D01*
X144150000Y-85390680D01*
X144145878Y-85377995D01*
X144141757Y-85375000D01*
X143962545Y-85375000D01*
X143957909Y-85375218D01*
X143935603Y-85377327D01*
X143923901Y-85379895D01*
X143812449Y-85419034D01*
X143799516Y-85425881D01*
X143705603Y-85495246D01*
X143695246Y-85505603D01*
X143625881Y-85599516D01*
X143619034Y-85612449D01*
X143593408Y-85685420D01*
X143556288Y-85734059D01*
X143497668Y-85751591D01*
X143439939Y-85731318D01*
X143406592Y-85685420D01*
X143380966Y-85612449D01*
X143374119Y-85599516D01*
X143304754Y-85505603D01*
X143294397Y-85495246D01*
X143200484Y-85425881D01*
X143187551Y-85419034D01*
X143076099Y-85379895D01*
X143064397Y-85377327D01*
X143042091Y-85375218D01*
X143037455Y-85375000D01*
X142865680Y-85375000D01*
X142852995Y-85379122D01*
X142850000Y-85383243D01*
X142850000Y-86834320D01*
X142650000Y-86834320D01*
X142650000Y-86228180D01*
X142645878Y-86215495D01*
X142641757Y-86212500D01*
X142090680Y-86212500D01*
X142077995Y-86216622D01*
X142075000Y-86220743D01*
X142075000Y-86462455D01*
X134250000Y-86462455D01*
X134250000Y-85996820D01*
X142075000Y-85996820D01*
X142079122Y-86009505D01*
X142083243Y-86012500D01*
X142634320Y-86012500D01*
X142647005Y-86008378D01*
X142650000Y-86004257D01*
X142650000Y-85390680D01*
X142645878Y-85377995D01*
X142641757Y-85375000D01*
X142462545Y-85375000D01*
X142457909Y-85375218D01*
X142435603Y-85377327D01*
X142423901Y-85379895D01*
X142312449Y-85419034D01*
X142299516Y-85425881D01*
X142205603Y-85495246D01*
X142195246Y-85505603D01*
X142125881Y-85599516D01*
X142119034Y-85612449D01*
X142079895Y-85723901D01*
X142077327Y-85735603D01*
X142075218Y-85757909D01*
X142075000Y-85762545D01*
X142075000Y-85996820D01*
X134250000Y-85996820D01*
X134250000Y-75264840D01*
X134550000Y-75264840D01*
X134550948Y-75274462D01*
X134559702Y-75318474D01*
X134567021Y-75336142D01*
X134600389Y-75386082D01*
X134613918Y-75399611D01*
X134663858Y-75432979D01*
X134681526Y-75440298D01*
X134725538Y-75449052D01*
X134735160Y-75450000D01*
X135384320Y-75450000D01*
X135397005Y-75445878D01*
X135400000Y-75441757D01*
X135400000Y-75434320D01*
X135600000Y-75434320D01*
X135604122Y-75447005D01*
X135608243Y-75450000D01*
X136264840Y-75450000D01*
X136274462Y-75449052D01*
X136318474Y-75440298D01*
X136336142Y-75432979D01*
X136386082Y-75399611D01*
X136399611Y-75386082D01*
X136432979Y-75336142D01*
X136440298Y-75318474D01*
X136449052Y-75274462D01*
X136450000Y-75264840D01*
X136450000Y-75191419D01*
X136468907Y-75133228D01*
X136518407Y-75097264D01*
X136579593Y-75097264D01*
X136607817Y-75111785D01*
X136624517Y-75124119D01*
X136637449Y-75130966D01*
X136748901Y-75170105D01*
X136760603Y-75172673D01*
X136782909Y-75174782D01*
X136787545Y-75175000D01*
X137021820Y-75175000D01*
X137034505Y-75170878D01*
X137037500Y-75166757D01*
X137037500Y-75159320D01*
X137237500Y-75159320D01*
X137241622Y-75172005D01*
X137245743Y-75175000D01*
X137487455Y-75175000D01*
X137492091Y-75174782D01*
X137514397Y-75172673D01*
X137526099Y-75170105D01*
X137637551Y-75130966D01*
X137650484Y-75124119D01*
X137744397Y-75054754D01*
X137754754Y-75044397D01*
X137824119Y-74950484D01*
X137830966Y-74937551D01*
X137870105Y-74826099D01*
X137872673Y-74814397D01*
X137874782Y-74792091D01*
X137875000Y-74787455D01*
X137875000Y-74615680D01*
X137870878Y-74602995D01*
X137866757Y-74600000D01*
X137253180Y-74600000D01*
X137240495Y-74604122D01*
X137237500Y-74608243D01*
X137237500Y-75159320D01*
X137037500Y-75159320D01*
X137037500Y-74615680D01*
X137033378Y-74602995D01*
X137029257Y-74600000D01*
X135615680Y-74600000D01*
X135602995Y-74604122D01*
X135600000Y-74608243D01*
X135600000Y-75434320D01*
X135400000Y-75434320D01*
X135400000Y-74615680D01*
X135395878Y-74602995D01*
X135391757Y-74600000D01*
X134565680Y-74600000D01*
X134552995Y-74604122D01*
X134550000Y-74608243D01*
X134550000Y-75264840D01*
X134250000Y-75264840D01*
X134250000Y-74384320D01*
X134550000Y-74384320D01*
X134554122Y-74397005D01*
X134558243Y-74400000D01*
X135384320Y-74400000D01*
X135397005Y-74395878D01*
X135400000Y-74391757D01*
X135400000Y-74384320D01*
X135600000Y-74384320D01*
X135604122Y-74397005D01*
X135608243Y-74400000D01*
X137021820Y-74400000D01*
X137034505Y-74395878D01*
X137037500Y-74391757D01*
X137037500Y-74384320D01*
X137237500Y-74384320D01*
X137241622Y-74397005D01*
X137245743Y-74400000D01*
X137859320Y-74400000D01*
X137872005Y-74395878D01*
X137875000Y-74391757D01*
X137875000Y-74212545D01*
X137874782Y-74207909D01*
X137872673Y-74185603D01*
X137870105Y-74173901D01*
X137830966Y-74062449D01*
X137824119Y-74049516D01*
X137754754Y-73955603D01*
X137744397Y-73945246D01*
X137650484Y-73875881D01*
X137637551Y-73869034D01*
X137526099Y-73829895D01*
X137514397Y-73827327D01*
X137492091Y-73825218D01*
X137487455Y-73825000D01*
X137253180Y-73825000D01*
X137240495Y-73829122D01*
X137237500Y-73833243D01*
X137237500Y-74384320D01*
X137037500Y-74384320D01*
X137037500Y-73840680D01*
X137033378Y-73827995D01*
X137029257Y-73825000D01*
X136787545Y-73825000D01*
X136782909Y-73825218D01*
X136760603Y-73827327D01*
X136748901Y-73829895D01*
X136637449Y-73869034D01*
X136624517Y-73875881D01*
X136607817Y-73888215D01*
X136549776Y-73907578D01*
X136491439Y-73889127D01*
X136455088Y-73839911D01*
X136450000Y-73808581D01*
X136450000Y-73735160D01*
X136449052Y-73725538D01*
X136440298Y-73681526D01*
X136432979Y-73663858D01*
X136399611Y-73613918D01*
X136386082Y-73600389D01*
X136336142Y-73567021D01*
X136318474Y-73559702D01*
X136274462Y-73550948D01*
X136264840Y-73550000D01*
X135615680Y-73550000D01*
X135602995Y-73554122D01*
X135600000Y-73558243D01*
X135600000Y-74384320D01*
X135400000Y-74384320D01*
X135400000Y-73565680D01*
X135395878Y-73552995D01*
X135391757Y-73550000D01*
X134735160Y-73550000D01*
X134725538Y-73550948D01*
X134681526Y-73559702D01*
X134663858Y-73567021D01*
X134613918Y-73600389D01*
X134600389Y-73613918D01*
X134567021Y-73663858D01*
X134559702Y-73681526D01*
X134550948Y-73725538D01*
X134550000Y-73735160D01*
X134550000Y-74384320D01*
X134250000Y-74384320D01*
X134250000Y-73349000D01*
X134268907Y-73290809D01*
X134318407Y-73254845D01*
X134349000Y-73250000D01*
X141938500Y-73250000D01*
X141996691Y-73268907D01*
G37*
%TD.AperFunction*%
%TA.AperFunction,Conductor*%
G36*
X149982357Y-80944407D02*
G01*
X149994170Y-80954496D01*
X150395504Y-81355830D01*
X150423281Y-81410347D01*
X150424500Y-81425834D01*
X150424500Y-84231466D01*
X150424123Y-84240095D01*
X150420736Y-84278807D01*
X150422978Y-84287174D01*
X150430796Y-84316349D01*
X150432666Y-84324783D01*
X150439412Y-84363045D01*
X150443742Y-84370544D01*
X150445738Y-84376029D01*
X150448204Y-84381316D01*
X150450446Y-84389684D01*
X150471013Y-84419056D01*
X150472732Y-84421511D01*
X150477371Y-84428792D01*
X150496806Y-84462455D01*
X150514138Y-84476998D01*
X150546560Y-84528886D01*
X150549500Y-84552835D01*
X150549500Y-85769748D01*
X150561133Y-85828231D01*
X150605448Y-85894552D01*
X150671769Y-85938867D01*
X150681332Y-85940769D01*
X150681334Y-85940770D01*
X150704005Y-85945279D01*
X150730252Y-85950500D01*
X151075500Y-85950500D01*
X151133691Y-85969407D01*
X151169655Y-86018907D01*
X151174500Y-86049500D01*
X151174500Y-86333994D01*
X151155593Y-86392185D01*
X151108304Y-86427402D01*
X151055232Y-86446039D01*
X151049281Y-86450435D01*
X151049280Y-86450435D01*
X151018176Y-86473409D01*
X150949289Y-86524289D01*
X150871039Y-86630232D01*
X150827399Y-86754500D01*
X150826832Y-86760503D01*
X150826831Y-86760506D01*
X150824719Y-86782852D01*
X150824500Y-86785167D01*
X150824501Y-87489832D01*
X150827399Y-87520500D01*
X150829395Y-87526184D01*
X150829396Y-87526188D01*
X150868587Y-87637786D01*
X150871039Y-87644768D01*
X150949289Y-87750711D01*
X151055232Y-87828961D01*
X151179500Y-87872601D01*
X151185504Y-87873169D01*
X151185506Y-87873169D01*
X151207856Y-87875282D01*
X151207866Y-87875282D01*
X151210167Y-87875500D01*
X151499875Y-87875500D01*
X151789832Y-87875499D01*
X151820500Y-87872601D01*
X151826184Y-87870605D01*
X151826188Y-87870604D01*
X151937786Y-87831413D01*
X151944768Y-87828961D01*
X152050711Y-87750711D01*
X152128961Y-87644768D01*
X152172601Y-87520500D01*
X152173169Y-87514494D01*
X152175282Y-87492144D01*
X152175282Y-87492134D01*
X152175500Y-87489833D01*
X152175499Y-86785168D01*
X152172601Y-86754500D01*
X152170603Y-86748809D01*
X152131413Y-86637214D01*
X152128961Y-86630232D01*
X152050711Y-86524289D01*
X151981824Y-86473409D01*
X151950720Y-86450435D01*
X151950719Y-86450435D01*
X151944768Y-86446039D01*
X151891696Y-86427402D01*
X151843058Y-86390281D01*
X151825500Y-86333994D01*
X151825500Y-86049500D01*
X151844407Y-85991309D01*
X151893907Y-85955345D01*
X151924500Y-85950500D01*
X152269748Y-85950500D01*
X152295995Y-85945279D01*
X152318666Y-85940770D01*
X152318668Y-85940769D01*
X152328231Y-85938867D01*
X152394552Y-85894552D01*
X152438867Y-85828231D01*
X152450500Y-85769748D01*
X152450500Y-84230252D01*
X152438867Y-84171769D01*
X152401938Y-84116502D01*
X152385329Y-84057614D01*
X152406506Y-84000210D01*
X152457379Y-83966217D01*
X152484253Y-83962500D01*
X152651000Y-83962500D01*
X152709191Y-83981407D01*
X152745155Y-84030907D01*
X152750000Y-84061500D01*
X152750000Y-91651000D01*
X152731093Y-91709191D01*
X152681593Y-91745155D01*
X152651000Y-91750000D01*
X145441049Y-91750000D01*
X145382858Y-91731093D01*
X145346894Y-91681593D01*
X145346894Y-91620407D01*
X145382858Y-91570907D01*
X145391551Y-91565263D01*
X145404953Y-91557526D01*
X145404956Y-91557523D01*
X145412455Y-91553194D01*
X145437431Y-91523429D01*
X145443265Y-91517061D01*
X145480830Y-91479496D01*
X145535347Y-91451719D01*
X145550834Y-91450500D01*
X146769748Y-91450500D01*
X146795995Y-91445279D01*
X146818666Y-91440770D01*
X146818668Y-91440769D01*
X146828231Y-91438867D01*
X146894552Y-91394552D01*
X146938867Y-91328231D01*
X146950500Y-91269748D01*
X146950500Y-90949500D01*
X146969407Y-90891309D01*
X147018907Y-90855345D01*
X147049500Y-90850500D01*
X147342773Y-90850500D01*
X147400964Y-90869407D01*
X147436181Y-90916697D01*
X147443505Y-90937551D01*
X147446039Y-90944768D01*
X147524289Y-91050711D01*
X147630232Y-91128961D01*
X147637214Y-91131413D01*
X147654923Y-91137632D01*
X147754500Y-91172601D01*
X147760504Y-91173169D01*
X147760506Y-91173169D01*
X147782856Y-91175282D01*
X147782866Y-91175282D01*
X147785167Y-91175500D01*
X148137348Y-91175500D01*
X148489832Y-91175499D01*
X148520500Y-91172601D01*
X148526184Y-91170605D01*
X148526188Y-91170604D01*
X148637786Y-91131413D01*
X148644768Y-91128961D01*
X148750711Y-91050711D01*
X148828961Y-90944768D01*
X148831496Y-90937551D01*
X148847598Y-90891697D01*
X148872601Y-90820500D01*
X148873178Y-90814397D01*
X148875282Y-90792144D01*
X148875282Y-90792134D01*
X148875500Y-90789833D01*
X148875500Y-90787455D01*
X149125000Y-90787455D01*
X149125218Y-90792091D01*
X149127327Y-90814397D01*
X149129895Y-90826099D01*
X149169034Y-90937551D01*
X149175881Y-90950484D01*
X149245246Y-91044397D01*
X149255603Y-91054754D01*
X149349516Y-91124119D01*
X149362449Y-91130966D01*
X149473901Y-91170105D01*
X149485603Y-91172673D01*
X149507909Y-91174782D01*
X149512545Y-91175000D01*
X149746820Y-91175000D01*
X149759505Y-91170878D01*
X149762500Y-91166757D01*
X149762500Y-91159320D01*
X149962500Y-91159320D01*
X149966622Y-91172005D01*
X149970743Y-91175000D01*
X150212455Y-91175000D01*
X150217091Y-91174782D01*
X150239397Y-91172673D01*
X150251099Y-91170105D01*
X150362551Y-91130966D01*
X150375483Y-91124119D01*
X150392183Y-91111785D01*
X150450224Y-91092422D01*
X150508561Y-91110873D01*
X150544912Y-91160089D01*
X150550000Y-91191419D01*
X150550000Y-91264840D01*
X150550948Y-91274462D01*
X150559702Y-91318474D01*
X150567021Y-91336142D01*
X150600389Y-91386082D01*
X150613918Y-91399611D01*
X150663858Y-91432979D01*
X150681526Y-91440298D01*
X150725538Y-91449052D01*
X150735160Y-91450000D01*
X151384320Y-91450000D01*
X151397005Y-91445878D01*
X151400000Y-91441757D01*
X151400000Y-91434320D01*
X151600000Y-91434320D01*
X151604122Y-91447005D01*
X151608243Y-91450000D01*
X152264840Y-91450000D01*
X152274462Y-91449052D01*
X152318474Y-91440298D01*
X152336142Y-91432979D01*
X152386082Y-91399611D01*
X152399611Y-91386082D01*
X152432979Y-91336142D01*
X152440298Y-91318474D01*
X152449052Y-91274462D01*
X152450000Y-91264840D01*
X152450000Y-90615680D01*
X152445878Y-90602995D01*
X152441757Y-90600000D01*
X151615680Y-90600000D01*
X151602995Y-90604122D01*
X151600000Y-90608243D01*
X151600000Y-91434320D01*
X151400000Y-91434320D01*
X151400000Y-90615680D01*
X151395878Y-90602995D01*
X151391757Y-90600000D01*
X149978180Y-90600000D01*
X149965495Y-90604122D01*
X149962500Y-90608243D01*
X149962500Y-91159320D01*
X149762500Y-91159320D01*
X149762500Y-90615680D01*
X149758378Y-90602995D01*
X149754257Y-90600000D01*
X149140680Y-90600000D01*
X149127995Y-90604122D01*
X149125000Y-90608243D01*
X149125000Y-90787455D01*
X148875500Y-90787455D01*
X148875499Y-90384320D01*
X149125000Y-90384320D01*
X149129122Y-90397005D01*
X149133243Y-90400000D01*
X149746820Y-90400000D01*
X149759505Y-90395878D01*
X149762500Y-90391757D01*
X149762500Y-90384320D01*
X149962500Y-90384320D01*
X149966622Y-90397005D01*
X149970743Y-90400000D01*
X151384320Y-90400000D01*
X151397005Y-90395878D01*
X151400000Y-90391757D01*
X151400000Y-90384320D01*
X151600000Y-90384320D01*
X151604122Y-90397005D01*
X151608243Y-90400000D01*
X152434320Y-90400000D01*
X152447005Y-90395878D01*
X152450000Y-90391757D01*
X152450000Y-89735160D01*
X152449052Y-89725538D01*
X152440298Y-89681526D01*
X152432979Y-89663858D01*
X152399611Y-89613918D01*
X152386082Y-89600389D01*
X152336142Y-89567021D01*
X152318474Y-89559702D01*
X152274462Y-89550948D01*
X152264840Y-89550000D01*
X152191419Y-89550000D01*
X152133228Y-89531093D01*
X152097264Y-89481593D01*
X152097264Y-89420407D01*
X152111785Y-89392183D01*
X152124119Y-89375483D01*
X152130966Y-89362551D01*
X152170105Y-89251099D01*
X152172673Y-89239397D01*
X152174782Y-89217091D01*
X152175000Y-89212455D01*
X152175000Y-88978180D01*
X152170878Y-88965495D01*
X152166757Y-88962500D01*
X151615680Y-88962500D01*
X151602995Y-88966622D01*
X151600000Y-88970743D01*
X151600000Y-90384320D01*
X151400000Y-90384320D01*
X151400000Y-88978180D01*
X151395878Y-88965495D01*
X151391757Y-88962500D01*
X150840680Y-88962500D01*
X150827995Y-88966622D01*
X150825000Y-88970743D01*
X150825000Y-89212455D01*
X150825218Y-89217091D01*
X150827327Y-89239397D01*
X150829895Y-89251099D01*
X150869034Y-89362551D01*
X150875881Y-89375483D01*
X150888215Y-89392183D01*
X150907578Y-89450224D01*
X150889127Y-89508561D01*
X150839911Y-89544912D01*
X150808581Y-89550000D01*
X150735160Y-89550000D01*
X150725538Y-89550948D01*
X150681526Y-89559702D01*
X150663858Y-89567021D01*
X150613918Y-89600389D01*
X150600389Y-89613918D01*
X150567021Y-89663858D01*
X150559702Y-89681526D01*
X150550948Y-89725538D01*
X150550000Y-89735160D01*
X150550000Y-89808581D01*
X150531093Y-89866772D01*
X150481593Y-89902736D01*
X150420407Y-89902736D01*
X150392183Y-89888215D01*
X150375483Y-89875881D01*
X150362551Y-89869034D01*
X150251099Y-89829895D01*
X150239397Y-89827327D01*
X150217091Y-89825218D01*
X150212455Y-89825000D01*
X149978180Y-89825000D01*
X149965495Y-89829122D01*
X149962500Y-89833243D01*
X149962500Y-90384320D01*
X149762500Y-90384320D01*
X149762500Y-89840680D01*
X149758378Y-89827995D01*
X149754257Y-89825000D01*
X149512545Y-89825000D01*
X149507909Y-89825218D01*
X149485603Y-89827327D01*
X149473901Y-89829895D01*
X149362449Y-89869034D01*
X149349516Y-89875881D01*
X149255603Y-89945246D01*
X149245246Y-89955603D01*
X149175881Y-90049516D01*
X149169034Y-90062449D01*
X149129895Y-90173901D01*
X149127327Y-90185603D01*
X149125218Y-90207909D01*
X149125000Y-90212545D01*
X149125000Y-90384320D01*
X148875499Y-90384320D01*
X148875499Y-90210168D01*
X148872601Y-90179500D01*
X148870603Y-90173809D01*
X148831413Y-90062214D01*
X148828961Y-90055232D01*
X148750711Y-89949289D01*
X148644768Y-89871039D01*
X148632618Y-89866772D01*
X148620077Y-89862368D01*
X148520500Y-89827399D01*
X148514496Y-89826831D01*
X148514494Y-89826831D01*
X148492144Y-89824718D01*
X148492134Y-89824718D01*
X148489833Y-89824500D01*
X148137652Y-89824500D01*
X147785168Y-89824501D01*
X147754500Y-89827399D01*
X147748816Y-89829395D01*
X147748812Y-89829396D01*
X147637214Y-89868587D01*
X147630232Y-89871039D01*
X147524289Y-89949289D01*
X147446039Y-90055232D01*
X147443587Y-90062214D01*
X147436181Y-90083303D01*
X147399060Y-90131942D01*
X147342773Y-90149500D01*
X147049500Y-90149500D01*
X146991309Y-90130593D01*
X146955345Y-90081093D01*
X146950500Y-90050500D01*
X146950500Y-89730252D01*
X146938867Y-89671769D01*
X146894552Y-89605448D01*
X146828231Y-89561133D01*
X146818668Y-89559231D01*
X146818666Y-89559230D01*
X146792984Y-89554122D01*
X146769748Y-89549500D01*
X146589000Y-89549500D01*
X146530809Y-89530593D01*
X146494845Y-89481093D01*
X146490000Y-89450500D01*
X146490000Y-88746820D01*
X150825000Y-88746820D01*
X150829122Y-88759505D01*
X150833243Y-88762500D01*
X151384320Y-88762500D01*
X151397005Y-88758378D01*
X151400000Y-88754257D01*
X151400000Y-88746820D01*
X151600000Y-88746820D01*
X151604122Y-88759505D01*
X151608243Y-88762500D01*
X152159320Y-88762500D01*
X152172005Y-88758378D01*
X152175000Y-88754257D01*
X152175000Y-88512545D01*
X152174782Y-88507909D01*
X152172673Y-88485603D01*
X152170105Y-88473901D01*
X152130966Y-88362449D01*
X152124119Y-88349516D01*
X152054754Y-88255603D01*
X152044397Y-88245246D01*
X151950484Y-88175881D01*
X151937551Y-88169034D01*
X151826099Y-88129895D01*
X151814397Y-88127327D01*
X151792091Y-88125218D01*
X151787455Y-88125000D01*
X151615680Y-88125000D01*
X151602995Y-88129122D01*
X151600000Y-88133243D01*
X151600000Y-88746820D01*
X151400000Y-88746820D01*
X151400000Y-88140680D01*
X151395878Y-88127995D01*
X151391757Y-88125000D01*
X151212545Y-88125000D01*
X151207909Y-88125218D01*
X151185603Y-88127327D01*
X151173901Y-88129895D01*
X151062449Y-88169034D01*
X151049516Y-88175881D01*
X150955603Y-88245246D01*
X150945246Y-88255603D01*
X150875881Y-88349516D01*
X150869034Y-88362449D01*
X150829895Y-88473901D01*
X150827327Y-88485603D01*
X150825218Y-88507909D01*
X150825000Y-88512545D01*
X150825000Y-88746820D01*
X146490000Y-88746820D01*
X146490000Y-85019748D01*
X147049500Y-85019748D01*
X147061133Y-85078231D01*
X147105448Y-85144552D01*
X147171769Y-85188867D01*
X147181332Y-85190769D01*
X147181334Y-85190770D01*
X147204005Y-85195279D01*
X147230252Y-85200500D01*
X148769748Y-85200500D01*
X148795995Y-85195279D01*
X148818666Y-85190770D01*
X148818668Y-85190769D01*
X148828231Y-85188867D01*
X148894552Y-85144552D01*
X148938867Y-85078231D01*
X148950500Y-85019748D01*
X148950500Y-83480252D01*
X148942560Y-83440333D01*
X148940770Y-83431334D01*
X148940769Y-83431332D01*
X148938867Y-83421769D01*
X148894552Y-83355448D01*
X148828231Y-83311133D01*
X148818668Y-83309231D01*
X148818666Y-83309230D01*
X148795995Y-83304721D01*
X148769748Y-83299500D01*
X147230252Y-83299500D01*
X147204005Y-83304721D01*
X147181334Y-83309230D01*
X147181332Y-83309231D01*
X147171769Y-83311133D01*
X147105448Y-83355448D01*
X147061133Y-83421769D01*
X147059231Y-83431332D01*
X147059230Y-83431334D01*
X147057440Y-83440333D01*
X147049500Y-83480252D01*
X147049500Y-85019748D01*
X146490000Y-85019748D01*
X146490000Y-82761334D01*
X146508907Y-82703143D01*
X146518996Y-82691330D01*
X146967057Y-82243269D01*
X146973425Y-82237434D01*
X146990118Y-82223427D01*
X147003194Y-82212455D01*
X147022629Y-82178792D01*
X147027268Y-82171511D01*
X147042351Y-82149970D01*
X147049554Y-82139684D01*
X147051796Y-82131316D01*
X147054262Y-82126029D01*
X147056258Y-82120544D01*
X147060588Y-82113045D01*
X147067334Y-82074783D01*
X147069204Y-82066349D01*
X147077022Y-82037174D01*
X147079264Y-82028807D01*
X147075877Y-81990095D01*
X147075500Y-81981466D01*
X147075500Y-81268534D01*
X147075877Y-81259905D01*
X147078509Y-81229822D01*
X147079264Y-81221193D01*
X147074152Y-81202114D01*
X147069204Y-81183651D01*
X147067334Y-81175216D01*
X147062092Y-81145483D01*
X147062091Y-81145481D01*
X147060588Y-81136955D01*
X147056258Y-81129456D01*
X147054262Y-81123971D01*
X147051796Y-81118683D01*
X147049554Y-81110316D01*
X147029224Y-81081283D01*
X147011336Y-81022773D01*
X147031256Y-80964921D01*
X147081376Y-80929826D01*
X147110321Y-80925500D01*
X149924166Y-80925500D01*
X149982357Y-80944407D01*
G37*
%TD.AperFunction*%
%TA.AperFunction,Conductor*%
G36*
X143894945Y-81810377D02*
G01*
X143920004Y-81828583D01*
X143921417Y-81829996D01*
X143949194Y-81884513D01*
X143939623Y-81944945D01*
X143921417Y-81970004D01*
X143711086Y-82180335D01*
X143700000Y-82202093D01*
X143700000Y-83407004D01*
X143704122Y-83419689D01*
X143726800Y-83436166D01*
X143738301Y-83440667D01*
X143771291Y-83492196D01*
X143774500Y-83517198D01*
X143774500Y-83668783D01*
X143755593Y-83726974D01*
X143734317Y-83748417D01*
X143705241Y-83769892D01*
X143705238Y-83769895D01*
X143699289Y-83774289D01*
X143694893Y-83780241D01*
X143625437Y-83874278D01*
X143621039Y-83880232D01*
X143619336Y-83885082D01*
X143576177Y-83926905D01*
X143532624Y-83937000D01*
X143467376Y-83937000D01*
X143409185Y-83918093D01*
X143380749Y-83885322D01*
X143378961Y-83880232D01*
X143374564Y-83874278D01*
X143305110Y-83780245D01*
X143300711Y-83774289D01*
X143194768Y-83696039D01*
X143070500Y-83652399D01*
X143064496Y-83651831D01*
X143064494Y-83651831D01*
X143042144Y-83649718D01*
X143042134Y-83649718D01*
X143039833Y-83649500D01*
X143020609Y-83649500D01*
X142962418Y-83630593D01*
X142926454Y-83581093D01*
X142926454Y-83519907D01*
X142931511Y-83507344D01*
X142944113Y-83481333D01*
X142986500Y-83437210D01*
X143033205Y-83425500D01*
X143155939Y-83425499D01*
X143188400Y-83425499D01*
X143213830Y-83420441D01*
X143255556Y-83412142D01*
X143255557Y-83412141D01*
X143265117Y-83410240D01*
X143295448Y-83389974D01*
X143354335Y-83373365D01*
X143405451Y-83389974D01*
X143426968Y-83404351D01*
X143444642Y-83411673D01*
X143484621Y-83419625D01*
X143497866Y-83418057D01*
X143497901Y-83418025D01*
X143500000Y-83409981D01*
X143500000Y-82258644D01*
X143485938Y-82215365D01*
X143486866Y-82215064D01*
X143473899Y-82183762D01*
X143488182Y-82124267D01*
X143502590Y-82105989D01*
X143779996Y-81828583D01*
X143834513Y-81800806D01*
X143894945Y-81810377D01*
G37*
%TD.AperFunction*%
%TA.AperFunction,Conductor*%
G36*
X152709191Y-73268907D02*
G01*
X152745155Y-73318407D01*
X152750000Y-73349000D01*
X152750000Y-80600300D01*
X152731093Y-80658491D01*
X152681593Y-80694455D01*
X152620407Y-80694455D01*
X152570907Y-80658491D01*
X152561149Y-80640139D01*
X152560588Y-80636955D01*
X152556257Y-80629453D01*
X152554259Y-80623964D01*
X152551796Y-80618681D01*
X152549554Y-80610316D01*
X152544112Y-80602543D01*
X152527261Y-80578478D01*
X152522636Y-80571219D01*
X152503194Y-80537545D01*
X152485862Y-80523002D01*
X152453440Y-80471114D01*
X152450500Y-80447165D01*
X152450500Y-79230252D01*
X152438867Y-79171769D01*
X152394552Y-79105448D01*
X152328231Y-79061133D01*
X152318668Y-79059231D01*
X152318666Y-79059230D01*
X152295995Y-79054721D01*
X152269748Y-79049500D01*
X151924500Y-79049500D01*
X151866309Y-79030593D01*
X151830345Y-78981093D01*
X151825500Y-78950500D01*
X151825500Y-78666006D01*
X151844407Y-78607815D01*
X151891696Y-78572598D01*
X151944768Y-78553961D01*
X152050711Y-78475711D01*
X152128961Y-78369768D01*
X152172601Y-78245500D01*
X152173169Y-78239494D01*
X152175282Y-78217144D01*
X152175282Y-78217134D01*
X152175500Y-78214833D01*
X152175499Y-77510168D01*
X152172601Y-77479500D01*
X152170603Y-77473809D01*
X152131413Y-77362214D01*
X152128961Y-77355232D01*
X152050711Y-77249289D01*
X151944768Y-77171039D01*
X151820500Y-77127399D01*
X151814496Y-77126831D01*
X151814494Y-77126831D01*
X151792144Y-77124718D01*
X151792134Y-77124718D01*
X151789833Y-77124500D01*
X151500125Y-77124500D01*
X151210168Y-77124501D01*
X151179500Y-77127399D01*
X151173816Y-77129395D01*
X151173812Y-77129396D01*
X151062214Y-77168587D01*
X151055232Y-77171039D01*
X150949289Y-77249289D01*
X150871039Y-77355232D01*
X150827399Y-77479500D01*
X150826832Y-77485503D01*
X150826831Y-77485506D01*
X150824719Y-77507852D01*
X150824500Y-77510167D01*
X150824501Y-78214832D01*
X150827399Y-78245500D01*
X150829395Y-78251184D01*
X150829396Y-78251188D01*
X150868587Y-78362786D01*
X150871039Y-78369768D01*
X150949289Y-78475711D01*
X151055232Y-78553961D01*
X151108304Y-78572598D01*
X151156942Y-78609719D01*
X151174500Y-78666006D01*
X151174500Y-78950500D01*
X151155593Y-79008691D01*
X151106093Y-79044655D01*
X151075500Y-79049500D01*
X150730252Y-79049500D01*
X150704005Y-79054721D01*
X150681334Y-79059230D01*
X150681332Y-79059231D01*
X150671769Y-79061133D01*
X150605448Y-79105448D01*
X150561133Y-79171769D01*
X150549500Y-79230252D01*
X150549500Y-79675500D01*
X150530593Y-79733691D01*
X150481093Y-79769655D01*
X150450500Y-79774500D01*
X145759025Y-79774500D01*
X145759023Y-79774501D01*
X145449000Y-79774501D01*
X145390809Y-79755594D01*
X145354845Y-79706094D01*
X145350000Y-79675501D01*
X145350000Y-79535160D01*
X145349052Y-79525538D01*
X145340298Y-79481526D01*
X145332979Y-79463858D01*
X145299611Y-79413918D01*
X145286082Y-79400389D01*
X145236142Y-79367021D01*
X145218474Y-79359702D01*
X145174462Y-79350948D01*
X145164840Y-79350000D01*
X145024500Y-79350000D01*
X144966309Y-79331093D01*
X144930345Y-79281593D01*
X144925500Y-79251000D01*
X144925500Y-76487455D01*
X150825000Y-76487455D01*
X150825218Y-76492091D01*
X150827327Y-76514397D01*
X150829895Y-76526099D01*
X150869034Y-76637551D01*
X150875881Y-76650484D01*
X150945246Y-76744397D01*
X150955603Y-76754754D01*
X151049516Y-76824119D01*
X151062449Y-76830966D01*
X151173901Y-76870105D01*
X151185603Y-76872673D01*
X151207909Y-76874782D01*
X151212545Y-76875000D01*
X151384320Y-76875000D01*
X151397005Y-76870878D01*
X151400000Y-76866757D01*
X151400000Y-76859320D01*
X151600000Y-76859320D01*
X151604122Y-76872005D01*
X151608243Y-76875000D01*
X151787455Y-76875000D01*
X151792091Y-76874782D01*
X151814397Y-76872673D01*
X151826099Y-76870105D01*
X151937551Y-76830966D01*
X151950484Y-76824119D01*
X152044397Y-76754754D01*
X152054754Y-76744397D01*
X152124119Y-76650484D01*
X152130966Y-76637551D01*
X152170105Y-76526099D01*
X152172673Y-76514397D01*
X152174782Y-76492091D01*
X152175000Y-76487455D01*
X152175000Y-76253180D01*
X152170878Y-76240495D01*
X152166757Y-76237500D01*
X151615680Y-76237500D01*
X151602995Y-76241622D01*
X151600000Y-76245743D01*
X151600000Y-76859320D01*
X151400000Y-76859320D01*
X151400000Y-76253180D01*
X151395878Y-76240495D01*
X151391757Y-76237500D01*
X150840680Y-76237500D01*
X150827995Y-76241622D01*
X150825000Y-76245743D01*
X150825000Y-76487455D01*
X144925500Y-76487455D01*
X144925500Y-75450921D01*
X144944407Y-75392730D01*
X144993907Y-75356766D01*
X145055093Y-75356766D01*
X145094504Y-75380917D01*
X145100029Y-75386442D01*
X145105448Y-75394552D01*
X145171769Y-75438867D01*
X145181332Y-75440769D01*
X145181334Y-75440770D01*
X145204005Y-75445279D01*
X145230252Y-75450500D01*
X146769748Y-75450500D01*
X146795995Y-75445279D01*
X146818666Y-75440770D01*
X146818668Y-75440769D01*
X146828231Y-75438867D01*
X146894552Y-75394552D01*
X146938867Y-75328231D01*
X146950500Y-75269748D01*
X146950500Y-74924500D01*
X146969407Y-74866309D01*
X147018907Y-74830345D01*
X147049500Y-74825500D01*
X147333994Y-74825500D01*
X147392185Y-74844407D01*
X147427402Y-74891696D01*
X147446039Y-74944768D01*
X147450435Y-74950719D01*
X147450435Y-74950720D01*
X147489374Y-75003440D01*
X147524289Y-75050711D01*
X147630232Y-75128961D01*
X147637214Y-75131413D01*
X147654923Y-75137632D01*
X147754500Y-75172601D01*
X147760504Y-75173169D01*
X147760506Y-75173169D01*
X147782856Y-75175282D01*
X147782866Y-75175282D01*
X147785167Y-75175500D01*
X148137348Y-75175500D01*
X148489832Y-75175499D01*
X148520500Y-75172601D01*
X148526184Y-75170605D01*
X148526188Y-75170604D01*
X148637786Y-75131413D01*
X148644768Y-75128961D01*
X148750711Y-75050711D01*
X148828961Y-74944768D01*
X148831496Y-74937551D01*
X148856514Y-74866309D01*
X148872601Y-74820500D01*
X148873178Y-74814397D01*
X148875282Y-74792144D01*
X148875282Y-74792134D01*
X148875500Y-74789833D01*
X148875500Y-74787455D01*
X149125000Y-74787455D01*
X149125218Y-74792091D01*
X149127327Y-74814397D01*
X149129895Y-74826099D01*
X149169034Y-74937551D01*
X149175881Y-74950484D01*
X149245246Y-75044397D01*
X149255603Y-75054754D01*
X149349516Y-75124119D01*
X149362449Y-75130966D01*
X149473901Y-75170105D01*
X149485603Y-75172673D01*
X149507909Y-75174782D01*
X149512545Y-75175000D01*
X149746820Y-75175000D01*
X149759505Y-75170878D01*
X149762500Y-75166757D01*
X149762500Y-75159320D01*
X149962500Y-75159320D01*
X149966622Y-75172005D01*
X149970743Y-75175000D01*
X150212455Y-75175000D01*
X150217091Y-75174782D01*
X150239397Y-75172673D01*
X150251099Y-75170105D01*
X150362551Y-75130966D01*
X150375483Y-75124119D01*
X150392183Y-75111785D01*
X150450224Y-75092422D01*
X150508561Y-75110873D01*
X150544912Y-75160089D01*
X150550000Y-75191419D01*
X150550000Y-75264840D01*
X150550948Y-75274462D01*
X150559702Y-75318474D01*
X150567021Y-75336142D01*
X150600389Y-75386082D01*
X150613918Y-75399611D01*
X150663858Y-75432979D01*
X150681526Y-75440298D01*
X150725538Y-75449052D01*
X150735160Y-75450000D01*
X150808581Y-75450000D01*
X150866772Y-75468907D01*
X150902736Y-75518407D01*
X150902736Y-75579593D01*
X150888215Y-75607817D01*
X150875881Y-75624517D01*
X150869034Y-75637449D01*
X150829895Y-75748901D01*
X150827327Y-75760603D01*
X150825218Y-75782909D01*
X150825000Y-75787545D01*
X150825000Y-76021820D01*
X150829122Y-76034505D01*
X150833243Y-76037500D01*
X151384320Y-76037500D01*
X151397005Y-76033378D01*
X151400000Y-76029257D01*
X151400000Y-76021820D01*
X151600000Y-76021820D01*
X151604122Y-76034505D01*
X151608243Y-76037500D01*
X152159320Y-76037500D01*
X152172005Y-76033378D01*
X152175000Y-76029257D01*
X152175000Y-75787545D01*
X152174782Y-75782909D01*
X152172673Y-75760603D01*
X152170105Y-75748901D01*
X152130966Y-75637449D01*
X152124119Y-75624517D01*
X152111785Y-75607817D01*
X152092422Y-75549776D01*
X152110873Y-75491439D01*
X152160089Y-75455088D01*
X152191419Y-75450000D01*
X152264840Y-75450000D01*
X152274462Y-75449052D01*
X152318474Y-75440298D01*
X152336142Y-75432979D01*
X152386082Y-75399611D01*
X152399611Y-75386082D01*
X152432979Y-75336142D01*
X152440298Y-75318474D01*
X152449052Y-75274462D01*
X152450000Y-75264840D01*
X152450000Y-74615680D01*
X152445878Y-74602995D01*
X152441757Y-74600000D01*
X151615680Y-74600000D01*
X151602995Y-74604122D01*
X151600000Y-74608243D01*
X151600000Y-76021820D01*
X151400000Y-76021820D01*
X151400000Y-74615680D01*
X151395878Y-74602995D01*
X151391757Y-74600000D01*
X149978180Y-74600000D01*
X149965495Y-74604122D01*
X149962500Y-74608243D01*
X149962500Y-75159320D01*
X149762500Y-75159320D01*
X149762500Y-74615680D01*
X149758378Y-74602995D01*
X149754257Y-74600000D01*
X149140680Y-74600000D01*
X149127995Y-74604122D01*
X149125000Y-74608243D01*
X149125000Y-74787455D01*
X148875500Y-74787455D01*
X148875499Y-74384320D01*
X149125000Y-74384320D01*
X149129122Y-74397005D01*
X149133243Y-74400000D01*
X149746820Y-74400000D01*
X149759505Y-74395878D01*
X149762500Y-74391757D01*
X149762500Y-74384320D01*
X149962500Y-74384320D01*
X149966622Y-74397005D01*
X149970743Y-74400000D01*
X151384320Y-74400000D01*
X151397005Y-74395878D01*
X151400000Y-74391757D01*
X151400000Y-74384320D01*
X151600000Y-74384320D01*
X151604122Y-74397005D01*
X151608243Y-74400000D01*
X152434320Y-74400000D01*
X152447005Y-74395878D01*
X152450000Y-74391757D01*
X152450000Y-73735160D01*
X152449052Y-73725538D01*
X152440298Y-73681526D01*
X152432979Y-73663858D01*
X152399611Y-73613918D01*
X152386082Y-73600389D01*
X152336142Y-73567021D01*
X152318474Y-73559702D01*
X152274462Y-73550948D01*
X152264840Y-73550000D01*
X151615680Y-73550000D01*
X151602995Y-73554122D01*
X151600000Y-73558243D01*
X151600000Y-74384320D01*
X151400000Y-74384320D01*
X151400000Y-73565680D01*
X151395878Y-73552995D01*
X151391757Y-73550000D01*
X150735160Y-73550000D01*
X150725538Y-73550948D01*
X150681526Y-73559702D01*
X150663858Y-73567021D01*
X150613918Y-73600389D01*
X150600389Y-73613918D01*
X150567021Y-73663858D01*
X150559702Y-73681526D01*
X150550948Y-73725538D01*
X150550000Y-73735160D01*
X150550000Y-73808581D01*
X150531093Y-73866772D01*
X150481593Y-73902736D01*
X150420407Y-73902736D01*
X150392183Y-73888215D01*
X150375483Y-73875881D01*
X150362551Y-73869034D01*
X150251099Y-73829895D01*
X150239397Y-73827327D01*
X150217091Y-73825218D01*
X150212455Y-73825000D01*
X149978180Y-73825000D01*
X149965495Y-73829122D01*
X149962500Y-73833243D01*
X149962500Y-74384320D01*
X149762500Y-74384320D01*
X149762500Y-73840680D01*
X149758378Y-73827995D01*
X149754257Y-73825000D01*
X149512545Y-73825000D01*
X149507909Y-73825218D01*
X149485603Y-73827327D01*
X149473901Y-73829895D01*
X149362449Y-73869034D01*
X149349516Y-73875881D01*
X149255603Y-73945246D01*
X149245246Y-73955603D01*
X149175881Y-74049516D01*
X149169034Y-74062449D01*
X149129895Y-74173901D01*
X149127327Y-74185603D01*
X149125218Y-74207909D01*
X149125000Y-74212545D01*
X149125000Y-74384320D01*
X148875499Y-74384320D01*
X148875499Y-74210168D01*
X148872601Y-74179500D01*
X148870603Y-74173809D01*
X148831413Y-74062214D01*
X148828961Y-74055232D01*
X148750711Y-73949289D01*
X148644768Y-73871039D01*
X148632618Y-73866772D01*
X148620077Y-73862368D01*
X148520500Y-73827399D01*
X148514496Y-73826831D01*
X148514494Y-73826831D01*
X148492144Y-73824718D01*
X148492134Y-73824718D01*
X148489833Y-73824500D01*
X148137652Y-73824500D01*
X147785168Y-73824501D01*
X147754500Y-73827399D01*
X147748816Y-73829395D01*
X147748812Y-73829396D01*
X147637214Y-73868587D01*
X147630232Y-73871039D01*
X147524289Y-73949289D01*
X147490352Y-73995236D01*
X147450437Y-74049278D01*
X147446039Y-74055232D01*
X147428178Y-74106093D01*
X147427402Y-74108303D01*
X147390281Y-74156942D01*
X147333994Y-74174500D01*
X147049500Y-74174500D01*
X146991309Y-74155593D01*
X146955345Y-74106093D01*
X146950500Y-74075500D01*
X146950500Y-73730252D01*
X146938867Y-73671769D01*
X146894552Y-73605448D01*
X146828231Y-73561133D01*
X146818668Y-73559231D01*
X146818666Y-73559230D01*
X146792984Y-73554122D01*
X146769748Y-73549500D01*
X145230252Y-73549500D01*
X145207016Y-73554122D01*
X145181334Y-73559230D01*
X145181332Y-73559231D01*
X145171769Y-73561133D01*
X145123338Y-73593494D01*
X145116502Y-73598062D01*
X145057614Y-73614671D01*
X145000210Y-73593494D01*
X144966217Y-73542621D01*
X144962500Y-73515747D01*
X144962500Y-73349000D01*
X144981407Y-73290809D01*
X145030907Y-73254845D01*
X145061500Y-73250000D01*
X152651000Y-73250000D01*
X152709191Y-73268907D01*
G37*
%TD.AperFunction*%
%TD*%
M02*
