M48
; DRILL file {KiCad 7.0.5-4d25ed1034~172~ubuntu22.04.1} date Sa 17 Jun 2023 19:18:57
; FORMAT={-:-/ absolute / metric / decimal}
; #@! TF.CreationDate,2023-06-17T19:18:57+02:00
; #@! TF.GenerationSoftware,Kicad,Pcbnew,7.0.5-4d25ed1034~172~ubuntu22.04.1
; #@! TF.FileFunction,Plated,1,2,PTH
FMAT,2
METRIC
; #@! TA.AperFunction,Plated,PTH,ViaDrill
T1C0.300
; #@! TA.AperFunction,Plated,PTH,ComponentDrill
T2C0.300
; #@! TA.AperFunction,Plated,PTH,ComponentDrill
T3C0.700
%
G90
G05
T1
X136.0Y-84.3
X136.7Y-80.3
X136.8Y-86.4
X138.6Y-80.3
X140.4Y-87.5
X140.6Y-80.5
X142.25Y-80.83
X143.0Y-83.5
X143.1Y-82.7
X144.7Y-85.4
X144.713Y-87.787
T2
X143.5Y-62.27
X143.5Y-102.73
X144.012Y-80.337
X144.012Y-81.388
X144.012Y-82.438
X145.062Y-80.337
X145.062Y-81.388
X145.062Y-82.438
X146.112Y-80.337
X146.112Y-81.388
X146.112Y-82.438
X163.73Y-82.5
T3
X136.0Y-75.0
X136.0Y-90.0
X140.5Y-77.5
X141.0Y-70.0
X141.0Y-75.0
X141.0Y-90.0
X141.0Y-95.0
X143.0Y-77.5
X146.0Y-70.0
X146.0Y-75.0
X146.0Y-90.0
X146.0Y-95.0
X151.0Y-75.0
X151.0Y-80.0
X151.0Y-85.0
X151.0Y-90.0
X156.0Y-80.0
X156.0Y-85.0
T0
M30
