%TF.GenerationSoftware,KiCad,Pcbnew,7.0.5-4d25ed1034~172~ubuntu22.04.1*%
%TF.CreationDate,2023-06-17T18:52:52+02:00*%
%TF.ProjectId,donttouchit,646f6e74-746f-4756-9368-69742e6b6963,rev?*%
%TF.SameCoordinates,Original*%
%TF.FileFunction,Copper,L2,Bot*%
%TF.FilePolarity,Positive*%
%FSLAX46Y46*%
G04 Gerber Fmt 4.6, Leading zero omitted, Abs format (unit mm)*
G04 Created by KiCad (PCBNEW 7.0.5-4d25ed1034~172~ubuntu22.04.1) date 2023-06-17 18:52:52*
%MOMM*%
%LPD*%
G01*
G04 APERTURE LIST*
G04 Aperture macros list*
%AMRoundRect*
0 Rectangle with rounded corners*
0 $1 Rounding radius*
0 $2 $3 $4 $5 $6 $7 $8 $9 X,Y pos of 4 corners*
0 Add a 4 corners polygon primitive as box body*
4,1,4,$2,$3,$4,$5,$6,$7,$8,$9,$2,$3,0*
0 Add four circle primitives for the rounded corners*
1,1,$1+$1,$2,$3*
1,1,$1+$1,$4,$5*
1,1,$1+$1,$6,$7*
1,1,$1+$1,$8,$9*
0 Add four rect primitives between the rounded corners*
20,1,$1+$1,$2,$3,$4,$5,0*
20,1,$1+$1,$4,$5,$6,$7,0*
20,1,$1+$1,$6,$7,$8,$9,0*
20,1,$1+$1,$8,$9,$2,$3,0*%
%AMFreePoly0*
4,1,19,0.550000,-0.750000,0.000000,-0.750000,0.000000,-0.744911,-0.071157,-0.744911,-0.207708,-0.704816,-0.327430,-0.627875,-0.420627,-0.520320,-0.479746,-0.390866,-0.500000,-0.250000,-0.500000,0.250000,-0.479746,0.390866,-0.420627,0.520320,-0.327430,0.627875,-0.207708,0.704816,-0.071157,0.744911,0.000000,0.744911,0.000000,0.750000,0.550000,0.750000,0.550000,-0.750000,0.550000,-0.750000,
$1*%
%AMFreePoly1*
4,1,19,0.000000,0.744911,0.071157,0.744911,0.207708,0.704816,0.327430,0.627875,0.420627,0.520320,0.479746,0.390866,0.500000,0.250000,0.500000,-0.250000,0.479746,-0.390866,0.420627,-0.520320,0.327430,-0.627875,0.207708,-0.704816,0.071157,-0.744911,0.000000,-0.744911,0.000000,-0.750000,-0.550000,-0.750000,-0.550000,0.750000,0.000000,0.750000,0.000000,0.744911,0.000000,0.744911,
$1*%
G04 Aperture macros list end*
%TA.AperFunction,EtchedComponent*%
%ADD10C,0.127000*%
%TD*%
%TA.AperFunction,ComponentPad*%
%ADD11C,0.500000*%
%TD*%
%TA.AperFunction,SMDPad,CuDef*%
%ADD12R,2.600000X2.600000*%
%TD*%
%TA.AperFunction,ComponentPad*%
%ADD13RoundRect,0.250000X0.500000X-0.250000X0.500000X0.250000X-0.500000X0.250000X-0.500000X-0.250000X0*%
%TD*%
%TA.AperFunction,ComponentPad*%
%ADD14RoundRect,0.250000X0.250000X0.500000X-0.250000X0.500000X-0.250000X-0.500000X0.250000X-0.500000X0*%
%TD*%
%TA.AperFunction,ComponentPad*%
%ADD15RoundRect,0.250000X-0.250000X-0.500000X0.250000X-0.500000X0.250000X0.500000X-0.250000X0.500000X0*%
%TD*%
%TA.AperFunction,SMDPad,CuDef*%
%ADD16RoundRect,0.031750X0.968250X0.031750X-0.968250X0.031750X-0.968250X-0.031750X0.968250X-0.031750X0*%
%TD*%
%TA.AperFunction,ComponentPad*%
%ADD17C,1.000000*%
%TD*%
%TA.AperFunction,SMDPad,CuDef*%
%ADD18RoundRect,0.031750X-0.968250X-0.031750X0.968250X-0.031750X0.968250X0.031750X-0.968250X0.031750X0*%
%TD*%
%TA.AperFunction,SMDPad,CuDef*%
%ADD19FreePoly0,90.000000*%
%TD*%
%TA.AperFunction,SMDPad,CuDef*%
%ADD20R,1.500000X1.000000*%
%TD*%
%TA.AperFunction,SMDPad,CuDef*%
%ADD21FreePoly1,90.000000*%
%TD*%
%TA.AperFunction,SMDPad,CuDef*%
%ADD22FreePoly0,180.000000*%
%TD*%
%TA.AperFunction,SMDPad,CuDef*%
%ADD23R,1.000000X1.500000*%
%TD*%
%TA.AperFunction,SMDPad,CuDef*%
%ADD24FreePoly1,180.000000*%
%TD*%
%TA.AperFunction,SMDPad,CuDef*%
%ADD25RoundRect,0.031750X0.031750X-0.968250X0.031750X0.968250X-0.031750X0.968250X-0.031750X-0.968250X0*%
%TD*%
%TA.AperFunction,SMDPad,CuDef*%
%ADD26RoundRect,0.250000X-2.500000X0.250000X-2.500000X-0.250000X2.500000X-0.250000X2.500000X0.250000X0*%
%TD*%
%TA.AperFunction,SMDPad,CuDef*%
%ADD27RoundRect,0.250000X-1.250000X0.550000X-1.250000X-0.550000X1.250000X-0.550000X1.250000X0.550000X0*%
%TD*%
%TA.AperFunction,ViaPad*%
%ADD28C,0.600000*%
%TD*%
%TA.AperFunction,Conductor*%
%ADD29C,0.500000*%
%TD*%
%TA.AperFunction,Conductor*%
%ADD30C,0.250000*%
%TD*%
%TA.AperFunction,Conductor*%
%ADD31C,0.127000*%
%TD*%
G04 APERTURE END LIST*
D10*
%TO.C,L3*%
X151912000Y-71362000D02*
X151912000Y-71616000D01*
X151912000Y-71362000D02*
X151912000Y-57138000D01*
X151912000Y-57138000D02*
X137688000Y-57138000D01*
X151658000Y-71108000D02*
X151658000Y-57392000D01*
X151658000Y-57392000D02*
X137942000Y-57392000D01*
X151404000Y-70854000D02*
X151404000Y-57646000D01*
X151404000Y-57646000D02*
X138196000Y-57646000D01*
X151150000Y-70600000D02*
X151150000Y-57900000D01*
X151150000Y-57900000D02*
X138450000Y-57900000D01*
X150896000Y-70346000D02*
X150896000Y-58154000D01*
X150896000Y-58154000D02*
X138704000Y-58154000D01*
X150642000Y-70092000D02*
X150642000Y-58408000D01*
X150642000Y-58408000D02*
X138958000Y-58408000D01*
X150388000Y-69838000D02*
X150388000Y-58662000D01*
X150388000Y-58662000D02*
X139212000Y-58662000D01*
X150134000Y-69584000D02*
X150134000Y-58916000D01*
X150134000Y-58916000D02*
X139466000Y-58916000D01*
X149880000Y-69330000D02*
X149880000Y-59170000D01*
X149880000Y-59170000D02*
X139720000Y-59170000D01*
X149626000Y-69076000D02*
X149626000Y-59424000D01*
X149626000Y-59424000D02*
X139974000Y-59424000D01*
X149372000Y-68822000D02*
X149372000Y-59678000D01*
X149372000Y-59678000D02*
X140228000Y-59678000D01*
X149118000Y-68568000D02*
X149118000Y-59932000D01*
X149118000Y-59932000D02*
X140482000Y-59932000D01*
X148864000Y-68314000D02*
X148864000Y-60186000D01*
X148864000Y-60186000D02*
X140736000Y-60186000D01*
X148610000Y-68060000D02*
X148610000Y-60440000D01*
X148610000Y-60440000D02*
X140990000Y-60440000D01*
X148356000Y-67806000D02*
X148356000Y-60694000D01*
X148356000Y-60694000D02*
X141244000Y-60694000D01*
X148102000Y-67552000D02*
X148102000Y-60948000D01*
X148102000Y-60948000D02*
X141498000Y-60948000D01*
X147848000Y-67298000D02*
X147848000Y-61202000D01*
X147848000Y-61202000D02*
X141752000Y-61202000D01*
X147594000Y-67044000D02*
X147594000Y-61456000D01*
X147594000Y-61456000D02*
X142006000Y-61456000D01*
X147340000Y-66790000D02*
X147340000Y-61710000D01*
X147340000Y-61710000D02*
X142260000Y-61710000D01*
X147086000Y-66536000D02*
X147086000Y-61964000D01*
X147086000Y-61964000D02*
X142514000Y-61964000D01*
X146832000Y-66282000D02*
X146832000Y-62218000D01*
X146832000Y-62218000D02*
X142768000Y-62218000D01*
X144800000Y-66028000D02*
X144800000Y-65520000D01*
X142768000Y-66028000D02*
X144800000Y-66028000D01*
X142768000Y-62218000D02*
X142768000Y-66028000D01*
X142514000Y-66282000D02*
X146832000Y-66282000D01*
X142514000Y-61964000D02*
X142514000Y-66282000D01*
X142260000Y-66536000D02*
X147086000Y-66536000D01*
X142260000Y-61710000D02*
X142260000Y-66536000D01*
X142006000Y-66790000D02*
X147340000Y-66790000D01*
X142006000Y-61456000D02*
X142006000Y-66790000D01*
X141752000Y-67044000D02*
X147594000Y-67044000D01*
X141752000Y-61202000D02*
X141752000Y-67044000D01*
X141498000Y-67298000D02*
X147848000Y-67298000D01*
X141498000Y-60948000D02*
X141498000Y-67298000D01*
X141244000Y-67552000D02*
X148102000Y-67552000D01*
X141244000Y-60694000D02*
X141244000Y-67552000D01*
X140990000Y-67806000D02*
X148356000Y-67806000D01*
X140990000Y-60440000D02*
X140990000Y-67806000D01*
X140736000Y-68060000D02*
X148610000Y-68060000D01*
X140736000Y-60186000D02*
X140736000Y-68060000D01*
X140482000Y-68314000D02*
X148864000Y-68314000D01*
X140482000Y-59932000D02*
X140482000Y-68314000D01*
X140228000Y-68568000D02*
X149118000Y-68568000D01*
X140228000Y-59678000D02*
X140228000Y-68568000D01*
X139974000Y-68822000D02*
X149372000Y-68822000D01*
X139974000Y-59424000D02*
X139974000Y-68822000D01*
X139720000Y-69076000D02*
X149626000Y-69076000D01*
X139720000Y-59170000D02*
X139720000Y-69076000D01*
X139466000Y-69330000D02*
X149880000Y-69330000D01*
X139466000Y-58916000D02*
X139466000Y-69330000D01*
X139212000Y-69584000D02*
X150134000Y-69584000D01*
X139212000Y-58662000D02*
X139212000Y-69584000D01*
X138958000Y-69838000D02*
X150388000Y-69838000D01*
X138958000Y-58408000D02*
X138958000Y-69838000D01*
X138704000Y-70092000D02*
X150642000Y-70092000D01*
X138704000Y-58154000D02*
X138704000Y-70092000D01*
X138450000Y-70346000D02*
X150896000Y-70346000D01*
X138450000Y-57900000D02*
X138450000Y-70346000D01*
X138196000Y-70600000D02*
X151150000Y-70600000D01*
X138196000Y-57646000D02*
X138196000Y-70600000D01*
X137942000Y-70854000D02*
X151404000Y-70854000D01*
X137942000Y-57392000D02*
X137942000Y-70854000D01*
X137688000Y-71108000D02*
X151658000Y-71108000D01*
X137688000Y-57138000D02*
X137688000Y-71108000D01*
%TO.C,L1*%
X137688000Y-93688000D02*
X137688000Y-93434000D01*
X137688000Y-93688000D02*
X137688000Y-107912000D01*
X137688000Y-107912000D02*
X151912000Y-107912000D01*
X137942000Y-93942000D02*
X137942000Y-107658000D01*
X137942000Y-107658000D02*
X151658000Y-107658000D01*
X138196000Y-94196000D02*
X138196000Y-107404000D01*
X138196000Y-107404000D02*
X151404000Y-107404000D01*
X138450000Y-94450000D02*
X138450000Y-107150000D01*
X138450000Y-107150000D02*
X151150000Y-107150000D01*
X138704000Y-94704000D02*
X138704000Y-106896000D01*
X138704000Y-106896000D02*
X150896000Y-106896000D01*
X138958000Y-94958000D02*
X138958000Y-106642000D01*
X138958000Y-106642000D02*
X150642000Y-106642000D01*
X139212000Y-95212000D02*
X139212000Y-106388000D01*
X139212000Y-106388000D02*
X150388000Y-106388000D01*
X139466000Y-95466000D02*
X139466000Y-106134000D01*
X139466000Y-106134000D02*
X150134000Y-106134000D01*
X139720000Y-95720000D02*
X139720000Y-105880000D01*
X139720000Y-105880000D02*
X149880000Y-105880000D01*
X139974000Y-95974000D02*
X139974000Y-105626000D01*
X139974000Y-105626000D02*
X149626000Y-105626000D01*
X140228000Y-96228000D02*
X140228000Y-105372000D01*
X140228000Y-105372000D02*
X149372000Y-105372000D01*
X140482000Y-96482000D02*
X140482000Y-105118000D01*
X140482000Y-105118000D02*
X149118000Y-105118000D01*
X140736000Y-96736000D02*
X140736000Y-104864000D01*
X140736000Y-104864000D02*
X148864000Y-104864000D01*
X140990000Y-96990000D02*
X140990000Y-104610000D01*
X140990000Y-104610000D02*
X148610000Y-104610000D01*
X141244000Y-97244000D02*
X141244000Y-104356000D01*
X141244000Y-104356000D02*
X148356000Y-104356000D01*
X141498000Y-97498000D02*
X141498000Y-104102000D01*
X141498000Y-104102000D02*
X148102000Y-104102000D01*
X141752000Y-97752000D02*
X141752000Y-103848000D01*
X141752000Y-103848000D02*
X147848000Y-103848000D01*
X142006000Y-98006000D02*
X142006000Y-103594000D01*
X142006000Y-103594000D02*
X147594000Y-103594000D01*
X142260000Y-98260000D02*
X142260000Y-103340000D01*
X142260000Y-103340000D02*
X147340000Y-103340000D01*
X142514000Y-98514000D02*
X142514000Y-103086000D01*
X142514000Y-103086000D02*
X147086000Y-103086000D01*
X142768000Y-98768000D02*
X142768000Y-102832000D01*
X142768000Y-102832000D02*
X146832000Y-102832000D01*
X144800000Y-99022000D02*
X144800000Y-99530000D01*
X146832000Y-99022000D02*
X144800000Y-99022000D01*
X146832000Y-102832000D02*
X146832000Y-99022000D01*
X147086000Y-98768000D02*
X142768000Y-98768000D01*
X147086000Y-103086000D02*
X147086000Y-98768000D01*
X147340000Y-98514000D02*
X142514000Y-98514000D01*
X147340000Y-103340000D02*
X147340000Y-98514000D01*
X147594000Y-98260000D02*
X142260000Y-98260000D01*
X147594000Y-103594000D02*
X147594000Y-98260000D01*
X147848000Y-98006000D02*
X142006000Y-98006000D01*
X147848000Y-103848000D02*
X147848000Y-98006000D01*
X148102000Y-97752000D02*
X141752000Y-97752000D01*
X148102000Y-104102000D02*
X148102000Y-97752000D01*
X148356000Y-97498000D02*
X141498000Y-97498000D01*
X148356000Y-104356000D02*
X148356000Y-97498000D01*
X148610000Y-97244000D02*
X141244000Y-97244000D01*
X148610000Y-104610000D02*
X148610000Y-97244000D01*
X148864000Y-96990000D02*
X140990000Y-96990000D01*
X148864000Y-104864000D02*
X148864000Y-96990000D01*
X149118000Y-96736000D02*
X140736000Y-96736000D01*
X149118000Y-105118000D02*
X149118000Y-96736000D01*
X149372000Y-96482000D02*
X140482000Y-96482000D01*
X149372000Y-105372000D02*
X149372000Y-96482000D01*
X149626000Y-96228000D02*
X140228000Y-96228000D01*
X149626000Y-105626000D02*
X149626000Y-96228000D01*
X149880000Y-95974000D02*
X139974000Y-95974000D01*
X149880000Y-105880000D02*
X149880000Y-95974000D01*
X150134000Y-95720000D02*
X139720000Y-95720000D01*
X150134000Y-106134000D02*
X150134000Y-95720000D01*
X150388000Y-95466000D02*
X139466000Y-95466000D01*
X150388000Y-106388000D02*
X150388000Y-95466000D01*
X150642000Y-95212000D02*
X139212000Y-95212000D01*
X150642000Y-106642000D02*
X150642000Y-95212000D01*
X150896000Y-94958000D02*
X138958000Y-94958000D01*
X150896000Y-106896000D02*
X150896000Y-94958000D01*
X151150000Y-94704000D02*
X138704000Y-94704000D01*
X151150000Y-107150000D02*
X151150000Y-94704000D01*
X151404000Y-94450000D02*
X138450000Y-94450000D01*
X151404000Y-107404000D02*
X151404000Y-94450000D01*
X151658000Y-94196000D02*
X138196000Y-94196000D01*
X151658000Y-107658000D02*
X151658000Y-94196000D01*
X151912000Y-93942000D02*
X137942000Y-93942000D01*
X151912000Y-107912000D02*
X151912000Y-93942000D01*
%TA.AperFunction,EtchedComponent*%
%TO.C,JP1*%
G36*
X146142500Y-87400000D02*
G01*
X145542500Y-87400000D01*
X145542500Y-86900000D01*
X146142500Y-86900000D01*
X146142500Y-87400000D01*
G37*
%TD.AperFunction*%
%TA.AperFunction,EtchedComponent*%
%TO.C,JP2*%
G36*
X148900000Y-77657500D02*
G01*
X148400000Y-77657500D01*
X148400000Y-77057500D01*
X148900000Y-77057500D01*
X148900000Y-77657500D01*
G37*
%TD.AperFunction*%
%TO.C,L2*%
X155888000Y-89612000D02*
X155634000Y-89612000D01*
X155888000Y-89612000D02*
X170112000Y-89612000D01*
X170112000Y-89612000D02*
X170112000Y-75388000D01*
X156142000Y-89358000D02*
X169858000Y-89358000D01*
X169858000Y-89358000D02*
X169858000Y-75642000D01*
X156396000Y-89104000D02*
X169604000Y-89104000D01*
X169604000Y-89104000D02*
X169604000Y-75896000D01*
X156650000Y-88850000D02*
X169350000Y-88850000D01*
X169350000Y-88850000D02*
X169350000Y-76150000D01*
X156904000Y-88596000D02*
X169096000Y-88596000D01*
X169096000Y-88596000D02*
X169096000Y-76404000D01*
X157158000Y-88342000D02*
X168842000Y-88342000D01*
X168842000Y-88342000D02*
X168842000Y-76658000D01*
X157412000Y-88088000D02*
X168588000Y-88088000D01*
X168588000Y-88088000D02*
X168588000Y-76912000D01*
X157666000Y-87834000D02*
X168334000Y-87834000D01*
X168334000Y-87834000D02*
X168334000Y-77166000D01*
X157920000Y-87580000D02*
X168080000Y-87580000D01*
X168080000Y-87580000D02*
X168080000Y-77420000D01*
X158174000Y-87326000D02*
X167826000Y-87326000D01*
X167826000Y-87326000D02*
X167826000Y-77674000D01*
X158428000Y-87072000D02*
X167572000Y-87072000D01*
X167572000Y-87072000D02*
X167572000Y-77928000D01*
X158682000Y-86818000D02*
X167318000Y-86818000D01*
X167318000Y-86818000D02*
X167318000Y-78182000D01*
X158936000Y-86564000D02*
X167064000Y-86564000D01*
X167064000Y-86564000D02*
X167064000Y-78436000D01*
X159190000Y-86310000D02*
X166810000Y-86310000D01*
X166810000Y-86310000D02*
X166810000Y-78690000D01*
X159444000Y-86056000D02*
X166556000Y-86056000D01*
X166556000Y-86056000D02*
X166556000Y-78944000D01*
X159698000Y-85802000D02*
X166302000Y-85802000D01*
X166302000Y-85802000D02*
X166302000Y-79198000D01*
X159952000Y-85548000D02*
X166048000Y-85548000D01*
X166048000Y-85548000D02*
X166048000Y-79452000D01*
X160206000Y-85294000D02*
X165794000Y-85294000D01*
X165794000Y-85294000D02*
X165794000Y-79706000D01*
X160460000Y-85040000D02*
X165540000Y-85040000D01*
X165540000Y-85040000D02*
X165540000Y-79960000D01*
X160714000Y-84786000D02*
X165286000Y-84786000D01*
X165286000Y-84786000D02*
X165286000Y-80214000D01*
X160968000Y-84532000D02*
X165032000Y-84532000D01*
X165032000Y-84532000D02*
X165032000Y-80468000D01*
X161222000Y-82500000D02*
X161730000Y-82500000D01*
X161222000Y-80468000D02*
X161222000Y-82500000D01*
X165032000Y-80468000D02*
X161222000Y-80468000D01*
X160968000Y-80214000D02*
X160968000Y-84532000D01*
X165286000Y-80214000D02*
X160968000Y-80214000D01*
X160714000Y-79960000D02*
X160714000Y-84786000D01*
X165540000Y-79960000D02*
X160714000Y-79960000D01*
X160460000Y-79706000D02*
X160460000Y-85040000D01*
X165794000Y-79706000D02*
X160460000Y-79706000D01*
X160206000Y-79452000D02*
X160206000Y-85294000D01*
X166048000Y-79452000D02*
X160206000Y-79452000D01*
X159952000Y-79198000D02*
X159952000Y-85548000D01*
X166302000Y-79198000D02*
X159952000Y-79198000D01*
X159698000Y-78944000D02*
X159698000Y-85802000D01*
X166556000Y-78944000D02*
X159698000Y-78944000D01*
X159444000Y-78690000D02*
X159444000Y-86056000D01*
X166810000Y-78690000D02*
X159444000Y-78690000D01*
X159190000Y-78436000D02*
X159190000Y-86310000D01*
X167064000Y-78436000D02*
X159190000Y-78436000D01*
X158936000Y-78182000D02*
X158936000Y-86564000D01*
X167318000Y-78182000D02*
X158936000Y-78182000D01*
X158682000Y-77928000D02*
X158682000Y-86818000D01*
X167572000Y-77928000D02*
X158682000Y-77928000D01*
X158428000Y-77674000D02*
X158428000Y-87072000D01*
X167826000Y-77674000D02*
X158428000Y-77674000D01*
X158174000Y-77420000D02*
X158174000Y-87326000D01*
X168080000Y-77420000D02*
X158174000Y-77420000D01*
X157920000Y-77166000D02*
X157920000Y-87580000D01*
X168334000Y-77166000D02*
X157920000Y-77166000D01*
X157666000Y-76912000D02*
X157666000Y-87834000D01*
X168588000Y-76912000D02*
X157666000Y-76912000D01*
X157412000Y-76658000D02*
X157412000Y-88088000D01*
X168842000Y-76658000D02*
X157412000Y-76658000D01*
X157158000Y-76404000D02*
X157158000Y-88342000D01*
X169096000Y-76404000D02*
X157158000Y-76404000D01*
X156904000Y-76150000D02*
X156904000Y-88596000D01*
X169350000Y-76150000D02*
X156904000Y-76150000D01*
X156650000Y-75896000D02*
X156650000Y-88850000D01*
X169604000Y-75896000D02*
X156650000Y-75896000D01*
X156396000Y-75642000D02*
X156396000Y-89104000D01*
X169858000Y-75642000D02*
X156396000Y-75642000D01*
X156142000Y-75388000D02*
X156142000Y-89358000D01*
X170112000Y-75388000D02*
X156142000Y-75388000D01*
%TD*%
D11*
%TO.P,U1,17,GND*%
%TO.N,GND*%
X144012500Y-80337500D03*
X144012500Y-81387500D03*
X144012500Y-82437500D03*
X145062500Y-80337500D03*
X145062500Y-81387500D03*
D12*
X145062500Y-81387500D03*
D11*
X145062500Y-82437500D03*
X146112500Y-80337500D03*
X146112500Y-81387500D03*
X146112500Y-82437500D03*
%TD*%
D13*
%TO.P,J8,1,Pin_1*%
%TO.N,IN1A*%
X154900000Y-83262000D03*
%TO.P,J8,2,Pin_2*%
%TO.N,IN1B*%
X154900000Y-81738000D03*
%TD*%
D14*
%TO.P,J3,1,Pin_1*%
%TO.N,IN2A*%
X145562000Y-75450000D03*
%TO.P,J3,2,Pin_2*%
%TO.N,IN2B*%
X144038000Y-75450000D03*
%TD*%
D15*
%TO.P,J1,1,Pin_1*%
%TO.N,IN0A*%
X144038000Y-89550000D03*
%TO.P,J1,2,Pin_2*%
%TO.N,IN0B*%
X145562000Y-89550000D03*
%TD*%
D13*
%TO.P,J2,1,Pin_1*%
%TO.N,IN1A*%
X151800000Y-83262000D03*
%TO.P,J2,2,Pin_2*%
%TO.N,IN1B*%
X151800000Y-81738000D03*
%TD*%
D14*
%TO.P,J9,1,Pin_1*%
%TO.N,IN2A*%
X145562000Y-72350000D03*
%TO.P,J9,2,Pin_2*%
%TO.N,IN2B*%
X144038000Y-72350000D03*
%TD*%
D15*
%TO.P,J7,1,Pin_1*%
%TO.N,IN0A*%
X144038000Y-92700000D03*
%TO.P,J7,2,Pin_2*%
%TO.N,IN0B*%
X145562000Y-92700000D03*
%TD*%
D16*
%TO.P,L3,1,1*%
%TO.N,IN2A*%
X150896000Y-71616000D03*
D17*
%TO.P,L3,C*%
%TO.N,N/C*%
X144800000Y-65520000D03*
%TD*%
D18*
%TO.P,L1,1,1*%
%TO.N,IN0A*%
X138704000Y-93434000D03*
D17*
%TO.P,L1,C*%
%TO.N,N/C*%
X144800000Y-99530000D03*
%TD*%
D19*
%TO.P,JP1,1,A*%
%TO.N,GND*%
X145842500Y-87800000D03*
D20*
%TO.P,JP1,2,C*%
%TO.N,Net-(JP1-C)*%
X145842500Y-86500000D03*
D21*
%TO.P,JP1,3,B*%
%TO.N,VCC*%
X145842500Y-85200000D03*
%TD*%
D22*
%TO.P,JP2,1,A*%
%TO.N,GND*%
X149300000Y-77357500D03*
D23*
%TO.P,JP2,2,C*%
%TO.N,Net-(JP2-C)*%
X148000000Y-77357500D03*
D24*
%TO.P,JP2,3,B*%
%TO.N,VCC*%
X146700000Y-77357500D03*
%TD*%
D25*
%TO.P,L2,1,1*%
%TO.N,IN1A*%
X155634000Y-88596000D03*
D17*
%TO.P,L2,C*%
%TO.N,N/C*%
X161730000Y-82500000D03*
%TD*%
D26*
%TO.P,J10,1,Pin_1*%
%TO.N,VCC*%
X139750000Y-79500000D03*
%TO.P,J10,2,Pin_2*%
%TO.N,Net-(J10-Pin_2)*%
X139750000Y-81500000D03*
%TO.P,J10,3,Pin_3*%
%TO.N,Net-(J10-Pin_3)*%
X139750000Y-83500000D03*
%TO.P,J10,4,Pin_4*%
%TO.N,GND*%
X139750000Y-85500000D03*
D27*
%TO.P,J10,MP*%
%TO.N,N/C*%
X137500000Y-77100000D03*
X137500000Y-87900000D03*
%TD*%
D28*
%TO.N,VCC*%
X138600000Y-80300000D03*
X144700000Y-85400000D03*
%TO.N,GND*%
X151700000Y-75500000D03*
X136800000Y-86400000D03*
X140600000Y-80500000D03*
X135200000Y-75500000D03*
X141400000Y-77600000D03*
X135200000Y-89500000D03*
X151700000Y-89500000D03*
X144712500Y-87787500D03*
X143000000Y-83500000D03*
%TO.N,IN0B*%
X150240000Y-93170000D03*
%TO.N,IN0A*%
X141400000Y-93080000D03*
%TO.N,IN1B*%
X155400000Y-77130000D03*
%TO.N,IN1A*%
X155300000Y-86000000D03*
%TO.N,IN2B*%
X139380000Y-71850000D03*
%TO.N,IN2A*%
X148000000Y-72000000D03*
%TO.N,Net-(J10-Pin_2)*%
X142250000Y-80830000D03*
X136700000Y-80300000D03*
%TO.N,Net-(J10-Pin_3)*%
X136000000Y-84300000D03*
%TO.N,Net-(JP1-C)*%
X140400000Y-87500000D03*
%TO.N,Net-(JP2-C)*%
X143100000Y-82700000D03*
%TD*%
D29*
%TO.N,VCC*%
X138600000Y-80300000D02*
X138600000Y-79500000D01*
D30*
X145842500Y-85200000D02*
X144900000Y-85200000D01*
X145600000Y-77400000D02*
X143750000Y-79250000D01*
X143750000Y-79250000D02*
X139750000Y-79250000D01*
X146700000Y-77357500D02*
X146657500Y-77400000D01*
D29*
X138750000Y-79250000D02*
X138600000Y-79400000D01*
D30*
X144900000Y-85200000D02*
X144700000Y-85400000D01*
X146657500Y-77400000D02*
X145600000Y-77400000D01*
D29*
X139750000Y-79500000D02*
X138600000Y-79500000D01*
D31*
%TO.N,IN0B*%
X146032000Y-93170000D02*
X150240000Y-93170000D01*
X145562000Y-92700000D02*
X146032000Y-93170000D01*
%TO.N,IN0A*%
X141046000Y-93434000D02*
X141400000Y-93080000D01*
X138704000Y-93434000D02*
X141046000Y-93434000D01*
%TO.N,IN1B*%
X155400000Y-81238000D02*
X154900000Y-81738000D01*
X155400000Y-81238000D02*
X155400000Y-77130000D01*
%TO.N,IN1A*%
X155634000Y-88596000D02*
X155634000Y-86334000D01*
X155634000Y-86334000D02*
X155300000Y-86000000D01*
%TO.N,IN2B*%
X143538000Y-71850000D02*
X139380000Y-71850000D01*
X144038000Y-72350000D02*
X143538000Y-71850000D01*
%TO.N,IN2A*%
X150896000Y-71616000D02*
X148384000Y-71616000D01*
X148384000Y-71616000D02*
X148000000Y-72000000D01*
D30*
%TO.N,Net-(J10-Pin_2)*%
X141580000Y-81500000D02*
X139750000Y-81500000D01*
X136900000Y-81500000D02*
X139750000Y-81500000D01*
X136700000Y-81300000D02*
X136900000Y-81500000D01*
X136700000Y-80300000D02*
X136700000Y-81300000D01*
X142250000Y-80830000D02*
X141580000Y-81500000D01*
%TO.N,Net-(J10-Pin_3)*%
X136500000Y-83500000D02*
X139750000Y-83500000D01*
X136000000Y-84300000D02*
X136000000Y-84000000D01*
X136000000Y-84000000D02*
X136500000Y-83500000D01*
%TO.N,Net-(JP1-C)*%
X141400000Y-86500000D02*
X141250000Y-86650000D01*
X145842500Y-86500000D02*
X141400000Y-86500000D01*
X141250000Y-86650000D02*
X140400000Y-87500000D01*
%TO.N,Net-(JP2-C)*%
X148000000Y-82400000D02*
X147100000Y-83300000D01*
X148000000Y-77357500D02*
X148000000Y-82400000D01*
X147100000Y-83300000D02*
X143800000Y-83300000D01*
X143800000Y-83300000D02*
X143200000Y-82700000D01*
X143200000Y-82700000D02*
X143100000Y-82700000D01*
%TD*%
%TA.AperFunction,Conductor*%
%TO.N,GND*%
G36*
X144928014Y-81309854D02*
G01*
X144907209Y-81387500D01*
X144928014Y-81465145D01*
X144950369Y-81487500D01*
X144124632Y-81487500D01*
X144146986Y-81465146D01*
X144167791Y-81387500D01*
X144146986Y-81309855D01*
X144124631Y-81287500D01*
X144950368Y-81287500D01*
X144928014Y-81309854D01*
G37*
%TD.AperFunction*%
%TA.AperFunction,Conductor*%
G36*
X145978014Y-81309854D02*
G01*
X145957209Y-81387500D01*
X145978014Y-81465145D01*
X146000369Y-81487500D01*
X145174632Y-81487500D01*
X145196986Y-81465146D01*
X145217791Y-81387500D01*
X145196986Y-81309855D01*
X145174631Y-81287500D01*
X146000368Y-81287500D01*
X145978014Y-81309854D01*
G37*
%TD.AperFunction*%
%TA.AperFunction,Conductor*%
G36*
X145162500Y-81275368D02*
G01*
X145140145Y-81253014D01*
X145082246Y-81237500D01*
X145042754Y-81237500D01*
X144984855Y-81253014D01*
X144962500Y-81275368D01*
X144962500Y-80449631D01*
X144984855Y-80471986D01*
X145042754Y-80487500D01*
X145082246Y-80487500D01*
X145140145Y-80471986D01*
X145162500Y-80449631D01*
X145162500Y-81275368D01*
G37*
%TD.AperFunction*%
%TA.AperFunction,Conductor*%
G36*
X142024795Y-80219407D02*
G01*
X142060759Y-80268907D01*
X142060759Y-80330093D01*
X142024795Y-80379593D01*
X142020127Y-80382784D01*
X141918873Y-80447855D01*
X141824622Y-80556628D01*
X141764834Y-80687544D01*
X141760946Y-80714588D01*
X141733951Y-80769496D01*
X141679837Y-80798050D01*
X141662954Y-80799500D01*
X139046217Y-80799500D01*
X138988026Y-80780593D01*
X138952062Y-80731093D01*
X138952062Y-80669907D01*
X138971398Y-80635669D01*
X138985877Y-80618957D01*
X139025377Y-80573373D01*
X139085165Y-80442457D01*
X139097291Y-80358116D01*
X139105647Y-80300002D01*
X139105647Y-80299500D01*
X139105776Y-80299101D01*
X139106655Y-80292991D01*
X139107712Y-80293143D01*
X139124554Y-80241309D01*
X139174054Y-80205345D01*
X139204647Y-80200500D01*
X141966604Y-80200500D01*
X142024795Y-80219407D01*
G37*
%TD.AperFunction*%
%TA.AperFunction,Conductor*%
G36*
X143296691Y-75018907D02*
G01*
X143332655Y-75068407D01*
X143337500Y-75099000D01*
X143337500Y-76004274D01*
X143340353Y-76034694D01*
X143340355Y-76034703D01*
X143385207Y-76162883D01*
X143465845Y-76272144D01*
X143465847Y-76272146D01*
X143465850Y-76272150D01*
X143465853Y-76272152D01*
X143465855Y-76272154D01*
X143575116Y-76352792D01*
X143575117Y-76352792D01*
X143575118Y-76352793D01*
X143703301Y-76397646D01*
X143733725Y-76400499D01*
X143733727Y-76400500D01*
X143733734Y-76400500D01*
X144342273Y-76400500D01*
X144342273Y-76400499D01*
X144372699Y-76397646D01*
X144500882Y-76352793D01*
X144610150Y-76272150D01*
X144690793Y-76162882D01*
X144706556Y-76117835D01*
X144743621Y-76069154D01*
X144802221Y-76051557D01*
X144859973Y-76071765D01*
X144893444Y-76117835D01*
X144909206Y-76162881D01*
X144909207Y-76162883D01*
X144989845Y-76272144D01*
X144989847Y-76272146D01*
X144989850Y-76272150D01*
X144989853Y-76272152D01*
X144989855Y-76272154D01*
X145099116Y-76352792D01*
X145099117Y-76352792D01*
X145099118Y-76352793D01*
X145227301Y-76397646D01*
X145257725Y-76400499D01*
X145257727Y-76400500D01*
X145257734Y-76400500D01*
X145866273Y-76400500D01*
X145866273Y-76400499D01*
X145896699Y-76397646D01*
X146024882Y-76352793D01*
X146134150Y-76272150D01*
X146214793Y-76162882D01*
X146259646Y-76034699D01*
X146262499Y-76004273D01*
X146262500Y-76004273D01*
X146262500Y-75099000D01*
X146281407Y-75040809D01*
X146330907Y-75004845D01*
X146361500Y-75000000D01*
X152151000Y-75000000D01*
X152209191Y-75018907D01*
X152245155Y-75068407D01*
X152250000Y-75099000D01*
X152250000Y-80938500D01*
X152231093Y-80996691D01*
X152181593Y-81032655D01*
X152151000Y-81037500D01*
X151245725Y-81037500D01*
X151215305Y-81040353D01*
X151215296Y-81040355D01*
X151087116Y-81085207D01*
X150977855Y-81165845D01*
X150977845Y-81165855D01*
X150897207Y-81275116D01*
X150852355Y-81403296D01*
X150852353Y-81403305D01*
X150849500Y-81433725D01*
X150849500Y-82042274D01*
X150852353Y-82072694D01*
X150852355Y-82072703D01*
X150897207Y-82200883D01*
X150977845Y-82310144D01*
X150977847Y-82310146D01*
X150977850Y-82310150D01*
X150977853Y-82310152D01*
X150977855Y-82310154D01*
X151087116Y-82390792D01*
X151087117Y-82390792D01*
X151087118Y-82390793D01*
X151105552Y-82397243D01*
X151132165Y-82406556D01*
X151180845Y-82443621D01*
X151198442Y-82502222D01*
X151178234Y-82559974D01*
X151132165Y-82593444D01*
X151087116Y-82609207D01*
X150977855Y-82689845D01*
X150977845Y-82689855D01*
X150897207Y-82799116D01*
X150852355Y-82927296D01*
X150852353Y-82927305D01*
X150849500Y-82957725D01*
X150849500Y-83566274D01*
X150852353Y-83596694D01*
X150852355Y-83596703D01*
X150897207Y-83724883D01*
X150977845Y-83834144D01*
X150977847Y-83834146D01*
X150977850Y-83834150D01*
X150977853Y-83834152D01*
X150977855Y-83834154D01*
X151087116Y-83914792D01*
X151087117Y-83914792D01*
X151087118Y-83914793D01*
X151215301Y-83959646D01*
X151245725Y-83962499D01*
X151245727Y-83962500D01*
X152151000Y-83962500D01*
X152209191Y-83981407D01*
X152245155Y-84030907D01*
X152250000Y-84061500D01*
X152250000Y-89901000D01*
X152231093Y-89959191D01*
X152181593Y-89995155D01*
X152151000Y-90000000D01*
X146361500Y-90000000D01*
X146303309Y-89981093D01*
X146267345Y-89931593D01*
X146262500Y-89901000D01*
X146262500Y-88995726D01*
X146262499Y-88995725D01*
X146259646Y-88965305D01*
X146259646Y-88965301D01*
X146214793Y-88837118D01*
X146166840Y-88772144D01*
X146134154Y-88727855D01*
X146134152Y-88727853D01*
X146134150Y-88727850D01*
X146134146Y-88727847D01*
X146134144Y-88727845D01*
X146024883Y-88647207D01*
X145896703Y-88602355D01*
X145896694Y-88602353D01*
X145866274Y-88599500D01*
X145866266Y-88599500D01*
X145257734Y-88599500D01*
X145257725Y-88599500D01*
X145227305Y-88602353D01*
X145227296Y-88602355D01*
X145099116Y-88647207D01*
X144989855Y-88727845D01*
X144989845Y-88727855D01*
X144909207Y-88837116D01*
X144893444Y-88882165D01*
X144856379Y-88930845D01*
X144797778Y-88948442D01*
X144740026Y-88928234D01*
X144706556Y-88882165D01*
X144690792Y-88837116D01*
X144610154Y-88727855D01*
X144610152Y-88727853D01*
X144610150Y-88727850D01*
X144610146Y-88727847D01*
X144610144Y-88727845D01*
X144500883Y-88647207D01*
X144372703Y-88602355D01*
X144372694Y-88602353D01*
X144342274Y-88599500D01*
X144342266Y-88599500D01*
X143733734Y-88599500D01*
X143733725Y-88599500D01*
X143703305Y-88602353D01*
X143703296Y-88602355D01*
X143575116Y-88647207D01*
X143465855Y-88727845D01*
X143465845Y-88727855D01*
X143385207Y-88837116D01*
X143340355Y-88965296D01*
X143340353Y-88965305D01*
X143337500Y-88995725D01*
X143337500Y-89901000D01*
X143318593Y-89959191D01*
X143269093Y-89995155D01*
X143238500Y-90000000D01*
X134849000Y-90000000D01*
X134790809Y-89981093D01*
X134754845Y-89931593D01*
X134750000Y-89901000D01*
X134750000Y-88504274D01*
X135799500Y-88504274D01*
X135802353Y-88534694D01*
X135802355Y-88534703D01*
X135847207Y-88662883D01*
X135927845Y-88772144D01*
X135927847Y-88772146D01*
X135927850Y-88772150D01*
X135927853Y-88772152D01*
X135927855Y-88772154D01*
X136037116Y-88852792D01*
X136037117Y-88852792D01*
X136037118Y-88852793D01*
X136165301Y-88897646D01*
X136195725Y-88900499D01*
X136195727Y-88900500D01*
X136195734Y-88900500D01*
X138804273Y-88900500D01*
X138804273Y-88900499D01*
X138834699Y-88897646D01*
X138962882Y-88852793D01*
X139072150Y-88772150D01*
X139152793Y-88662882D01*
X139197646Y-88534699D01*
X139200499Y-88504273D01*
X139200500Y-88504273D01*
X139200500Y-87295726D01*
X139200499Y-87295725D01*
X139197646Y-87265305D01*
X139197646Y-87265301D01*
X139152793Y-87137118D01*
X139138576Y-87117855D01*
X139072154Y-87027855D01*
X139072152Y-87027853D01*
X139072150Y-87027850D01*
X139072146Y-87027847D01*
X139072144Y-87027845D01*
X138962883Y-86947207D01*
X138834703Y-86902355D01*
X138834694Y-86902353D01*
X138804274Y-86899500D01*
X138804266Y-86899500D01*
X136195734Y-86899500D01*
X136195725Y-86899500D01*
X136165305Y-86902353D01*
X136165296Y-86902355D01*
X136037116Y-86947207D01*
X135927855Y-87027845D01*
X135927845Y-87027855D01*
X135847207Y-87137116D01*
X135802355Y-87265296D01*
X135802353Y-87265305D01*
X135799500Y-87295725D01*
X135799500Y-88504274D01*
X134750000Y-88504274D01*
X134750000Y-85600000D01*
X136800001Y-85600000D01*
X136800001Y-85804203D01*
X136802850Y-85834600D01*
X136802850Y-85834602D01*
X136847654Y-85962647D01*
X136928207Y-86071790D01*
X136928209Y-86071792D01*
X137037352Y-86152345D01*
X137165398Y-86197149D01*
X137195789Y-86199999D01*
X139649998Y-86199999D01*
X139650000Y-86199997D01*
X139850000Y-86199997D01*
X139850001Y-86199999D01*
X141000667Y-86199999D01*
X141058858Y-86218906D01*
X141094822Y-86268406D01*
X141094822Y-86329592D01*
X141070672Y-86369000D01*
X141039972Y-86399701D01*
X141039972Y-86399702D01*
X140469170Y-86970504D01*
X140414653Y-86998281D01*
X140399166Y-86999500D01*
X140328035Y-86999500D01*
X140189949Y-87040046D01*
X140189942Y-87040049D01*
X140068873Y-87117855D01*
X139974622Y-87226628D01*
X139914834Y-87357543D01*
X139894353Y-87499997D01*
X139894353Y-87500002D01*
X139914834Y-87642456D01*
X139974622Y-87773371D01*
X139974623Y-87773373D01*
X140068872Y-87882143D01*
X140068873Y-87882144D01*
X140189942Y-87959950D01*
X140189947Y-87959953D01*
X140296403Y-87991211D01*
X140328035Y-88000499D01*
X140328036Y-88000499D01*
X140328039Y-88000500D01*
X140328041Y-88000500D01*
X140471959Y-88000500D01*
X140471961Y-88000500D01*
X140610053Y-87959953D01*
X140731128Y-87882143D01*
X140825377Y-87773373D01*
X140885165Y-87642457D01*
X140905647Y-87500000D01*
X140905647Y-87499997D01*
X140905647Y-87495686D01*
X140924554Y-87437495D01*
X140934643Y-87425682D01*
X141171460Y-87188865D01*
X141500298Y-86860028D01*
X141500298Y-86860027D01*
X141505829Y-86854495D01*
X141560346Y-86826719D01*
X141575833Y-86825500D01*
X144793000Y-86825500D01*
X144851191Y-86844407D01*
X144887155Y-86893907D01*
X144892000Y-86924500D01*
X144892000Y-87019746D01*
X144892001Y-87019758D01*
X144903632Y-87078227D01*
X144903634Y-87078233D01*
X144947945Y-87144548D01*
X144947948Y-87144552D01*
X145014269Y-87188867D01*
X145058731Y-87197711D01*
X145072741Y-87200498D01*
X145072746Y-87200498D01*
X145072752Y-87200500D01*
X145072753Y-87200500D01*
X146612247Y-87200500D01*
X146612248Y-87200500D01*
X146670731Y-87188867D01*
X146737052Y-87144552D01*
X146781367Y-87078231D01*
X146793000Y-87019748D01*
X146793000Y-85980252D01*
X146781367Y-85921769D01*
X146781365Y-85921766D01*
X146781365Y-85921764D01*
X146777687Y-85912884D01*
X146772886Y-85851887D01*
X146777687Y-85837112D01*
X146781362Y-85828238D01*
X146781367Y-85828231D01*
X146796928Y-85750000D01*
X146796928Y-85128111D01*
X146788647Y-85070517D01*
X146748140Y-84932562D01*
X146723969Y-84879634D01*
X146720670Y-84874500D01*
X146646244Y-84758689D01*
X146646238Y-84758681D01*
X146608139Y-84714713D01*
X146608138Y-84714712D01*
X146608132Y-84714705D01*
X146608122Y-84714696D01*
X146499476Y-84620554D01*
X146499463Y-84620545D01*
X146450532Y-84589099D01*
X146450519Y-84589092D01*
X146369579Y-84552128D01*
X146319738Y-84529366D01*
X146319733Y-84529364D01*
X146319732Y-84529364D01*
X146263909Y-84512973D01*
X146263905Y-84512972D01*
X146121597Y-84492511D01*
X146121593Y-84492511D01*
X146063407Y-84492511D01*
X146063405Y-84492511D01*
X146054238Y-84493829D01*
X146049126Y-84494564D01*
X146035037Y-84495572D01*
X145649963Y-84495572D01*
X145635873Y-84494564D01*
X145630761Y-84493829D01*
X145621595Y-84492511D01*
X145621593Y-84492511D01*
X145563407Y-84492511D01*
X145563403Y-84492511D01*
X145421094Y-84512972D01*
X145421090Y-84512973D01*
X145365267Y-84529364D01*
X145365263Y-84529365D01*
X145365262Y-84529366D01*
X145324680Y-84547899D01*
X145234480Y-84589092D01*
X145234467Y-84589099D01*
X145185536Y-84620545D01*
X145185523Y-84620554D01*
X145076877Y-84714696D01*
X145076860Y-84714713D01*
X145038767Y-84758675D01*
X145038762Y-84758681D01*
X144993996Y-84828339D01*
X144946629Y-84867070D01*
X144902085Y-84873438D01*
X144871196Y-84870735D01*
X144871187Y-84870736D01*
X144831564Y-84881353D01*
X144827349Y-84882287D01*
X144786960Y-84889410D01*
X144778818Y-84892374D01*
X144777994Y-84890110D01*
X144742956Y-84899500D01*
X144628035Y-84899500D01*
X144489949Y-84940046D01*
X144489942Y-84940049D01*
X144368873Y-85017855D01*
X144274622Y-85126628D01*
X144214834Y-85257543D01*
X144194353Y-85399997D01*
X144194353Y-85400000D01*
X144214834Y-85542456D01*
X144274622Y-85673371D01*
X144274623Y-85673373D01*
X144341020Y-85750000D01*
X144368873Y-85782144D01*
X144489942Y-85859950D01*
X144489947Y-85859953D01*
X144596403Y-85891211D01*
X144628035Y-85900499D01*
X144628036Y-85900499D01*
X144628039Y-85900500D01*
X144628041Y-85900500D01*
X144771962Y-85900500D01*
X144778910Y-85899501D01*
X144839199Y-85909934D01*
X144881842Y-85953811D01*
X144892000Y-85997493D01*
X144892000Y-86075500D01*
X144873093Y-86133691D01*
X144823593Y-86169655D01*
X144793000Y-86174500D01*
X142692099Y-86174500D01*
X142633908Y-86155593D01*
X142597944Y-86106093D01*
X142597944Y-86044907D01*
X142612444Y-86016712D01*
X142652344Y-85962649D01*
X142697149Y-85834601D01*
X142699999Y-85804211D01*
X142700000Y-85804210D01*
X142700000Y-85600000D01*
X139850001Y-85600000D01*
X139850000Y-85600001D01*
X139850000Y-86199997D01*
X139650000Y-86199997D01*
X139650000Y-85600001D01*
X139649999Y-85600000D01*
X136800001Y-85600000D01*
X134750000Y-85600000D01*
X134750000Y-85399999D01*
X136800000Y-85399999D01*
X136800001Y-85400000D01*
X139649999Y-85400000D01*
X139650000Y-85399999D01*
X139850000Y-85399999D01*
X139850001Y-85400000D01*
X142699998Y-85400000D01*
X142699999Y-85399998D01*
X142699999Y-85195796D01*
X142697149Y-85165399D01*
X142697149Y-85165397D01*
X142652345Y-85037352D01*
X142571792Y-84928209D01*
X142571790Y-84928207D01*
X142462647Y-84847654D01*
X142334601Y-84802850D01*
X142304211Y-84800000D01*
X139850001Y-84800000D01*
X139850000Y-84800001D01*
X139850000Y-85399999D01*
X139650000Y-85399999D01*
X139650000Y-84800001D01*
X139649999Y-84800000D01*
X137195796Y-84800000D01*
X137165399Y-84802850D01*
X137165397Y-84802850D01*
X137037352Y-84847654D01*
X136928209Y-84928207D01*
X136928207Y-84928209D01*
X136847654Y-85037352D01*
X136802850Y-85165398D01*
X136800000Y-85195788D01*
X136800000Y-85399999D01*
X134750000Y-85399999D01*
X134750000Y-84300002D01*
X135494353Y-84300002D01*
X135514834Y-84442456D01*
X135574622Y-84573371D01*
X135574623Y-84573373D01*
X135631436Y-84638939D01*
X135668873Y-84682144D01*
X135787980Y-84758689D01*
X135789947Y-84759953D01*
X135896403Y-84791211D01*
X135928035Y-84800499D01*
X135928036Y-84800499D01*
X135928039Y-84800500D01*
X135928041Y-84800500D01*
X136071959Y-84800500D01*
X136071961Y-84800500D01*
X136210053Y-84759953D01*
X136331128Y-84682143D01*
X136425377Y-84573373D01*
X136485165Y-84442457D01*
X136505647Y-84300000D01*
X136491341Y-84200500D01*
X136485166Y-84157547D01*
X136485165Y-84157543D01*
X136479763Y-84145714D01*
X136456539Y-84094862D01*
X136449565Y-84034079D01*
X136476588Y-83983736D01*
X136605829Y-83854496D01*
X136660347Y-83826719D01*
X136675833Y-83825500D01*
X136728891Y-83825500D01*
X136787082Y-83844407D01*
X136822335Y-83891802D01*
X136847207Y-83962883D01*
X136927845Y-84072144D01*
X136927847Y-84072146D01*
X136927850Y-84072150D01*
X136927853Y-84072152D01*
X136927855Y-84072154D01*
X137037116Y-84152792D01*
X137037117Y-84152792D01*
X137037118Y-84152793D01*
X137165301Y-84197646D01*
X137195725Y-84200499D01*
X137195727Y-84200500D01*
X137195734Y-84200500D01*
X142304273Y-84200500D01*
X142304273Y-84200499D01*
X142334699Y-84197646D01*
X142462882Y-84152793D01*
X142572150Y-84072150D01*
X142652793Y-83962882D01*
X142697646Y-83834699D01*
X142700499Y-83804273D01*
X142700500Y-83804273D01*
X142700500Y-83219507D01*
X142719407Y-83161316D01*
X142768907Y-83125352D01*
X142830093Y-83125352D01*
X142853023Y-83136223D01*
X142889947Y-83159953D01*
X142990276Y-83189412D01*
X143028035Y-83200499D01*
X143028036Y-83200499D01*
X143028039Y-83200500D01*
X143028041Y-83200500D01*
X143171960Y-83200500D01*
X143171961Y-83200500D01*
X143171961Y-83200499D01*
X143178972Y-83199492D01*
X143179315Y-83201881D01*
X143229484Y-83203311D01*
X143266226Y-83226552D01*
X143558257Y-83518584D01*
X143561175Y-83521769D01*
X143587544Y-83553193D01*
X143587545Y-83553194D01*
X143623073Y-83573706D01*
X143626712Y-83576025D01*
X143660311Y-83599551D01*
X143660313Y-83599552D01*
X143660316Y-83599554D01*
X143661767Y-83599942D01*
X143685659Y-83609840D01*
X143686954Y-83610588D01*
X143695854Y-83612157D01*
X143727365Y-83617713D01*
X143731544Y-83618638D01*
X143771193Y-83629263D01*
X143812065Y-83625687D01*
X143816365Y-83625500D01*
X147083626Y-83625500D01*
X147087926Y-83625687D01*
X147128807Y-83629264D01*
X147168452Y-83618640D01*
X147172650Y-83617710D01*
X147213045Y-83610588D01*
X147214345Y-83609838D01*
X147238236Y-83599942D01*
X147238464Y-83599880D01*
X147239684Y-83599554D01*
X147273303Y-83576012D01*
X147276911Y-83573714D01*
X147312455Y-83553194D01*
X147338827Y-83521763D01*
X147341726Y-83518598D01*
X148218588Y-82641737D01*
X148221766Y-82638824D01*
X148253194Y-82612455D01*
X148273712Y-82576914D01*
X148276017Y-82573296D01*
X148299554Y-82539684D01*
X148299941Y-82538236D01*
X148309838Y-82514345D01*
X148310586Y-82513048D01*
X148310585Y-82513048D01*
X148310588Y-82513045D01*
X148317713Y-82472628D01*
X148318641Y-82468443D01*
X148329263Y-82428807D01*
X148325687Y-82387934D01*
X148325500Y-82383634D01*
X148325500Y-78407000D01*
X148344407Y-78348809D01*
X148393907Y-78312845D01*
X148424500Y-78308000D01*
X148519747Y-78308000D01*
X148519748Y-78308000D01*
X148578231Y-78296367D01*
X148644552Y-78252052D01*
X148688867Y-78185731D01*
X148700500Y-78127248D01*
X148700500Y-76587752D01*
X148688867Y-76529269D01*
X148644552Y-76462948D01*
X148627958Y-76451860D01*
X148578233Y-76418634D01*
X148578231Y-76418633D01*
X148578228Y-76418632D01*
X148578227Y-76418632D01*
X148519758Y-76407001D01*
X148519748Y-76407000D01*
X147480252Y-76407000D01*
X147480251Y-76407000D01*
X147480241Y-76407001D01*
X147421769Y-76418632D01*
X147412881Y-76422314D01*
X147351884Y-76427111D01*
X147337115Y-76422312D01*
X147328233Y-76418633D01*
X147250002Y-76403072D01*
X147250000Y-76403072D01*
X146628111Y-76403072D01*
X146616488Y-76404743D01*
X146570520Y-76411352D01*
X146570515Y-76411353D01*
X146432564Y-76451859D01*
X146379631Y-76476032D01*
X146379624Y-76476036D01*
X146258689Y-76553755D01*
X146258681Y-76553761D01*
X146214713Y-76591860D01*
X146214696Y-76591877D01*
X146120554Y-76700523D01*
X146120545Y-76700536D01*
X146089099Y-76749467D01*
X146089092Y-76749480D01*
X146029364Y-76880267D01*
X146012973Y-76936090D01*
X146012972Y-76936095D01*
X146005281Y-76989589D01*
X145978285Y-77044497D01*
X145924171Y-77073050D01*
X145907289Y-77074500D01*
X145616374Y-77074500D01*
X145612073Y-77074312D01*
X145571193Y-77070736D01*
X145571187Y-77070736D01*
X145531564Y-77081353D01*
X145527349Y-77082287D01*
X145486960Y-77089410D01*
X145486948Y-77089414D01*
X145485640Y-77090170D01*
X145461786Y-77100051D01*
X145460324Y-77100442D01*
X145460316Y-77100446D01*
X145426716Y-77123972D01*
X145423080Y-77126288D01*
X145414875Y-77131025D01*
X145387545Y-77146805D01*
X145361181Y-77178224D01*
X145358263Y-77181408D01*
X143644170Y-78895504D01*
X143589653Y-78923281D01*
X143574166Y-78924500D01*
X142600188Y-78924500D01*
X142541997Y-78905593D01*
X142541400Y-78905155D01*
X142462883Y-78847207D01*
X142334703Y-78802355D01*
X142334694Y-78802353D01*
X142304274Y-78799500D01*
X142304266Y-78799500D01*
X138778087Y-78799500D01*
X138772541Y-78799189D01*
X138732965Y-78794730D01*
X138732961Y-78794730D01*
X138716876Y-78797774D01*
X138698472Y-78799500D01*
X137195725Y-78799500D01*
X137165305Y-78802353D01*
X137165296Y-78802355D01*
X137037116Y-78847207D01*
X136927855Y-78927845D01*
X136927845Y-78927855D01*
X136847207Y-79037116D01*
X136802355Y-79165296D01*
X136802353Y-79165305D01*
X136799500Y-79195725D01*
X136799500Y-79700500D01*
X136780593Y-79758691D01*
X136731093Y-79794655D01*
X136700500Y-79799500D01*
X136628035Y-79799500D01*
X136489949Y-79840046D01*
X136489942Y-79840049D01*
X136368873Y-79917855D01*
X136274622Y-80026628D01*
X136214834Y-80157543D01*
X136194353Y-80299997D01*
X136194353Y-80300002D01*
X136214834Y-80442456D01*
X136253065Y-80526169D01*
X136274623Y-80573373D01*
X136333612Y-80641451D01*
X136350319Y-80660731D01*
X136374137Y-80717090D01*
X136374500Y-80725562D01*
X136374500Y-81283625D01*
X136374312Y-81287927D01*
X136372394Y-81309854D01*
X136370736Y-81328806D01*
X136381354Y-81368436D01*
X136382289Y-81372652D01*
X136389411Y-81413045D01*
X136390164Y-81414348D01*
X136400054Y-81438224D01*
X136400443Y-81439679D01*
X136400446Y-81439684D01*
X136418274Y-81465146D01*
X136423971Y-81473281D01*
X136426288Y-81476918D01*
X136446806Y-81512454D01*
X136446806Y-81512455D01*
X136478224Y-81538818D01*
X136481410Y-81541737D01*
X136658257Y-81718584D01*
X136661175Y-81721769D01*
X136687544Y-81753193D01*
X136687545Y-81753194D01*
X136723073Y-81773706D01*
X136726712Y-81776025D01*
X136767412Y-81804523D01*
X136766262Y-81806164D01*
X136802780Y-81840218D01*
X136809637Y-81855516D01*
X136847207Y-81962883D01*
X136927845Y-82072144D01*
X136927847Y-82072146D01*
X136927850Y-82072150D01*
X136927853Y-82072152D01*
X136927855Y-82072154D01*
X137037116Y-82152792D01*
X137037117Y-82152792D01*
X137037118Y-82152793D01*
X137165301Y-82197646D01*
X137195725Y-82200499D01*
X137195727Y-82200500D01*
X137195734Y-82200500D01*
X142304273Y-82200500D01*
X142304273Y-82200499D01*
X142334699Y-82197646D01*
X142462882Y-82152793D01*
X142572150Y-82072150D01*
X142652793Y-81962882D01*
X142697646Y-81834699D01*
X142700499Y-81804273D01*
X142700500Y-81804273D01*
X142700500Y-81195726D01*
X142700499Y-81195725D01*
X142697646Y-81165305D01*
X142697646Y-81165301D01*
X142688871Y-81140223D01*
X142687497Y-81079053D01*
X142692257Y-81066409D01*
X142735165Y-80972457D01*
X142735165Y-80972455D01*
X142735166Y-80972454D01*
X142755647Y-80830002D01*
X142755647Y-80829997D01*
X142735165Y-80687543D01*
X142714115Y-80641451D01*
X142675377Y-80556627D01*
X142581128Y-80447857D01*
X142581127Y-80447856D01*
X142581126Y-80447855D01*
X142460057Y-80370049D01*
X142460055Y-80370048D01*
X142460053Y-80370047D01*
X142429449Y-80361061D01*
X142419420Y-80358116D01*
X142368913Y-80323579D01*
X142348352Y-80265952D01*
X142365591Y-80207245D01*
X142414044Y-80169883D01*
X142414325Y-80169783D01*
X142462882Y-80152793D01*
X142572150Y-80072150D01*
X142652793Y-79962882D01*
X142697646Y-79834699D01*
X142700499Y-79804273D01*
X142700500Y-79804273D01*
X142700500Y-79674500D01*
X142719407Y-79616309D01*
X142768907Y-79580345D01*
X142799500Y-79575500D01*
X143733626Y-79575500D01*
X143737926Y-79575687D01*
X143778807Y-79579264D01*
X143818452Y-79568640D01*
X143822650Y-79567710D01*
X143863045Y-79560588D01*
X143864345Y-79559838D01*
X143888236Y-79549942D01*
X143888464Y-79549880D01*
X143889684Y-79549554D01*
X143923303Y-79526012D01*
X143926911Y-79523714D01*
X143962455Y-79503194D01*
X143988827Y-79471763D01*
X143991726Y-79468598D01*
X145705829Y-77754496D01*
X145760347Y-77726719D01*
X145775834Y-77725500D01*
X145923180Y-77725500D01*
X145981371Y-77744407D01*
X146017335Y-77793907D01*
X146018170Y-77796608D01*
X146029364Y-77834733D01*
X146029365Y-77834736D01*
X146029366Y-77834738D01*
X146066433Y-77915904D01*
X146089092Y-77965519D01*
X146089099Y-77965532D01*
X146120545Y-78014463D01*
X146120554Y-78014476D01*
X146214696Y-78123122D01*
X146214705Y-78123132D01*
X146214712Y-78123138D01*
X146214713Y-78123139D01*
X146258681Y-78161238D01*
X146258689Y-78161244D01*
X146379624Y-78238963D01*
X146379629Y-78238966D01*
X146379634Y-78238969D01*
X146432562Y-78263140D01*
X146570517Y-78303647D01*
X146628111Y-78311928D01*
X146628112Y-78311928D01*
X147249999Y-78311928D01*
X147250000Y-78311928D01*
X147328231Y-78296367D01*
X147328238Y-78296362D01*
X147337112Y-78292687D01*
X147398109Y-78287886D01*
X147412884Y-78292687D01*
X147421764Y-78296365D01*
X147421766Y-78296365D01*
X147421769Y-78296367D01*
X147480252Y-78308000D01*
X147575500Y-78308000D01*
X147633691Y-78326907D01*
X147669655Y-78376407D01*
X147674500Y-78407000D01*
X147674500Y-82224165D01*
X147655593Y-82282356D01*
X147645504Y-82294169D01*
X146994170Y-82945504D01*
X146939653Y-82973281D01*
X146924166Y-82974500D01*
X146596487Y-82974500D01*
X146538296Y-82955593D01*
X146502332Y-82906093D01*
X146502332Y-82844907D01*
X146514171Y-82820499D01*
X146550896Y-82765535D01*
X146562499Y-82707200D01*
X146562500Y-82707197D01*
X146562500Y-82476759D01*
X146563508Y-82462668D01*
X146567127Y-82437500D01*
X146567127Y-82437498D01*
X146563508Y-82412330D01*
X146562500Y-82398240D01*
X146562500Y-81487501D01*
X146562499Y-81487500D01*
X146224632Y-81487500D01*
X146246986Y-81465146D01*
X146267791Y-81387500D01*
X146246986Y-81309855D01*
X146224631Y-81287500D01*
X146562499Y-81287500D01*
X146562500Y-81287499D01*
X146562500Y-80376759D01*
X146563508Y-80362668D01*
X146567127Y-80337500D01*
X146567127Y-80337498D01*
X146563508Y-80312330D01*
X146562500Y-80298240D01*
X146562500Y-80067802D01*
X146562499Y-80067799D01*
X146550896Y-80009463D01*
X146506693Y-79943310D01*
X146506689Y-79943306D01*
X146440536Y-79899103D01*
X146382200Y-79887500D01*
X145162501Y-79887500D01*
X145162500Y-79887501D01*
X145162500Y-80225368D01*
X145140145Y-80203014D01*
X145082246Y-80187500D01*
X145042754Y-80187500D01*
X144984855Y-80203014D01*
X144962500Y-80225368D01*
X144962500Y-79887501D01*
X144962499Y-79887500D01*
X143742799Y-79887500D01*
X143684463Y-79899103D01*
X143618310Y-79943306D01*
X143618306Y-79943310D01*
X143574103Y-80009463D01*
X143562500Y-80067799D01*
X143562500Y-80298240D01*
X143561492Y-80312330D01*
X143557873Y-80337498D01*
X143557873Y-80337500D01*
X143561492Y-80362668D01*
X143562500Y-80376759D01*
X143562500Y-81287499D01*
X143562501Y-81287500D01*
X143900368Y-81287500D01*
X143878014Y-81309854D01*
X143857209Y-81387500D01*
X143878014Y-81465145D01*
X143900369Y-81487500D01*
X143562501Y-81487500D01*
X143562500Y-81487501D01*
X143562500Y-82220979D01*
X143543593Y-82279170D01*
X143494093Y-82315134D01*
X143432907Y-82315134D01*
X143409977Y-82304263D01*
X143310057Y-82240049D01*
X143310054Y-82240047D01*
X143310053Y-82240047D01*
X143310050Y-82240046D01*
X143171964Y-82199500D01*
X143171961Y-82199500D01*
X143028039Y-82199500D01*
X143028035Y-82199500D01*
X142889949Y-82240046D01*
X142889942Y-82240049D01*
X142768873Y-82317855D01*
X142674622Y-82426628D01*
X142614834Y-82557543D01*
X142594353Y-82699997D01*
X142594353Y-82700004D01*
X142600400Y-82742064D01*
X142589967Y-82802353D01*
X142546088Y-82844995D01*
X142485526Y-82853702D01*
X142469710Y-82849596D01*
X142334703Y-82802355D01*
X142334694Y-82802353D01*
X142304274Y-82799500D01*
X142304266Y-82799500D01*
X137195734Y-82799500D01*
X137195725Y-82799500D01*
X137165305Y-82802353D01*
X137165296Y-82802355D01*
X137037116Y-82847207D01*
X136927855Y-82927845D01*
X136927845Y-82927855D01*
X136847207Y-83037116D01*
X136822335Y-83108198D01*
X136785270Y-83156878D01*
X136728891Y-83174500D01*
X136516374Y-83174500D01*
X136512073Y-83174312D01*
X136471193Y-83170736D01*
X136471187Y-83170736D01*
X136431564Y-83181353D01*
X136427349Y-83182287D01*
X136386960Y-83189410D01*
X136386948Y-83189414D01*
X136385640Y-83190170D01*
X136361786Y-83200051D01*
X136360324Y-83200442D01*
X136360316Y-83200446D01*
X136326716Y-83223972D01*
X136323080Y-83226288D01*
X136314875Y-83231025D01*
X136287545Y-83246805D01*
X136261181Y-83278224D01*
X136258263Y-83281408D01*
X135781413Y-83758259D01*
X135778229Y-83761176D01*
X135746807Y-83787542D01*
X135746806Y-83787544D01*
X135726292Y-83823075D01*
X135723972Y-83826716D01*
X135700446Y-83860316D01*
X135700444Y-83860320D01*
X135700054Y-83861778D01*
X135690167Y-83885647D01*
X135685082Y-83894455D01*
X135684228Y-83893962D01*
X135672932Y-83913169D01*
X135574623Y-84026626D01*
X135514834Y-84157543D01*
X135494353Y-84299997D01*
X135494353Y-84300002D01*
X134750000Y-84300002D01*
X134750000Y-77704274D01*
X135799500Y-77704274D01*
X135802353Y-77734694D01*
X135802355Y-77734703D01*
X135847207Y-77862883D01*
X135927845Y-77972144D01*
X135927847Y-77972146D01*
X135927850Y-77972150D01*
X135927853Y-77972152D01*
X135927855Y-77972154D01*
X136037116Y-78052792D01*
X136037117Y-78052792D01*
X136037118Y-78052793D01*
X136165301Y-78097646D01*
X136195725Y-78100499D01*
X136195727Y-78100500D01*
X136195734Y-78100500D01*
X138804273Y-78100500D01*
X138804273Y-78100499D01*
X138834699Y-78097646D01*
X138962882Y-78052793D01*
X139072150Y-77972150D01*
X139152793Y-77862882D01*
X139197646Y-77734699D01*
X139200499Y-77704273D01*
X139200500Y-77704273D01*
X139200500Y-76495726D01*
X139200499Y-76495725D01*
X139197646Y-76465301D01*
X139152793Y-76337118D01*
X139104840Y-76272144D01*
X139072154Y-76227855D01*
X139072152Y-76227853D01*
X139072150Y-76227850D01*
X139072146Y-76227847D01*
X139072144Y-76227845D01*
X138962883Y-76147207D01*
X138834703Y-76102355D01*
X138834694Y-76102353D01*
X138804274Y-76099500D01*
X138804266Y-76099500D01*
X136195734Y-76099500D01*
X136195725Y-76099500D01*
X136165305Y-76102353D01*
X136165296Y-76102355D01*
X136037116Y-76147207D01*
X135927855Y-76227845D01*
X135927845Y-76227855D01*
X135847207Y-76337116D01*
X135802355Y-76465296D01*
X135802353Y-76465305D01*
X135799500Y-76495725D01*
X135799500Y-77704274D01*
X134750000Y-77704274D01*
X134750000Y-75099000D01*
X134768907Y-75040809D01*
X134818407Y-75004845D01*
X134849000Y-75000000D01*
X143238500Y-75000000D01*
X143296691Y-75018907D01*
G37*
%TD.AperFunction*%
%TD*%
M02*
