%TF.GenerationSoftware,KiCad,Pcbnew,7.0.5-4d25ed1034~172~ubuntu22.04.1*%
%TF.CreationDate,2023-06-17T18:52:52+02:00*%
%TF.ProjectId,donttouchit,646f6e74-746f-4756-9368-69742e6b6963,rev?*%
%TF.SameCoordinates,Original*%
%TF.FileFunction,Legend,Top*%
%TF.FilePolarity,Positive*%
%FSLAX46Y46*%
G04 Gerber Fmt 4.6, Leading zero omitted, Abs format (unit mm)*
G04 Created by KiCad (PCBNEW 7.0.5-4d25ed1034~172~ubuntu22.04.1) date 2023-06-17 18:52:52*
%MOMM*%
%LPD*%
G01*
G04 APERTURE LIST*
%ADD10C,0.150000*%
%ADD11C,0.120000*%
G04 APERTURE END LIST*
D10*
X141389160Y-62294295D02*
X141389160Y-61494295D01*
X141389160Y-61494295D02*
X141579636Y-61494295D01*
X141579636Y-61494295D02*
X141693922Y-61532390D01*
X141693922Y-61532390D02*
X141770112Y-61608580D01*
X141770112Y-61608580D02*
X141808207Y-61684771D01*
X141808207Y-61684771D02*
X141846303Y-61837152D01*
X141846303Y-61837152D02*
X141846303Y-61951438D01*
X141846303Y-61951438D02*
X141808207Y-62103819D01*
X141808207Y-62103819D02*
X141770112Y-62180009D01*
X141770112Y-62180009D02*
X141693922Y-62256200D01*
X141693922Y-62256200D02*
X141579636Y-62294295D01*
X141579636Y-62294295D02*
X141389160Y-62294295D01*
X142303445Y-62294295D02*
X142227255Y-62256200D01*
X142227255Y-62256200D02*
X142189160Y-62218104D01*
X142189160Y-62218104D02*
X142151064Y-62141914D01*
X142151064Y-62141914D02*
X142151064Y-61913342D01*
X142151064Y-61913342D02*
X142189160Y-61837152D01*
X142189160Y-61837152D02*
X142227255Y-61799057D01*
X142227255Y-61799057D02*
X142303445Y-61760961D01*
X142303445Y-61760961D02*
X142417731Y-61760961D01*
X142417731Y-61760961D02*
X142493922Y-61799057D01*
X142493922Y-61799057D02*
X142532017Y-61837152D01*
X142532017Y-61837152D02*
X142570112Y-61913342D01*
X142570112Y-61913342D02*
X142570112Y-62141914D01*
X142570112Y-62141914D02*
X142532017Y-62218104D01*
X142532017Y-62218104D02*
X142493922Y-62256200D01*
X142493922Y-62256200D02*
X142417731Y-62294295D01*
X142417731Y-62294295D02*
X142303445Y-62294295D01*
X142912970Y-61760961D02*
X142912970Y-62294295D01*
X142912970Y-61837152D02*
X142951065Y-61799057D01*
X142951065Y-61799057D02*
X143027255Y-61760961D01*
X143027255Y-61760961D02*
X143141541Y-61760961D01*
X143141541Y-61760961D02*
X143217732Y-61799057D01*
X143217732Y-61799057D02*
X143255827Y-61875247D01*
X143255827Y-61875247D02*
X143255827Y-62294295D01*
X143522494Y-61760961D02*
X143827256Y-61760961D01*
X143636780Y-61494295D02*
X143636780Y-62180009D01*
X143636780Y-62180009D02*
X143674875Y-62256200D01*
X143674875Y-62256200D02*
X143751065Y-62294295D01*
X143751065Y-62294295D02*
X143827256Y-62294295D01*
X143979637Y-61494295D02*
X144436780Y-61494295D01*
X144208208Y-62294295D02*
X144208208Y-61494295D01*
X144817732Y-62294295D02*
X144741542Y-62256200D01*
X144741542Y-62256200D02*
X144703447Y-62218104D01*
X144703447Y-62218104D02*
X144665351Y-62141914D01*
X144665351Y-62141914D02*
X144665351Y-61913342D01*
X144665351Y-61913342D02*
X144703447Y-61837152D01*
X144703447Y-61837152D02*
X144741542Y-61799057D01*
X144741542Y-61799057D02*
X144817732Y-61760961D01*
X144817732Y-61760961D02*
X144932018Y-61760961D01*
X144932018Y-61760961D02*
X145008209Y-61799057D01*
X145008209Y-61799057D02*
X145046304Y-61837152D01*
X145046304Y-61837152D02*
X145084399Y-61913342D01*
X145084399Y-61913342D02*
X145084399Y-62141914D01*
X145084399Y-62141914D02*
X145046304Y-62218104D01*
X145046304Y-62218104D02*
X145008209Y-62256200D01*
X145008209Y-62256200D02*
X144932018Y-62294295D01*
X144932018Y-62294295D02*
X144817732Y-62294295D01*
X145770114Y-61760961D02*
X145770114Y-62294295D01*
X145427257Y-61760961D02*
X145427257Y-62180009D01*
X145427257Y-62180009D02*
X145465352Y-62256200D01*
X145465352Y-62256200D02*
X145541542Y-62294295D01*
X145541542Y-62294295D02*
X145655828Y-62294295D01*
X145655828Y-62294295D02*
X145732019Y-62256200D01*
X145732019Y-62256200D02*
X145770114Y-62218104D01*
X146493924Y-62256200D02*
X146417733Y-62294295D01*
X146417733Y-62294295D02*
X146265352Y-62294295D01*
X146265352Y-62294295D02*
X146189162Y-62256200D01*
X146189162Y-62256200D02*
X146151067Y-62218104D01*
X146151067Y-62218104D02*
X146112971Y-62141914D01*
X146112971Y-62141914D02*
X146112971Y-61913342D01*
X146112971Y-61913342D02*
X146151067Y-61837152D01*
X146151067Y-61837152D02*
X146189162Y-61799057D01*
X146189162Y-61799057D02*
X146265352Y-61760961D01*
X146265352Y-61760961D02*
X146417733Y-61760961D01*
X146417733Y-61760961D02*
X146493924Y-61799057D01*
X146836781Y-62294295D02*
X146836781Y-61494295D01*
X147179638Y-62294295D02*
X147179638Y-61875247D01*
X147179638Y-61875247D02*
X147141543Y-61799057D01*
X147141543Y-61799057D02*
X147065352Y-61760961D01*
X147065352Y-61760961D02*
X146951066Y-61760961D01*
X146951066Y-61760961D02*
X146874876Y-61799057D01*
X146874876Y-61799057D02*
X146836781Y-61837152D01*
X147560591Y-62294295D02*
X147560591Y-61494295D01*
X147827257Y-61760961D02*
X148132019Y-61760961D01*
X147941543Y-61494295D02*
X147941543Y-62180009D01*
X147941543Y-62180009D02*
X147979638Y-62256200D01*
X147979638Y-62256200D02*
X148055828Y-62294295D01*
X148055828Y-62294295D02*
X148132019Y-62294295D01*
X148894295Y-85925125D02*
X149694295Y-85658458D01*
X149694295Y-85658458D02*
X148894295Y-85391792D01*
X149694295Y-84706078D02*
X149694295Y-85163221D01*
X149694295Y-84934649D02*
X148894295Y-84934649D01*
X148894295Y-84934649D02*
X149008580Y-85010840D01*
X149008580Y-85010840D02*
X149084771Y-85087030D01*
X149084771Y-85087030D02*
X149122866Y-85163221D01*
X149618104Y-84363220D02*
X149656200Y-84325125D01*
X149656200Y-84325125D02*
X149694295Y-84363220D01*
X149694295Y-84363220D02*
X149656200Y-84401316D01*
X149656200Y-84401316D02*
X149618104Y-84363220D01*
X149618104Y-84363220D02*
X149694295Y-84363220D01*
X148970485Y-84020364D02*
X148932390Y-83982268D01*
X148932390Y-83982268D02*
X148894295Y-83906078D01*
X148894295Y-83906078D02*
X148894295Y-83715602D01*
X148894295Y-83715602D02*
X148932390Y-83639411D01*
X148932390Y-83639411D02*
X148970485Y-83601316D01*
X148970485Y-83601316D02*
X149046676Y-83563221D01*
X149046676Y-83563221D02*
X149122866Y-83563221D01*
X149122866Y-83563221D02*
X149237152Y-83601316D01*
X149237152Y-83601316D02*
X149694295Y-84058459D01*
X149694295Y-84058459D02*
X149694295Y-83563221D01*
X147910839Y-102505704D02*
X147910839Y-103305704D01*
X147910839Y-103305704D02*
X147720363Y-103305704D01*
X147720363Y-103305704D02*
X147606077Y-103267609D01*
X147606077Y-103267609D02*
X147529887Y-103191419D01*
X147529887Y-103191419D02*
X147491792Y-103115228D01*
X147491792Y-103115228D02*
X147453696Y-102962847D01*
X147453696Y-102962847D02*
X147453696Y-102848561D01*
X147453696Y-102848561D02*
X147491792Y-102696180D01*
X147491792Y-102696180D02*
X147529887Y-102619990D01*
X147529887Y-102619990D02*
X147606077Y-102543800D01*
X147606077Y-102543800D02*
X147720363Y-102505704D01*
X147720363Y-102505704D02*
X147910839Y-102505704D01*
X146996554Y-102505704D02*
X147072744Y-102543800D01*
X147072744Y-102543800D02*
X147110839Y-102581895D01*
X147110839Y-102581895D02*
X147148935Y-102658085D01*
X147148935Y-102658085D02*
X147148935Y-102886657D01*
X147148935Y-102886657D02*
X147110839Y-102962847D01*
X147110839Y-102962847D02*
X147072744Y-103000942D01*
X147072744Y-103000942D02*
X146996554Y-103039038D01*
X146996554Y-103039038D02*
X146882268Y-103039038D01*
X146882268Y-103039038D02*
X146806077Y-103000942D01*
X146806077Y-103000942D02*
X146767982Y-102962847D01*
X146767982Y-102962847D02*
X146729887Y-102886657D01*
X146729887Y-102886657D02*
X146729887Y-102658085D01*
X146729887Y-102658085D02*
X146767982Y-102581895D01*
X146767982Y-102581895D02*
X146806077Y-102543800D01*
X146806077Y-102543800D02*
X146882268Y-102505704D01*
X146882268Y-102505704D02*
X146996554Y-102505704D01*
X146387029Y-103039038D02*
X146387029Y-102505704D01*
X146387029Y-102962847D02*
X146348934Y-103000942D01*
X146348934Y-103000942D02*
X146272744Y-103039038D01*
X146272744Y-103039038D02*
X146158458Y-103039038D01*
X146158458Y-103039038D02*
X146082267Y-103000942D01*
X146082267Y-103000942D02*
X146044172Y-102924752D01*
X146044172Y-102924752D02*
X146044172Y-102505704D01*
X145777505Y-103039038D02*
X145472743Y-103039038D01*
X145663219Y-103305704D02*
X145663219Y-102619990D01*
X145663219Y-102619990D02*
X145625124Y-102543800D01*
X145625124Y-102543800D02*
X145548934Y-102505704D01*
X145548934Y-102505704D02*
X145472743Y-102505704D01*
X145320362Y-103305704D02*
X144863219Y-103305704D01*
X145091791Y-102505704D02*
X145091791Y-103305704D01*
X144482267Y-102505704D02*
X144558457Y-102543800D01*
X144558457Y-102543800D02*
X144596552Y-102581895D01*
X144596552Y-102581895D02*
X144634648Y-102658085D01*
X144634648Y-102658085D02*
X144634648Y-102886657D01*
X144634648Y-102886657D02*
X144596552Y-102962847D01*
X144596552Y-102962847D02*
X144558457Y-103000942D01*
X144558457Y-103000942D02*
X144482267Y-103039038D01*
X144482267Y-103039038D02*
X144367981Y-103039038D01*
X144367981Y-103039038D02*
X144291790Y-103000942D01*
X144291790Y-103000942D02*
X144253695Y-102962847D01*
X144253695Y-102962847D02*
X144215600Y-102886657D01*
X144215600Y-102886657D02*
X144215600Y-102658085D01*
X144215600Y-102658085D02*
X144253695Y-102581895D01*
X144253695Y-102581895D02*
X144291790Y-102543800D01*
X144291790Y-102543800D02*
X144367981Y-102505704D01*
X144367981Y-102505704D02*
X144482267Y-102505704D01*
X143529885Y-103039038D02*
X143529885Y-102505704D01*
X143872742Y-103039038D02*
X143872742Y-102619990D01*
X143872742Y-102619990D02*
X143834647Y-102543800D01*
X143834647Y-102543800D02*
X143758457Y-102505704D01*
X143758457Y-102505704D02*
X143644171Y-102505704D01*
X143644171Y-102505704D02*
X143567980Y-102543800D01*
X143567980Y-102543800D02*
X143529885Y-102581895D01*
X142806075Y-102543800D02*
X142882266Y-102505704D01*
X142882266Y-102505704D02*
X143034647Y-102505704D01*
X143034647Y-102505704D02*
X143110837Y-102543800D01*
X143110837Y-102543800D02*
X143148932Y-102581895D01*
X143148932Y-102581895D02*
X143187028Y-102658085D01*
X143187028Y-102658085D02*
X143187028Y-102886657D01*
X143187028Y-102886657D02*
X143148932Y-102962847D01*
X143148932Y-102962847D02*
X143110837Y-103000942D01*
X143110837Y-103000942D02*
X143034647Y-103039038D01*
X143034647Y-103039038D02*
X142882266Y-103039038D01*
X142882266Y-103039038D02*
X142806075Y-103000942D01*
X142463218Y-102505704D02*
X142463218Y-103305704D01*
X142120361Y-102505704D02*
X142120361Y-102924752D01*
X142120361Y-102924752D02*
X142158456Y-103000942D01*
X142158456Y-103000942D02*
X142234647Y-103039038D01*
X142234647Y-103039038D02*
X142348933Y-103039038D01*
X142348933Y-103039038D02*
X142425123Y-103000942D01*
X142425123Y-103000942D02*
X142463218Y-102962847D01*
X141739408Y-102505704D02*
X141739408Y-103305704D01*
X141472742Y-103039038D02*
X141167980Y-103039038D01*
X141358456Y-103305704D02*
X141358456Y-102619990D01*
X141358456Y-102619990D02*
X141320361Y-102543800D01*
X141320361Y-102543800D02*
X141244171Y-102505704D01*
X141244171Y-102505704D02*
X141167980Y-102505704D01*
X164805704Y-78989160D02*
X165605704Y-78989160D01*
X165605704Y-78989160D02*
X165605704Y-79179636D01*
X165605704Y-79179636D02*
X165567609Y-79293922D01*
X165567609Y-79293922D02*
X165491419Y-79370112D01*
X165491419Y-79370112D02*
X165415228Y-79408207D01*
X165415228Y-79408207D02*
X165262847Y-79446303D01*
X165262847Y-79446303D02*
X165148561Y-79446303D01*
X165148561Y-79446303D02*
X164996180Y-79408207D01*
X164996180Y-79408207D02*
X164919990Y-79370112D01*
X164919990Y-79370112D02*
X164843800Y-79293922D01*
X164843800Y-79293922D02*
X164805704Y-79179636D01*
X164805704Y-79179636D02*
X164805704Y-78989160D01*
X164805704Y-79903445D02*
X164843800Y-79827255D01*
X164843800Y-79827255D02*
X164881895Y-79789160D01*
X164881895Y-79789160D02*
X164958085Y-79751064D01*
X164958085Y-79751064D02*
X165186657Y-79751064D01*
X165186657Y-79751064D02*
X165262847Y-79789160D01*
X165262847Y-79789160D02*
X165300942Y-79827255D01*
X165300942Y-79827255D02*
X165339038Y-79903445D01*
X165339038Y-79903445D02*
X165339038Y-80017731D01*
X165339038Y-80017731D02*
X165300942Y-80093922D01*
X165300942Y-80093922D02*
X165262847Y-80132017D01*
X165262847Y-80132017D02*
X165186657Y-80170112D01*
X165186657Y-80170112D02*
X164958085Y-80170112D01*
X164958085Y-80170112D02*
X164881895Y-80132017D01*
X164881895Y-80132017D02*
X164843800Y-80093922D01*
X164843800Y-80093922D02*
X164805704Y-80017731D01*
X164805704Y-80017731D02*
X164805704Y-79903445D01*
X165339038Y-80512970D02*
X164805704Y-80512970D01*
X165262847Y-80512970D02*
X165300942Y-80551065D01*
X165300942Y-80551065D02*
X165339038Y-80627255D01*
X165339038Y-80627255D02*
X165339038Y-80741541D01*
X165339038Y-80741541D02*
X165300942Y-80817732D01*
X165300942Y-80817732D02*
X165224752Y-80855827D01*
X165224752Y-80855827D02*
X164805704Y-80855827D01*
X165339038Y-81122494D02*
X165339038Y-81427256D01*
X165605704Y-81236780D02*
X164919990Y-81236780D01*
X164919990Y-81236780D02*
X164843800Y-81274875D01*
X164843800Y-81274875D02*
X164805704Y-81351065D01*
X164805704Y-81351065D02*
X164805704Y-81427256D01*
X165605704Y-81579637D02*
X165605704Y-82036780D01*
X164805704Y-81808208D02*
X165605704Y-81808208D01*
X164805704Y-82417732D02*
X164843800Y-82341542D01*
X164843800Y-82341542D02*
X164881895Y-82303447D01*
X164881895Y-82303447D02*
X164958085Y-82265351D01*
X164958085Y-82265351D02*
X165186657Y-82265351D01*
X165186657Y-82265351D02*
X165262847Y-82303447D01*
X165262847Y-82303447D02*
X165300942Y-82341542D01*
X165300942Y-82341542D02*
X165339038Y-82417732D01*
X165339038Y-82417732D02*
X165339038Y-82532018D01*
X165339038Y-82532018D02*
X165300942Y-82608209D01*
X165300942Y-82608209D02*
X165262847Y-82646304D01*
X165262847Y-82646304D02*
X165186657Y-82684399D01*
X165186657Y-82684399D02*
X164958085Y-82684399D01*
X164958085Y-82684399D02*
X164881895Y-82646304D01*
X164881895Y-82646304D02*
X164843800Y-82608209D01*
X164843800Y-82608209D02*
X164805704Y-82532018D01*
X164805704Y-82532018D02*
X164805704Y-82417732D01*
X165339038Y-83370114D02*
X164805704Y-83370114D01*
X165339038Y-83027257D02*
X164919990Y-83027257D01*
X164919990Y-83027257D02*
X164843800Y-83065352D01*
X164843800Y-83065352D02*
X164805704Y-83141542D01*
X164805704Y-83141542D02*
X164805704Y-83255828D01*
X164805704Y-83255828D02*
X164843800Y-83332019D01*
X164843800Y-83332019D02*
X164881895Y-83370114D01*
X164843800Y-84093924D02*
X164805704Y-84017733D01*
X164805704Y-84017733D02*
X164805704Y-83865352D01*
X164805704Y-83865352D02*
X164843800Y-83789162D01*
X164843800Y-83789162D02*
X164881895Y-83751067D01*
X164881895Y-83751067D02*
X164958085Y-83712971D01*
X164958085Y-83712971D02*
X165186657Y-83712971D01*
X165186657Y-83712971D02*
X165262847Y-83751067D01*
X165262847Y-83751067D02*
X165300942Y-83789162D01*
X165300942Y-83789162D02*
X165339038Y-83865352D01*
X165339038Y-83865352D02*
X165339038Y-84017733D01*
X165339038Y-84017733D02*
X165300942Y-84093924D01*
X164805704Y-84436781D02*
X165605704Y-84436781D01*
X164805704Y-84779638D02*
X165224752Y-84779638D01*
X165224752Y-84779638D02*
X165300942Y-84741543D01*
X165300942Y-84741543D02*
X165339038Y-84665352D01*
X165339038Y-84665352D02*
X165339038Y-84551066D01*
X165339038Y-84551066D02*
X165300942Y-84474876D01*
X165300942Y-84474876D02*
X165262847Y-84436781D01*
X164805704Y-85160591D02*
X165605704Y-85160591D01*
X165339038Y-85427257D02*
X165339038Y-85732019D01*
X165605704Y-85541543D02*
X164919990Y-85541543D01*
X164919990Y-85541543D02*
X164843800Y-85579638D01*
X164843800Y-85579638D02*
X164805704Y-85655828D01*
X164805704Y-85655828D02*
X164805704Y-85732019D01*
X148594295Y-85910839D02*
X147794295Y-85910839D01*
X147794295Y-85910839D02*
X147794295Y-85720363D01*
X147794295Y-85720363D02*
X147832390Y-85606077D01*
X147832390Y-85606077D02*
X147908580Y-85529887D01*
X147908580Y-85529887D02*
X147984771Y-85491792D01*
X147984771Y-85491792D02*
X148137152Y-85453696D01*
X148137152Y-85453696D02*
X148251438Y-85453696D01*
X148251438Y-85453696D02*
X148403819Y-85491792D01*
X148403819Y-85491792D02*
X148480009Y-85529887D01*
X148480009Y-85529887D02*
X148556200Y-85606077D01*
X148556200Y-85606077D02*
X148594295Y-85720363D01*
X148594295Y-85720363D02*
X148594295Y-85910839D01*
X148594295Y-84996554D02*
X148556200Y-85072744D01*
X148556200Y-85072744D02*
X148518104Y-85110839D01*
X148518104Y-85110839D02*
X148441914Y-85148935D01*
X148441914Y-85148935D02*
X148213342Y-85148935D01*
X148213342Y-85148935D02*
X148137152Y-85110839D01*
X148137152Y-85110839D02*
X148099057Y-85072744D01*
X148099057Y-85072744D02*
X148060961Y-84996554D01*
X148060961Y-84996554D02*
X148060961Y-84882268D01*
X148060961Y-84882268D02*
X148099057Y-84806077D01*
X148099057Y-84806077D02*
X148137152Y-84767982D01*
X148137152Y-84767982D02*
X148213342Y-84729887D01*
X148213342Y-84729887D02*
X148441914Y-84729887D01*
X148441914Y-84729887D02*
X148518104Y-84767982D01*
X148518104Y-84767982D02*
X148556200Y-84806077D01*
X148556200Y-84806077D02*
X148594295Y-84882268D01*
X148594295Y-84882268D02*
X148594295Y-84996554D01*
X148060961Y-84387029D02*
X148594295Y-84387029D01*
X148137152Y-84387029D02*
X148099057Y-84348934D01*
X148099057Y-84348934D02*
X148060961Y-84272744D01*
X148060961Y-84272744D02*
X148060961Y-84158458D01*
X148060961Y-84158458D02*
X148099057Y-84082267D01*
X148099057Y-84082267D02*
X148175247Y-84044172D01*
X148175247Y-84044172D02*
X148594295Y-84044172D01*
X148060961Y-83777505D02*
X148060961Y-83472743D01*
X147794295Y-83663219D02*
X148480009Y-83663219D01*
X148480009Y-83663219D02*
X148556200Y-83625124D01*
X148556200Y-83625124D02*
X148594295Y-83548934D01*
X148594295Y-83548934D02*
X148594295Y-83472743D01*
X147794295Y-83320362D02*
X147794295Y-82863219D01*
X148594295Y-83091791D02*
X147794295Y-83091791D01*
X148594295Y-82482267D02*
X148556200Y-82558457D01*
X148556200Y-82558457D02*
X148518104Y-82596552D01*
X148518104Y-82596552D02*
X148441914Y-82634648D01*
X148441914Y-82634648D02*
X148213342Y-82634648D01*
X148213342Y-82634648D02*
X148137152Y-82596552D01*
X148137152Y-82596552D02*
X148099057Y-82558457D01*
X148099057Y-82558457D02*
X148060961Y-82482267D01*
X148060961Y-82482267D02*
X148060961Y-82367981D01*
X148060961Y-82367981D02*
X148099057Y-82291790D01*
X148099057Y-82291790D02*
X148137152Y-82253695D01*
X148137152Y-82253695D02*
X148213342Y-82215600D01*
X148213342Y-82215600D02*
X148441914Y-82215600D01*
X148441914Y-82215600D02*
X148518104Y-82253695D01*
X148518104Y-82253695D02*
X148556200Y-82291790D01*
X148556200Y-82291790D02*
X148594295Y-82367981D01*
X148594295Y-82367981D02*
X148594295Y-82482267D01*
X148060961Y-81529885D02*
X148594295Y-81529885D01*
X148060961Y-81872742D02*
X148480009Y-81872742D01*
X148480009Y-81872742D02*
X148556200Y-81834647D01*
X148556200Y-81834647D02*
X148594295Y-81758457D01*
X148594295Y-81758457D02*
X148594295Y-81644171D01*
X148594295Y-81644171D02*
X148556200Y-81567980D01*
X148556200Y-81567980D02*
X148518104Y-81529885D01*
X148556200Y-80806075D02*
X148594295Y-80882266D01*
X148594295Y-80882266D02*
X148594295Y-81034647D01*
X148594295Y-81034647D02*
X148556200Y-81110837D01*
X148556200Y-81110837D02*
X148518104Y-81148932D01*
X148518104Y-81148932D02*
X148441914Y-81187028D01*
X148441914Y-81187028D02*
X148213342Y-81187028D01*
X148213342Y-81187028D02*
X148137152Y-81148932D01*
X148137152Y-81148932D02*
X148099057Y-81110837D01*
X148099057Y-81110837D02*
X148060961Y-81034647D01*
X148060961Y-81034647D02*
X148060961Y-80882266D01*
X148060961Y-80882266D02*
X148099057Y-80806075D01*
X148594295Y-80463218D02*
X147794295Y-80463218D01*
X148594295Y-80120361D02*
X148175247Y-80120361D01*
X148175247Y-80120361D02*
X148099057Y-80158456D01*
X148099057Y-80158456D02*
X148060961Y-80234647D01*
X148060961Y-80234647D02*
X148060961Y-80348933D01*
X148060961Y-80348933D02*
X148099057Y-80425123D01*
X148099057Y-80425123D02*
X148137152Y-80463218D01*
X148594295Y-79739408D02*
X147794295Y-79739408D01*
X148060961Y-79472742D02*
X148060961Y-79167980D01*
X147794295Y-79358456D02*
X148480009Y-79358456D01*
X148480009Y-79358456D02*
X148556200Y-79320361D01*
X148556200Y-79320361D02*
X148594295Y-79244171D01*
X148594295Y-79244171D02*
X148594295Y-79167980D01*
%TO.C,U1*%
X144300595Y-77522319D02*
X144300595Y-78331842D01*
X144300595Y-78331842D02*
X144348214Y-78427080D01*
X144348214Y-78427080D02*
X144395833Y-78474700D01*
X144395833Y-78474700D02*
X144491071Y-78522319D01*
X144491071Y-78522319D02*
X144681547Y-78522319D01*
X144681547Y-78522319D02*
X144776785Y-78474700D01*
X144776785Y-78474700D02*
X144824404Y-78427080D01*
X144824404Y-78427080D02*
X144872023Y-78331842D01*
X144872023Y-78331842D02*
X144872023Y-77522319D01*
X145872023Y-78522319D02*
X145300595Y-78522319D01*
X145586309Y-78522319D02*
X145586309Y-77522319D01*
X145586309Y-77522319D02*
X145491071Y-77665176D01*
X145491071Y-77665176D02*
X145395833Y-77760414D01*
X145395833Y-77760414D02*
X145300595Y-77808033D01*
%TO.C,C3*%
X140720400Y-70706104D02*
X140682304Y-70744200D01*
X140682304Y-70744200D02*
X140568019Y-70782295D01*
X140568019Y-70782295D02*
X140491828Y-70782295D01*
X140491828Y-70782295D02*
X140377542Y-70744200D01*
X140377542Y-70744200D02*
X140301352Y-70668009D01*
X140301352Y-70668009D02*
X140263257Y-70591819D01*
X140263257Y-70591819D02*
X140225161Y-70439438D01*
X140225161Y-70439438D02*
X140225161Y-70325152D01*
X140225161Y-70325152D02*
X140263257Y-70172771D01*
X140263257Y-70172771D02*
X140301352Y-70096580D01*
X140301352Y-70096580D02*
X140377542Y-70020390D01*
X140377542Y-70020390D02*
X140491828Y-69982295D01*
X140491828Y-69982295D02*
X140568019Y-69982295D01*
X140568019Y-69982295D02*
X140682304Y-70020390D01*
X140682304Y-70020390D02*
X140720400Y-70058485D01*
X140987066Y-69982295D02*
X141482304Y-69982295D01*
X141482304Y-69982295D02*
X141215638Y-70287057D01*
X141215638Y-70287057D02*
X141329923Y-70287057D01*
X141329923Y-70287057D02*
X141406114Y-70325152D01*
X141406114Y-70325152D02*
X141444209Y-70363247D01*
X141444209Y-70363247D02*
X141482304Y-70439438D01*
X141482304Y-70439438D02*
X141482304Y-70629914D01*
X141482304Y-70629914D02*
X141444209Y-70706104D01*
X141444209Y-70706104D02*
X141406114Y-70744200D01*
X141406114Y-70744200D02*
X141329923Y-70782295D01*
X141329923Y-70782295D02*
X141101352Y-70782295D01*
X141101352Y-70782295D02*
X141025161Y-70744200D01*
X141025161Y-70744200D02*
X140987066Y-70706104D01*
%TO.C,XT1*%
X136847618Y-84362295D02*
X137380952Y-85162295D01*
X137380952Y-84362295D02*
X136847618Y-85162295D01*
X137571428Y-84362295D02*
X138028571Y-84362295D01*
X137799999Y-85162295D02*
X137799999Y-84362295D01*
X138714285Y-85162295D02*
X138257142Y-85162295D01*
X138485714Y-85162295D02*
X138485714Y-84362295D01*
X138485714Y-84362295D02*
X138409523Y-84476580D01*
X138409523Y-84476580D02*
X138333333Y-84552771D01*
X138333333Y-84552771D02*
X138257142Y-84590866D01*
%TO.C,C1*%
X148466667Y-94916104D02*
X148428571Y-94954200D01*
X148428571Y-94954200D02*
X148314286Y-94992295D01*
X148314286Y-94992295D02*
X148238095Y-94992295D01*
X148238095Y-94992295D02*
X148123809Y-94954200D01*
X148123809Y-94954200D02*
X148047619Y-94878009D01*
X148047619Y-94878009D02*
X148009524Y-94801819D01*
X148009524Y-94801819D02*
X147971428Y-94649438D01*
X147971428Y-94649438D02*
X147971428Y-94535152D01*
X147971428Y-94535152D02*
X148009524Y-94382771D01*
X148009524Y-94382771D02*
X148047619Y-94306580D01*
X148047619Y-94306580D02*
X148123809Y-94230390D01*
X148123809Y-94230390D02*
X148238095Y-94192295D01*
X148238095Y-94192295D02*
X148314286Y-94192295D01*
X148314286Y-94192295D02*
X148428571Y-94230390D01*
X148428571Y-94230390D02*
X148466667Y-94268485D01*
X149228571Y-94992295D02*
X148771428Y-94992295D01*
X149000000Y-94992295D02*
X149000000Y-94192295D01*
X149000000Y-94192295D02*
X148923809Y-94306580D01*
X148923809Y-94306580D02*
X148847619Y-94382771D01*
X148847619Y-94382771D02*
X148771428Y-94420866D01*
%TO.C,C10*%
X138085714Y-76186104D02*
X138047618Y-76224200D01*
X138047618Y-76224200D02*
X137933333Y-76262295D01*
X137933333Y-76262295D02*
X137857142Y-76262295D01*
X137857142Y-76262295D02*
X137742856Y-76224200D01*
X137742856Y-76224200D02*
X137666666Y-76148009D01*
X137666666Y-76148009D02*
X137628571Y-76071819D01*
X137628571Y-76071819D02*
X137590475Y-75919438D01*
X137590475Y-75919438D02*
X137590475Y-75805152D01*
X137590475Y-75805152D02*
X137628571Y-75652771D01*
X137628571Y-75652771D02*
X137666666Y-75576580D01*
X137666666Y-75576580D02*
X137742856Y-75500390D01*
X137742856Y-75500390D02*
X137857142Y-75462295D01*
X137857142Y-75462295D02*
X137933333Y-75462295D01*
X137933333Y-75462295D02*
X138047618Y-75500390D01*
X138047618Y-75500390D02*
X138085714Y-75538485D01*
X138847618Y-76262295D02*
X138390475Y-76262295D01*
X138619047Y-76262295D02*
X138619047Y-75462295D01*
X138619047Y-75462295D02*
X138542856Y-75576580D01*
X138542856Y-75576580D02*
X138466666Y-75652771D01*
X138466666Y-75652771D02*
X138390475Y-75690866D01*
X139342857Y-75462295D02*
X139419047Y-75462295D01*
X139419047Y-75462295D02*
X139495238Y-75500390D01*
X139495238Y-75500390D02*
X139533333Y-75538485D01*
X139533333Y-75538485D02*
X139571428Y-75614676D01*
X139571428Y-75614676D02*
X139609523Y-75767057D01*
X139609523Y-75767057D02*
X139609523Y-75957533D01*
X139609523Y-75957533D02*
X139571428Y-76109914D01*
X139571428Y-76109914D02*
X139533333Y-76186104D01*
X139533333Y-76186104D02*
X139495238Y-76224200D01*
X139495238Y-76224200D02*
X139419047Y-76262295D01*
X139419047Y-76262295D02*
X139342857Y-76262295D01*
X139342857Y-76262295D02*
X139266666Y-76224200D01*
X139266666Y-76224200D02*
X139228571Y-76186104D01*
X139228571Y-76186104D02*
X139190476Y-76109914D01*
X139190476Y-76109914D02*
X139152380Y-75957533D01*
X139152380Y-75957533D02*
X139152380Y-75767057D01*
X139152380Y-75767057D02*
X139190476Y-75614676D01*
X139190476Y-75614676D02*
X139228571Y-75538485D01*
X139228571Y-75538485D02*
X139266666Y-75500390D01*
X139266666Y-75500390D02*
X139342857Y-75462295D01*
%TO.C,C6*%
X151366667Y-88386104D02*
X151328571Y-88424200D01*
X151328571Y-88424200D02*
X151214286Y-88462295D01*
X151214286Y-88462295D02*
X151138095Y-88462295D01*
X151138095Y-88462295D02*
X151023809Y-88424200D01*
X151023809Y-88424200D02*
X150947619Y-88348009D01*
X150947619Y-88348009D02*
X150909524Y-88271819D01*
X150909524Y-88271819D02*
X150871428Y-88119438D01*
X150871428Y-88119438D02*
X150871428Y-88005152D01*
X150871428Y-88005152D02*
X150909524Y-87852771D01*
X150909524Y-87852771D02*
X150947619Y-87776580D01*
X150947619Y-87776580D02*
X151023809Y-87700390D01*
X151023809Y-87700390D02*
X151138095Y-87662295D01*
X151138095Y-87662295D02*
X151214286Y-87662295D01*
X151214286Y-87662295D02*
X151328571Y-87700390D01*
X151328571Y-87700390D02*
X151366667Y-87738485D01*
X152052381Y-87662295D02*
X151900000Y-87662295D01*
X151900000Y-87662295D02*
X151823809Y-87700390D01*
X151823809Y-87700390D02*
X151785714Y-87738485D01*
X151785714Y-87738485D02*
X151709524Y-87852771D01*
X151709524Y-87852771D02*
X151671428Y-88005152D01*
X151671428Y-88005152D02*
X151671428Y-88309914D01*
X151671428Y-88309914D02*
X151709524Y-88386104D01*
X151709524Y-88386104D02*
X151747619Y-88424200D01*
X151747619Y-88424200D02*
X151823809Y-88462295D01*
X151823809Y-88462295D02*
X151976190Y-88462295D01*
X151976190Y-88462295D02*
X152052381Y-88424200D01*
X152052381Y-88424200D02*
X152090476Y-88386104D01*
X152090476Y-88386104D02*
X152128571Y-88309914D01*
X152128571Y-88309914D02*
X152128571Y-88119438D01*
X152128571Y-88119438D02*
X152090476Y-88043247D01*
X152090476Y-88043247D02*
X152052381Y-88005152D01*
X152052381Y-88005152D02*
X151976190Y-87967057D01*
X151976190Y-87967057D02*
X151823809Y-87967057D01*
X151823809Y-87967057D02*
X151747619Y-88005152D01*
X151747619Y-88005152D02*
X151709524Y-88043247D01*
X151709524Y-88043247D02*
X151671428Y-88119438D01*
%TO.C,C2*%
X157186104Y-79123332D02*
X157224200Y-79161428D01*
X157224200Y-79161428D02*
X157262295Y-79275713D01*
X157262295Y-79275713D02*
X157262295Y-79351904D01*
X157262295Y-79351904D02*
X157224200Y-79466190D01*
X157224200Y-79466190D02*
X157148009Y-79542380D01*
X157148009Y-79542380D02*
X157071819Y-79580475D01*
X157071819Y-79580475D02*
X156919438Y-79618571D01*
X156919438Y-79618571D02*
X156805152Y-79618571D01*
X156805152Y-79618571D02*
X156652771Y-79580475D01*
X156652771Y-79580475D02*
X156576580Y-79542380D01*
X156576580Y-79542380D02*
X156500390Y-79466190D01*
X156500390Y-79466190D02*
X156462295Y-79351904D01*
X156462295Y-79351904D02*
X156462295Y-79275713D01*
X156462295Y-79275713D02*
X156500390Y-79161428D01*
X156500390Y-79161428D02*
X156538485Y-79123332D01*
X156538485Y-78818571D02*
X156500390Y-78780475D01*
X156500390Y-78780475D02*
X156462295Y-78704285D01*
X156462295Y-78704285D02*
X156462295Y-78513809D01*
X156462295Y-78513809D02*
X156500390Y-78437618D01*
X156500390Y-78437618D02*
X156538485Y-78399523D01*
X156538485Y-78399523D02*
X156614676Y-78361428D01*
X156614676Y-78361428D02*
X156690866Y-78361428D01*
X156690866Y-78361428D02*
X156805152Y-78399523D01*
X156805152Y-78399523D02*
X157262295Y-78856666D01*
X157262295Y-78856666D02*
X157262295Y-78361428D01*
%TO.C,C4*%
X138766667Y-89686104D02*
X138728571Y-89724200D01*
X138728571Y-89724200D02*
X138614286Y-89762295D01*
X138614286Y-89762295D02*
X138538095Y-89762295D01*
X138538095Y-89762295D02*
X138423809Y-89724200D01*
X138423809Y-89724200D02*
X138347619Y-89648009D01*
X138347619Y-89648009D02*
X138309524Y-89571819D01*
X138309524Y-89571819D02*
X138271428Y-89419438D01*
X138271428Y-89419438D02*
X138271428Y-89305152D01*
X138271428Y-89305152D02*
X138309524Y-89152771D01*
X138309524Y-89152771D02*
X138347619Y-89076580D01*
X138347619Y-89076580D02*
X138423809Y-89000390D01*
X138423809Y-89000390D02*
X138538095Y-88962295D01*
X138538095Y-88962295D02*
X138614286Y-88962295D01*
X138614286Y-88962295D02*
X138728571Y-89000390D01*
X138728571Y-89000390D02*
X138766667Y-89038485D01*
X139452381Y-89228961D02*
X139452381Y-89762295D01*
X139261905Y-88924200D02*
X139071428Y-89495628D01*
X139071428Y-89495628D02*
X139566667Y-89495628D01*
%TO.C,C5*%
X150766667Y-89586104D02*
X150728571Y-89624200D01*
X150728571Y-89624200D02*
X150614286Y-89662295D01*
X150614286Y-89662295D02*
X150538095Y-89662295D01*
X150538095Y-89662295D02*
X150423809Y-89624200D01*
X150423809Y-89624200D02*
X150347619Y-89548009D01*
X150347619Y-89548009D02*
X150309524Y-89471819D01*
X150309524Y-89471819D02*
X150271428Y-89319438D01*
X150271428Y-89319438D02*
X150271428Y-89205152D01*
X150271428Y-89205152D02*
X150309524Y-89052771D01*
X150309524Y-89052771D02*
X150347619Y-88976580D01*
X150347619Y-88976580D02*
X150423809Y-88900390D01*
X150423809Y-88900390D02*
X150538095Y-88862295D01*
X150538095Y-88862295D02*
X150614286Y-88862295D01*
X150614286Y-88862295D02*
X150728571Y-88900390D01*
X150728571Y-88900390D02*
X150766667Y-88938485D01*
X151490476Y-88862295D02*
X151109524Y-88862295D01*
X151109524Y-88862295D02*
X151071428Y-89243247D01*
X151071428Y-89243247D02*
X151109524Y-89205152D01*
X151109524Y-89205152D02*
X151185714Y-89167057D01*
X151185714Y-89167057D02*
X151376190Y-89167057D01*
X151376190Y-89167057D02*
X151452381Y-89205152D01*
X151452381Y-89205152D02*
X151490476Y-89243247D01*
X151490476Y-89243247D02*
X151528571Y-89319438D01*
X151528571Y-89319438D02*
X151528571Y-89509914D01*
X151528571Y-89509914D02*
X151490476Y-89586104D01*
X151490476Y-89586104D02*
X151452381Y-89624200D01*
X151452381Y-89624200D02*
X151376190Y-89662295D01*
X151376190Y-89662295D02*
X151185714Y-89662295D01*
X151185714Y-89662295D02*
X151109524Y-89624200D01*
X151109524Y-89624200D02*
X151071428Y-89586104D01*
%TO.C,R2*%
X136766667Y-83862295D02*
X136500000Y-83481342D01*
X136309524Y-83862295D02*
X136309524Y-83062295D01*
X136309524Y-83062295D02*
X136614286Y-83062295D01*
X136614286Y-83062295D02*
X136690476Y-83100390D01*
X136690476Y-83100390D02*
X136728571Y-83138485D01*
X136728571Y-83138485D02*
X136766667Y-83214676D01*
X136766667Y-83214676D02*
X136766667Y-83328961D01*
X136766667Y-83328961D02*
X136728571Y-83405152D01*
X136728571Y-83405152D02*
X136690476Y-83443247D01*
X136690476Y-83443247D02*
X136614286Y-83481342D01*
X136614286Y-83481342D02*
X136309524Y-83481342D01*
X137071428Y-83138485D02*
X137109524Y-83100390D01*
X137109524Y-83100390D02*
X137185714Y-83062295D01*
X137185714Y-83062295D02*
X137376190Y-83062295D01*
X137376190Y-83062295D02*
X137452381Y-83100390D01*
X137452381Y-83100390D02*
X137490476Y-83138485D01*
X137490476Y-83138485D02*
X137528571Y-83214676D01*
X137528571Y-83214676D02*
X137528571Y-83290866D01*
X137528571Y-83290866D02*
X137490476Y-83405152D01*
X137490476Y-83405152D02*
X137033333Y-83862295D01*
X137033333Y-83862295D02*
X137528571Y-83862295D01*
%TO.C,U2*%
X137262295Y-89009523D02*
X137909914Y-89009523D01*
X137909914Y-89009523D02*
X137986104Y-88971428D01*
X137986104Y-88971428D02*
X138024200Y-88933333D01*
X138024200Y-88933333D02*
X138062295Y-88857142D01*
X138062295Y-88857142D02*
X138062295Y-88704761D01*
X138062295Y-88704761D02*
X138024200Y-88628571D01*
X138024200Y-88628571D02*
X137986104Y-88590476D01*
X137986104Y-88590476D02*
X137909914Y-88552380D01*
X137909914Y-88552380D02*
X137262295Y-88552380D01*
X137338485Y-88209524D02*
X137300390Y-88171428D01*
X137300390Y-88171428D02*
X137262295Y-88095238D01*
X137262295Y-88095238D02*
X137262295Y-87904762D01*
X137262295Y-87904762D02*
X137300390Y-87828571D01*
X137300390Y-87828571D02*
X137338485Y-87790476D01*
X137338485Y-87790476D02*
X137414676Y-87752381D01*
X137414676Y-87752381D02*
X137490866Y-87752381D01*
X137490866Y-87752381D02*
X137605152Y-87790476D01*
X137605152Y-87790476D02*
X138062295Y-88247619D01*
X138062295Y-88247619D02*
X138062295Y-87752381D01*
%TO.C,C8*%
X150566667Y-75986104D02*
X150528571Y-76024200D01*
X150528571Y-76024200D02*
X150414286Y-76062295D01*
X150414286Y-76062295D02*
X150338095Y-76062295D01*
X150338095Y-76062295D02*
X150223809Y-76024200D01*
X150223809Y-76024200D02*
X150147619Y-75948009D01*
X150147619Y-75948009D02*
X150109524Y-75871819D01*
X150109524Y-75871819D02*
X150071428Y-75719438D01*
X150071428Y-75719438D02*
X150071428Y-75605152D01*
X150071428Y-75605152D02*
X150109524Y-75452771D01*
X150109524Y-75452771D02*
X150147619Y-75376580D01*
X150147619Y-75376580D02*
X150223809Y-75300390D01*
X150223809Y-75300390D02*
X150338095Y-75262295D01*
X150338095Y-75262295D02*
X150414286Y-75262295D01*
X150414286Y-75262295D02*
X150528571Y-75300390D01*
X150528571Y-75300390D02*
X150566667Y-75338485D01*
X151023809Y-75605152D02*
X150947619Y-75567057D01*
X150947619Y-75567057D02*
X150909524Y-75528961D01*
X150909524Y-75528961D02*
X150871428Y-75452771D01*
X150871428Y-75452771D02*
X150871428Y-75414676D01*
X150871428Y-75414676D02*
X150909524Y-75338485D01*
X150909524Y-75338485D02*
X150947619Y-75300390D01*
X150947619Y-75300390D02*
X151023809Y-75262295D01*
X151023809Y-75262295D02*
X151176190Y-75262295D01*
X151176190Y-75262295D02*
X151252381Y-75300390D01*
X151252381Y-75300390D02*
X151290476Y-75338485D01*
X151290476Y-75338485D02*
X151328571Y-75414676D01*
X151328571Y-75414676D02*
X151328571Y-75452771D01*
X151328571Y-75452771D02*
X151290476Y-75528961D01*
X151290476Y-75528961D02*
X151252381Y-75567057D01*
X151252381Y-75567057D02*
X151176190Y-75605152D01*
X151176190Y-75605152D02*
X151023809Y-75605152D01*
X151023809Y-75605152D02*
X150947619Y-75643247D01*
X150947619Y-75643247D02*
X150909524Y-75681342D01*
X150909524Y-75681342D02*
X150871428Y-75757533D01*
X150871428Y-75757533D02*
X150871428Y-75909914D01*
X150871428Y-75909914D02*
X150909524Y-75986104D01*
X150909524Y-75986104D02*
X150947619Y-76024200D01*
X150947619Y-76024200D02*
X151023809Y-76062295D01*
X151023809Y-76062295D02*
X151176190Y-76062295D01*
X151176190Y-76062295D02*
X151252381Y-76024200D01*
X151252381Y-76024200D02*
X151290476Y-75986104D01*
X151290476Y-75986104D02*
X151328571Y-75909914D01*
X151328571Y-75909914D02*
X151328571Y-75757533D01*
X151328571Y-75757533D02*
X151290476Y-75681342D01*
X151290476Y-75681342D02*
X151252381Y-75643247D01*
X151252381Y-75643247D02*
X151176190Y-75605152D01*
%TO.C,C11*%
X147086104Y-87614285D02*
X147124200Y-87652381D01*
X147124200Y-87652381D02*
X147162295Y-87766666D01*
X147162295Y-87766666D02*
X147162295Y-87842857D01*
X147162295Y-87842857D02*
X147124200Y-87957143D01*
X147124200Y-87957143D02*
X147048009Y-88033333D01*
X147048009Y-88033333D02*
X146971819Y-88071428D01*
X146971819Y-88071428D02*
X146819438Y-88109524D01*
X146819438Y-88109524D02*
X146705152Y-88109524D01*
X146705152Y-88109524D02*
X146552771Y-88071428D01*
X146552771Y-88071428D02*
X146476580Y-88033333D01*
X146476580Y-88033333D02*
X146400390Y-87957143D01*
X146400390Y-87957143D02*
X146362295Y-87842857D01*
X146362295Y-87842857D02*
X146362295Y-87766666D01*
X146362295Y-87766666D02*
X146400390Y-87652381D01*
X146400390Y-87652381D02*
X146438485Y-87614285D01*
X147162295Y-86852381D02*
X147162295Y-87309524D01*
X147162295Y-87080952D02*
X146362295Y-87080952D01*
X146362295Y-87080952D02*
X146476580Y-87157143D01*
X146476580Y-87157143D02*
X146552771Y-87233333D01*
X146552771Y-87233333D02*
X146590866Y-87309524D01*
X147162295Y-86090476D02*
X147162295Y-86547619D01*
X147162295Y-86319047D02*
X146362295Y-86319047D01*
X146362295Y-86319047D02*
X146476580Y-86395238D01*
X146476580Y-86395238D02*
X146552771Y-86471428D01*
X146552771Y-86471428D02*
X146590866Y-86547619D01*
%TO.C,C9*%
X139079167Y-79323604D02*
X139041071Y-79361700D01*
X139041071Y-79361700D02*
X138926786Y-79399795D01*
X138926786Y-79399795D02*
X138850595Y-79399795D01*
X138850595Y-79399795D02*
X138736309Y-79361700D01*
X138736309Y-79361700D02*
X138660119Y-79285509D01*
X138660119Y-79285509D02*
X138622024Y-79209319D01*
X138622024Y-79209319D02*
X138583928Y-79056938D01*
X138583928Y-79056938D02*
X138583928Y-78942652D01*
X138583928Y-78942652D02*
X138622024Y-78790271D01*
X138622024Y-78790271D02*
X138660119Y-78714080D01*
X138660119Y-78714080D02*
X138736309Y-78637890D01*
X138736309Y-78637890D02*
X138850595Y-78599795D01*
X138850595Y-78599795D02*
X138926786Y-78599795D01*
X138926786Y-78599795D02*
X139041071Y-78637890D01*
X139041071Y-78637890D02*
X139079167Y-78675985D01*
X139460119Y-79399795D02*
X139612500Y-79399795D01*
X139612500Y-79399795D02*
X139688690Y-79361700D01*
X139688690Y-79361700D02*
X139726786Y-79323604D01*
X139726786Y-79323604D02*
X139802976Y-79209319D01*
X139802976Y-79209319D02*
X139841071Y-79056938D01*
X139841071Y-79056938D02*
X139841071Y-78752176D01*
X139841071Y-78752176D02*
X139802976Y-78675985D01*
X139802976Y-78675985D02*
X139764881Y-78637890D01*
X139764881Y-78637890D02*
X139688690Y-78599795D01*
X139688690Y-78599795D02*
X139536309Y-78599795D01*
X139536309Y-78599795D02*
X139460119Y-78637890D01*
X139460119Y-78637890D02*
X139422024Y-78675985D01*
X139422024Y-78675985D02*
X139383928Y-78752176D01*
X139383928Y-78752176D02*
X139383928Y-78942652D01*
X139383928Y-78942652D02*
X139422024Y-79018842D01*
X139422024Y-79018842D02*
X139460119Y-79056938D01*
X139460119Y-79056938D02*
X139536309Y-79095033D01*
X139536309Y-79095033D02*
X139688690Y-79095033D01*
X139688690Y-79095033D02*
X139764881Y-79056938D01*
X139764881Y-79056938D02*
X139802976Y-79018842D01*
X139802976Y-79018842D02*
X139841071Y-78942652D01*
%TO.C,C13*%
X141385714Y-84986104D02*
X141347618Y-85024200D01*
X141347618Y-85024200D02*
X141233333Y-85062295D01*
X141233333Y-85062295D02*
X141157142Y-85062295D01*
X141157142Y-85062295D02*
X141042856Y-85024200D01*
X141042856Y-85024200D02*
X140966666Y-84948009D01*
X140966666Y-84948009D02*
X140928571Y-84871819D01*
X140928571Y-84871819D02*
X140890475Y-84719438D01*
X140890475Y-84719438D02*
X140890475Y-84605152D01*
X140890475Y-84605152D02*
X140928571Y-84452771D01*
X140928571Y-84452771D02*
X140966666Y-84376580D01*
X140966666Y-84376580D02*
X141042856Y-84300390D01*
X141042856Y-84300390D02*
X141157142Y-84262295D01*
X141157142Y-84262295D02*
X141233333Y-84262295D01*
X141233333Y-84262295D02*
X141347618Y-84300390D01*
X141347618Y-84300390D02*
X141385714Y-84338485D01*
X142147618Y-85062295D02*
X141690475Y-85062295D01*
X141919047Y-85062295D02*
X141919047Y-84262295D01*
X141919047Y-84262295D02*
X141842856Y-84376580D01*
X141842856Y-84376580D02*
X141766666Y-84452771D01*
X141766666Y-84452771D02*
X141690475Y-84490866D01*
X142414285Y-84262295D02*
X142909523Y-84262295D01*
X142909523Y-84262295D02*
X142642857Y-84567057D01*
X142642857Y-84567057D02*
X142757142Y-84567057D01*
X142757142Y-84567057D02*
X142833333Y-84605152D01*
X142833333Y-84605152D02*
X142871428Y-84643247D01*
X142871428Y-84643247D02*
X142909523Y-84719438D01*
X142909523Y-84719438D02*
X142909523Y-84909914D01*
X142909523Y-84909914D02*
X142871428Y-84986104D01*
X142871428Y-84986104D02*
X142833333Y-85024200D01*
X142833333Y-85024200D02*
X142757142Y-85062295D01*
X142757142Y-85062295D02*
X142528571Y-85062295D01*
X142528571Y-85062295D02*
X142452380Y-85024200D01*
X142452380Y-85024200D02*
X142414285Y-84986104D01*
%TO.C,R1*%
X136666667Y-79262295D02*
X136400000Y-78881342D01*
X136209524Y-79262295D02*
X136209524Y-78462295D01*
X136209524Y-78462295D02*
X136514286Y-78462295D01*
X136514286Y-78462295D02*
X136590476Y-78500390D01*
X136590476Y-78500390D02*
X136628571Y-78538485D01*
X136628571Y-78538485D02*
X136666667Y-78614676D01*
X136666667Y-78614676D02*
X136666667Y-78728961D01*
X136666667Y-78728961D02*
X136628571Y-78805152D01*
X136628571Y-78805152D02*
X136590476Y-78843247D01*
X136590476Y-78843247D02*
X136514286Y-78881342D01*
X136514286Y-78881342D02*
X136209524Y-78881342D01*
X137428571Y-79262295D02*
X136971428Y-79262295D01*
X137200000Y-79262295D02*
X137200000Y-78462295D01*
X137200000Y-78462295D02*
X137123809Y-78576580D01*
X137123809Y-78576580D02*
X137047619Y-78652771D01*
X137047619Y-78652771D02*
X136971428Y-78690866D01*
%TO.C,C7*%
X151066667Y-77186104D02*
X151028571Y-77224200D01*
X151028571Y-77224200D02*
X150914286Y-77262295D01*
X150914286Y-77262295D02*
X150838095Y-77262295D01*
X150838095Y-77262295D02*
X150723809Y-77224200D01*
X150723809Y-77224200D02*
X150647619Y-77148009D01*
X150647619Y-77148009D02*
X150609524Y-77071819D01*
X150609524Y-77071819D02*
X150571428Y-76919438D01*
X150571428Y-76919438D02*
X150571428Y-76805152D01*
X150571428Y-76805152D02*
X150609524Y-76652771D01*
X150609524Y-76652771D02*
X150647619Y-76576580D01*
X150647619Y-76576580D02*
X150723809Y-76500390D01*
X150723809Y-76500390D02*
X150838095Y-76462295D01*
X150838095Y-76462295D02*
X150914286Y-76462295D01*
X150914286Y-76462295D02*
X151028571Y-76500390D01*
X151028571Y-76500390D02*
X151066667Y-76538485D01*
X151333333Y-76462295D02*
X151866667Y-76462295D01*
X151866667Y-76462295D02*
X151523809Y-77262295D01*
%TO.C,C12*%
X147086104Y-85314285D02*
X147124200Y-85352381D01*
X147124200Y-85352381D02*
X147162295Y-85466666D01*
X147162295Y-85466666D02*
X147162295Y-85542857D01*
X147162295Y-85542857D02*
X147124200Y-85657143D01*
X147124200Y-85657143D02*
X147048009Y-85733333D01*
X147048009Y-85733333D02*
X146971819Y-85771428D01*
X146971819Y-85771428D02*
X146819438Y-85809524D01*
X146819438Y-85809524D02*
X146705152Y-85809524D01*
X146705152Y-85809524D02*
X146552771Y-85771428D01*
X146552771Y-85771428D02*
X146476580Y-85733333D01*
X146476580Y-85733333D02*
X146400390Y-85657143D01*
X146400390Y-85657143D02*
X146362295Y-85542857D01*
X146362295Y-85542857D02*
X146362295Y-85466666D01*
X146362295Y-85466666D02*
X146400390Y-85352381D01*
X146400390Y-85352381D02*
X146438485Y-85314285D01*
X147162295Y-84552381D02*
X147162295Y-85009524D01*
X147162295Y-84780952D02*
X146362295Y-84780952D01*
X146362295Y-84780952D02*
X146476580Y-84857143D01*
X146476580Y-84857143D02*
X146552771Y-84933333D01*
X146552771Y-84933333D02*
X146590866Y-85009524D01*
X146438485Y-84247619D02*
X146400390Y-84209523D01*
X146400390Y-84209523D02*
X146362295Y-84133333D01*
X146362295Y-84133333D02*
X146362295Y-83942857D01*
X146362295Y-83942857D02*
X146400390Y-83866666D01*
X146400390Y-83866666D02*
X146438485Y-83828571D01*
X146438485Y-83828571D02*
X146514676Y-83790476D01*
X146514676Y-83790476D02*
X146590866Y-83790476D01*
X146590866Y-83790476D02*
X146705152Y-83828571D01*
X146705152Y-83828571D02*
X147162295Y-84285714D01*
X147162295Y-84285714D02*
X147162295Y-83790476D01*
D11*
%TO.C,U1*%
X142952500Y-83497500D02*
X142952500Y-82522500D01*
X143927500Y-79277500D02*
X142952500Y-79277500D01*
X143927500Y-83497500D02*
X142952500Y-83497500D01*
X146197500Y-79277500D02*
X147172500Y-79277500D01*
X146197500Y-83497500D02*
X147172500Y-83497500D01*
X147172500Y-79277500D02*
X147172500Y-80252500D01*
X147172500Y-83497500D02*
X147172500Y-82522500D01*
%TO.C,C3*%
X140853733Y-71340000D02*
X141146267Y-71340000D01*
X140853733Y-72360000D02*
X141146267Y-72360000D01*
%TO.C,XT1*%
X138752500Y-84247500D02*
X138752500Y-81637500D01*
X139292500Y-84247500D02*
X138752500Y-84247500D01*
X142172500Y-81647500D02*
X142172500Y-83927500D01*
%TO.C,C1*%
X148746267Y-93710000D02*
X148453733Y-93710000D01*
X148746267Y-92690000D02*
X148453733Y-92690000D01*
%TO.C,C10*%
X141546267Y-76510000D02*
X141253733Y-76510000D01*
X141546267Y-75490000D02*
X141253733Y-75490000D01*
%TO.C,C6*%
X151710000Y-85853733D02*
X151710000Y-86146267D01*
X150690000Y-85853733D02*
X150690000Y-86146267D01*
%TO.C,C2*%
X155910000Y-78593733D02*
X155910000Y-78886267D01*
X154890000Y-78593733D02*
X154890000Y-78886267D01*
%TO.C,C4*%
X141546267Y-89710000D02*
X141253733Y-89710000D01*
X141546267Y-88690000D02*
X141253733Y-88690000D01*
%TO.C,C5*%
X148253733Y-88490000D02*
X148546267Y-88490000D01*
X148253733Y-89510000D02*
X148546267Y-89510000D01*
%TO.C,R2*%
X137054724Y-82622500D02*
X136545276Y-82622500D01*
X137054724Y-81577500D02*
X136545276Y-81577500D01*
%TO.C,U2*%
X137500000Y-85600000D02*
X139050000Y-85600000D01*
X139050000Y-87400000D02*
X137750000Y-87400000D01*
%TO.C,C8*%
X148153733Y-75490000D02*
X148446267Y-75490000D01*
X148153733Y-76510000D02*
X148446267Y-76510000D01*
%TO.C,C11*%
X145972500Y-85641233D02*
X145972500Y-85933767D01*
X144952500Y-85641233D02*
X144952500Y-85933767D01*
%TO.C,C9*%
X140316233Y-79777500D02*
X140608767Y-79777500D01*
X140316233Y-80797500D02*
X140608767Y-80797500D01*
%TO.C,C13*%
X142810000Y-86553733D02*
X142810000Y-86846267D01*
X141790000Y-86553733D02*
X141790000Y-86846267D01*
%TO.C,R1*%
X137054724Y-80822500D02*
X136545276Y-80822500D01*
X137054724Y-79777500D02*
X136545276Y-79777500D01*
%TO.C,C7*%
X150690000Y-79246267D02*
X150690000Y-78953733D01*
X151710000Y-79246267D02*
X151710000Y-78953733D01*
%TO.C,C12*%
X144472500Y-85641233D02*
X144472500Y-85933767D01*
X143452500Y-85641233D02*
X143452500Y-85933767D01*
%TD*%
M02*
