%TF.GenerationSoftware,KiCad,Pcbnew,6.0.10-86aedd382b~118~ubuntu22.04.1*%
%TF.CreationDate,2023-04-06T19:24:05+02:00*%
%TF.ProjectId,donttouchit,646f6e74-746f-4756-9368-69742e6b6963,rev?*%
%TF.SameCoordinates,Original*%
%TF.FileFunction,Soldermask,Top*%
%TF.FilePolarity,Negative*%
%FSLAX46Y46*%
G04 Gerber Fmt 4.6, Leading zero omitted, Abs format (unit mm)*
G04 Created by KiCad (PCBNEW 6.0.10-86aedd382b~118~ubuntu22.04.1) date 2023-04-06 19:24:05*
%MOMM*%
%LPD*%
G01*
G04 APERTURE LIST*
G04 Aperture macros list*
%AMRoundRect*
0 Rectangle with rounded corners*
0 $1 Rounding radius*
0 $2 $3 $4 $5 $6 $7 $8 $9 X,Y pos of 4 corners*
0 Add a 4 corners polygon primitive as box body*
4,1,4,$2,$3,$4,$5,$6,$7,$8,$9,$2,$3,0*
0 Add four circle primitives for the rounded corners*
1,1,$1+$1,$2,$3*
1,1,$1+$1,$4,$5*
1,1,$1+$1,$6,$7*
1,1,$1+$1,$8,$9*
0 Add four rect primitives between the rounded corners*
20,1,$1+$1,$2,$3,$4,$5,0*
20,1,$1+$1,$4,$5,$6,$7,0*
20,1,$1+$1,$6,$7,$8,$9,0*
20,1,$1+$1,$8,$9,$2,$3,0*%
G04 Aperture macros list end*
%ADD10RoundRect,0.250000X0.250000X0.500000X-0.250000X0.500000X-0.250000X-0.500000X0.250000X-0.500000X0*%
%ADD11RoundRect,0.250000X0.500000X-0.250000X0.500000X0.250000X-0.500000X0.250000X-0.500000X-0.250000X0*%
%ADD12RoundRect,0.250000X-0.250000X-0.500000X0.250000X-0.500000X0.250000X0.500000X-0.250000X0.500000X0*%
%ADD13RoundRect,0.250000X0.250000X0.750000X-0.250000X0.750000X-0.250000X-0.750000X0.250000X-0.750000X0*%
%ADD14RoundRect,0.250000X0.750000X-0.250000X0.750000X0.250000X-0.750000X0.250000X-0.750000X-0.250000X0*%
%ADD15RoundRect,0.250000X-0.250000X-0.750000X0.250000X-0.750000X0.250000X0.750000X-0.250000X0.750000X0*%
%ADD16R,1.500000X1.500000*%
%ADD17RoundRect,0.237500X-0.300000X-0.237500X0.300000X-0.237500X0.300000X0.237500X-0.300000X0.237500X0*%
%ADD18R,2.600000X2.600000*%
%ADD19RoundRect,0.062500X-0.062500X-0.375000X0.062500X-0.375000X0.062500X0.375000X-0.062500X0.375000X0*%
%ADD20RoundRect,0.062500X-0.375000X-0.062500X0.375000X-0.062500X0.375000X0.062500X-0.375000X0.062500X0*%
%ADD21R,1.050000X0.950000*%
%ADD22RoundRect,0.237500X0.300000X0.237500X-0.300000X0.237500X-0.300000X-0.237500X0.300000X-0.237500X0*%
%ADD23RoundRect,0.237500X-0.237500X0.300000X-0.237500X-0.300000X0.237500X-0.300000X0.237500X0.300000X0*%
%ADD24RoundRect,0.237500X0.237500X-0.300000X0.237500X0.300000X-0.237500X0.300000X-0.237500X-0.300000X0*%
G04 APERTURE END LIST*
D10*
%TO.C,J3*%
X144262000Y-73700000D03*
X142738000Y-73700000D03*
%TD*%
D11*
%TO.C,J2*%
X152300000Y-83262000D03*
X152300000Y-81738000D03*
%TD*%
D12*
%TO.C,J1*%
X142738000Y-91300000D03*
X144262000Y-91300000D03*
%TD*%
D13*
%TO.C,J9*%
X144262000Y-70350000D03*
X142738000Y-70350000D03*
%TD*%
D14*
%TO.C,J8*%
X155650000Y-83262000D03*
X155650000Y-81738000D03*
%TD*%
D15*
%TO.C,J7*%
X142738000Y-94650000D03*
X144262000Y-94650000D03*
%TD*%
D16*
%TO.C,TP14*%
X140500000Y-77000000D03*
%TD*%
%TO.C,TP13*%
X143000000Y-77000000D03*
%TD*%
%TO.C,TP19*%
X151500000Y-90500000D03*
%TD*%
%TO.C,TP18*%
X151500000Y-74500000D03*
%TD*%
%TO.C,TP17*%
X135500000Y-90500000D03*
%TD*%
%TO.C,TP16*%
X135500000Y-74500000D03*
%TD*%
%TO.C,TP15*%
X148000000Y-84250000D03*
%TD*%
%TO.C,TP12*%
X151500000Y-80000000D03*
%TD*%
%TO.C,TP11*%
X151500000Y-85000000D03*
%TD*%
%TO.C,TP10*%
X146000000Y-90500000D03*
%TD*%
%TO.C,TP9*%
X141000000Y-90500000D03*
%TD*%
%TO.C,TP8*%
X141000000Y-69500000D03*
%TD*%
%TO.C,TP7*%
X146000000Y-74500000D03*
%TD*%
%TO.C,TP6*%
X141000000Y-74500000D03*
%TD*%
%TO.C,TP5*%
X146000000Y-69500000D03*
%TD*%
%TO.C,TP4*%
X156500000Y-80000000D03*
%TD*%
%TO.C,TP3*%
X156500000Y-85000000D03*
%TD*%
%TO.C,TP2*%
X146000000Y-95500000D03*
%TD*%
%TO.C,TP1*%
X141000000Y-95500000D03*
%TD*%
D17*
%TO.C,C5*%
X148137500Y-90500000D03*
X149862500Y-90500000D03*
%TD*%
D18*
%TO.C,U1*%
X143850000Y-80850000D03*
D19*
X143100000Y-78912500D03*
X143600000Y-78912500D03*
X144100000Y-78912500D03*
X144600000Y-78912500D03*
D20*
X145787500Y-80100000D03*
X145787500Y-80600000D03*
X145787500Y-81100000D03*
X145787500Y-81600000D03*
D19*
X144600000Y-82787500D03*
X144100000Y-82787500D03*
X143600000Y-82787500D03*
X143100000Y-82787500D03*
D20*
X141912500Y-81600000D03*
X141912500Y-81100000D03*
X141912500Y-80600000D03*
X141912500Y-80100000D03*
%TD*%
D17*
%TO.C,C3*%
X144362500Y-68850000D03*
X142637500Y-68850000D03*
%TD*%
D21*
%TO.C,XT1*%
X138325000Y-82975000D03*
X140175000Y-82975000D03*
X140175000Y-81525000D03*
X138325000Y-81525000D03*
%TD*%
D22*
%TO.C,C1*%
X144362500Y-96150000D03*
X142637500Y-96150000D03*
%TD*%
%TO.C,C10*%
X137137500Y-74500000D03*
X138862500Y-74500000D03*
%TD*%
D23*
%TO.C,C6*%
X151500000Y-87137500D03*
X151500000Y-88862500D03*
%TD*%
%TO.C,C2*%
X157150000Y-81637500D03*
X157150000Y-83362500D03*
%TD*%
D22*
%TO.C,C4*%
X138862500Y-90500000D03*
X137137500Y-90500000D03*
%TD*%
D17*
%TO.C,C8*%
X148137500Y-74500000D03*
X149862500Y-74500000D03*
%TD*%
D23*
%TO.C,C11*%
X144250000Y-86112500D03*
X144250000Y-84387500D03*
%TD*%
D17*
%TO.C,C9*%
X138387500Y-79750000D03*
X140112500Y-79750000D03*
%TD*%
D24*
%TO.C,C7*%
X151500000Y-77862500D03*
X151500000Y-76137500D03*
%TD*%
D23*
%TO.C,C12*%
X142750000Y-84387500D03*
X142750000Y-86112500D03*
%TD*%
M02*
